<mxfile host="app.diagrams.net" modified="2023-12-04T15:10:59.398Z" agent="Mozilla/5.0 (Macintosh; Intel Mac OS X 10_15_7) AppleWebKit/537.36 (KHTML, like Gecko) Chrome/119.0.0.0 Safari/537.36" etag="K4FdjLHGD2hstE9pUVR_" version="22.1.5" type="github">
  <diagram name="第 1 页" id="KIgSkonVb1hFCYbE4Fb7">
    <mxGraphModel dx="4353" dy="147" grid="0" gridSize="10" guides="1" tooltips="1" connect="1" arrows="1" fold="1" page="1" pageScale="1" pageWidth="1920" pageHeight="1200" math="0" shadow="0">
      <root>
        <mxCell id="0" />
        <mxCell id="1" parent="0" />
        <mxCell id="HFhVBa8pgToSCw-MW2Z3-1" value="" style="shape=image;verticalLabelPosition=bottom;labelBackgroundColor=default;verticalAlign=top;aspect=fixed;imageAspect=0;image=data:image/png,iVBORw0KGgoAAAANSUhEUgAAB2QAAAJCCAYAAAAfs3fVAAAMa2lDQ1BJQ0MgUHJvZmlsZQAASImVVwdYU8kWnluSkJDQAhGQEnoTpFcpIbQAAlIFGyEJJJQYE4KKDcuigmsXEazoqoiiawFkURF7WRR7XyyoKOtiQVFU3oQEdN1Xvne+b+7898yZ/5Q7c+8dADR7uRJJLqoFQJ44XxofHswcm5rGJD0DZGAI9AAGXLg8mYQVFxcNoAz2f5f3NwCi6K86Krj+Of5fRYcvkPEAQMZDnMGX8fIgbgYAX8+TSPMBICr0FlPzJQpcBLGuFAYI8WoFzlLinQqcocRNAzaJ8WyILwOgRuVypVkAaNyDemYBLwvyaHyG2FnMF4kB0BwBcQBPyOVDrIh9RF7eZAUuh9gW2ksghvEA74zvOLP+xp8xxM/lZg1hZV4DohYikklyudP/z9L8b8nLlQ/6sIaNKpRGxCvyhzW8lTM5SoGpEHeJM2JiFbWGuFfEV9YdAJQilEckKe1RI56MDesHGBA787khURAbQRwmzo2JVukzMkVhHIjhakGnifI5iRDrQ7xIIAtNUNlslk6OV/lC6zKlbJZKf5YrHfCr8PVAnpPEUvG/EQo4Kn5Mo1CYmAIxBWLLAlFyDMQaEDvJchKiVDajCoXsmEEbqTxeEb8lxPECcXiwkh8ryJSGxavsS/Jkg/lim4UiTowK788XJkYo64Od5HEH4oe5YJcFYlbSII9ANjZ6MBe+ICRUmTv2XCBOSlDx9Eryg+OVc3GKJDdOZY+bC3LDFXpziN1lBQmquXhyPlycSn48U5Ifl6iMEy/M5kbGKePBl4NowAYhgAnksGWAySAbiFq76rvgnXIkDHCBFGQBAXBUaQZnpAyMiOE1ARSCPyESANnQvOCBUQEogPovQ1rl1RFkDowWDMzIAU8hzgNRIBfeywdmiYe8JYMnUCP6h3cubDwYby5sivF/rx/UftOwoCZapZEPemRqDloSQ4khxAhiGNEON8QDcD88Gl6DYHPFvXGfwTy+2ROeEtoIjwjXCe2E25NE86Q/RDkatEP+MFUtMr6vBW4NOT3wYNwfskNmnIEbAkfcHfph4YHQswfUslVxK6rC/IH7bxl89zRUdmRnMkoeRg4i2/44U8New2OIRVHr7+ujjDVjqN7soZEf/bO/qz4f9lE/WmKLsAPYGew4dg5rwuoBEzuGNWAXsSMKPLS6ngysrkFv8QPx5EAe0T/8cVU+FZWUOdc4dzp/Vo7lC6blKzYee7JkulSUJcxnsuDXQcDkiHlOI5iuzq5uACi+NcrX11vGwDcEYZz/ppsP97i/uL+/v+mbLuoTAAfN4PZv/6azuQJfE/A9fXYFTy4tUOpwxYUA3xKacKcZABNgAWxhPq7AE/iBIBAKIkEsSASpYCKsshCucymYCmaCuaAYlILlYA2oAJvAVrAT7AH7QT1oAsfBaXABXAbXwV24ejrAS9AN3oM+BEFICA2hIwaIKWKFOCCuiDcSgIQi0Ug8koqkI1mIGJEjM5H5SCmyEqlAtiDVyK/IYeQ4cg5pQ24jD5FO5A3yCcVQKqqLGqPW6EjUG2WhUWgiOgHNQqeghegCdClajlahu9E69Dh6Ab2OtqMv0R4MYOoYAzPDHDFvjI3FYmlYJibFZmMlWBlWhdVijfA5X8XasS7sI07E6TgTd4QrOAJPwnn4FHw2vgSvwHfidfhJ/Cr+EO/GvxJoBCOCA8GXwCGMJWQRphKKCWWE7YRDhFNwL3UQ3hOJRAbRhugF92IqMZs4g7iEuIG4l9hMbCM+JvaQSCQDkgPJnxRL4pLyScWkdaTdpGOkK6QOUq+aupqpmqtamFqamlhtnlqZ2i61o2pX1J6p9ZG1yFZkX3IsmU+eTl5G3kZuJF8id5D7KNoUG4o/JZGSTZlLKafUUk5R7lHeqqurm6v7qI9RF6kXqZer71M/q/5Q/SNVh2pPZVPHU+XUpdQd1GbqbepbGo1mTQuipdHyaUtp1bQTtAe0Xg26hpMGR4OvMUejUqNO44rGK02yppUmS3OiZqFmmeYBzUuaXVpkLWstthZXa7ZWpdZhrZtaPdp0bRftWO087SXau7TPaT/XIelY64Tq8HUW6GzVOaHzmI7RLehsOo8+n76NforeoUvUtdHl6Gbrluru0W3V7dbT0XPXS9abplepd0SvnYExrBkcRi5jGWM/4wbj0zDjYaxhgmGLh9UOuzLsg/5w/SB9gX6J/l796/qfDJgGoQY5BisM6g3uG+KG9oZjDKcabjQ8Zdg1XHe433De8JLh+4ffMUKN7I3ijWYYbTW6aNRjbGIcbiwxXmd8wrjLhGESZJJtstrkqEmnKd00wFRkutr0mOkLph6TxcxlljNPMrvNjMwizORmW8xazfrMbcyTzOeZ7zW/b0Gx8LbItFht0WLRbWlqOdpypmWN5R0rspW3ldBqrdUZqw/WNtYp1gut662f2+jbcGwKbWps7tnSbANtp9hW2V6zI9p52+XYbbC7bI/ae9gL7SvtLzmgDp4OIocNDm0jCCN8RohHVI246Uh1ZDkWONY4PnRiOEU7zXOqd3o10nJk2sgVI8+M/Ors4ZzrvM35rouOS6TLPJdGlzeu9q4810rXa240tzC3OW4Nbq/dHdwF7hvdb3nQPUZ7LPRo8fji6eUp9az17PSy9Er3Wu9101vXO857ifdZH4JPsM8cnyafj76evvm++33/8nP0y/Hb5fd8lM0owahtox77m/tz/bf4twcwA9IDNge0B5oFcgOrAh8FWQTxg7YHPWPZsbJZu1mvgp2DpcGHgj+wfdmz2M0hWEh4SElIa6hOaFJoReiDMPOwrLCasO5wj/AZ4c0RhIioiBURNznGHB6nmtMd6RU5K/JkFDUqIaoi6lG0fbQ0unE0Ojpy9KrR92KsYsQx9bEglhO7KvZ+nE3clLjfxhDHxI2pHPM03iV+ZvyZBHrCpIRdCe8TgxOXJd5Nsk2SJ7UkayaPT65O/pASkrIypX3syLGzxl5INUwVpTakkdKS07an9YwLHbdmXMd4j/HF429MsJkwbcK5iYYTcycemaQ5iTvpQDohPSV9V/pnbiy3ituTwclYn9HNY/PW8l7yg/ir+Z0Cf8FKwbNM/8yVmc+z/LNWZXUKA4Vlwi4RW1Qhep0dkb0p+0NObM6OnP7clNy9eWp56XmHxTriHPHJySaTp01ukzhIiiXtU3ynrJnSLY2Sbpchsgmyhnxd+FN/UW4r/0n+sCCgoLKgd2ry1APTtKeJp12cbj998fRnhWGFv8zAZ/BmtMw0mzl35sNZrFlbZiOzM2a3zLGYs2BOR1F40c65lLk5c3+f5zxv5bx381PmNy4wXlC04PFP4T/VFGsUS4tvLvRbuGkRvki0qHWx2+J1i7+W8EvOlzqXlpV+XsJbcv5nl5/Lf+5fmrm0dZnnso3LicvFy2+sCFyxc6X2ysKVj1eNXlW3mrm6ZPW7NZPWnCtzL9u0lrJWvra9PLq8YZ3luuXrPlcIK65XBlfuXW+0fvH6Dxv4G65sDNpYu8l4U+mmT5tFm29tCd9SV2VdVbaVuLVg69NtydvO/OL9S/V2w+2l27/sEO9o3xm/82S1V3X1LqNdy2rQGnlN5+7xuy/vCdnTUOtYu2UvY2/pPrBPvu/Fr+m/3tgftb/lgPeB2oNWB9cfoh8qqUPqptd11wvr2xtSG9oORx5uafRrPPSb0287msyaKo/oHVl2lHJ0wdH+Y4XHepolzV3Hs44/bpnUcvfE2BPXTo452Xoq6tTZ02GnT5xhnTl21v9s0znfc4fPe5+vv+B5oe6ix8VDv3v8fqjVs7Xuktelhss+lxvbRrUdvRJ45fjVkKunr3GuXbgec73tRtKNWzfH32y/xb/1/Hbu7dd3Cu703S26R7hXcl/rftkDowdVf9j9sbfds/3Iw5CHFx8lPLr7mPf45RPZk88dC57SnpY9M31W/dz1eVNnWOflF+NedLyUvOzrKv5T+8/1r2xfHfwr6K+L3WO7O15LX/e/WfLW4O2Od+7vWnrieh68z3vf96Gk16B350fvj2c+pXx61jf1M+lz+Re7L41fo77e68/r75dwpdyBXwEMNjQzE4A3OwCgpQJAh+c2yjjlWXBAEOX5dQCB/4SV58UB8QSgFnaK33h2MwD7YLMugtywKX7hE4MA6uY21FQiy3RzVXJR4UmI0Nvf/9YYAFIjAF+k/f19G/r7v2yDwd4GoHmK8gyqECI8M2wOUaDbqyYUgR9EeT79Lscfe6CIwB382P8LtQ2QMJkrEBkAAABsZVhJZk1NACoAAAAIAAQBGgAFAAAAAQAAAD4BGwAFAAAAAQAAAEYBKAADAAAAAQACAACHaQAEAAAAAQAAAE4AAAAAAAAAkAAAAAEAAACQAAAAAQACoAIABAAAAAEAAAdkoAMABAAAAAEAAAJCAAAAAKf2RowAAAAJcEhZcwAAFiUAABYlAUlSJPAAAEAASURBVHgB7J0H3BXF1YcHxAIiIKiIoKKgYkNRrNh77yUx9oZdo37WJBo1ajS22GLsxl5j77Gh2CsiWBFBQUFRQBAs3z6D5zrvvnvr7n3vvfA//F527+7szOyzu9POnDOtxo0b94uTiIAIiIAIiIAIiIAIiIAIiIAIiIAIiIAIiEDGBMaPH++mT59eUqyzzz6769KlS0lhFUgEREAEREAEREAEREAEGolA60bKrPIqAiIgAiIgAiIgAiIgAiIgAiIgAiIgAiLQOATatm1bcmbLCVtypAooAiIgAiIgAiIgAiIgAnVAQArZOngIyoIIiIAIiIAIiIAIiIAIiIAIiIAIiIAIzIwEULJi+VpMCCOFbDFKOi8CIiACIiACIiACItCoBKSQbdQnp3yLgAiIgAiIgAiIgAiIgAiIgAiIgAiIQJ0TaNWqlevUqVNBpSzKWMIQViICIiACIiACIiACIiACMyOBNjPjTemeREAEREAEREAEREAEREAEREAEREAEREAE6oPAbLPN5jp37uymTJni/3788UefsTZt2nirWCxjpYytj2elXIiACIiACIiACIiACFSHQKtx48b9Up2oFasIiIAIiIAIiIAIiIAIiIAIiIAIiIAIiIAIiIAIiIAIiIAIiIAIiIAIzNoE2txwww2zNgHdvQiIgAiIgAiIgAiIgAiIgAiIgAiIgAiIgAiIgAiIgAiIgAiIgAiIgAhUiYAsZKsEVtGKgAiIgAiIgAiIgAiIgAiIgAiIgAiIgAiIgAiIgAiIgAiIgAiIgAiIQKtfIqlHDOPHj6/HbClPIiACIiACIlAyge+++84NHz7ctW7d2vXo0cN17dq15GsVUAREQASqTUBlVLUJK34REAEREAEREAEREAEREAEREAEREAERmEFAClm9CSIgAiIgAiIgAiIgAiIgAiIgAiIgAiIgAiIgAiIgAiIgAiIgAiIgAiJQJQKtqxSvohUBERABERABERABERABERABERABERABERABERABERABERABERABERCBWZ6AFLKz/CsgACIgAiIgAiIgAiIgAiIgAiIgAiIgAiIgAiIgAiIgAiIgAiIgAiIgAtUiIIVstcgqXhEQAREQAREQAREQAREQAREQAREQAREQAREQAREQAREQAREQAREQgVmegBSys/wrIAAiIAIiIAIiIAIiIAIiIAIiIAIiIAIiIAIiIAIiIAIiIAIiIAIiIALVIiCFbLXIKl4REAEREAEREAEREAEREAEREAEREAEREAEREAEREAEREAEREAEREIFZnoAUsrP8KyAAIiACIiACIiACIiACIiACIiACIiACIiACIiACIiACIiACIiACIiAC1SIghWy1yCpeERABERABERABERABERABERABERABERABERABERABERABERABERCBWZ6AFLKz/CsgACIgAiIgAiIgAiIgAiIgAiIgAiIgAiIgAiIgAiIgAiIgAiIgAiIgAtUiIIVstcgqXhEQAREQAREQAREQAREQAREQAREQAREQAREQAREQAREQAREQAREQgVmeQJtZnoAAiIAIiEALEJg4caLjLy5zzTWX69y5c/ywfouAf1/0zuhFEAEREAEREAEREAEREAERmBkJTJs2zU2fPt21atXKtWvXbma8Rd2TCIiACIiACIiACDQh0PAK2c8//9x98cUXTW6q1B/LLbecm3POOUsNrnAlElh77bXdTz/95DbbbDP3l7/8pcSr6iNYI+e9UoJTpkxxw4cPd8OGDXOjRo3yysGFFlrIrb766q5Tp06VRqvrYgQuvfRS99///jd21DnKoauuuqrZ8SwPfPrpp27cuHHNopxtttlcjx493HzzzdfsnA7UnkAt35ms7n7IkCHuww8/9GXLjz/+6Oaff37XvXt3t/LKK7t55pknq2TqIh4Gk95+++3EvHTs2NEtssgibo455kg8r4PpCXz11VfuzTff9G3CL7/80s0777ye+fLLL+8WXHDBkhKYOnWqe+edd3ydyKBg37593eKLL+5aty7doczXX3/tyAvSpUuXisvXoUOHOupnhDq5W7dufj/pv59//tm98sorbsSIEW706NGOiT4LL7ywr18WW2yxpEtqemz8+PE+r5YJBmEXWGABf4/USzOzqJyo7dPN4lv57LPP3FtvveX41nv16uXLiUaoz7755huf75EjR7qxY8c66iW+u6WXXtottdRStX0wDZR6OWVzFvVSiIZn+PHHH/tD1EsrrriiV2KFYQrtl5N36h/e848++sjXqz179nR9+vRxSy65ZEltmVp+a2nzDkPioG/83nvvOcab6BNTr9I/5tspR8rhXk681QrLc6fNjlBGcN/VlDPOOMM99thjPoknn3zSzT333NVMLtO4GfOin8N7Ql+bb5R3hf41ffxS2NXD+/rLL7/4soXnTpusd+/eRdu+1IHvvvuuo06hXce19PHo76yyyiquTZvShporqVPhznvKGAffJ20rmJM2fcxS25KVpB2+QJWUE1lxC/PREvth2x3O9OklpRFI88zfeOMNR31aSOj3LbvssoWC+HOVfOdFI1UAERCBigmUVktWHH31L7zzzjvdzTffXFFC11xzjVtmmWUqulYX5SdAY4zCnoZSo0kj571c1jyjq6++2vEdJFXys88+u9t5553dEUccUW7ULRL+oYcech988IGfVHHQQQe1SJppEilnQD9NOknX8pyto5t0HsXDOuus4w4++GDXtWvXpCB1cazRnnlaaLV8Z9LmncGJ888/373++uuJUdFR7tevn7vkkksSzzfiQSaHHXrooXmzzvOkA7vXXnv5CUsMeNSj0OG+8cYbfdbWW289t8IKK9RjNnN54h277rrr3KuvvppYlzEgRF223377ufbt2+eui+/ccccd7sILL2zWdmEw8qKLLnLFFJtMaILbgw8+6AeGiH+77bZzJ5xwQjypor9RCh944IG+LUXgPffc0x1yyCGJ1zEg9Y9//MPXh/EAvGNMjjvyyCPraoLVM888484555x4dh3tDgbUGFSgPkKhXW1p6XplZiknWppbFu9B2m+FspFvifotFL6z3/3ud/5ceLxe9hmovu2223x7//vvv0/MFhPzjj76aLfBBhskntfBGQRKLZuzqpfi3E877TQ3ePDg3OFnn322JOUoF5Sad8JSn6IkGzNmDD+bCO/KBRdc4JZYYokmx8MftfzW0uad+8jXHuAc7ddrr73WK6b5XUzK4V4srpY4z2SNgQMH5pJiYtq///3v3O9q7zA+0Sjy4osvuuOPP9798MMPiVnmXdlyyy19e4ZJgklS6/eV8TrGCG644Qb3ySef5LL4wAMPFJxQeNhhh/lyIndBbIe2HGHoR+STSupU6rPLL7/c5zlpsjlpMZHyqKOOcquuumq+pL0COW19Xkk5kQW3vDdV5RNPPfWU72+QDPex++67VznFmSP6NM+csWn6Q8WEicdJhh92XaXfuV2vrQiIQHUIlD7lvzrpK1YREIEaEGBAhg4ElpmmjKXTgAUOW4QGL53IehUahbfccou7/fbb6zWLTfJ13HHHOTpu9kdHpV6E9+GRRx5xu+yyi555vTyUKB/1/M4UwsRs5QMOOCCnjEURadZvpmSmY8AgxKwklLVYMP71r3/1z7Ze750BDspW/pj5Xu/y9NNPu5dffjlXl5FfFK9Wl9GZ5V5OPvnknIIzfk8oUs8777ycMhbvKTazH2tblKFMAEoSlDN4A9l11119Z5i6M41w/Zlnnpk3r2HcDJ4x6GR5w0oPBTrWbtw/A5sPP/ywO+WUU0qKL4y7FvvcO/fEQODvf/97n/dq56Pe2hKNUk7UG7di70nabwVLRwbFTBmLErZt27Y+Wb4zypi///3vdfmdMWGDyU+mjCXfiy66aBPXoJT7ZnlZjOWser6csjmLeinOGaVJqIyNny/0u5y8o0w9/PDDc8pY6hUmsHfo0MEnwbvCRFjCJUktv7W0eadtymShsD3APcIgbL/iTaMUKYd7KfG1RJjnnnuuSTJ4usHqU9KcwKRJk5ooY3lHQm8JvE/33Xefb/PTFo1LLd9X3ETffffdbqeddvL9Er7bciSuDKVeCb0AMUnxxBNPdM8//3xitJXWqXx7GOOE6dPeDa2qqcv++Mc/OiwLk6TStC2uNOVEmG/iK5eb5UHbxiFQy2ee9jtvHMrKqQg0JoHUFrI0RBhgZLZkqS7hskS12267uY033rhZlFj9WYOSwaokCw/cTEmyJ3DZZZf5gdFGdIPayHkv50li7cOsaoQONoO1/fv399amVNy43cRdqmTmI3D66afnZnXjPgUXS8yKnTBhgu9UoixCOYHrE4kIVEIA5RQunJBNNtnEz6JFIYswi5zBHd6xSgcWfUR1/h9ucv/0pz/5XDIgx8AElpPWLmF7zz33uO23377O76RxsrfGGmv4gSVcKmJZCXes+LDkYQDnpZde8lYvTDwJBVdnVt8xqEMZue666/prsJi9//77/WAkg7RXXnlleKlv6+yxxx5NlDAMxiWt/dzkwgI/+DZKHRjDasW+NZZcOPXUU3ODUiiOmP2PBQL3jgKtHq3fsCzcaqutvKtlXMeRTyYCfPfdd36QEFSbb755AWKNe0rlRMs9u7TfChY5uGVEsLqh3Uw5w4D6scce6795yvT111+/oFVOy93xjJQGDRrk7r33Xv8DCy3ySjlgHhqYcMKkjVtvvbWls9Zw6ZVTNtvNVVov2fW2pTykLqtUSs07kwtIx6wUqS+pR2yCDx53mMw7efJkr+SP14nkr1bfWhZ5f/TRR72SivtAuYRSZ6211vKuOWlT0Ge66667mijdCJtPSuWe7/paHLd2qqXNJKEXXnjBW3raMW1nEKC9xzdO+4t6wSa2MzEVRaQpDpngzqQd2osmtX5fr7/+eu8pzfLDREQUjUmKYwsTbrFCXW211fz3gdt7JkLSx2P5DCZ5P/HEE74coV1K/ydU1hJP2jqV+oyJkHyfTDDCwwp9rXPPPde3ebmXP//5z/57jS9RlzbtNOVEWm7hM9B+YxDI6pkPGDDA7b///ok3nW/cLu13npiYDoqACGRGILVCFmUssz74Y0CfgbCWFJR+SYq/0M1Zz2jNExoKkpYhgBvKRpVGznupzHFFRMMYQRl7xRVXNHHFSIMZ5Syd7vfff7/UaBWuQQjQWaTjgrDlnd9www0dk1sYYKEzgxVvIRdDDXKrymYNCFC+sCY1wtpmdMTNqoBjdIpZ24c/BixmVmFgwr4z7pG1mPimGOjEdSTCoJ4Ush5Fqv/ooKLQY127UBic2Xbbbb1iFgsxhEHFuEKW+tAGn+nomtKS2fYMRKPUZWCHATXe2fC5Eqddi1u/ffbZx892r9SNPvHjChFBCYmiJJ+QLgNfCIPlJ510Uk4ZyzHeOdw0m2tg1rCze+N8vQjtdfLKH4Jl7E033eSYIIcw4M/ES7NY9gdnkv9UTrTMg0z7rTDp4X//+5/PLO8rbmNZIxBhwu8222zj31l+Y91dyE0iYVpSsNQ0YcJdPG9MlsKNPhMj6MdLkgmUUzYTQ9p6KZ4LJtJipYj3AybOljpph3jKyTtrpvKHMH6CQtKU92ypI6lLqEuT6sRafmtp8849U/cgtFWZkBWOC9CmoJ7nrxQph3sp8bVEGPqBttQI7QWUiijZUNLielfSlAAKSf7iQjuRP3Ody3msNUOFbK3fV2u70tbdcccdfduLCbXWrozfU/w3nlziwneDgpTyj/4gZQQTFJkgGC4Tl6ZOJQ2WAqGNzH4oeB/DUwX1Ge7WGZ/Ggwxr+ZqkSdviSFNOpOFm6WvbWASyeuadO3cuW6eR9jtvLNLKrQg0HoHUClkGE8wM39YZaWmlbFbYmRHGrE8KLhrbNCZoPDHjmUY1MyMXWmghPzC00UYb5dzhkT6zppmFTCeFBggzWVF80BBDGUx469CE+aXzy4w5hAYMnZ8nn3zSN4ZpQBAHnQGUJQy4FZLXXnvNDxyyPhXPhGfDwAFrcTFzL24RjAuV0aNH+84dlnK4QmLgnLUkSY/7IQwKGhpRuOyjIogLVk7mLi88x+DammuuGR5K3KehxsA07HiH4Ew6sGbW4eqrr97ErVY8kjTXp837t99+6xlx/yOiyQnMTmJNHRQRSZbb5D3LZx5nUcpvrCFt9iOD1fnWxeNdKPQto7TD6oZ7Z5CAtRG5d9ar49klCbMlCU8Det999/WWuHT2+M4YYOB6OgVJ6RKGNE3MtRodRWY6xmWHHXZIXA81zXdOGpU883je6u0368YyoGhlEQM9KI9CqQW3rJ4591HJ+xreP/UCZTPlFO8e5SzlK+897zzffD5Jm3a+eOvxOJ1vE8rvUBlrx20bV2zZcdvCjXeAuhNFF2UE9TGDBVj1MCDO4CQzpLt3726XNdlSf2FxxzPjj5n+hKWO33rrrUu2cmgSaYofuHLGzTrvE+0GFH1JdXuad6YSbrR9qHsRa9OxT/lMmRfKwgsv7BWg4bFw//HHH/f1oR1DYRFXAti5LLZJg2FhvEw4MYVsfJIRz8EmKPGeUSeGgrcVnpEJYcO1XLmGNhODPyuttJIPls+No8WRb0tezj77bP+e8+1gpVtIIcvzwksNwreQtD5ZqKTmW2gE4XtgzVzaoHjrwIKZtih1epKU2/bNsl5Jyk8Wx0opJ9K0RSqpz7Pm1pLlRNpvhbrfXJTSNjJlLM8a14fUSyasj0y/JHRbaedqscUjBcJky1VWWSVvFmiX0xbMJ9YGoo63dj/9PMoYvs3QXWRSHPTveOZYv9PnpA6mj0gf1epELMZDBVgYD9fQVzSh7N17771bZKJGuWUzeUxTL9k92pblHah7uOf/+7//8/WEnSu2LTfvYT1B25Y048JEMhSySLxOrOW3ljbvLH3w0Ucf+fti3Cbfu+gDFPmvXO5Fomux04yLWFuQNgjKK47RrqQNHrdyTMqYlRWV9JeS4uMYEz1tUoyNISSFbcl6JSn9+DEmn5rYuIX9rvX7Snl/4IEHup133jnz+opyg+/H+oSMK4QK2TR1Ku/gdtttZxibbRmLo27BHTNCuz9UyKZJm/iyLCeIL5Ri3MKwjbzP+DPPgbYEZW7Hjh19W4LxaoxCkiTNGGIYXy3bEmE+bL/az7ya37ndg7YiIAKVE0itkO0ZKRDppJoy1rZJCpXKs9kyV6LYue6663xidDZYawdXF6HQmGKQiMqehirCAtoMosUFJS4NWATXHVgKxTvoVAq4EkCY/c8MWOs8c4wGDJ0eGsMXX3xx4sAtg4WsjRbOguZaE2Y14j7IOk92nFncDHbF5c033/SzY2n4muLOBrMZnIwLbju4v7hsuummRRWyzMJknUQbVLQ4uG8G2XAVyMAUVh5Jkvb6NHmnkYlLShTwocCUQQMU3Mw0rMYzD9Mrd5/OiglWReUKHTJmDVtD166nQYXiA/c8cIkr9AhH44swdKZQxvB9oSAxYbYo3JhJxoSIUHgv7VsJj/P+Jx1nMCRpcKnS75w0K33mYX7rdT9c0zbsJFp+a8Eti2ee5n21e4fH3/72N68ctGNsKeMpg6gDsOrCmi6ULNIO42uEfQZiTNKuP8qED5skwIQB1iIy61vSgD/KLxQF//nPfyxZvyUfd955p3epx7sbCh1A6ku8A1COoVhvKWGiFIP5TGLh/WAwP1zuIYt3phJuWGWGikfjQT3MXygMshSqO2gPoMg14duopkLW0sm3Dd9JW/PRwqLYt3YrE4LCSWe8a2bNbOF510KhI20WqOHxSvZp7xA/VjhHH310bmA4X1wMSpFf2pG0V7lP8hNKaPEWvmdhmHrdx5LZ2qi0G+IK2UrbvlnUK9VmVqycSNsWqaQ+z5pbS5YTab8V7t0krmhjrUlbm5UwsMWtaS3LPMsrWyv/qFuo+8JJGmG4Qvu4Pce6loHoUOir0afAJTJtJCZIJQnvK329cB1Kvm2sjOjj0UdF/vCHP+RVgtHXwnNPKNQtLWE5X27ZHOYx3749F87H66XwGp6bjTFgoRgqFsJw+fbLzTtu402S+lCcC/sLvFOh1PJbS5t3G7PhfpgcnEbK5Z4mrSyvNXfFtCWYwME3yxgUY31Mhoz3zeNpV9pfiscT/qb8YPkxrHdpH1HW5JOWrFfy5SE8ThvfJD5prtbva3wCouUzq204uTOcxET8LVmnxsvXtGlnWU4ksS7ELSl8ox1jEg+TZJnsEQr9HyZnYRR08MEHN6vb04whhunUsi0R5iPcr+Yzr/Z3Ht6H9kVABMonkFohS5KmfLVBLdva8fKzVfsr6GSakpEOCbOA6TwxyyosNMmpKS3pFDJQicUU1zAQxkxpZgExOHnYYYclKo7sbq2jyQwyZg4zyEblw6ATg/4MSDFjMy4MGDK4jNDYwzITy1pmzzNgjSI2PiDtAwf/YfHSM1KuW0McpRhWCqRHw4V7ZqYjDe2wI0YUWL+ESjWuLUXoZOJiz5SxDF4wk5B0sYggXRTBYac1jDft9cRVad7hwfM0rlhB8+wZlGFtVp4dLFE4orzMJ5U+83zxFTtO/rDeRhicLWahlhQfEwNMGduuXTs/MWH++ef3A1B01nieuJLB4irfwAHcmKBAIxnLcBrqKBFGRFbGnLvkkku8Mj8cXIZx6N6Tb4rBdCzwkhobtmZl0j3YsXK+86yeuaVdb9twYkExS4eW4pbFM0/7vjIQiRWGlVO86wxSYGWJlSyDilg6YhETl7Rpx+NrhN9hmcIgDhOM8pUD5dwPawKhIGMyB94eqONoa5hrvXhcuDsNlbTULwxEU6YweYSyirLG6u/49dX6TZqhxWn8W8v6nSmVG2WrKWSpv2i7IFgvxQfww2dcLU5Zxstgngltq1DC9lyoTIAFg+BsuX/eGfZDhUIYT9p9mPPsEZQMtMlIs5hgncuEEAY22IZ1JPllcMOEsI0kZnFMnilr41Jp2zeLeiWel6x/Fyonsm6LlFqfNwK3Qs8hzbdCO8AkLCdo71v/Cz4oYhG+53oRymv6ggh1Iv0SlGalCv0G2kCmWKAPiPURdRdlK9ab9A3pE91xxx1NrIdJg3Z62F+ij0u9wjW0+00ZW2p+WjpcpWVzsXwWqpfCa+lLwYrJvaF3hjBMvv1K8h72u8L9MI3weNK7XqtvLcxXuF9q3nlXEdqZvKe0E3lHURTAH69n9FnDuimM2/Yr4W7X1nJLm8Em79PuYcIXXspMGNcopJBN01+yNOJbJgQec8wxXiHMc2ECXHxSTPyaevlNXY37XJN4vsN3NNy38GzD4/FvLav3NUwvi33eI+pGjB4Q6op4P7DadWqh8jVt2tXiXgq3LJ5PLeNgkjXGR4h5ZWSMnXcbQyDGzpmoxbeO9XaS0D4udwwxKZ56OFbuM6c8POKIIzwvlmzEyyFj2UlGMPVwf8qDCIhAcQKZKGRJxpSvpoy1rR0vnpX6CoEykA7rscce63baaadc5hi8xTVVOGuUgWHWVGEgLG5pQ+eJOJhNxWAyHdd8rhhIhFlBhx9+eK4BRgGL0hJhRlGSQtZcuBCGWYPxjgKDv9YoIkxcaChR+XG/p59+es59H9ZeWCigbLA117BGiitkue9wEJDZ0vmUqGHaKJnNegNl5j//+c/wtN+n4gkbo2GAtNcTV6V5xyKTBgGC5RYKSHPNiWtNBh+Y+chzL6aQqOSZ+4Qr+M++Sy5NWnu5WJR0LnAdiLD+LAPI4eAU7pBt3TcGEQopo3FPcumll+aUwvBk3T0GtBggxLoubMDTKQw7hrjtolGMtfrxxx9fLOuJ58v5zrN85omZqeFByggs5k3iSgs7btuW4pb2mWfxvvKOmjKW8hjrb6yXTGhM33rrrS7s4HEui7QtjUbaoiylg8A3jNszOlTUeQzQUc4zoJWvTC90nyh3cWdIHRVa+pHO079OSLLrGXw2y1qeFR03BtFCGRFN/mCgJMldcBgu6308CNgEJiZBhR4UqvHOlMqNdooJbRVTyNr60nauEbd8nybxZRRCBWv4LLCupi7i/aANBh+eD3/VENYWZlIHbct8HkGS0uX7oo1Ge4j3mXyvv/76Pp9M4jPlP+7d4m3DpPjq6RgTteBPGcuEIdqVYdlRads3bb3SEowKlRNZt0VKrc8bgVuhZ5PmWwkHwmn7IkyCwDoWoX6jbDGFbLw94APV6D8m6TI4jtA/Q7lEGYFbdOrUsNxLyiKeo0wZy5p99HcYLDWh/0hfgPLrX//6lz9v59hS/lp/CSt32u72HTPxGcvbUvqMYZwtuV9p2Vwsj4XqJbuWSTmUBQjvb+jBwcIU2laS97CPH07UDNNBQWwS1qF2rFbfWtq82/0y8ZJyNr4cDn162pZYzzJGgrVmklTCPSmelj5GXWCTS62/TTuVdgls8BAXr4fDPFbaXwrjCPfhTf+e8oMJ4JS39CPqVZgojuEGDPEmwLqpJoyHhuvHcrxe3lfLY6VbLJfN7Tz3z1in9Ztpw6FQZ8wnlGrWqYwdmuU+E5LiS9qkTTurcqISbiHDRtuHO2ODCH3z888/3xsg2X3Q9xk4cKCfgES7Ak9M+ZZAK3cM0dKo9TbtM8dgiT+E8sXqJCad40UMnYREBESgsQi0zjK7NDbCxkUh65Us061WXChZQ2Us6WAFy1oLoaKZ2YKEjStjLTwzi03CGVt2zLZ0tFBIWUeV4xtssEGuMrIC2MLb1jrKWBsySyYuVFqmUI2f4zczk2y2dGgJwwxmBEsN63zb4J4/kfI/yzfRxAdJLWosZvMNIqa93tIod0vHwJSSMP/jH/+YU8YSFx0XOqMmoYWKHbNtpc/cri93G1qZlNuxJy0scGxghXcqVMZynnXfzHqKRoLNyudcXHbfffdcWM7xjvFtmYR5tWPV2JbynWf5zKtxD+XEyaQSFGVYmNOpYFAbl3HWQaGRHK55ky/uRuCW9n1F2WdrODKB4bTTTmuijIUNnU3c7DFjMZS0aYdxNdI+PLDAsUFrlI8MTOCeCE4ohrCADwf0Srk/6jFm1YbKWK5D+cskmFCuvPLKnOUrZXFcGUtYBpkYbKtkYkqYVr59lEh8Z/xhYYSSEwbWGeU6W/bA4qjGO1MON8vHzLRFQYkCAkEBEV/bPVScmGKCiT4oFhDWJ6a9Z+dw22drSfoAGfzHIJ4tJcAgr7W3SomaepxJUKZQZwCfd4x3ifYa3yNLJ1Q6aamUPFQrDJPceH8RvqPwWXHM2oCVtn2Jo9ZSbjlRrbZIKfV5rVmlTT/Nt2LtI74n3jcEl/e0oZjUipLRygjOWXj2ay2UeawFasKkEixZcYu+ySab+EnATNrlXYwL92GKQ+pMBvzi5RPrZ1s9ysTh0OsE7UxbXxdOlG9hH5d8FVrXNp6flv6dpmwulNdi9RLX0nY666yzPE/c6cddtheKn3OV5j1UXqAwT1KWm5ck0klSyNbqW0ubd7N8o31qbQAUk4wF0Y6kToIHz88m/cEglEq5h3HUat+8pJG+KWTZp+2EUHbgLS1J0vSXkuJjUiDlKnUeZSuT9utZGcs9sMYl9QKTKEJlLH0UjlMGhlIP72uYn0r3Ma7g/vB2wARZU8biqYxjW2yxRbOorY7Muk4lbcpNhO+VJd3ikjbtLMoJ8lQJt/i9NNJvJrmgkERQ0scn/zOOjocghO/+oYce8vtJ/9XLGGJS3godS/PMeZ+Z9I7eAQVs6AmQcRbGo+krSURABBqLQGYWsnbbKPcY0Dc3gihlUWJyvJGEeyikxMx3L3REGSSik05lgpgVKPuFFJo0fk0xSlgTFKIoY23wyY7b1mYuMlsb5R/5poFTqnCvJsxANLHjdJ4ZgOB+rCK1MGm25NuESpdBg/hgu51P2qa9PinOUo7xTtuzZUDdBmfCazmO5SYDt4WUkpU+8zCtcvbD9y/eMSglHixxTMIBHjvGlhn01pElvClowzDsY1EQF9x9m+R73+18FttSv/Msn3kW+U4TB5M+CgkDbvF1buLhG4Vb2vcVJZoNRtFJSCqf42zsd9q0LZ5G3OLq7cYbb3QoRlE0hQos6kbOMSDMmnKsiVaKwD+snwpdY+0PlDkogGshdI7WXnvtvEkzmQUlSCjVeGfK4RbmJc0+Xh+YTGZCB7IWwgQ4c43FgJ55GwnzErZpTNFgaxsxM5vZ2khYzzPgQ/2ehdBuszVo6WCH3EqN/5prrsm7HAZKFgbEmDVd74OZSfdLO8UGz1huwRQ/hE3b9k1Kr6WPlVtOVKMtUmp9njWbWpQTlX4rNsBsZQR1DHUYcuihhzos6sIyIixXsuZWSXx4iaB8QbmKBZMJ7RvcsvLHJI4zzjijyeRirIxQqiJMuA4nFVvbiHNM4EWBwmAgS83Y5F4mVlLGIfSLjJ8/8Ot/KIX5DooJ6TPZy4S+aVblsMUZbrMom8P4bL+UeomwKD3xsIQw4aacfn2avDMBifYJ7V+UbCjC8PpE+jxzltoxt7bkjWfOX9xatBbfWtq825I+3BeC1zG8hJjgvpiJDNSrKBfwkBWujZmGu6VRy60pZGlrYz1vgqtdygeEMDZh386zTdNfCuNhn34D7TA4M7mTSZxWpsTDxn/Xol6xPNBeod/BGFHY70FBy32YssnC1/p9tXyk3TLOa5PnsA42L0AoLrFqZvmPUHlEetWoU0kXjws24ZdJwHGlXxZppy0njHcl3OzaRtyGkzkYZ8KS2cTaE7SlTMK2ih2zbZoxxJZuS1ie2VbyzFHEMumfuigc+yY+jAawNOa7w/MX9VJ8bIFwEhEQgfolkLlClltFqcaggSkibVu/GJrnDKubcjp6dJpw14o7F2uINI/1t/Vmk87FGysWxiyNwsadnWNLAc06hgiDj6wRtOKKK3p3r1jMMjgezkj2AYP/wg5yeM/hvikirGMdXF7xLo197pkGG50+XADRCSTv5JnBA7v3pETSXp8UZynHQsvN0CI8vBZeVJooY/NZNhO+0mceplXOfjiYGSpnS43D7oXGQT63GOGMz5BVmAbvY9K9hxYG+d73MJ60+6V+5+F9pH3mafNcreuxRMfFeugmOl9ajcIt7fsaKsiwUChH0qZdTlr1GJbvm5nJDF7R6cIVGoNZ5kaKAQvcDzMJIxz4yXcvrM9XijAwaN8rk0Gs7irl2pYIg/KDmb1YFcUHMKvxzpTKLct7L8XCPsv0kuKi7mUQm/eBgWQUEmFH366xQSR+o0RBqWDuPUPXnFg5mxRql1iYUrdmZUcnnRnj5QrWsbQ9EdyB02mnHUVbDUsFlLG0xzmORXgp5Xu5eahm+LCdEvdCk7btW818p407XzlhZRvxZ9UWKbU+T3tP8etbupxI861QTvBN8UeZggUOygL6WLZkS7XKiDi3Sn9jpcQf/S3qZDwH4MnGlMf8ZjA7XD6GpVdM6N/yV0xoN5nyhAlYJvlcD+Z7j+0629I/KHUCl12TZpu2bE5Ku9R6iX6xLf/CJNck71dJ8duxNHmnf4cCluWTECxBWdKEPh/PkzKZtgvhaMfxXOJtmVp9a2nzTt1u4xzUL/yFgmKSY4899pj/bsz9t4VJw93iqNWWcmH06NE+eazWaZOYsOwI7SjKPNpHSRN70/SXLB3bhuuuouQMxxUsTL5tS9crYT5oc5q3EiaS0QZjYipW5IzPwTT0BFbr9zXMe5p9xrtsaTQm8DAph4kbKO9RwuGF67bbbmsyrlqNOhXlr00qYAIi6SZJ2rTTlhOWp0q42bWNuA3LiKOOOqroLYThw8BpxxBbui0R5r2SZ045wUSTJKF9wPlTTjnFn77//vulkE0CpWMiUMcEfmttZZhJZg6HSthSO1sZZiF1VPmUTUkR0wg5NRrss9k9hKGwp8Kn0qABawOt7OeTYhaLYfxhHLjSYSCAGXjMkKERiBtSW1+LTjDrHuZz/Rs2uinUTcLjNjO3kLLZrit1y2zyc8891689xHoTsKHhZjOoSHPrrbf2LhhCpbHFn/Z6i6fcrbkq4bpCbn+Z/UXnm2dCpzXpHip95uXm2cKHFshx938WptDW7t3WdksKG1pXWvh4OJQk4fsVP8/vfO97UthKj5X6nYf3kfaZV5rXrK7DrbRZIjPpAgb8FbqveNqNws2eW6Xvq82y5f7DbyfOI+l32rST4mzEY5TTuHrjj0E+ykSsDmwSEdb0rDtVTEp951A+WT1b7jMrlodyzveM3DuieEVoB6BMoi4mT/mUxNV4Z0rlVs691XtYBo1RQJoyD3e9uHhKkrDcQ9lFZxZBccGkMBObEY+iLN/zs7Clbpn9bVZ2WE7k8yaRLz68SJg7UdqbfEumLKYepgPPe0dHHSUSg8Ws9dgoQp6NO+UI9xhK2rZvGFet9sstJ6yMIL/huxvPfyntT7tmVigj0n4rfEfULbRLcQmONRhKKKzuKd8R2vomhZ6NhanVFgU8f3w/fGNYvqGEZR9LVZRMZk0ftoF4p0rxUhGWj6FCln5xkoR9hqTztTiWtmxOynM59RJrkNKvp49Iu6kcySLvKOSwuqGtRl+Rd9veb8YJGFNg8jduWeMTnWr9raXJO9+5vbNxZaw9AzxboZBFwu8jC+6WRi22NhGNtBmvwPVyKHynuCxG2caYVnyCRcgiy7Y37TIUtCwZ00hCHYCbcayJsVijfKXuwKo6HA+q1ftaLZaU/1j+Mr5H/chYJN8Ubd1wDd2s61TY3nXXXf628MqD55mwLgrvN23aacqJMB/hfqncwmsaaR+LaOuTMb5bShkRGpGE9wqrehhDDPNUyX5Wz3zTTTf1XgSoe+kjYNASGlVVkjddIwIi0HIEMlfIooyl02pCpVxKoWvh62VbTFFm+aTDdOaZZ/pOOhUMswa33Xbb3KAY4WiIcKxaQrqsT8GsO9Y2ZaAb91M265mGM+v2oLDF/XE9CZYcuKLBeoq1N956662cBRWD6gwU0IgN3VSF+U97fRhXqfvhgEQhK047x/OJzx4uNa2sw/EtMnjEoBIVd7li924ziJOuR/lswiBqPUup37ndN/dizzXpvuxcPT3zeD5x85LWSqpRuNlzq/R9RfliYuWp/S62TZt2sfgb9TxKJ9xim+suBrZLkVLfuTBcuc+slHyUGgYlx1ZbbVVqcB+uGu9MyKOszDRoYCwRaO/YoOrBBx/sB8Dy3U6oOLH1ihh4JA4TJqLZYHQY3s5XusUixSYPsCadpW/xheUW1gWsz0j9zcAWdSttPXMnSofclLF2PVuOM7jPJEkULaRH/dQIYq6KyWtSP6KR277Gv9xywsoIrrf2hsUVbu1cKW2RWaGMSPuthEpDXMIhe++9d5NJFDbYyDkGbBtB6JvQd6RssEm81MmmkA3bQKznWK5L9VDxkG9CL328epO0ZXP8fsqtl8yTCG0YJlHGJSwbWZaBegHlz3777ectoNPUK5bWmmuu6Sf80C9nbXLSxFIXBRLKdRS2CBY/odTDt1Zp3sPvPH5fdo+hkiD0WJD1O2PptdTWLAtJD4WzKZ2T0ifsrrvu2uRUWFakbXuzzBlublkTESt98sIEuXLb1E0yWKMfjFPxPuJ9hTqCSQxxl8+1eF9bAgdjk1avvP76600UsuG3lrZOpU2MQhahTYU1cr4JQIRJm3Z4fbnlBOkXk0Lcil1br+fps9AepW7CKCDfGtz1mv9q5yvtM+8ZTQJnXJfx3dBLSbXzrfhFQATSE8hMIcvaqSjVbE0AstaoythysLKOiimgKEzD2V8Wj1nH2u9qbWkMYxHBH3l6OnKVgssQCmY6vPfcc4+3GqlW+mnixU0xfwidGma5MUCJMEhJozxs7PsTwX9prw+iKrobDgwyWzSf2Dkaa6Hlcb7wLXGc2VjMZmYGFZ1rvlnjXkr6NHRZo4CBYv6SFK6hopfwM4NU85nX42BUVs+smtxKyWPa99UsiUmLcrwc969p0y50f43+zmCdQ+eBsoQ2A8quQp3nQizi51CYERdxtlTdG89Dpb+r+c5UmqdGuo53CTdYvFcI60fttddefj/ff+HgqoWhvRFaY6KgsG+uWooWq1MtD/EtbTpra9pgezgYnG9QiHg4h0KWdjrtkkJh4+nW8veTTz6ZS76Qy8JGbvvmbrDEnVrXqSVms+6Cpf1W4uUEdVhcURaur1qtcqJaYFG02sB5WG+GVvuhErDUfITvK0rJJKnEW09SPNU6VknZHOalknopvL4YH3suNmkovDZt3mlLmYeTMF6UtDYBIXzGhKmXb62SvIeKFtgliU124Vy+cYm03JPSreYx3rF333235CSwpo0rZNP0l+IJM4mMsQpcqB944IG+7cKasixvEpZJ8evq9Xe4RBNGK3GFLPmu5ftaLW5hWzM01iG9rOpUxghtcgj1Ll5g4nHH7y9+vtz6PKtyIp4v+12Im4VptC3KWNrxjEnnaws02j1lmd+0zzzUvyRNzs0yr4pLBEQgWwKZKGRnVWUsjyJ0H5ZvsB4XUC0tzErGMoKO0sCBA33yuIpsBKFhxBocDKriypjZPrjCQcFfiqS9vlgaoZIxXJA+vA7WppCNd1bDcLXYZzY168ohuGcsRyEb3gv3Tkc9LsyCNAlZ2bGstjbznkHqalv9hPeR1TOnQc97jfsnrJxQls9skjW3cp952vc1HGB4/PHHm60nVeh5pU07Ke5K3xlcy9kEF+JljaW//OUvSUm02DE6ZwjPNGsLLTxB4PqeOgRLk3LX/20xCLGEqvHOxJIo6ad9ZwQO10Us6eIoEEs4DB48OBccCyxctlVTqAdYg9UsrqnnbA28QukygIM1BlYLyBprrOE22WSTJpeEbTjOZyW0abDgzSfkiXIH6du3r3e7jCWUuaIKlcZhWzQeXzhJKp+3DuqgXXbZxbe37HoGQGv17WBNZ+6cyc+OO+5o2Sq45d0tt+1r73tLtCUKZr6Ek1nXqSUkmTdIWm4tWU6k/VZwU4rHHoRvkPXRw2+JCRvW9mVgvZAXknr71rin0P1f2BYNvSrR9sXNcTkSDjKGCuswjnzHwzDsY6V5yCGH5A7zHHgmVh7mTmSwk7ZstixUWi+x3IEpPC2ucIurehvUpm7lXTQlT1Z5D9OL75trUI7H68t6+tbi+eZ3obyztBPr5SLUv0nrkYbrGoYThbLm3pLtdixeGWtBmMiGgUGS4NmG9gSTueMTKdP0l+Jp2WTvZZZZxitkWZMYRTiusjE0CMuo+LUtWa/E0873Oxx/C71c5AsfHq/W+xqmUa19+mAm8fvOok7F8AS36ry7KKFwvV/KMnlp005TThiPQttC3MLr6rEtEeYvvk97gvKTCaLU57iWroW0ZFui1Psr9ZknxcfSLowlIpSdYbsrKbyOiYAI1BeB3xYMrTBfs7IyFmTh2imhuxfDiVIOV3PVFHPNl5RGWCjb4ElSuFoco7NJZzWfFMt72uvzpVvsOBZY1ohg8Bf3THEJBxJXW221+Oma/mbQ1Wb1sv4xrqKThFnXuEgMJVxT7/bbb8914CwMHTUayAiNY1z1VEvs/UAZa4Pp1UqrGs/c1t9hIK/UAalq3V+14s2aW7nPPO37SqfLZjbzXuPWL0kYKBgyZEiTU2nTbhLZrz8qfWcoK6kn7K+YxUVS2qUeI+7TTz/drxWb75qXXnrJe0Lg/OKLL565B4HNNtvMJ00nHZf4tFOShO+uUB2UdE01j1Xjnakkv/adcS3LUJQrDNTxztlfWvd1xdKnDGWdWKx2EAaIjzvuuGKX5c6HbvDig/vciylimETA2rJZCZYeWPDm+wvXsGPiFOGwyjPlibVDyA+K2yQLKSxZzIKKwWPK5CThW8GCwcoItrX6NkgbK2WztMJNZpIinHD5JHyHi7V9LWxLtCXy5bfU41nXqaWmmxQuLbeWLCfSfitMPmQtegSPN/F3iglPZlG38cYbF1QYtPS3hmLn3nvvzVsP8t6H/VQmf5gwIcPY0QaKt3MsHFvKC5sQY8dpP/WMvGEgKHFCxQTHGFA2BRi/CwlhrU5hy6Auea+GpC2byVOaeokJRfnqBY6HFtjUCRzr37+/R5FF3omI9zRJmMhr3gtQQpp7awtr7wu/K6mXsvjWKs07luKmDETpzTMMhffN2gMcD+81K+6WHu94WB9Xs90ejl/BnzGCpD+rh+EQTrojz2n6S3bPSVsmJ5hinAmWWEAWkpasV8gHnvJCq+l43liLl2XEENputGfiUov3NZ6Hcn+jWDPX6knX8o6Ez8qeoYVN+50zUZLlzEgHZS9W1eH3aOkkbdOmnaacSMstvJ+WbkuEaVeyv/nmm+cuY5JFvveeQCgYq9V3bMm2BPeS9pnjvSDfOAYMefetv4ZxGJPVJCIgAo1DILWFLIqQ0Eyexnlo5dE4KCrL6ZJLLpm7kDUu6Lyut956viHLbGnWl63EwiQXaQk7zFikEbL99tt7a0f40yBlNvONN96Yi4EZYVkL6cTvzypYjscHzOhE2mAiyr5rr73WMXiORQOWrXSEaODROXj44Yd9dhn0sQ59mP+011eadyo61uk56aSTfHawymFGJp1hvgUUlWaNhlIS66B6EjpZv/vd7/x6G1TwWMq9//77DsUxHUqsNhk44d3hmWy55Za57PNu864xu4zGsLkTYtAFizR+09BBcJ0dnxGZiyiDnbDhDX9miTMz0mbOMvhs+2mTq8YzhyUKcQTlARZANqDCe0NZ2uiSNbdyn3na9xXlzBFHHOFnZfMs2Meibf311/f1HBMQmJBx6aWX+gGD0CombdpJz74R3hnKfcpmyu+NNtrIrb322r78poxgQAm3iKxnbuvJMXidtfAtMWhGhw7lL2u78+xsgggzUTlvf6ZYyDof5cZXjXem3DwQnnoYSzwUYgwm0XFmIM4UEpTr9cKM/F544YXuxRdfZNcL5QTvWD5hUlJYN9D+4Btm8PWpp57y+7SnUGReccUVOcUgbai4qzPSINwjjzySS4461IS6NcwLLvf4y0Job1JHs8wDecAimPYI7zmdc9Ysw2LAJFTw2rF62KJI53nAjT9+W7sSxddhhx2WmM2s2r7l1iuJmWmhg1nXqWmy3Ujc0n4r9Fvoq6CkYQAYC1kmDdAHZNIDE39MwgkedqyWW/pU9E/pb1E3Uj5QbtBXow/P+n02mQXrRmuHkmcmoeCxiHYP4Q899FDvdYkBaeoA+jwoWanXUdRhpUl5bML7ikLljDPO8NcfffTR7qyzzvLcaD/RR467srRrG32btl6q5f2zbifWyDauwEQQ2k3Us6FCkmcbl1p/a2nyTpufdivvMu0f3nfWTuZ7oW7imVr9zncStvnjHBrlN20FvJEhtO0KtU9oB953330+LOVeaB2dpr/kI8zzHxNgTjnlFF+OYAnGhHcmL9K3qAehbIMhLFBK03amD8/4F+1JeNm4GOVmfFyk1u8rz9HeaXiGLuuxzsXjA8JzYDzLvBvxzpxzzjkOK2buvWc08YZ7Z2ISY0SMIdE2RbDgp50dSpo6lW+TcRObMMGkECZM55s0TZ3H2tcmadImjjTlRFpudg/1sM3nMS7MG20km2xM2cryeVxH35J2BWUsdQbvCO8eY4mEYRySdYFnhjI27TOnjGGCDm1L2lhMzqdtRduLtXhtohzvNcv2JEml33lSXDomAiKQLYE2WUY3qyljYYcCi5msdFAYQDr33HMdbt4oKG3AmUFWZhZXU7D0MSs7KjUUbdYAJF0K8HhjKIv8MCuH9RuSBKVqOOuSMBdddJFX/Fl4lKI0rs2ilEE5U+gRBo5HHnlk3tk+aa5Pk3cUMgMGDPANCvLAIGhcaLSS93jjOx6uFr9RKNO4vvLKK/17esMNNzj+ignPg0EoGsK87wxChwPRdj2NXwa9qym8z+SZQQIa/QyQhYISgc5RVpL1Myc+ZozSMGUWYPgMmOHG4NnMIFlyK/eZZ/G+0oGgY8AkCzp/KDhCJUe+Z5RF2vG4K31n4rO3rUMdjz/L39R/DALzl0/opKFUyVq4PyaaYDXJoAidFdahqnepxjtT6T2z1AETXWhHhGUT8TH4cfnll1cadebXjR49ukmcxfLGLO3QwghX4Lg9ow7hG8eijL9QGJC1SVjhcfYZRMhXJjC4wJ8JA9iFBjwtXClb2npMgmIyEu0mrJkPOOAA314K23/ExaAZ5/JJvIwgHG2ElpBBgwY5/uKCJQnPJHSFGA+TRdu33HolnoeW/p1lnZom743ELYtvhYk9KDAZXMPigbZwXDjGt1ZIavWtofhk4kk+od7Eu0W8z0J5T9lxzTXXeMVDqW0gSwdFNha6fKuU1Vh0MtHCLDpIzyZg2DUzwzZtvVRLBrTfUJjb8jbxvPCuMPBL+zgutf7W0uSde0ERzWQ+rJKYcLnHHnvEb9Evs5H0/TcLmOJAvJyoVrsdJbt9iyiZGdTPJyi1yIdZyDLWFIavtL+ULz07zoRO2l8nnHCCP4SCAoVf6KXOwtZiSx8eJRJ/+YQ2pOU/DFPr9xWlKxNXkyQ+DsEEjfh7GG/jxuOhX8OkhnACl4WptE5lcm/4faDc4y+fkO9QIUu4StO2NNKWE2m4WR5CBnaspdrtpIeVfNxS3vJh22222SankOUY3wBjiIzbMbaSr89i189M2zTPnEm3hcZpee4ouENDsZBd2u88jEv7IiAC2RJIPdrC2lv80YirJ8vYsEIK9wvhIxwNB6TUawhLoxxrQGukMBBGA4t18VhvB5ca+eK148Rj17MfioXJlycsGMN1TBhQtME4ZnGxHgizOuMutiw9i5807Rj7ScfjeYj/5rpCEoZn0IIB+TBfoTKW8yhNmVGYJGmvD/OSFH/8WBgeNijeaZCF+bdrsNT817/+1cS61M4lcbVztrUwYZp2Lost8e+7777+HpiZFj53i5/GM43YuPCtM6M+adCJjjjvPIre+KAO8Vg6+e4rPG5h4+nbb84zQIQyHLen8ecQxmXXsOV4JXy5ptJnHqYf7jNBgedgswPtXLF7t3ClbkMWlcZdD9wqeeZp3lfji4UIg5D5FAMMWCa5Ms0ibcuDbSt5Z2z2pMVhLn3td5ZbBk6wgmEyRL53DStDmJ533nm5bzEpD+F7G+4nhY0fY4IYM0eZMBUvGwjLDHaUY2b1Gb++kt9hHsP9cuLK4p0J0w73y8kH7whrdTHzHaup8FmG+0lxxtO08jYpbBbH4ukVizMp/DrrrONn+4dtKeJhsJF2ChN8QiVumEY595eUdhhXuB+GzZcGne+bbrrJrbfeerlLrf3HAephOukoqamf80m8jOgZWTswsapaEt4baXB/WNzBmjYEFjG0ofKVuVxTaduXa0OppF4Jry93P7z3cL/UeGCVti1CuvZOVZIH8pqWWzxdy0+pHMoNl/ZboT91/vnn+zIxXqdQpzHQuOuuuxbNVkt/a+Rphx12SLTut8xSfqDg4PtLkv2iSZwo5ygTkp4TXhWwwMf7TlwoQ1EEh9Z0pgBiUnO+ySzxeJLel6S8xK+rxu8wL/nyEIYpJQ/lhLew+dIulJ5dS5h812MVlzSwyzdP35DvoJD3p1p+a2nzzgQt3leUi/HvHGZ8I3i9SFIwcT6flMI9vDZeTlSr3Y63K5NintTwsGUWayghUVrHpdL+kr2LbENWFj9l1Lbbbut/Yi2GpX2SxK+1eJPCZnGMspX+Rjxdi5u+Bl4+GDdJGhep9fuaL9+Wf9vCMWSJoQdlfrhmtIW1LZ7XrrvuOodSLkkqrVNLzbOlmRS+0rQtzkrLiSy4WR7iZUTPKrfbSTeJpeUnaRsPzzqyfAtMzDL38GGfhTgY06PNQfsgFOt7xuO0MOFxC2vnwm0YjuPxdzsMm8V+2mfOd5RvuRnyR5lMf53x/nwSv+d84arNIl+6Oi4CszKBVlEhmLxISI2pVHOtjGrdGg1EZlWSdxrqVCSlFoBZ5AlLINx4sG4tA2+4DqHiswovizSqEQdKWKwcyTfmnvHBAABAAElEQVTurxjYIO/8lSJpry8ljUJhUL7jcoZnjxKeCQqFKs5CcdXqHAxxa4alD41M3GHYepWF8oR1MBYDvPM0BPkLZ8sWuraRz80Mz7wW/GvNLYv3lTKK8oqylu8chUEps7SzSLuSZ0a6WDLBHlksmqWNAqcl6iYGbOD05ZdfeitwK9vhVaizVMl9FrqGe6dsY0YuM/tRulE/h25rC11fq3O1emdqdb/1ki71GQMdDKQx8ShpULZe8hrmg/cF13NYZtHuY2IY9XghRaxdj1IkdK2MBUqS9ZOFr6dto7Z9s2BY6zo1i3uoRRxpvhXyi2UY66VidYpHk1Lay3aftfrW6O5TH2P5yB/1H/0s8k7fpVTBKof+DuUMygQmUpS6RAj9ZJQ4rP/KWrWUUeRl66239skzoIjrdUl9EKDthjX4N998458zCvly68NafWtZ5J32Iu1G2vy0W1EU8M5XW2BWq3Z7lvdWaX8pyzy0VFw8M/oZfCu4VmYshXKR8rGU/k6jvq/UK9QFjOFhxYdChzqFe0eBX6qkqVNLTSNfuLRpV1JOZMGtVm2JfBzLPQ4D2u+0J/CSwbfCu5Nv8mu58ddb+DTPnGupiyknaD8hNpZRTvut3pgoPyIgAtGkkOgDl0JWb4IIiIAIiIAIzIQEWDcE90AmZ599tmOmuUQEREAEjACz1VnvFsFjA66xQmsIC6etCIhAOgL61pryk0K2KQ/9EgG12/UOiIAIFCOgtkQxQjovAiIgAvVPoHX9Z1E5FAEREAEREAERqIQAaxSbYN2w7rrr2k9tRUAERMBbc+DpwoT1lqWMNRraikB2BLCc0reWHU/FJAIzIwG122fGp6p7EoHsCKgtkR1LxSQCIiACtSQghWwt6SttERABERABEagigXBgZ+DAgVK0VJG1ohaBRiTw+uuv51ya46J57bXXbsTbUJ5FoO4J6Fur+0ekDIpAzQmo3V7zR6AMiEBdE1Bboq4fjzInAiIgAiUTkMviklEpoAiIgAiIgAg0FoFhw4b5tblZw6hfv36NlXnlVgREoOoEmGnPepisK82ajqzjJBEBEciegL615kzlsrg5Ex2ZtQmo3T5rP3/dvQgUI6C2RDFCOi8CIiACjUFACtnGeE7KpQiIgAiIgAiIgAiIgAiIgAiIgAjMFAR++OEHd8cdd/h7WW655dyKK644U9yXbkIEREAEREAEREAEREAEREAE8hGQQjYfGR0XAREQAREQAREQAREQAREQAREQAREQAREQAREQAREQAREQAREQAREQgZQEtIZsSoC6XAREQAREQAREQAREQAREQAREQAREQAREQAREQAREQAREQAREQAREQATyEZBCNh8ZHRcBERABERABERABERABERABERABERABERABERABERABERABERABERCBlASkkE0JUJeLgAiIgAiIgAiIgAiIgAiIgAiIgAiIgAiIgAiIgAiIgAiIgAiIgAiIQD4CbfKdqPXxS16Zu9ZZUPoiIAIiIAIiIAIiIAIiIAIiIAIiIAIiIAIiIAIiIAIiIAIiIAIiIAIikIqALGRT4dPFIiACIiACIiACIiACIiACIiACIiACIiACIiACIiACIiACIiACIiACIpCfgBSy+dnojAiIgAiIgAiIgAiIgAiIgAiIgAiIgAiIgAiIgAiIgAiIgAiIgAiIgAikIiCFbCp8ulgEREAEREAEREAEREAEREAEREAEREAEREAEREAEREAEREAEREAEREAE8hOQQjY/G50RAREQAREQAREQAREQAREQAREQAREQAREQAREQAREQAREQAREQAREQgVQE2qS6WheLgAiIQIYEpk+b4n7+cbqPcbbZ53Rtoj+JCNSSwDdjRiQm32G+hdxsbeZIPKeDIiACIiACIiACIiACIiACIiACIiACIiACIiACIiACIhASmCkUspO+Geu+GjnM31eXHku4Dl0WCu8xt//Fh2+6qZO/da1atXKLLr9WtJWBcA6OdkoigHJmwthPSwobD9Sjzypu9jnbxQ/P8r/HfTbcPX71yW7U8Jfd5Alf5Xj0Xf93bofjrs39buSdn36c5ka+OzjxFtp16Oy6dF/CtZljrsTzOlg7AhPHf+Eu2mfpxAzsfsZ9rvfKGyee00EREAEREAEREAEREAEREAEREAEREAEREAEREAEREAERCAnMFArZ91641z14yZH+vjba9wy31s7HhPeY27/3goFuzMdv+98n3PmFm2vuTrlz2nHuzSdudGMjPigNN9jr1IZC0lJ5f/n+y93gu/9ZEZsDLhrkui+5ckXXzqwXfTf+c/fvIwa4aVMnN7vFX9wvzY416gGU+NefsFne7DM5hMkka+96nOu7we/9pJG8gWt4gskvz99xns/B0gO2c4ssu2YNc1P9pFu11qSd6lNWCiIgAiIgAiIgAiIgAiIgAiIgAiIgAiIgAiIgAiIw8xOYKRSyM/9japk7fO/5e93wFx9wc7adp+EUso2c95Z5uvWZyvN3nJ9Txi695jZuufV2jaxFe/vMtuvQpT4zXYVc/fLLzw5L4Xv+sZ8bOuge9/tT7qhCKumjnPj1GDf4not9RB3m6zHTK2Tbz9vVnfrwlBy4t5+61d19zj6539oRAREQAREQAREQAREQAREQAREQAREQAREQAREQAREQgVIISCFbCiWFEYFfCay5w1Fu+UhpGJdnbj7LK7M5vtnAcxMVVQssukz8sln+99hP3vEMWs/Wxm137FV+MsDMDmXhZVZ32/7xCn+bP03/wX39xSfuzcf/k3t/mBTx6oNXuv5bHjCzo9D9iYAIiIAIiIAIiIAIiIAIiIAIiIAIiIAIiIAIiIAIiMAsQUAK2VniMesmsyIwT5dujr+4YElnMt/CS7mFlljJfmpbgMC3X37mzy64eN9ZQhnLzc7ZroObr8eSOSpdF1veYR38yBX/51787yX++CtSyOb4aEcEREAEREAEREAEREAEREAEREAEREAEREAEREAEREAEGp3ALK+Q/fqLj90bj13vn+Oiyw5wvftvkveZYrk2avgr/nz/zfd3HRdY2O+zfun40R+4udp1dGvudFRk7Xaj++Stp90XH77pOi/Uy/Xos6pbefN9XTEXrN+M+cS9++xdbsxHb7kvR77n2s3T2S3YawW31OpbusVWWC9vvjjx04/T3TM3/S1adfMXt3Cf1dySq23hPh0yyL360FXeFSrn5+3a0y277k5uuXV2clgkcv7D1x7PxfvliHf9/vQfvndPXn9K7rjthPdsx2xbbt7fe+E+9/kHr/nLl15z27wKTPL/7VczlHb9NtnLde62uL8my7zbPbT0tpJnZnmcPm2K++SNp/zz4x2eOO5z17pNG4cV7gI9l/MKPt69JBny7J0Oy9Q2s8/l1t3tRDdy6GD3wSuPuE/ffs79OH2q67pYX7fKVgOjZ9Iv6fLcsU/eesa99eRNjvVRJ45nTeYOrn3nbq77Uv39O9s1ykdcLG07PnnCl3534tdfNHvnuvXq55ZZazsL2mT7yy+/uHefu8uNeu8lvy7099+O8/ferXe/yLJ0f6/0bHJB8CMN9yCazHfX2/1P7qV7L3Xc2/hR77uff/7JtW49W5N00ub9++++dm88ep0b88nb7qtP33NzzDW36xopw1kLdvn1dmmSlv14+sYz3E8/Tfc/ec4m77/8kPt+4nj76bedu/Vy/TbZs8kx+1FJ2natbe25j47KYfLPu9e+84KRm+sl/Nq7iy43wII223746mPuo9efiN6XdxzvS5cevf27zpq98y7Ys1l4HRABERABERABERABERABERABERABERABERABERABERCBrAjM8grZuebu5AbfdVGkiPrBDVtk6bwKWRQBj1xxnEPxiBJjrV2OzT2Dt564yStg5+44nxsXKVJMwUuAryLFKopclCC7nXZPE8u4XATRDi5LH7r8aDdtyqTwsBvxznNeSbPGDke6Dfc+zc3WZvYm5+3Hj5GC7tlb/+5/9t9if78u551nN1WMoHAd/tKDPv991tjaffrOIPfcredYFLktiqCk4736bZhTQucCRzuV5B0FyF1/38v9OG2qe/t/t7iDLn3ZtW3fKYzWr6X5wMWH+2M9llrFrfeHP+XOZ5X3XIQ12KnkmVk2/7nvsl4Jar9tyyQA5NnIhfK2R18RKTS3t1O57dBIkTl00H/d7HO0dVjz3nnWHpES8Ofc+c8/eMO98/RtbpeTb3ZLrrp57rjt8H7cceYfHOv2Jgnv+1M3nOZOeWhys9OWdvwEir74O7f8+rsmKmRZx/S/5+0fKdeebBLNl58OdSh8X3v4arfzSTe5br1XbHLefqThbnFUYzvX3B39pI3JkbKQ8ui7caNdpwUWaZJUmrx/NvRFd+fZe0QTHEY1iROF/CsPXOGGPHOH2+6YK5t9h8/ecrZXDje5KPqBQp6/UHouv3aiQrbStMO4mXhw7/kD/USS8Dhl7oi3n/XPfY3tD3ebHti0TIPlo1HZ/cqD/w4vc2NHDPHfweC7L/IupJcesG2T8/ohAiIgAiIgAiIgAiIgAiIgAiIgAiIgAiIgAiIgAiIgAlkRKFshO3XqVDfXXHOVlX4l15SVQIrA7Tp0dn0id6EoI1Cejh7+qrfwi0c58t3nvTKW48uus2Oie1UUKShjUawwuN8uUtB+9BoWWW9H60R+7G44YXN35HXvRUrVOZpEP/iei92j/z7OH2vVqnWUn60d1oWTIuvBoc/d7b7/brx74a4L3exztnXr7/GXJtcm/eA+3n7qVn+q4/w9Iiuw5b3V3ZiP32qixFtoyZUdyluT919+2CuByAMWvXHpEMUVl0rzjota1lpF4Yrb2vsuGOh2/fNtuegnfDnS3Xfhwf43itqdTrqxiTI6i7znEquDnVKfmWX1p+nT/C6K7e6RshprWKyeUboPi6yPf5gy0d3+t93c7/5yu0P5niRY2d59zj5ujrbt3VKRRbW9r199Nswryh+/+mS3xCqbuVatWjW5/KX/XppTxjIJYbloTd1OXRd1U6L3dNyo4e6Dlx91xJ0kvVfeJFI6zpc7xWQGws7daf7IqrepQqzH0qvlwtkO93XlEQPcd+M/94ewmF4iUhrP2W4eh9IPy3T/rZ24uTv86iFFrdLL5W75qMYWDliRmuDauJCUk3cU3tdHTJgAgeBSu2fftd0PkydGkzQecJO++dJPHLkrmsSx+xn3NUm2/1YHup8jC3tk0jdj3bDB9/t9LKG79Wqq9EbBH5c0aVtcpPvvw9d0Uyd/6w916LKQW2zF9aP3fnFvJTvy3cHeS4Gdt+vYPn7VSTll7Jxt5/Hl6zyRJffnH7zuPn7zKR/nbWf8zu1/wTPem0F4rfZFQAREQAREQAREQAREQAREQAREQAREQAREQAREQAREIAsCZSlkhwwZ4saNG+cWXHBB16dPn5LS//DDD92oUaNc+/btXf/+/Uu6Jk2gJ675k3vy2j8nRoGVa5KstNk+XiHLuTcevyFRIYsbYpN+m+5tu822KA/3+vujDoUjssGep3rFGFaDKJGwBsX1rsnkCV85XIIiKHKxol1kmTXsdORS9iR37f9t5L7+/CP3/J0XuBU33rOoe81PhzwfuaOd021x8Plu1W1mKDWJEHenrz50pesw3wzFau+VN3b8mdzy1529QhYL4K0Ov9gO592mzTvK4BGRhR1WjbgwxkoPV7k///Sjt5415cq2R/+7maVg2rznvakanSj1mVn2lh6wXaRo3Sqy6N60mcIUq+rrj9/MW71i/ZdPIUtcTEjY6+xHvKUsv1EKXnvsRl5ZhcJv9PuvOqyTQ8FVsAmWqD37rmM//Ral4jtP3dLkmP3gW+PP5INXH/UKedZULeWdw4rWlLErbLib2+qIS7ylr8XHxIXHrjrRTZk0wT153Slu6+h8ISmXe6G40p7DUt8slVFsxi3G4/GXk/dBt/8jp4xdKSq/tj7y0ui9ae2jXOerE90NkbJ2/OgPvQvszyI30AsHynDKEZMvInfqppBdbp2d3Ro7HGGn8m7TpG2RMjnAygMmu2z7xyt8eWnnsdp+MZrYguvrUFAGv/bINf5Q23nmdXue+VATy2ny9sSv9QXlcFwZHcalfREQAREQAREQAREQAREQAREQAREQAREQAREQAREQARGolMCMEfkSr0YZi4wZM8YNGzas6FWEQRmLTJo0yWEp2xKC4jXpL1/arM8674KL+dNDnr49p7iw8KypiqUqgqIkVJhaGNtiTWbKWI7hYnizgefklGYv33e5BfXb5247x/3w/Xd+f/NI8RGPe55ofUTccCJYt7FmZymy7h9ObqKM5Rrysto2hxRdG7SU+AmTRd63PuqyaP3H3j7JR688wa9t+nS0Fi7Wjsjq2x1WUKHoA80k/5XzzFA0JlmvggK3saYkHTXslZySLwnTgJ2PySljOY8b41CJP2HMiGaXTfzVOhXL2kUS1uxEybvatoc2uy7tAaw4Uboh8y/cJ1IqXtZEGctx3pd5unRj17vSZhJCMSmHe7G4Sjn/S6Q8/OnHaf4Pi1+UnLgrt4kZxFGq+9xS8o6S3ZSSPDMs000ZS1pY0a+3+2+TWFjHNivJIm1vCfy/m32WeLY7HnddE2UsJ1hrd80dj3KbHvD3JlnHfbVZBVP2xd1Y43qeyQAI62nj/lgiAiIgAiIgAiIgAiIgAiIgAiIgAiIgAiIgAiIgAiIgAlkTaFNOhFjFmiIWpSySz1IWRayFIRxWteW6Oua6cqXXSht6V5ZJ12EtiFVnXHDJitXYk9ef4q2wsNZcfr1dcsFYKxPFCUK4QrL8ur9dZ+FQ9uIidPT7r7lxnzUd8B89/BUL5t22Nl2TcYZF7zyRe06TMZHypphgabvatocUC5b6fBZ5x4XoTife6K7+47pecXLDiVvk3LZ2j1wqb7zf31LnsxEiSPPMpkz8JloX9LNf3+0Z7wzuixEUfz98P7GZAsuYLLX6Vrab23bpvkRuHwvDuHScf2G/DinrHb9072X+XUMhVm0Z+8nbfm1V0sFFsyntZ6T7m/V79yX7eytO7h1lXjhBIp7HNNzjcZX6m7VvT9+6Y97g3XqtEK2XfHLe83ai1LzjEtyUklhLo5SNCwpgLOOnTZ3sxmeolMwibdZFNu8Ga2x/hGszx1zx7Of9HSpY+0YW1UnC8f9df6o/xb2bgjYprI6JgAiIgAiIgAiIgAiIgAiIgAiIgAiIgAiIgAiIgAiIQCUEylLIolRFiillUcTiqtikHBfHdk2lW9YVXCuy+ksSrF+TFLKEXXGTPd1TN57u3eW+GbktDhWybz7+Hx8dFqYrbPiHpKhzx+btNsPSNnfg151O0VqfKGSxGGOtWdbeRMaP/uDXEM7d+Kdtcvv5dkIFQ74w8y/SxytX8p3P6nhWeUcBtWlkRfzgJUd6NuQPZROK2vh6u1nlvd7iKfeZoQx99aGrvMWoufDNd0+4gE4SJiJ0mK97s1Ohq1wUdHFZZu0d3Mihg/1h1j4edPu5btHl1orc3K7uFll2Tcf6vvF1Z+NxVPJ7/KjfvpXhLz0YrX36YNFo+F4KKWTL5V40wRQBeOfX3OmP3sq3lPe+1LxPGPtpLlesuZskuDjnXYBXGD4pbDnHwrgqTTssZwo9y6R8WfpYBLPOcZKE+bLwSeF0TAREQAREQAREQAREQAREQAREQAREQAREQAREQAREQAQqJVCWQpZEiill4+6MW1IZWykErsM18JKrbu4t6z5+4ylvAYgrTyy8zGqV83N3mj9vMrPP2c7xlyRztfvNIu67caO9QpY1EVlvE8HCsOMCiyRd2uTYPJ1nuGNtcjD2I5/iIRYs1c+s877y5vu5ZyJXxbilRbBamzdSYs8qUs4zQxl77XEbOywHTZgs0H7erjnrwUlfj81ZdedTyLaZfS7vxtriSN7+Znlq53FpTB6wOGetViY5DB10j/8jDM+NNT7NbbJdl3b79Rcf56JgQsMckXV1MUHRWEjK4V4onnLO4W4ZxSuC4rp9VPbAjO+/WH7DdErNO+WNydzzLmC7zbaUbShkeaa4ac9XljW7sMCBLNIOn3vHBRYukFrzU5Z+u45dfBnbPIRrUqZb+KRwOiYCIiACIiACIiACIiACIiACIiACIiACIiACIiACIiAClRIoWyFLQihZWQ92xIgRPl1zTdypU6ec9ayFy+fS2F9YZ//hjnjY4Pv9mptvPXGjW+f3J7i3orULf/nlZ5/TftH5QvLT9B982HB9Rgv/c7RupMkcc81Q2uIiFNeyKMxYm/aQf71mQVJt52zXIdX1pVycdd6f/s/pOWUs6b/+8DWu38Z7NlvzsZS8NWKYcp7Z83een1PG9uizauTW+UxvmRpapd57wUHujceurwoKJg/wbaCYfePR693Id593H7/5dG4t5G+idWf/c/LW/n229YGzyAgWpCZbHvZPt8xa29vPirflcK84kdiFHbsu4vpFFvlppdS84xbcZPrUKbbbbIsSFqFMKsctcLOIggNZpB1OZsH9djli6U//ocB9T51x38Sb5M65nPQUVgREQAREQAREQAREQAREQAREQAREQAREQAREQAREQASSCLROOljKsZ49e+asZQnfqJax4b32XmVT1+HX9VpxU8y6hShmEY737r9JGLzZPkrX778d3+w4ByZPmGH5yX6HyPIWQfHB+rLIpG/G+m2j/Jdl3j987XH33G3n+FvvFFkJYu35Y6Tcvv1vu/k1fRuFSUvlc+hz9/ikcC28+xn3Ru6CBzRzEfzNmE+qnh0UpGvscITb9c+3uWNv/sTtcNy1ztafZf3WVx+6MtM8dOmxZC6+RvtechmvwQ4KYJNJ3zRfE9jOTfx6xrrgeAZImlRi4crZZpF2lx6/rWmMsr8csfSx6OYvSSZ+M+O+OVeq1TFhecclIiACIiACIiACIiACIiACIiACIiACIiACIiACIiACIlAKgYoVskSO9au5MA4TaxQ3xWGe2cfyj7VkEdxkPn/HedEarzPWwl1x4z3yurz0F/z634h3ngt/+v2ffpzuRg172e/janX2Odrmwpiy4fvvxruxI4bkjtdip80cM9y7YikXWvTmy0sWeWf903vO3dcrv7FO2+PMB92Ge5/mk0SpeN+FB+VLvsnxcvPe5OIG+2FuVeeN1gOda+5OzXKPy9kvPnij2fFqHsC9bd/1fxe5Kv5XLhn7dnIHUu6YspdoRrz9TMrYZp3LmeRgYu7X7bdtcVU8cfwMZW0h1+n2nXHdD99/Z5fn3WaRdmhlPeTp2/KmlXSiSfp53pkRb/32LhW6d+K3tb/Z/zxaE1wiAiIgAiIgAiIgAiIgAiIgAiIgAiIgAiIgAiIgAiIgAqUQSKWQJYG4UrZRlbEGC7fF5vr1iWv/7A/zu9+me1mQgttXH7zSKxfDQO89/99ordgZlrNxK9sVNtgtF/TJa//S7NrcyWjnyxHvlqQECa8pZ7/j/DPWZ0QZO/bjd4pemjbvuGq+6+w93eRvx/m0tjz0wsjCsndkdXlkzhp56KD/upfuu6xoXsrNe9EI6zgAa44irCFrytkwu8/eclZu/djweFb73341Km9UZv1NgHLWQ80bYXBiwV59Xdeey/kj7z1/rxs1/JXgbNPd6dOmuC8+eqvpwVn019ydFshx450ZOXRwMxIv33d57livfhvm9uM7HeebYd3P8XAN43g4+51F2osuv7brMF93H+V7L9znkia9cHLa1Mnus/desqT9dvHgXrhHvB6EwoQQ3iWk7TzzFnWRbh4NCD/i7eaTbzguEQEREAEREAEREAEREAEREAEREAEREAEREAEREAEREIE4gdQKWSJEKctf7969/TaeSCP9xmXl4v02aJJlFALhQHyTk7Efn7z1tLv3goEOpRVKIRSK9114sA+FYnfAzsc0uWLZdXZ0i62wrj/2/ssPu+uO29h9NvRFr1xAYYmV4dtP3equ/b+N3GUH93dfjRzW5PosfyzQc9lcdHdHVqvvPne3V2p9NfK9KN333I/TpubOs5M27/+74a/u0yHP+zixrlxhwz/4fThtf8xVrv28Xf3vx6480Y0uYo1Wbt59xA36X7feK/qcs7bxg5ccGSmGnvUWzRO+HOkeuPhwN/juf1b1zi4buJK7+pj13ZuRO29cyJKP77/7OnrX73F3RG6mTeKTD+x4pVss2Dc/5Hx/OYq164/fzL1w10WO++Y3lsEo5B698nh3/h8Wd0/+OqGi0vRmluv4ntb9w0m527nllB3c+y895Msn3BQ/ef0p7uX7Z1g2o5RcddsZ5VXugmAHK3Zz6/v+yw+5J675U/QND3JffjrUlxFxZX0WabNe9SYHnJ3LxX9O2mrGcx/7qX/uTEp499m73GUHrexef+SaXDh2lh6wbU4Z/dHrT7p7/rGff2fxWoBi+tpjN/Lu0QnLRBBbc5bfSTJvt8Vc18WW96e472uO2cANeeYO9/Eb//N/vIMSERABERABERABERABERABERABERABERABERABERABEYgTaBM/UOnvJNfFlcZV6+tW2mxfx+C9Ce6KSxXW9WT9Wf7istq2h7oFFl0mfthtdfgl7tbTdvEKDRSUKLtQZMStuZpdmPEBlKKDbv+HG/fZcJ+XO86coSC1ZPb++6OuZ9917KffVpr3D155xLuEJpLOkevdLQ9vqkScu9P8bvtjr3Y3/mlrv1YjeTno0hcTXfQSRyV557pGlPX3+Isb/uKDDtfSw1960P+xpi8KfIR3cIHIkhSFUbWESQP8IbO1mSNKe3qT97X7Uv3d8uvvmnnyPaPJEevv8Wf3zE1n+vt/7KoTHH+SwgSWHrCdW3K1LbwiFqXhzafu2OwC3qFND/h7UaXkBnue4piwQfk0KHLrzp8Jz2fvcx6zn36bRdrLrbOTGxmVjSiOWbu11OdOObrZQee6W/+6i7caf/t/tzj+4tKt1wputW0PiR9u9pu1dTfZ/yx3c6TUJh8odUOL493+erdbctXNm12nAyIgAiIgAiIgAiIgAiIgAiIgAiIgAiIgAiIgAiIgArM2gUwsZGuNEMs5k3Dfjtm2VevfbpeB9Xyy1OpbOpQTCBZhy6y1fb6gTY6jRNz9jPvdPF26NTnOmrGb7H+222zguU2O2w/c9A68ZLBbK7KeJT0krozFAnTd3U5yXXosaZc12XI/KB+QVgGPJoGK/OCeD7joObf5wedFCr1lHeuChpIUbyV5Z+1JLNW4x9nazO52OvE/iUqgXitt6AbsdLTPwoTIGu7hy5taF4d5qyTv4fVp98P3LtwvFG+lzwzme/zt/ibKfZSxPP/5F+7j9jzrYYdC1CT+3Ox3q9l++24sLFs7H9+3MExQCC3GUUzZ+4o145o7HuW/g3CtZLs2vjVWYZrxMPHffAf7nf+0Q4lm73wYhm9o2bV3cKtvd1h4OLdfKfdcBBXshPdn91xBNNH9Vvadw+n3p9zpNtrn9GbfNfnovFAvt885j7tSJp/03eD37oALn/MK93YdOjdZWzu8T7u/rNLe4pALovf+gcit+RIWdZMtymCzsg9PLLbCeu7Ai19w3ZdcOTzs95lMsOrWB7n9LngmsQxqdkF0gHKJ9w8LcLPit3Bpnq3Foa0IiIAIiIAIiIAIiIAIiIAIiIAIiIAIiIAIiIAIiMDMR6BVpEhpuqhendzjXx9p6h63JbP1yVvPuOtP2MwnudJm+7htjiy8hun1J2zucFWMQvb/bhnpr8PV8JhoDUsUHV0XWy6n4C12HzyOb7/6zH0VuQCdNmWyXzux04I93Ty/rhta7Ppanm/kvNeSW6Vps9bv+FHvu3GjPoiUbG0jJewq3jq20vjKvQ73tCjKJ0Vub2ebfQ7vyhZrZ5tUUG58lYRn3VDceH/zxceR9XRHxxq2fHNZr19bSd7q9RpcTFM+fTliqJuz3TxuwcX7+rKrJfKbVdpTJ3/rnzvvH0rRLj2WcB26LFT0FqZOnuDGfjIkemfHuvkWXjL66+MnhRS9UAFEQAREQAREQAREQAREQAREQAREQAREQAREQAREQAREIAUBKWQT4OE+eNjg+/2Z/S981vWIFF2FJEkhWyi8zomACIiACIiACIiACIiACIiACIiACIiACIiACIiACIiACIiACIiACMwaBDJbQ3ZmwDVtyiT32iPX5pSxCy2xUlFl7Mxw37oHERABERABERABERABERABERABERABERABERABERABERABERABERCB6hCQQjbiioviBy4+3H03brSb/sP3njRrkm6492nVoa5YRUAEREAEREAEREAEREAEREAEREAEREAEREAEREAEREAEREAEREAEZgkCUshGj/mH77+L1lT8IPfAWX9yh+Oudb1W2jB3TDsiIAIiIAIiIAIiIAIiIAIiIAIiIAIiIAIiIAIiIAIiIAIiIAIiIAIiUC4BKWQjYt16rei2OuyfzrVq5bp0X8L1WHpVN/scbUtmueaOR7pl197BzdG2fcnXKKAIiIAIiIAIiIAIiIAIiIAIiIAIiIAIiIAIiIAIiIAIiIAIiIAIiMDMT6DVL5HU423+9ZGp9Zgt5UkEREAEREAEREAEREAEREAEREAEREAEREAEREAEREAEREAEREAEREAESibQuuSQCigCIiACIiACIiACIiACIiACIiACIiACIiACIiACIiACIiACIiACIiACIlAWASlky8KlwCIgAiIgAiIgAiIgAiIgAiIgAiIgAiIgAiIgAiIgAiIgAiIgAiIgAiJQOgEpZEtnpZAiIAIiIAIiIAIiIAIiIAIiIAIiIAIiIAIiIAIiIAIiIAIiIAIiIAIiUBaBul1Dtqy7qEFgrXFbA+hKUgREQAREQAREQAREQAREQAREQAREQAREQAREQAREQAREQAREQAQajIAsZBvsgSm7IiACIiACIiACIiACIiACIiACIiACIiACIiACIiACIiACIiACIiACjUNACtnGeVbKqQiIgAiIgAiIgAiIgAiIgAiIgAiIgAiIgAiIgAiIgAiIgAiIgAiIQIMRkEK2wR6YsisCIiACIiACIiACIiACIiACIiACIiACIiACIiACIiACIiACIiACItA4BKSQbZxnpZyKgAiIgAiIgAiIgAiIgAiIgAiIgAiIgAiIgAiIgAiIgAiIgAiIgAg0GIE2DZZfZVcEWpTAN2NGJKbXYb6F3Gxt5kg8l8XBX375xU2bMtFHNfuc7Vzr2Vr2U50yaYKbGv3Fhby0n3eB+GH9FoGiBKZPm+J+/nG6f5d5jyQiIAIiIAIiIAIiIAIiIAIiIAIiIAIiIAIiIAIiIAIiMKsQaFktz6xCNeE+x416300c/0WzMyjaOndb3M3TpVuzc0kHUGp88eGbbtR7L7vvxo1yC/ZawfVYahXXpceSrlWrVkmXNDn22XsvuS8/fdd9PfpD91OkHOkwX3c3b5T+Yius4+aau1MuLArBT995zrEtV+buNL9bYNFlyr2s4vAj333B38tc7Tu5bhGPrITnddE+SydGt/sZ97neK2+ceC6Lg2M+estdcfgaPqrND/qHW23bQ7OItuQ4nrj6ZPfaI9c0C9+jz6pu/wueaXZcB0SgGIEbT97GfTpkkOu0wCLuqOuHFwve7Hy1vnMS+vnnn9zIIc+7cZ8Nd9+MHeF+mj7NdV6ol5svKld7rrCua916tmb5KedANfNeTj4U1rlJ34x1X40c5lF06bGE69BloUQs1LNTJ3/r69VFl18r2rZ2TNCZMPbTxPDFDvZYqr8b/f5rqevUrNoS+fL73fjP3fhRH/jTtC/aRvVqIZk84SvHNUj7TguU3JYpFGep50pN254l7a1FlxtQavSZhGNyE/U50qV7b9/myiRiRSICIiACIiACIiACIiACIiACIiACIiACItBwBKSQbaFH9sxNf3PvPH173tTmbDuPW2qNrdyGe/3VdVxg4cRwo4a97G76y3ZuysRvmp3v2Xcd9/tT73TEkyRjP3nHPfyvY92It59NOu2t1hZdbi2319kP+/PTpk5y1x2/aWLYYgeXWGUz94fT7ikWLJPzMLnm2A19XCtsuJvb/tirM4mXSFq1rp1H71ARHu5ndnNFImo1WzoFVJHoW+Q0ipfn7zjPp7X0gO3cIsuuWVa6bz5xoxv78dsOa84N9jq1rGsVOInAjMkdv7jyJ3lU6zv/6cdp7snr/uLeeeo2N/HrMUmZdgv0XNZtduA5bvF+GySeL3awWnmPp5vmfU37rcTzUs+/33vhXvfgJUf6LG607xlurZ2PSczuvRcMdGOi7x854c4v/ISll++/3A2++5+J4Ysd3PucxzKpU7NoSxTK630XHOQ+fO1xr4A+/Kq38ypkv/7iY/f87ec53ju+I2TlzfZ1Wx95aaHoMzlXbtqD777Ivf3UrT7t/c5/2i289GqZ5KOUSL7/9it3w4lbRIr4n12vlTZye/zt/lIuUxgREAEREAEREAEREAEREAEREAEREAEREIGZkEDtNE4zIcw0t/RD5J727f/d4i4+oK/7bOiLzaL6+I3/+UE9U8ZisRW6jkXRen2kQP3+u6+bXYvV19XHbJBTxmLpg2Vsp66L+kFXLvj5px/dJ2893ezaej8w6PZ/+CxiHTxgp6MzzW77ebu6Ux+ekvvb4bhrM42/niPb6rB/5u4bBlgLNpqgYBt8z8X+b/TwV8vO/nvP3+uvfeney8q+VhdkS6Ba3/m0qd+7F+66qIkyFiu6Odt1yN3AlyPedTf+aRs3IvIYUIlUK+/xvKR5X9N+K/G86HftCBRrSxTKGQpolLHIMmttl1juM7nrrr/v5S7Zv6/3omDK2ELxZnWu0rQH7Pxb28C+x6zyVCyeLt2XcEsP2MYH++j1J9wXv1rLFrtO50VABERABERABERABERABERABERABERABGY+AjO9heykSZPciBEj3HzzzecWXHDBuniCOx5/vevWe0Wfl8kTvnSjh7/mBt1+bqRMHe9+nDbV3fOP/dxBl73s5phr7lx+H7z0KDdt6mT/u/8W+zsse+aau6MbP/oDd/MpO0TbD93nH7zhXrr3Urf+Hn/OXcfOXefsHa1HOskfW379Xd3G+/4t5zYPF8i4P37+zvPdh68+lrtujrnau4EXD/ZWHbmD0Q6WVKSHzL/I0pFF6lV+P/yv7Tzzhj+rtv/VZ8Pc8Bcf8PEvserm3pKtaokpYhEQgZoQaInvfO6O87nVtjvMLbXaFm6+hZfy60N//flHjnIXJQoujVFCHXHNu272OdqWzKEl8l5yZhQwNYE1dzjKLb/ers3ieebms3J10WYDz020xl8gqi+zrlMraUs0y3xwIFRWDtj52ODMjF2sPP916GpN3C7TDsG1c7UlTdpdF1ve4bnjg1cece+/9GDksvo9336pdp4tflgOHfRf//P5aBLZTif+x05pKwIiIAIiIAIiIAIiIAIiIAIiIAIiIAIiMAsRmOkVsihjx40b5/8mTJjg+vTpU/PHO2+3xfzahGSENQpxFbzs2ju4yw7u7374/juHO76PXn/SLb3mDKuKkUMHe8Ur4RdeZnW3xaEX5tY0xPpit7/e7S4duJK3cn3zif+49XY/OWf5+u2Xn/k1Z7mWtdN2+L9rcuc4hnJhsWiNRP6wpDXB4tSUxnaMbejWc85287iFllgpPN2i+8/fcX5uYHitXZoPHrdoZpSYCIhAVQhU8zuffc623sVq3w1+30zRilX4rn++1V0Wla0Tvhzp1wAf+/E7jnWUS5Vq5r3UPChcdgRY6z1pvXe8KZig0M9XL2Zdp5bblrA8Jm2/GfOJG/rc3f4U7rkXWqJfUrBcnbvIMmu4tX9/fDRxrL279v82Sgyb9UFz319J2rQRUMgSB9/ldsdcmXX28sbXfcmVozbWet4LydBB9/g2Xudui+cNrxMiIAIiIAIiIAIiIAIiIAIiIAIiIAIiIAIzJ4GZXiHbvn17r4zl8Y0ZM8Y/xXpQysZfJ9aNXWnTvbyLVM599enQnEL2jUevzwVfft1dcspYO4hStvtS/b2rYxSwn7z5dG69w8+GvWTBXO+VN2mijM2d+HWHgeRGke/GjY7WfbzVZ5e1QRmgzSdYAb/20NVu5LsvRJYxwyLLmD7egmmlzfaJrGUechPGfuqw6l158/3yRZHqOG6k33j0Ojfmk7ej5/qet3zuunhfn4fl19ulpLjHjXrfr3P5aeQ2FZeU3Zfs73qtvHHuHUmKBOvp91962I0a/rKD15QoH7ipXqDnMtFg+8pu2XV2it6HVkmX1vxYpXl/+sYz3E8/Tff5nzj+i9x9vP/yQ+77ieNzv9np3K2X67fJnrljnw4ZlHPXyUFc1SLTf/jePXn9KX4//K//5vvnXe85DFfu/k8/TnesE8laqwv3Wc0tGVltkrdXH7rKT5rg/Lxde7pl193JLRc9Q1zsxgWlw7vP3RVZ37/i3zne8fadF3SUFSgfmZxhwrnXHrnG/+yz+tbu5fv/FU3ieMMtFCkR1tzhSNdh/h7umZvPdCPeeib6Tjq7FTba3bFec5Jg4U8+R733khsb8Ztv4RkTTlbadO+k4EWPFfvOsXSztSGXXGVzP2ElX6SvPnil+3bcqKj8bJPzItBm9jn9upf5rsFLAZZ1rzz4bx/ki4/eLFkhWyzvlibl0ydvPOXfPSbjTBz3uWvdpo1bYNFlom91Of+NJ7kMT/u+pvlWLO9s076vUydPiN65K9zn77/my2Liwx1/p+gdX2KVTaNybqO8a6OH+dD+DAKF2hKFGL1w54XeEpww+dbVjVZWd33W2NqtHlmTs249Qr3aMpIubco8JrSxJMQ7T9/m1t/zFNcxKtvKFVw68+21iv6t/bvj/Pq5rz54lWNZCb75dpG1fbfe/SJGh7p5F1wsFz0KYZaFwNr+hbsudCwLUKoMefZOh7vmNrPP5dbd7UTHJD2Uy5++/Zz7cfpU13Wxvm6VrQbmVaKXmo7CiYAIiIAIiIAIiIAIiIAIiIAIiIAIiIAIVJdA85H86qbX4rH37NnTTZ06NaeMrWelbDjozsC8yej3f1v/cvGVNrTDTba9+m2YW3t2VKSEwcLFS6SYMQnjsWONuh1890VeEUD+8w8eOzd5wlfullN3jJSSr+RuFSUOViq4aMbV4qhhL3vFWjUUsgz+3nn2Hu7br0bl0meHAdVXHrjCDXnmDm+p07Z9pybnwx8oBp+95awm6wN/8eGbXvHFwPgmB5zdTEmPgu3+iw4No/H7KHZtjUDWLN4+spgulHazCFrgQJq8P3vL2TmlQpjVTyJlIn+h9Fx+7aYK2XcGueduPScM4vcZQE86zjeH8iNr+fH/2TsPuK3G/49f7akiI0pDiVQqSlQaZGREJRkZEcoM/+wVIavwKzISMpKZUDIqZEQ0qIwGSWZGmYX//b7qOq7nPOd+uvcz+nxfr/u5z7nOtc77jPt5nc/5fr8xge618TfYbglPTqjyJ4b9JxyzgXPi41joTQRDBBLfuHdMHH6aFQ38co49uaZnTx5j9upxljng1PX7Smhet3/um3bfxl4K+TzGBI9AX3RBVOAFhsaxMOG+Ec780SFHxETg/+5XXGvkNl301qSYsP27Xz2h5Y1d52VjHv5uzt8u/cgcfdUTkf2Se3vy6PPtPQMP13BY98hGGwoRxp3hDZiobWzurp/bT2pqvW/duvvmGsdei4XDPey8u2I5PXu4TfabY+P23d+Q6PmazrXij5fO+cr5OP7qI/OFvOW8MWaG+WDqA/ZYdTrmEn9ILW+EQLz/JeI1W/Pjt+aDlx60m/GMDf5/CDXgBZ6jrpgQKs3NaibG5n+FR4f0tvcBrk/CSydri2OCLLnJsVaxF00mDD0qb17Y2H2W+yUvTw0Y9d8LcQ1j/7vhIc11PeelWCSTYy+zLx4kMv6C2Ms1hDwmogkvzj1x/XExT99/gqakq0BkPvLSR/Ldl4NKWhABERABERABERABERABERABERABERABESh0AiVekIWw84h1Yqz7duWFfhQ2TMAX7SpUrhZM69eY0IGVKlXaergFG7yFLWNen85+jT1cdeZ7vX767otWmKyzUxu3uVh+I67MnjLWzn3r+k0N+WPj2firewdiLOLZTnseYjl+HBOInDAZr2265XhoPnBxN5sXmL4IY1l/173Nn7+ujolpz8Xy8X5r8w4+GRPb+g59Nu5w78e8azG8oAl7SL8LZz5jhbq3nxlpqtTY2uzdZ7Ct4/78vfYvu1imbDkbErtmLDR2tS1rx0Td782iNycZwlN+MmuyefCiA81pI992zYrEdzpzb33IqeafmIcdhkCIEIjBbtuG6/M224LYH//aoAyPUARQZ/DB44nrbvduJ7ni4BvP0Wyb7wGKNxe5EPF+/XrJ3EgRj32++6x2gcBVreZ2pkHLLmaL7Xaw3odffLQ+/Hm8nI/sK+HTP/9opu2f84QPAg85o8nZzPgfTp+Q78H/+JjQ4cRYwnHi2cuxXPTWs1YITpZVItf55rXqB15vXM+/r/kp8gUDrhc8L7FduxyV1FTw9nVWt2l8T3xXh+9E5u7qu/OdfakduzfDGq9nRPdFbz5rPeInXHuMFcJ88T3d8zWda8XNPfydzPm6bu2fhv1y5yIiYINdO8W8g8uZn75eZs9BGPz7z3/CU3g8rUcTiPe/RHRtE8s9PzL4nYrKHRuvXXErb9z2YHsf4zx9P/Y/BEJ/OjnvX4jlmF65eK4pW76i2Sb2vwgRKAhvvjImkEZZh1gu2cev72tZw3zfE6+Oqha3DG/6p27sZ8pXqmrzXeONu3j2y4Zc1UQneGnMpdajv6hGvoi7Y9ogAiIgAiIgAiIgAiIgAiIgAiIgAiIgApsIgU1CkOVYOvHVibHu25UX9vEmrO2cDR4qzIXQetg/f6+LiWjrQ62SszXeg7aKnoC75qf1Ai7tbdjLWOhLvN3+XveXGXNu55j3SxcrTNZr3iG2vWncPmlfFI2Qqn/9vsZOrf0R58WdP558yzeIKQhZx1//gqkSe4CJdTzqQnP/BfvbB5m2IAt/3phwc/CQm5Cth54zyop7dvzvLjYPxsTaH1Z8ZoVh5rl9k7ZxZ0GIWHLeIZhhCIfjLj1kgyj7P7NnjzPz5MDkwXDnYy81u8fqbRYLVetb135DrdcwAhYPk+GE0FtULJ25HzRweLAb7JsTZJt17G326nl2sC1qoVEsBDQfZ3hSIcjihXrIWes9oty2XH1//uHMWJjKCob92qP7wGBYxMX3XrgnJrLnFYV5IO8EribtDzOHnXuXqViletAO78m3Y95dq1f9F8452Bhb2PfEIYbQmogKt56wPoQ54WPPuOsDg7j/5A0nmPkxMdb3mKX9kjnTghcf8LDjWqtYZb3XN2E9udZ8r39/zHjLiV7nCKx4onN/Q3iNCo/MnDGEzqadescbMl85XtVfL5lny8n37YcgzVfZK0h07jRp0v7wmJfzIaZR6wPy3cuWxbzsHrjwQOsNh0efL8ime76mc614u5pnMZnzlRDY7rcNb/Xjr3s+T1+swD/eb16+yikUvHzfZeaVsZdHtuTFg+Jo8f6XiLcv5K1/97n1Iblr1m4U88Q+PF7VYl/OudThyPPN0zevjzwwa9KdVpRNdcc+fe9F+79arwsfMDW2rht0g+BLZICwNYmx5YULohLAnHut//JduH7UeuVqW5gThk0JXihCpB37f13NV5++H0vJsNAQCaW4v3QXtd8qEwEREAEREAEREAEREAEREAEREAEREIGSQGC9ulMS9iSBfUB8rVPnPwEDUXbRokUJtMxsFTyiEA/wECLnK+Fzx5zX2XpMMhICihPIfv35e+uR5srjzaSCJ7r4HrIIEIedd3fgBUKYu8Xvv2JeuONcc+fANjHRpXHMq+IS+4AwXt9FqZx8nu9MHGWnhMdrQTlY35l4RzD1riddE4ixFFapsZXp1PfSYHumF2ze2g15OfFmITSiE1MZC2/Hzn3/EwLcPkXNo0zZ8rHwsnnbI9iTCxQjLPOC15/K05Rwsp37XpZPjKUSwtreMUHaGWJWUbLiPPdscOwUE9Z9MZYxOIZtu5+eJ2eg9U589RE7BcIM97rg/jxiLBtKly5j2vUaZA445QZbL/wHr0sMccEJuds2bGXHo5wXGzA8QH2b9eydwSpeX06MpRDP7I6xvIfJWDLXObmQ4YHhuRu21au+Djx0CTPtXsoI1wuvI2xPuu10W8y12/3c0eEqkevJzJ0ODj17ZFyvNoRKl6vzy0XvWmE2ctAiVJjo+eq/FECe3ihr0KJTsP9R2zNRhvAa9clE39nuI5n/JeLN5b1YfnX3Egf3Bv93Kl6b4lzerNORQah5/kfgek3VEEeJbuGLsfRFNIGOR1+Ur1t3/2UDzGGfrLWPhV32ozsQxtj/fcC7XCYCIiACIiACIiACIiACIiACIiACIiACIlA0CWwyHrIOf6NGjUzVqlUDIRZRtmzZsobyXNnYwV0LHOrQc+4IRAO8V5yVrVDJLeb75kGfM0LX+VY7JrIMvONdM23cNeaj156wXpVuO6ENZz4xwsyadJc5+IxbTcv9jnObiuQ34XudV1W7nudYj7d4E/1++cd2U+VqNfN4Prr6eJvhfYgwnmlDaHfHgXEQZcOGByPel+QI/SGWdy6e4QnHg9+wNYt5+r33wr222O1ruA7reFOu/uErm8eWfI8YQr8zx9Otp/ONKMgLBskaoaRr7bBrvma5nHu+wZMsePf5u81vHtdEmuMdRR7geIYo2vaw9aJgvDqunNyEzqtvrx5n2zCablui306EpT4e+YgGFapUC5q78/ivP9ZYcdCJN+SnxbjWovJPkv8UcdOFDQ46jLOQzHXOmA1362pDcJOTlFDgePU6I/+iy7fYfJ+jXHGB39THi8559bY7YpCpu8teBbZxG5OZu2vjvhG6f/5uuX3JwmzIXctLNRgv8fz52+pAKHdtitJ3Mudr9a22D6Y+5+WHYp7LR+QTtoIKWVogrychvaMMj2RedinKlsz/ElH7wW/f20/fbjcRSaFF175R1UpUGS9vcH+cctdg+78E1ysvt6Rie8b6qVBps6Sa8j/W9IeG2pD6bz/zP3t/5/+QRI3fyrDVrL1jUERKA5kIiIAIiIAIiIAIiIAIiIAIiIAIiIAIiEDRJLDJCbIchlq1ahmE2J9++skeFfdd2IcIT6iu/a4xdXbeI5gKYoOzv2IP4+MZD+udlY8JKWHDS+2wmIdXtwE3m6XzZpgvYqFQ8ZR14TjxEnlm+Kk2R60Llxzuo7DXCd/81pO32WkgUO52YL+4U0KYIuwqVmObupFePzwErbr5NkG9uJ2lsOGnbz4PWpFPM8oYn+OCmOXXD9fdfNsG4SK7XqNW/aAcAThsX378rnnjsZtieT+fDwSpcB3W4ZopI0wwwn+yRh5cX5AtjLknO+dw/beeuj1pT3POv4IE2a1iuaER7ROxH1Z8GlTzWQaFCSyQC9FZuQqV7aL7ZsVt5/riRQInRvz8zfprDa91J9K6fvhmHzjGhIDemCVznbu+msfCFpPzl5DMH73+RB6BxYUrZg5+yF/XNur7hTvOs/ly2VavWQfT5bgroqrlK0tl7oRf58UKQkn/EntxoiDL5LVa0DipbkvmfOV3jvsf5wQvctzebxezbaOWpm6z9jaXLt7M6eT3TGQfEGM7xDwOowxv66IuyEbNm7Ko/yWi6s595eFY+PKv7aa2sRdDkhEGo/orLmX87/Dao9fHBNlVhvt2m4NPLfDlrnj7xctuyRqM9+xxliFcNuLpvFceKfB/Gb9/Qi5zzYStUtX14eEp574sEwEREAEREAEREAEREAEREAEREAEREAERKJoENklBljDFvgjrhzHOxWEib5jzaChXsbLZfJv6MdGwng2jGx6/0mZb2AeFPIj/1DwQdgAAQABJREFUw/OWDdf7Y816cZnyqjHhI57h4bZT24PtZ7+TjcGz8tlbB5ovFrxlm7z64FU2P1m89oVZ/uGMxwPxdI+YR4svFIXnBQ/noVq5+lbhzcF6svnbgoYbWfCFpyqet164GaGTEWR/j80XUTxqnypvyHubr61XHhZy5k0bb56+6aTAY5K2PLStFBP4eajL+fTjhtCGmRR5eNicqIDo748T+igrrLn780lluULs2kp23zd2/nFfSNScNyf1EUZTMeeNSdtSG7zu/TJ/+d9//rFD2HN3g+e172EbHp9z3b8uwtvdejLXuWtDDlbubYibtHceb5zjXy6aZavtRJ0ExO3pD18by+94l22zTf1m5uirHk9YqEp27sx37AX7GbybneHBh1Dvrok1q74xf/6+/mWcTF6rbrxMfidzvnK8jr7qSTP1notsHmvE9BWfzLYf5sS51mq/482BA2/Okx87k/Mt7n0l879EeF/xAn8zFh0D47ptc/Ap4Soldp37wB6HDjRc67wMxXXrUgAks9PJnO9+v+SAf338jTGP919shJJWB5wQ+SKL34blsuUqBuHZw9v+Wy+euY//m7+WREAEREAEREAEREAEREAEREAEREAERKDkEtjkBFnEWLxjnZFXFo/ZXNrO7bqbOju1SWhIxDNyHuLFwsN7Hsj7oojrxOWAY73qFtu44o1+k4vskFgOwzsGrPf08IWBjTbOYQU88t54/BY7onuYWtDwhFsljDMP+f+MhV2NZ+vW5g3vHK9esuXOc5B2a/9YHyY4qg+Xv45j6gSYcD1XJ3/5f3P3hTDEm0m3nWHFWBiQ0xOPIN/bjFDVI47/L8xhuO9U1wlNyydVK8y5pzpn1+60kW+7xYx9b0yw9QeqWLl6sEpo21wZ1yNesQg8//z9d9xh1/4Z/zpwjZK9zl07XmTA+3Xeq4+aLxe+Y1/cIK8jQouzXWNetBuzd569w4YTpR5iC/kh/Xy4BbVPZe4znxgeiLF4jO538nWmbtN29qUJN9bEEQPMB1MfcKtF+juZ85Ud2bZhi9gLQJPN57GIDYTT/+KjN4OoDfzWzY7l4f7777Xm8FgedFl+Asn8LxFuvXDmRPPDis9sMQJhsscu3F9xW+elrjefvNV6lM58fLjBy57/t5KxVJk5AZz/aYhssHDms7HfzcOTGVp1RUAEREAEREAEREAEREAEREAEREAEREAEiiGB0sVwzilNed26dea9994rdDE2lcnjLeXsq88+cIt5vr/69P1gvUqN/+oHhQUsbF1vF7PV9jvbGgi7eLwVNfs0Fo7022Uf2WkhLkblVPXnjMDpQvuFvUddPQQUvM9SMT9EdFT76rEwyc7W/Bg/p5sLF1l9qzpxPWR+jeXEjLI1P/73YoGfj/Gzd6dab1vadDzmYtO+93l5xFjKf/x6KV9J28b2O+kOQw2yOffQUCVutWad/wR25/2ci520Hp0bXgL59afoc5V5rNkQGrWgOSV7nft9OcGV6/qjGU/YTU6Q5aUW8swWZIRvnTL6/2wV7rnHX/e82azmtgU1ybMtlbkveP1p2wfe632HToyFR26fTxRK9VrNM7kivsJ+H3T6CDNg1Dvm9NGzzR7dBwYznhvLL+u/cBRs0EJaBN6YcLNt70LoptVZko3JW/7OxFF5PssXZP6FloKm5ac9+GbZh+bTd6cUVD3j2whb7EJEz3x8/bHI+CDqUAREQAREQAREQAREQAREQAREQAREQAREoEgR2CQEWcTYOXPmmDVr1gTwC8MzNhg8yYUddts3aLEklvc1ypZ88GpQ3Gj3goWHoKK34Lxuy5WvFPMIq+ZtKRqLzjsW8WevHmcnNCmXe5X8qi5Xrt/wi49mBqFA/fJ4y4g6zr6KhdYsyPDOc7Z07gy3mOebUMXkkMOqe/XzVIqtfP7hG+Eiu04eYGd+iFo/LOx2O+7mquT59s+XPBvirLh9/3bZgiAUdJyqaRVncu5ly1cI5kJoyGTNtcdDGU/rom41azcKpvjh9MeC5VwsuBcCVn21OMhJ6Y/7zdL5CYlqqVznbpwdWu0ThH2fH9t/8pIyLta04xGRkQVc24VvPmsmDj/NepXjSX7cdc+ZLbZr6DYn9J3K3N35vnksz3SUJy4vx6z8NPolnPCk0jlfXVv6TOVaCc8lnXVeEDpo4HDToEVn2w0C+6qvlqTTpdqGCCyZM824l7hadO1rQ2SHqmR19ceVS83k2MsP/mfBG09ldcyozvlfgv8psJkbInBE1ctGGS99tNzvONs1obqXzp2ejWHUpwiIgAiIgAiIgAiIgAiIgAiIgAiIgAiIQBEiUOIF2eIuxnKukEfPGaErf1/9o1u135++96L59vMFdnm7HVuZbRo0D7bjgfnM8FNtntKgMLSw+P2Xg/Zb1WsS11Mz1Cxnq+S3JZQl1qzTkQnnx+RBs7PXHr3ehlR164RXnbkhf54r29j35rUaBFWWzXs9WI5aqBLL40v+SYww0C5Hr1931rN3BqsNW/0nugeFGxYIK7k4JMQjEL7/4lhbgzCLO7Y5IGhWdYtawfLHbz8fLLsFROB3nhnlVhP6dvuOh+zyWEjYbFkm5159yzrBNFMJxe1ERlh/s2S9sBd0WAQX6jXfO/AKR2BcNj/6HP3rj18zfgwbtz3IErHn5ZT156WPaNak9TlZ/bLwcqrXueuHl0qadextV3kBY9q4a9wmG440WAktcG09cf1xVnQn1Hjfa54Nrt1Q1birqc7dne+cn06c9QfhvuXyx/rlUcvpnK/pXitR89lY2W+/rDJrN+Qejqrrv2TiC8ZRdVWWHAHnHUuo8fZHnJtc4xJUm3OM/ykwwmbn2ku3Xa9Bwf9b7piUILzaFREQAREQAREQAREQAREQAREQAREQAREQgRCBsqH1Erf62WefFVvPWHcwyPO6/S572oeFhCJ99KpeptOxlxi8qj6f/4aZctdgV9W02v+EYJkF8s7OeWmcmfvywzEvsV5mpz0PMVvV3Tkm3NSJhRBdaRa88bR566nbA7Gyeec+edoXhRX3oBLhkfC7iRohTKfHRJmfvv0itp/PmPFX94nxWS9uEwbzk3deSLQrWw+PW8RuvO7wWr3v/H1saM3K1Wra7dvGvFEJPYoxV47RhGuPseuPXtnT9Pi/MaZBqy7mjzU/m1mT7ox9RttteOTtcdh/ITptYejP49cda3peMNbs0LKLWfPjN+alMZfEPJzWe841bntw7Jg2CVqQl9HZh9MnmFo7NDdN2h8eyxG4mRXpJt16esIij+tn53aHmXnTxtvV8VcfadocfIppEJsL+1mx6uaGFwEyYZmce/lKVW0e0J+++dx8MusF8/J9l5kd9zgwFr55Czvv8jHxjVDR8Wzr+k2DTU/ddJLp3Pcy6zVZtlx5W45IHS/vb9Awhwvkct3/lGFWXGTYcZccYvMHk5sQD+zVP3xl7yEv3XdpzPuwk9m+SduMza7NIacZrlPuN9MfGmpDZO+6z9Hm73VrDS8ezJ48ZqNjpXqd+x033+coQx5YjHsbxnGKt6+cG49d0yc2z79s3XrNO9hrJJ6YvW2jlvYatJW9P6nOnf7IIckLIs+PPMfs1fNsUzcWvhdx9o3HbjLvvXCvN0rBi+mcr+leKwXPLHor9+AZj1xnWux7bEww72N/l5jH14vnmY/fed7+ZtGSa9S/v0X3ptJECfC74SIkcG9I1hP815++s7ma3Xh4xTv7eslc+/+EWycvMv+7ZMqyMTb/U8x79RHrHY+X+9FX/pd3OlPzjtcP7HfZu0csf/KT9qUrXszgniATAREQAREQAREQAREQAREQAREQAREQAREomQRKvCDrH7biFKbYnzfLPQffZx68+GCb+xNvrHGXHhquYsXG3Q/qn6+cAh74k0/R5VSMqtQwFhqZvGZFycgbS25GrPEeBxnCWSZqeMz1uuhBK2CTs+7jt5+zH9eeh/zUcWFNXXm8b7yJ9u9/vXkkJq4i4FivuNixcHbMkKdic+zmVq0Iiucgwi+hRx+JCelhY/wDTrnB4JkXz8pVqGzDvTJu2KrU2Mrse8JVeYoR8Hc/8CQze8p9Vnh9ftQg88IdeEGVCoT3Ju26G7woEzUe3CPiEX6ZkKY8uHYhWgmLfOrt/4VPTrTPqHqZnvs+x19pEFMJe+rPmbHrxzxKT7xxatQ0bBmCPkLb98s/tuFvEcV9O/GGF039XTv6RYW+3CwWmpdQ1oj9nKNT773IfrI9MV5E2O+kofY8417D+bb+nFs/cpmy5c2/MU/jeKGf07nO/X2rs1Mbs0XsRZVVK/8Lcdu883oPOL+eW+blBjyGnX0Su9fwiWetY/dXXorwLZ25dznuitg96Xmb8xkRkg/3hH/+XmeHgOvWMU/7eGHL/Xmke76mc63480hmmdywCOhORCen5rq1fwZd8MLHAafeaF+gCAq1kBYBP19p+97rcyYn0yHX1ov3XBjZhNC7fJzhfZtJQTYbY/M/BS818f/BJ7Hrj1DnuXwBoEPsGCDIYm/Ecsn2vvghh0/fIiACIiACIiACIiACIiACIiACIiACIiACJYxAiQ9Z3KhRI8OndevWplat/0K55vo4lipdJhiytLccFG5kAS+vk4dPs3n1EDd8q1xtC7P3UReY7oNGm3Df1baqbboNuNkKR+Ftro/NYiFuDzp9hEFQ5AF4QYYo6Sxef257Jr5nPjHcimn01f7I85PuEs+4/re+ZhAgq26+tW2/Wc1trUfWsVc/HRM/1h+XipWrJ9Q3ovXJw6ebRq33z5d3L8wDlkdf+YTp2u8ag6gaNrxj+t34UpBHzt/u5kVZ135Xmz0OHRDLdZf3uONN2n/EazHB5j9PTtfHgQNuMu16nRPkzUSQRCirULma9eo9/Px7gmPtn5uufdR336GTTKdjLo553O6aZy7h/Y5qm0xZJueOl+Ypt75ujzfXiT/Xje03wtgpt71uug28xTIOH8ONtU9mn/26XGPuOkxlDK7l4659ztSsvaPfbbCMEI1XojN/DJ+PW3bf1HfXP/MrVfq/ewHb8JLtfckjgZc4ZRge4L0vech6frLu98c6lu51vr6X9X+bx4R03/CajWf+vser45dH1U9n7uT9Pe7aSXleNEGMhe9W2+9sjr9+sqm9U+tgClHju43pnq+pXiupnq/bNd7dkPfX9zL3xdjase3HXjPR7NKhh9vFjHz755+/HO7cP7/deR+u49b9fvxlt72gb7/vRNr650Ai9f2xCX9PtAgM9qlENkhmTH+u/jyiyn3efl1/ORNj+/255Q691/9vwe/kzMeHu+LIb3/u/nJk5QQK8Yjl/wpsYezY+C+TuOZunFIb/l9x5e7bbWfdX3bb9S0CIiACIiACIiACIiACIiACIiACIiACIlA0CJSKPYD6t2hMpXjNYsiUPwptwjy0djkHEcd4qJ+I4dlIiE7CYf7x6y8GYbLGNvVs3slkHnQmMlYm6hBq+PaTmlpvsbpN25mTbn4l7W7Jx+h7o950dF1DGMSd9zrUHHXFhLT7j9cBYigPw79dtsCGDua44d2ajK398zfz5aJZ1qOvduM2gcBcUB/kafzuiwWGXMJ4AhGu2hcACmpb2NuK89wLm50bHw/E775YZK/7qptvY2rW2dFUq7md25yVb35Svv/yY/Pt0o/Mlts3th6eTmCOGjAb13nUONkoy9Tc8Rz+4ctPYtw+jb28USkmwrbJJ2xnY/5Foc91f/1hc5wTUptw7u53id8mWWYJTLrtDBs5gV6Pv/6FfN7emR2tePU2dnBXm0e2TNly5uz7FhQYzj7Te7Z07nTzwEXro2vghX/IWf/L9BDqTwREQAREQAREQAREQAREQAREQAREQAREoAgQ2KRCFhcB3hmZAmEd4+VELGgAvCPJgcqnOBi5bV3oTufBku68fTF25eK5VoylT/LDZtMQQbes09h+Uh0HD80GLTon1Ryv0HrNOiTVpqhULs5zLyoMK1apbu8VqdwvUt0H592Jh2cilo3rPJFxM1EnU3PnhRjCpOYyVGom9j8TfeAhywsqfGTZI8BLOXNfedgOQJj5cOjt7I1cPHrucOT/WUGWvNdvPXWbOfC0m3I2cX7X8Qgn3POcWG7lzn0vT+iFq5xNUAOJgAiIgAiIgAiIgAiIgAiIgAiIgAiIgAhkhIAE2YxgVCfZIICQiIddmTLlzI5ebtZkxvro9aesdyAhWl3IYtrjFTvZ5lVdH4a15X7HJdOt6oqACGSIQCau8wxNJeluivPck95ZNSjWBMgpfcBpN9p9qLNz22K9L9mYfKPWB5ju59xh/v57ralSfX16g2yME6/PQ2NjL1/4tt38t5dHOV59lYuACIiACIiACIiACIiACIiACIiACIiACBQ/AgpZnOIxK8yQxSlOeZNsNv2hoWb6w9faXKp4YG2x7Q6xcM0/29C/fGO7HdjPPojdJAFpp0VABERABERABERABERABERABERABERABERABERABERABERABLJKQB6yWcWrzgubQJmy5e0UCH381afv24+bU+kyZc3efQabjkdf5Ir0LQIiIAIiIAIiIAIiIAIiIAIiIAIiIAIiIAIiIAIiIAIiIAIiIAIZJSAP2RRxykM2RXCF0OzHr5eaLz560/z87XLz68/fG3KTbhnLb0kevc1r1S+EGWlIERABERABERABERABERABERABERABERABERABERABERABERCBTYWAPGQ3lSO9Ce/n5rUaxITXBpswAe26CIiACIiACIiACIiACIiACIiACIiACIiACIiACIiACIiACIhAYREoXVgDa1wREAEREAEREAEREAEREAEREAEREAEREAEREAEREAEREAEREAEREAERKOkEJMiW9COs/RMBERABERABERABERABERABERABERABERABERABERABERABERABESg0AhJkCw29BhYBERABERABERABERABERABERABERABERABERABERABERABERABESjpBEr9G7OSvpPaPxEQAREQAREQAREQAREQAREQAREQAREQAREQAREQAREQAREQAREQAREoDALykC0M6hpTBERABERABERABERABERABERABERABERABERABERABERABERABERgkyAgQXaTOMzaSREQAREQAREQAREQAREQAREQAREQAREQAREQAREQAREQAREQAREQgcIgIEG2MKhrTBEQAREQAREQAREQAREQAREQAREQAREQAREQAREQAREQAREQAREQgU2CgATZTeIwaydFQAREQAREQAREQAREQAREQAREQAREQAREQAREQAREQAREQAREQAQKg0DZwhhUY4pAcSHw5ZdfRk51m222MeXKlYvc5gr//PNPs3btWlOmTBlTqVIlV5zw9y+//GL4hI2+atasGS7WeoYIpHPMMzQFdVOECPz777/m119/tTPi2uN6Lim2Zs2aErlfJeX4aD9EQAREQAREQAREQAREQAREQAREQAREQAREQARKDoFSsYfN/5ac3Smae/L999+bxYsX28nVr1/fIOZF2YIFC8zq1atNqVKlTOvWrU3p0nJgjuKUq7Jvv/3WdOzYMXK4e++913To0CFymyscOHCgmTZtmqlWrZqZNWuWK074+4orrjATJkzIV79Fixbmsccey1eugvQJpHvMo2YwevRoc/vtt9tNU6dONXXq1ImqViTLmjdvbv7++2/TvXt3M2zYsCI5x2xP6p133jEnnHCCHeb66683PXr0yPaQOen/s88+M4cccogda/Dgwebkk0/OybgaJJpAtq81Xu5ZuHChHbxevXqmVq1a0RPJUqn7/4YXGvj/RiYCIiACIiACIiACIiACIiACIiACIiACIiACmxoBecjm4Ii/9NJLZsiQIXak888/35xyyimRo15yySVm0aJFdhsCHkJeUTKEZYRIbL/99jO77757UZpexueSriCe7rsO6Y6fcSApdJjuOfPMM8/Ya6JixYpm0KBBKcwguSbZYI6g+c8//9iJuO/kZpV87UxxW7duneE8Zh82VfOvY3+5uPPw98VfLu77VVznn+1rbdWqVaZfv372XtS+fXszZsyYnKIaO3asmTRpkh1z/PjxpmXLljkdX4OJgAiIgAiIgAiIgAiIgAiIgAiIgAiIgAiIQGETkAtmYR+BYjQ+3oP333+//cybN68YzTy1qW655ZZWDEQk53PTTTel1lGKra666qo849etWzfFngqvWbrnDB6lnHPjxo3LyU4U9jHP1E7mmlum5q1+REAEskOA6Bxdu3a1nc+cOdPgsZpL69+/fzDc3XffHSxrQQREQAREQAREQAREQAREQAREQAREQAREQAQ2FQLykN1UjrT2UwREoFAI9OzZMwjRue222xbKHFId9MEHH7QedVtvvXWqXaidCIhAAgRyca0RnYOXNTCiXQwfPjyBmWWmyk477WQ6depkZsyYYUP5EzK7UaNGmelcvYiACIiACIiACIiACIiACIiACIiACIiACIhAMSAgD9licJA0RREQgeJLABG2bdu29lOuXLlitSNt2rSx827QoEGxmrcmKwLFjUAurjXy1O65554WzYsvvmi++OKLnGJy6RoIke3SH+R0AhpMBERABERABERABERABERABERABERABERABAqRgDxkCxF+KkO//vrrhnCDhNAlJxxhCHfeeWfTvXt3U6dOnQK7/OWXX8wjjzxi5s+fb7766iuzdu1aU7NmTduuY8eOpkOHDqZKlSp5+hg5cqStRyHhZ51Nnz7d/PTTT27VfterV8/gDRjPfvjhBzu+216qVCkzYMAAU7Zsdk/DP/74wzz22GPm/fffN4sXLzYNGza0+W979+5tXn31VbNixQpTo0YNc+SRR7qpZfybB9ATJ040b7/9tvnwww8t81133dUwh6222irj46XbIcyYK+cbD+2/+eYbe5x23HFH07hxY5tDOF4I5XTOmXfffde88cYbwfQ//fRTu8x8RowYEZS7haOOOsoUNa/TX3/91Tz88MNuinm+jznmGFO1atU8ZVEr77zzjiEPLOcm191mm21mzxPOmX322cceA79dpri99tpr9t7i982y824Ll7v1H3/80YaWZr1z5872GpsyZYohFzb3qtq1a1sv4ZNOOsmUKVPGNcv3/cEHHxiEIr6x3XbbzZ5r2223nXn22WdtGfufDc+6OXPm2LHnzp1r/vrrLztfcmUnaqncXxPte2P1MjE2faRyzJhbKr9LnN9Lly615zbnBevccwily72FHKPcHzfffPMCd3/58uVm8uTJ9jzjfsG9vEmTJvY6ceJjvA64L9OWY+9+U7m/7bLLLoZ7SyLXary+N1ae6rXm+uX394knnrDz5netUqVK9n8BcrsffPDBrlq+71NPPdVyJi/0fffdZwiNn6yR75b7PPxatWplr3nuQfzOLlmyxP7PwP8jBx10kP24a75169a2Ptf3c889Z84555yE79+Zuscku6+qLwIiIAIiIAIiIAIiIAIiIAIiIAIiIAIiIAKZIlAq9kDt30x1pn6iCTz66KNmyJAhduP5559vnJdIuPbhhx9uH65SjpBRrVq1oAoCwfXXX2/oK8oQbK677jorXkRtp78zzjjDrF69OmqzLTvrrLNsHb9C06ZNDQ9uEzE8fArK9YkQecQRR+Tp6r333svqQ29E4NNPP90gsoQNARoebEPUmzZtWrhKnvVJkyaZwYMH2zK8e2hfkCE2I1xzbHgwzcPqsNWqVcuMHj3aPkgPbwuv77///lYcbdGiRWRf4frprCPQ+wJ8uC+Ee863Aw44ILzJpHPO3Hnnnea2227L12e8AsJ87rHHHvE2p12e7DFnQARsjlWUES40npBNfa61QYMGmZdeeimquS0rXbp0vvyPmeJ2wQUXBMKnP4FDDz20wBzKCGHUwbjPIKpHXXMcq7Fjx0aKso8//rgVh8L3G7yK+/XrZ1zeSc67gl788Oed6PKECRPsPTo8Ni+LHHvsseaBBx6wXcUbO9X7a6LzK6heqmNn4pil87t04oknWmFwiy22MF26dDFPPvlkvt3kWrnrrrtMPA/tp59+2lxzzTXmt99+y9eWF344b84777zIl36+++47c+GFF5o333wzX1sKGPvWW2+14mxkhTQLU73WGBZBk/1auXJl5Cx4aWHYsGF5/ofwK3L9IHxXqFDBvpTEi1nJ2Jo1a4Iw7H369LH3YP63iTKEW5e7lu28BMVvMnbCCSeYiy++2C5v7E8mzteNjaHtIiACIiACIiACIiACIiACIiACIiACIiACIpBNAtl1TczmzDexvm+88cZAjEUM4wEneR0ROd966y0rLCKoIvoh2PnGQ3M8UZwY265dOxuGFLHhyy+/NIiiPOyM0ubxEsIbBkPcfPnll+0ynnp4Ifm2ww47+KtFYhlxyAlDiK48qEbQeuWVV/J4YmZzsnDnuHDc8LjDIxYR4KOPPjJff/21fSiNGFy5cuVsTiOpvvGexvBy4nxCnMDLifOEcwAvUM6pUaNGmX333TdP3+mcM4TU5AG/M/INwohjhrdc2BC0i5ohwB9yyCHBtPC8I19iIobA7MRYhCo83fAuxRsOzzO86vAWDlumuOFd988//wTd48WWrHFOYMwJD9fvv//eel4idiIe4gHLCwq+4fV/+eWXB0WdY162eP5/8sknVsBxYmxQIYMLeHdeccUVtkfOM85nvOi5tyIsOzE23pDp3F/j9ZloeabGTuWYMcd0fpfcPhLpATGW64b7I+c958PChQvtyw0It9xzwuG+77//fis60o87bnhyc75xjuFRiQdoxYoVzdlnn+2Gs9/cv3g5CM9/jPsb+U3xiEXsxFOXFysYm7425qVrO0nyT6rXGi/KMK8///zTjtisWTPDy1DsE79r/E4jeiLYxgsLzEth5557ru2D85u6qRreuby4gvEbyzHgfwmOX9RLPYjveLhzT+RFCMTZ6tWrJzV8qudrUoOosgiIgAiIgAiIgAiIgAiIgAiIgAiIgAiIgAhkmIAE2QwD3Vh3t9xyixk+fHhktShBlIo81MR7DOPBJR5mhFR0hljh+vzf//6X7yEs4U95OI3x4JaH1GGjDh5FYfNFEjxqnCDbrVs3630Url+U1nmoTihKjIfEcONhP4b36vHHH29DGNuCLP9BbGB8Hp5jeEHiUUSI0J9//tkKtnhzFRVDGEGYwlM2fF4QmhLPJoQ79iksyKZzzuB17Hse87AeQZZwnM7LvKgwijcPxJubb7452Ix4wHWZiHE+OMM7L+z9izDrxA9Xj+9McUMM9wXx559/PvJFDX/sqGXOZTwA3bmDxzACPoZXY1iQxcPX2dVXX50nfDjhn/GCzJbhoe6MKASHHXaYW7Veue7eGhSGFtK5v4a6Sno1k2Mne8zS/V3yd5ZoEAiD7iUf7o+IqAiLiKaEq+7Vq1fQBNERz0uMeytetIj/zngRB89mRNUxY8ZYj2o/pD/1nRjL8ebegnDrjN9IxGbCOBMqnXMy05bqtcbvvRNjEZWZG4I0NnDgQCvWfv755/ZlAn7/CP0cNq5HRGj4jB8/3hDGONXwzLzQVb58eftCBcyd8SIXfYdDynNP6N+/v7nooovM77//bh566KF8kTlcHwV9J3u+FtSXtomACIiACIiACIiACIiACIiACIiACIiACIhALgisf4qXi5E0RkAA4TXqE1QILeBF4h7AHnfccXnEWKryMNWFdMSji7x8vvleKngBRVnbtm3ziT9R9YpTGQ96nSF+OjGWMkI08tA+V8aDcyfGMibepoRqdA/S4+UczdX8wuPwkJ9zxQlq/nZEfScU4n3se1T69bScPAF3reItjQdd2MiPyT2gKBvXFoKaf+4Q2toJYnjl+4YHMaIOhud9OJczIk+2vO8Ze/bs2XZshCtfjKUQT0I3b1sp4o87ZmzK9f01U2Mne8zY13R/l+jD2dFHHx2IsZQRvYH7ozuHwvdHBFXC5mKXXXZZHjGWMqIQ4EWK8dtJflpniLl412J4QiP2+2Is5bxwQgQKjBcIXJQIW1CIf/COdy9ncY+45JJLgt8QpoX46XsDx0shwO/PySefbPcE0TkqnH4yu3nmmWdaAdxvwzHs27evDWHvl7NMBAEn1PI7HeX1H27jr6dyvvrttSwCIiACIiACIiACIiACIiACIiACIiACIiAChUFAHrI5pk644L322ityVB4S87A4bL7A2r179/Bmu46QgEcdRn0n0LLuHnyyzINpvNO22247VnNqeOTggeaMh+14PmbLCKWI4bHoe1268Qj7jGcPYT+zbS6/pj/ONttsY0U3PE5XrFhh58F80jXyDBMGNBnDywyP4SjDg5dchfTpvLh5oI8R2phQmbSXpU+AaxXW5MRETEF8dazT7z03Pey99942N2V4tHr16tkQ6b6ISB13nbIcdZ1Qzj3LeUSynikjDLQzwkOHjXsU5QiA8aww76+ZGjvZYwaLdH+XfJ5+iG9Xvv3229uXWObPn2/DdbtyvufNmxesIs7hKezM3aO4vzojfK4zRHh3z+c3iRDFzlxb1nk5gIgQ3OMI1e68d13dwvjm3uBezuL3KyrMPdEN+F3F+9Q/RuH59ujRw3ruE+IZ72TuNan8/nDvT/YlEcRaPFzJyUz0jieeeMKKt+E5xltP5XyN15fKRUAEREAEREAEREAEREAEREAEREAEREAERCBXBCTI5or0hnEQY/G6ijLCg0YJss6jDG9K8klGGQ+vnSHu+YbnF7k2Cf1K3jYe2BLyuHXr1jbPY/v27ZPO4eb3n+gyYSl5CJwL48H6V199ZYdCfHaeqP7YPHzecsstg3r+tkwvx/OyoxxBlvlyfBAI0jXCCBOKMhmDgy/IIggSbpIH9S60Z7z+ior3WLz5FafyAw880Lz//vt2ysOGDTP33HOPvU65hvGYJS+r8xosqvsVL6+vyxOJUOSbf7/y72N+nXj3Pb9OKsvuHkHbeNdovDm58Qrz/pqpsZM9Zux7ur9Ljh/f8RhzTBBk8aDkhRAX5WDZsmVBc8Lfbsx8YdJvS+5uPhsz2hcFQda/VuL9VvC7xvFkzu4YRe0f9fAEJo0CL0lMnDgxMk93VFu/DC/jVF6sIif4HXfcYfNj85uFl3SiL5+kcr76c9ayCIiACIiACIiACIiACIiACIiACIiACIiACBQGAQmyhUE9yTGdIIanZ7wHlngJOUPY8w0vGh58khOPvKp///23fcjNg26MPsnPR/jDcOhGv5/itEwYRudJ5B7iR80/1bx5UX3FK8MbCDE6ynzPUo5zvIfsUW3jlbFPyT4g9zkgxhJqkpzBztgHwoA6Dyq8qvCMxTifZJkhQHheuCJQcA7zgsaLL75oP4yAQIVXmQsZnZlRM9uLfy5F9ex7IbLd95jlHhdlG+szqk0iZe7eSt14Y/j31qg+C/P+mqmx4+2729/wMaPcsUv1d8n1zW9OvN8d//7I7xr38tWrV1sRj/b8diUS7cGFH6aN/7IK/VWpUoXiAq1ChQoFbs/VRv+3vaDzkm0IstxDELPj8T3qqKOs9zfhn8m1y/8BUS8vFbR/qb4swW8UvzN4viM080JavAgg4fFTOV/DfWhdBERABERABERABERABERABERABERABERABHJNQIJsromnMJ57YBz2LPO78nOwRYUxxCOWkMjkapw8ebLNm0joRgxBjXyAhGb0Qwr7/Re3ZR7Y8rCefeMBfjxzom287Zkox4MUtuXKlcvXnS9mbuwhc77GcQqeeuqpOFsSK7733nsDMbZFixZm8ODB1jvT98y89NJLzZNPPplYh6qVMAHO2YEDB1qhgjCeeMu+9dZbQb5MPN7I/fjcc88ZQgCXBCMvrjOXF9Stu+9sXaf+NRcvF3JB9103v8K8vxbW2Jn4XYIf90bYRwmB/v3R/a7x7e7thObnWkjGfJH3yiuvNOQ3Li7mmDNf/zc/PH93zsLJvUQTrsM6LPBMxRMfz2FCNO+///5RVeOW+ddQ3EpxNiDIIgQzX353CFnu/87EaaZiERABERABERABERABERABERABERABERABESiWBCTIFoPDhgcQeRbxXOTjHkz7U/e9zAryWCFMMR+M8MXkG3344YftOvll8ZL1H1jbDcXwDw+iySFISFLnyRXeDby+8PRMxRARkjE8HaPCLPrjJ+LpxZjJjp3MPKmLRyaGVy8P6qO8e5cvX27rFOU/06dPN/48edCfTFjM8L5lm7s/HtcgORb5ILy89NJLZtSoUVY0YR6Ek77wwgv9JsV22b9fxbtW/ftbQTua7DH3c7D616I/Rrxyv45bTuf+muzc3ZjuO52xXR/JfGfqdwnRlTyiUR6ffgh/d//k3k6IYwREf3uic/fzqydzbKP6Z95hQbhZs2amVatWUdXTLvN/Iwq6Jr777js7Fud3lNDtT4SwxYSmJ68u9/tkBVm/r2SXeRmD0MUPPvig+eSTT8yMGTNM586dk+1G9UVABERABERABERABERABERABERABERABESgWBCQIFsMDpP/EPadd94xXbp0yTdryp35Aocri/pu1KiRufzyy63YSyhjBErCOTZt2jSquvHDNrpwtZEV4xTywNXPU4pA9uqrryYdXjdO9/mKeWiPILty5UqzcOHCfDkA8RZOZj/80MeEe446DvkmsaGAPLF4//iGEDFnzhxbRPhGl2PTr+MvMz7H59NPP7XhmP3j4ddLd9mFxSR8cpQYSxjMjz76KKFh/Dkmw9p17tojSsILMSZRe+SRR8xrr72Wp/rhhx8eNzRtnoobVtI55lH9pVJGuFHOHe4DhDTG/JyYUX2mwy2qv2yW+blbX3nlFdOzZ898wyHUJGLJHnP/3jp79mxz8MEH5xuGazcVS/b+muzcC5pTsmMX1Fe8bT67dH+XYEz+ZN+ILDB37lxbxHXoh92tX7++FWQRRPldady4sd+0wGXaOmPe7ppyZcl888LHtddem6fJiSeemDVB1v9t93/z/Qlwb3BirX+M/Dr+MvnDye3+2GOP2VQG/C+w5557+lWyusxLJ5z7HG+8ZCXIZhW3OhcBERABERABERABERABERABERABERABEShEAqULcWwNnSCB9u3bBzXHjRtnhdOgILaAVxkedBiiHiEsffvpp58KDG/oe4k5Icdv75b9eokKcq4t33jgMBf34WG6H5LSr5uJZR4yO7vzzjttWEy3TohMQiUmYwi8zpIVafBoDIdEnTZtWuC9m4i468bHQ9IJuW4+mfwmVyxGDlknzvr9wzJRcTXdc8a15zz5+OOP/WnkZNkxZ7Bkj3kqE+TlgXjmWLC9oOuU7a5uYXFjDonabrvtFuROxkvUz11MH4hys2bNSrS7pOoxtnvpAE/HcHhzjgfXaUGWqftrQWPE21aYY6f7u+TvE/fHcJ5aPPX5jcD23ntvv7o57LDDgvXhw4fnaxtsjC3wAosfCnvnnXcOBFx+N53o67dxy7wIEj4f3bbC+MaL2InPzIuQ5mF76KGHgiL/GAWFEQuEQXeetHfffXdEjewVca865JBD7AC8JPXBBx9kbzD1LAIiIAIiIAIiIAIiIAIiIAIiIAIiIAIiIAKFSECCbCHCT3To/fbbL3gI++abb9pQpeSSxKOEB7LkYUPsxPA28fPMUfb000+bjh07mqFDh9qHzzycRhzkge7IkSPNxIkTqWZFnIYNG9rlqD+ESnYeOggnt9xyixWpCH3MpyAxKaq/bJc5r0LGmTp1qjnzzDMNHnh8zjnnHMM+JGN48u200062CeLcMcccY55//nnDMeGD52g8w/uOELN47JIPkzn4IWf79+8fr2lQznng7IwzzrD83dipCOSur/C385DmHBkyZIgVwxD2mDs5F8eOHRtuEnc93XPGiQ8McMEFF5gpU6bY89adc9nKLep2KNljjqjEdeB/fv75Z9edFbj9bU5wchUQJgirTPhwrnGOAaIb4hTnrLOwQOXK3Xcq3Dh//bmx7EQyBPjwNu4/mTC8nt35z3lGCFVePCF3Lp5zbHPzyMR4fh+cn1zHGPt/0kknWQHPeWcyl43tZ6bur/68El0uzLHT/V3y9xGvTMLlc44hgnK/vuyyy2wVIimccsopfnXTrVs307ZtW1vGffy4446zQh65SDmHPv/8czNp0iT728jvACH/nXG+ERkC47ziGHNP4/7GOucBL7zccMMN9ncTwTfTluq1Bgvu/c4GDBhgf8dgRpjiESNGBCkIeDmL/w0SMaIhuFy6/KbkWoTmGmffMMImy0RABERABERABERABERABERABERABERABESgJBJQyOJicFR5UMnDah7EIow8++yz9hOeOp6xPJiOMh4A4znjvGfKly8fiLjUZ4yLLrooeCga1QdliEIIYzy45sGp//C0TZs2VkiJ1zbX5Tx452H6wIEDracV4ZH5OCOsJ3US9bzEgwgR9bTTTrN5XBHDfQ+l0aNHxw23SMhNBAI+YUOAC3s1h+uwTm4/RAhCVSKq+/zJW/jEE09ENUu67Oyzz7aCMQ/58Q7kAyeEDgyPQoTpRD1G0zlnEFPw2FqyZIkV/QcNGpRnf8g9uMcee+Qpy+RKssd8xYoVpmvXrnGn4IfsplLLli1tPli/AR5izkusXLlyVhD0Bcldd9018Cjz2/nLqXC77rrrrBDs9+OWw9cO5XiYJ+qB5/qJ992rVy97LSFE46UaDgNLKGFefsiGnRgLMfvyyy/b84tQ5LDzjVC5XAsFWaburwWNEW9bYY2did8lt0/cUxCX+YSN3zTu1WG7+uqr7W8iL2fgWcl9lDn510q4jVvnt+qss84yd9xxhz22iK98cmXpXGv8DhDWFyGaY48oGzbu1/yeh1/OCtfz1xG9J0+ebIv4bUHczZVxfIkSwX2G3xuOadQxz9V8NI4IiIAIiIAIiIAIiIAIiIAIiIAIiIAIiIAIZIOAPGSzQTXUJw9HnfnLrsx9u5CBrPvLrJPT7amnnjLNmzdnNY8h2pAHj7CPUQ9gadOuXbs8YU6dRy0dsZ0HsM5DJk/noZXu3bubCRMmWEGoRo0aeXJ6FrRvdBPeJx6e88mmIXiRGw9vLsI9YltvvbWd/1133RXMf7PNNktoGnCEMx6K5N7zLbz/bh1O9913n80B6tdH6DnvvPOs16lfXtAyItjpp59uCLvJcXfmxnLr6XzXq1fPim3+A3HEWI4VHtT3339/nvMwfFzDY6dzzrBfjz/+uPWW23HHHfPkkWScgsYOb0v1fEvlmIcZxFsPHzfCbPthkglP7QQm8gzjwUmeRT+fZlTfqXAL84rq1y/z6/vXcXifXBtX3327cr5pM2zYMPvCAy8XsM753apVK3PFFVfkEaALulbDfSdyzLk+H330USty+ftBX506dTK33357MNVw/2zI1P013Hcic09nbH9fUzlm7Hs6v0u0x7gvc05zX/aNc5wXYHgZKcq4T/GbiJCIpzPmrhVXn3sGLzI1aNDAFQXflHPceRnGZ+Eq0Cd5bfGgjWdR3KL6CrcPH+vw9vC6X5/+CRvPb0fUfQBvV1688kP2h/uLWocD9zoMD2Xylccz5uP2M4pBvHYFlTsvaI4h50PY3HiUxxvTcXLf4T60LgIiIAIiIAIiIAIiIAIiIAIiIAIiIAIiIAKFSaBU7OHXv4U5AY2dPAG8YvDq/P77780OO+xgRbKyZTfu7Ex4VzwNv/32W+uFxgNwQhC7MMTJz6T4tcDD2Bet8fD74YcfzL777mtGjRqV9R3iITfhhXlojpdpIsct65OKMwAi7NKlS+0HMRDPTJdvM04TFWeIAKFb8bYlDCnCJNcoApQTnjI0TJHthhdGEGDcSwcIZ4TPxvCibNKkSVbmjncuXrKM7+eXTWSwwry/FubYjk2yv0snxjyTCVWMIDtz5kzbDaGGCZfLuc79MZ7w5sZ03/wbwzVDvtjffvvN1KpVyxBu3OXDdvXifRPqGK9M7s/c48hryj2aSBJF2QhpDjP2u2rVqpaZe/EolXlzPDguWJ8+fYJrzhbk4A8hlvF25neR/L4uF3YOhtYQIiACIiACIiACIiACIiACIiACIiACIiACIpB1AhJks45YAxRVAjz479mzp50euXf9nK5Fdc6alwhsigTwZiTvMoZgg/gkK94EogTZ4r1HJWP2vXv3ti8lVKhQwYYQTkfgTZbIjBkzbEoA2uGZfPHFFyfbheqLgAiIgAiIgAiIgAiIgAiIgAiIgAiIgAiIQJElsHG3yiI7dU1MBDZOYMqUKdbT8PDDDw9CFtMKr9ihQ4faDghvmGx4x42PrBoiIALJELj88stNt27dbBhcP+QoObNd7mdCyEqMTYaq6opAcgTIzTtnzhzbyE9tkFwvqdXu2LGjueaaa2ze7FwKwanNVq1EQAREQAREQAREQAREQAREQAREQAREQAREIDkC8pBNjpdqFzMCI0eONHwIfUmYU8JQElpz3rx59pvdwSOIh8AyERCBwiNAXmSMMLOEq61evbpZvHixWbRokS0nfPELL7yQJ8eu3aA/xZKAPGSL5WHTpEVABERABERABERABERABERABERABERABERABFIkIA/ZFMGpWfEg4HJQkg/1ww8/tB83c0Ta0047zQwcONAV6VsERKCQCHCtrl271ubNJXeubwi0119/vcRYH4qWRUAEREAEREAEREAEREAEREAEREAEREAEREAEREAEig0BecgWm0OliaZKYPny5Wb27Nlm5cqVZtWqVaZGjRqmYcOGplmzZqZOnTqpdqt2IiACGSTwxx9/2FCpeMRynRIuFY92rtXddtvNuJcrMjikuipEAuQL5Z5cuXJl071790KciYYWAREQAREQAREQAREQAREQAREQAREQAREQAREQgewTkCCbfcYaQQREQAREQAREQAREQAREQAREQAREQAREQAREQAREQAREQAREQAREYBMlUHoT3W/ttgiIgAiIgAiIgAiIgAiIgAiIgAiIgAiIgAiIgAiIgAiIgAiIgAiIgAhknYAE2awj1gAiIAIiIAIiIAIiIAIiIAIiIAIiIAIiIAIiIAIiIAIiIAIiIAIiIAKbKgEJspvqkdd+i4AIiIAIiIAIiIAIiIAIiIAIiIAIiIAIiIAIiIAIiIAIiIAIiIAIZJ2ABNmsI9YAIiACIiACIiACIiACIiACIiACIiACIiACIiACIiACIiACIiACIiACmyoBCbKb6pHXfouACIiACIiACIiACIiACIiACIiACIiACIiACIiACIiACIiACIiACGSdgATZrCPWACIgAiIgAiIgAiIgAiIgAiIgAiIgAiIgAiIgAiIgAiIgAiIgAiIgApsqAQmym+qR136LgAiIgAiIgAiIgAiIgAiIgAiIgAiIgAiIgAiIgAiIgAiIgAiIgAhknYAE2awj1gAiIAIiIAIiIAIiIAIiIAIiIAIiIAIiIAIiIAIiIAIiIAIiIAIiIAKbKoGym+qOa79FQAREIIrAl19+GVVsttlmG1OuXLnIbSoUAREQAREQAREQAREQAREQAREQAREQAREQAREQAREQAREQgXgESv0bs3gbVZ4ZAqtXrzYLFiywnW277bambt26kR1/8MEH5q+//jIVKlQwLVu2jKyzqRfOnj3brFu3zmKoVauWqVev3qaORPufQQLffvut6dixY2SP9957r+nQoUPktmQK3Tm82WabmV122SVoOnfuXPPHH38E6xtbaNy4sdl88803Vi3t7fPnzze//fab7adOnTqmdu3a+fosSnP//PPPDYy///57A6PddtvNVKtWLd+cKeC+zP25TJkypnXr1pF1slX4yy+/mIULF9ruuY9xP5OJgAiIgAiIgAiIgAiIgAiIgAiIgAiIgAiIgAiIgAiUTALykM3BcZ0zZ4455ZRT7Eh9+vQxQ4YMiRz11FNPteJAjRo1zNtvvx1ZZ1MuXLlypTn22GMDBAgtjzzySLBeUhcQlhADsf3228/svvvuJXVXC32/SpfObhR3hEt3Dh922GHmhhtuCPZ50KBBhnM8UbvlllvMwQcfnGj1lOrxksgxxxxj3Hs73MfOP//8fH0VhblznZx88snm448/zjO/UqVKmRNOOMFcdNFFecpZGTt2rJk0aZItHz9+fE5fhFm1apXp16+f+eeff0z79u3NmDFj8s1PBSIgAiIgAiIgAiIgAiIgAiIgAiIgAiIgAiIgAiIgAiWDQHbVh5LBSHtRRAi8+uqreWaC0I2oUdINr83777/ffubNm1fSd7dQ92/LLbc0ixYtCj433XRTRudzzz332P4QCfv3759W3/E87dPq1Gu8du1ac/nllwdirLcp7cVMz/2bb74xffv2DcRY+FauXNnOEzGZ6+fKK6/Mty/+Mbj77rvT3q9kOqhfv77p2rWrbTJz5swgikIyfaiuCIiACIiACIiACIiACIiACIiACIiACIiACIiACIhA8SAgD9nicZw0yxiBsCCLZ9mMGTNMjx49xEcEijyBxYsXm1deecXOs1OnTmbHHXfMM2fE2oJCFv/000+BiNuoUSPTvHnzPO0zvYJX9meffZZQt4U99xEjRphly5bZubZr1856Hm+11VY2dPHAgQMN4YEfe+wxc8ABBxi2O9tpp50Mx4L7yLRp0+z+wjZXhsfx1KlT7XDwHj58eK6G1jgiIAIiIAIiIAIiIAIiIAIiIAIiIAIiIAIiIAIiIAI5JCAP2RzC1lCpE1izZo2ZNWuW7QBRpWLFinY5LNKmPoJaikB2CSC4udC/hCcPG0Jgs2bN4n4QdJ316tXLLWble+nSpebOO++0fRNaeWNWmHMnv+2LL75op4iHM6GcEWMxwnsfccQRdpk/Tz75ZLDsFlw4eY6NCw3utmX7G1F9zz33tMOwD1988UW2h1T/IiACIiACIiACIiACIiACIiACIiACIiACIiACIiAChUBAHrKFAD2dId955x3zzDPPmBUrVhhC2W622WZWfNh1113NPvvsYxo3bhy3ewSHyZMnG0L9EpaVcL/U32WXXcxRRx1lqlatGrftunXrzMiRI62g1KpVK9O5c2fz7rvvWq+zJUuWGMKb1qlTxxx00EH2U6ZMmbh9pbLh9ddft2PQljCfiDCUvfHGG+bPP/80FSpUiNstXod4x73//vsGUathw4ZWqOndu7f1uoUleXuPPPLIyD5S5fbCCy/YEKrM7fTTT7fj44kHN+a888472/ycTZs2zTcurGGKcZydTZ8+3eAp6Vu9evVMz549/aI8y88//7zhGDlDpPK9BF15tr4RmRCb8Lb89NNPbc7M7bff3pADGGGxWrVqeYZ+6aWXzCeffGLKly8f5F72K+DtOG7cOFu011572X787SwX9vkans/XX38d5CqFP/uerD3++OO2CddW9+7dk22ecH3O9yuuuML89ddfZu+997bX28SJExNuH1Uxm3OfMmWK+f333+2w+++/v9l8882DKRDKmGvf2csvv2y9Zf1zrnXr1oZ7Gvlyn3vuOXPOOeeYbbfd1jVJ+Jt7Edc24ZIHDBhg+ZGX9q233jIc/y222MLea48//njD+e8McZ6c4X///be57777zFVXXeU2bfQ7nXvMRjtXBREQAREQAREQAREQAREQAREQAREQAREQAREQAREQgYwRkCCbMZTZ7YiH9YMGDTKIVVGGp+jtt98eNw/hd999Zy688ELz5ptv5mmOSMZD/QkTJphbb73VCgZ5KmxYQdQcPXq0XevTp4/59ddfzfnnn5+nKmIbYT8rVaoU5EbMUyGNFecJi9iBmIiYjCCLEIPggUAcZT/88IMVQ+fOnRtsZp8RCF977TWzevVqwzYEmChBNh1uCEWEI8Wbd4cddjDnnXeeFSPdRD766CMrAN1222355o93Isc8bAjyfLGlY88AAEAASURBVHxr06ZNgYLspEmTDEKusxNPPDEngizC3sMPP2xuvvnmfKF4eSGAc5l9RyTDs9EZ83XcnPei28b3999/b/73v/8FRVHiZmGfr8HkNiyQwxSRGIvapw3V4n7xEoULH0yI3Zo1a8atm+4GvEgRFsuVK2cuu+wyK46n02e25/7ee+8F02vfvn2wzMLQoUPtvcoV8iLEhx9+mO/855jw0gTHiGN18cUXuyYJfyPI0hbDK/fss8/Ocz/G63j27NmWLS/VOON+xksxCxYsME8//bQ566yzEj6+6dxj3Pj6FgEREAEREAEREAEREAEREAEREAEREAEREAEREAERyD4BCbLZZ5yRER588MFAjMXT6uCDDza1a9e23pJ4PyIuxss/iXiKQIC3GFa3bl2bNxGPWLzC8M7CixGhDqHS9zCLmjxepohmGEImeRgR3xYuXJjHmzOqbSplCJN4lmJNmjSxYkWHDh2CrhBr4wmyZ5xxhhVcqcxc8SIuXbq0zeWJgFKQZYobx2Xw4MGmcuXKpkuXLpbvzJkzrbcuAhGCJSIbYrMzPJadgIeojGiJ4QkNA98Qe4uiETrWDwGL8MTc2U/Ee14OgI3zBM7WPuT6fA3vx88//2xfeKCcvLEc62SNFyacFeQN7eqk+s25duONN9rm/fr1M3hf462cjmV77gj0zhA2nZGv173AQihohFjMr+/qcl0SdhnRm/kizlavXt1tTvr76quvtgIr3vFEIeBe/dVXXxlewogyBOFzzz3Xes4/8MAD9uWNqHrxylK5x8TrS+UiIAIiIAIiIAIiIAIiIAIiIAIiIAIiIAIiIAIiIAKZJyBBNvNMs9IjnlDO8GTdY4893Kr9JoytE0nzbIit3HXXXYEYSz7IIUOGBDlYqUuYTEQYQsGOGDHCICYUZHikEU728ssvN8cee2xQFQGREJ2phPsMOolYYDzmhhFCFSPsMOOsXLnSeuUiCPuCJnUQmvHOwxCNx44da8OGsk5IUUKH+nk5Kfctk9wIiYzQ4sRTBJS+fftakQgRaN68eaZFixbB8LB1huecE2S7detmEMqKuuEN6LwFCavN+YXo5RvsCc+a6fDW/hgs5/p8DY+PlzAhtrH+/fvnO0/D9cPr5E8m1DiGZ2y8lw/C7VJZv/baa+21xrWFKJmu5WLuvsDqRFR44x2L7bvvvlYEL0iQ5d7Bsbnooous1/1DDz1keJkjVeMFGcIg81LCdtttF3TDte5E4qAwtkCoZV6U4cUY7qGEMS4ohLzf1i0ne49x7fQtAiIgAiIgAiIgAiIgAiIgAiIgAiIgAiIgAiIgAiKQfQKlsz+ERsgEAZdHFC9LclCGjYfxxx13XLjY4PHmhDFEzGuuuSaPGEuDE044wWy99da2LSEznWdmvs68gjPPPDOPGMumsmXLWpExKieq1zTpRReumIa+Z6wTZwkrPH/+/Hz9Iqo4I7wynsXOELYKElwyzQ2xx4mxzIEwxgiyzr788ku3WCK+CZ/tziNCt4bFWHaS85FcsO7cy+aO5/J89fcD4d3lu0XkPOSQQ/zNCS2TA9jlSD300EPtdZZQwyQrEdaa8OUYwiTnaLqWi7lzrWII+9wfMUJh87IGoib5cP2csb6Aaytv+MOxcS+TcO/g2KVq3I/xDvfFWPrCC3fgwIH5umXuJ598si3n5RM/722+ynEKNrV7TBwMKhYBERABERABERABERABERABERABERABERABERCBIkmgbJGclSaVj4DzBsXzC4EH8TURz0Jydf7111+2PzywCFHsDK9SZ4TCxQuT8LGEkw2HxXX1+MbjMUr89euwjDcYIZCTNcIK++M7QbZKlSrW68z1hzjrwqFSh33wzXm/EoLZF3Jdna5du1pPX8fHlfOdaW546YWtfv36QZET3IOCDC7gUXvAAQcEPRJCNdvmQrMiTJFzuDAt0fM1G3N84oknzI8//mi7PumkkxK6ZsPzePzxx4OiXr16BcuZXOC+guc8Rmhp/3xJZ5xczJ080JgTkDn33MsYvIixzTbb2LzWbj/w2o0yXijhWrnuuuvsMePY+S9NRLWJV0b4d+5XyViPHj1sbmQEY7zpuccSiSBRK8x7TKJzVD0REAEREAEREAEREAEREAEREAEREAEREAEREAER2FQJSJAtJkf+wAMPNO+//76d7bBhw8w999xjWrdubVq2bGk9Zps3bx4ZCnXZsmXBHk6bNs2G9w0K4iwQbtYXRMPV8GysVKlSuDjfOjll//e//+Ur31jBlltuGYyPqLt8+XLbZK+99srjHbjnnntagYscs+SLHDRoUNA1YjM5GzG81MgbGzbEDsZy9fztmeRGONRatWr53dtl32vPeUDmq5SBgrZt22agl8S7QNRfsWKFbYBXcDKiUuKjJF4z0fM18R4Tq8l5SThwDGG6d+/eiTX0anENuVC75EElB202zHmUIkpedtllGRkiV3OHLYIyH849wn3DnkgC5GLGyAftjPrxjGN0xx132NzchDg/+uijUxLRuR8na1wnRCsgzDEvaEycODHhc6aw7zHJ7qvqi4AIiIAIiIAIiIAIiIAIiIAIiIAIiIAIiIAIiMCmRkCCbA6OeCKerBubBrlaERUQCQhpSZhOvE+dB2qdOnWsZ1c4tyw5CZ0RsjcRr60KFSq4JpHftWvXjiwPFyIwJCLchtv54yO0OqN8eiysqm/sEyGL8eol7C8cMBj9+eefdtkPVWwLvD/x8jRmkhvzRugqyHxv5YLqFYdtCNwIYpgLAVuY8070fM30HAnX68R+PC2dB2cy4+Cl6axnz55uMaPfCKfOoxTPTj+0djoD5WLuzM+9VME1NHLkSEPO5XLlytnw7C6vtMtBTX3Clccz7lccK/rhpQKOYffu3eNVj1ue6jmHgEzuarx4x4wZY/CIjnqZJDzwpnaPCe+/1kVABERABERABERABERABERABERABERABERABESgqBMoWCUq6rMvJvPzBdmChDe3LcqjkD7IPYhYgNCBt+xbb71lH9yDATGSHITPPfecqVevXkCGcK3OrrzyyoyEIo0nYrpx3DdhT9MNferCFdMn4gifeEbd448/3m5mjjBDGHQhTaPaOdE2vC0b3MJjlNR1//zwPRMztb///PNPUl3580mqYRqVuZbxYsecyJdsd+QwnTRpkm3GPSGV/LOJjIkXuhPQH3nkEfPMM8/kaeZ7bz/44IOGPNMInbwM4nK25mkQW8nV3BnXF1gRM7EBAwbkEZZ/+uknW84fBNyCjHssYij7TR5Y8vY6Ybegdv62VM857jt45XLuLItFNyCM/P777+93rWUREAEREAEREAEREAEREAEREAEREAEREAEREAEREIFiSECCbA4Omu8ZF5Wv1E3BiYN+fbfNffPAnjyHfBA9XnrpJTNq1Cj78J5wnePHjzcXXnihq24aNGgQLJObsDgZ8503b17CU8ab1gmyiLHkjsRD8ZtvvonsA9EsHpPizC1yZ3NYiEBGOGa8EnlRIFlz3sSczxyjsBiWzXy7Bc2V+SRqM2bMsF7b1CcMbkFhcuP1ieDpPDvJd+yHuI7XhnJy1vJihm+EO27VqpVfFLnsQv9GbowVco9y9ykn4kbVzeXct9pqqzxTaNSokTn11FPzlM2ZMydYD9cPNmxYcOGlEZ8/+eQTw7Hs3LlzuFrW1glbTA5ZfisQZiXIZg21OhYBERABERABERABERABERABERABERABERABERCBnBGQIJsD1JtvvnkwihNYgoINC4irTvDx64fr+esIt3hvkSOVkMYY+V99q1+/frD6zjvvBPWCwiK8gMer8xo+6aSTrIdw1HTxHER0fe+996yA5YSr7bff3gqyK1euNIRlDefFpX48D86ixM0P4RxvvlFcXNkFF1xgXnvtNbdqvazPPPPMYD0bC3hpz58/3yxevNgsWrTI7LzzzgkP48RLBD/ExXDIafrMlfljsz9dunRJaGjnHYu4zMsTqdjjjz8eNEsmXDE5l6+99tqgLQsnxkIRxxNkmzZtas4999w89f2Vjz/+2Lzwwgu2aLfddjOdOnWyInlB4chzNXcmtffee5sJEybY+SHeDx061IYstgWxP9xXZ82aZVe5N7Ro0cJtivvNMcNbeN26ddZLNpeCLB68PXr0MI899pi9ht5++21DvmyZCIiACIiACIiACIiACIiACIiACIiACIiACIiACIhA8SVQuvhOvfjMnLymzusVEfDrr7/ON/lnn302KGvYsGGw7BYQFeOZn6fTF++ojxDWuHFj2xRv2rlz58brxnrckn+xqJgfrhghDO/gqA+CDIaA5wuPiBrO7rzzTuOHumWZsKTxrChx84/vRx99FG/Kcct5CYCQre5Dfspsm8u7iaB+0003WWEraswPPvjAnnf+Njybnb3xxhtu0X5zjB9++OE8ZdlcQdR39u6777rFAr8JJz579mxbh5cF/ONXYENv45IlS+wLBhTVqlXLtGvXztua2UVyxp522mlxP926dQsG3H333W09PFCdJ3OwccNCLufOkNwb3Ess5Ft191o3L84XPH+xgw8+2ITvka6e/80xcyGiuWdznubSCD/vcsfefffduRxaY4mACIiACIiACIiACIiACIiACIiACIiACIiACIiACGSBgATZLEANd8mDdTzUMMQxvFkRRwmni/cgD9yHDBlitxNql5CVYUMcILcg+R0JA4ugiMBGaNBzzjknqO7ESVdAf5dffrldRRyj77Fjx9qxWWc+hPO84YYbTMeOHc3w4cNd00L9xmOYHLlYlSpV4nr3sZ15OyNssTPnPcz61KlTDV6hbOcDs+nTp7uq+b6LEjfydNauXdvOkTnfcsstBnGQ3J98ChLr8+1YjgqOOeYYs+OOO9rRZs6cac95hEqOKx+Ef3IaUw8vWN/wwnR28803mzfffNO2IXzsKaecYsNzu+3Z/uZlip122skOA3PmSx5j5sQnyuPdCWh4a/bv3z+lKZIn2tlhhx0WiHOurCh/53ruCMPuBQAE+0GDBtkXM7777jvrZcoLAc6S8TTm2Llw2c7j2fWT7e+6desG+bc5z4rSizLZ3nf1LwIiIAIiIAIiIAIiIAIiIAIiIAIiIAIiIAIiIAIlkYBCFufoqA4YMMCG/fziiy/MihUrzFlnnRU5MsKtE4DCFfDScp5a5cqVs16HLqQvdXfdddfAq8tv26ZNGzveHXfcYYUtxFc+RdnwjHS5KgnXGc8bj33Ya6+9DAIqYszrr79uuVCfMgTmgQMHWtEPj1vf65Zck9QhJGuUFSVuCMiEHuZ4Iw75AhHzHDduXNQuFFoZXIcNG2ZFcARjPLMRMxMx9meXXXaxIhT5YglX7RveoohUuTBepiAnMx6khL5FVObjbPTo0aZz585u1eaNJecoRjnnWLLGOLx44axXr15usch/F9bcEWG5jgnvu2zZsnw5ZAF3ySWXmObNmyfMkGOH9y33jGnTptmXH1I5ngkPGKrIyweTJ0+2pVzvI0aMCNXQqgiIgAiIgAiIgAiIgAiIgAiIgAiIgAiIgAiIgAiIQHEhIA/ZHB0pwmjiOYaHKmJV2AjTiifX//3f/4U32XXC7/rhUxE+nBhLLkdEq3vvvTdfuE7X2RlnnGEeffRRK3Q5ry+3jW+8MA888MBI71y2I0y5dlHzp04mzRfcOnToUGDXhDFu2bKlrUM4Xj8sM+XkYtxvv/1MzZo1bZ2tt97aCtd33XVXcCzoI8rS4eY4udCj4f7ddsr95XA91vEAJE8mntLkWPXr+8tRbcPju+MYVTeTZeQmfe6558yRRx4ZeV5Wr17dEJrVhZv1xx41alQ+8Yzz/Kijjgo8vqkfb98zeb4iAI8fP97mKiW/p2/h8bkG3XWJoJaKce6vWrXKNm3durXBWzIZC8+Jtukcc//88Zej5lRYc+fc4HomJHE4ZDHX+9VXX22OP/74qCkXWOaOIceUY1uQ+Wz85YLaFLSNlxJcqGo8/HmZJ2zuWMcbz22nnb8c7kfrIiACIiACIiACIiACIiACIiACIiACIiACIiACIiAC2SVQKvag+d/sDqHewwQI2bp06VLz+eefWyG0QYMGZrvttkvogTnehnjYEo4TL1lC2darV8/2Ex4n3vrvv/9uvb14wF+tWjWb4xLRp3z58vGalJjyX3/91YZAdjvUvn1788MPP5h9993XIAIWZJsyt4K4JLKNENuE2ibEMp7MvFxA7tKCzjnacI0QqhhRDe/GgjylE5lHNusQghzhn/0j12ouc91mc7+KW9/r1q2z3tUcj2bNmhnCTqdjffv2tfl8OfcINZ9KTuBUx8fj98QN4e779OkThLZPtT+1EwEREAEREAEREAEREAEREAEREAEREAEREAEREAERKBwCEmQLh7tGLQIEyMvockr269fPhqYtAtPSFIopgWuvvTYIHR0OZVxMd0nTjhEgBDUhqzEiHFx88cV2OVd/evfubebPn28qVKhgwyc7T/9cja9xREAEREAEREAEREAEREAEREAEREAEREAEREAEREAE0iegHLLpM1QPRZjAlClTrEfx4YcfHoQsZrp4xQ4dOtTOnHCfhISWiUA6BMh9i9cvnpSdOnVKpyu1LUIEOnbsaK655hqbm7owxFDCLc+ZM8cS+euvv4oQGU1FBERABERABERABERABERABERABERABERABERABEQgUQLykE2UlOoVSwIjR440fMif2KRJE5uP85dffjHz5s0zfGN4oCG4yERABERABERABERABERABERABERABERABERABERABERABERABEQg0wTkIZtpouqvSBEgzy5GXs8PP/zQftwEEWkJRTpw4EBXpG8REAEREAEREAEREAEREAEREAEREAEREAEREAEREAEREAEREAERyCgBechmFKc6K4oEli9fbmbPnm1WrlxpVq1aZWrUqGEaNmxomjVrZurUqVMUp6w5iYAIiIAIiIAIiIAIiIAIiIAIiIAIiIAIiIAIiIAIiIAIiIAIlBACEmRLyIHUboiACIiACIiACIiACIiACIiACIiACIiACIiACIiACIiACIiACIiACBQ9AqWL3pQ0IxEQAREQAREQAREQAREQAREQAREQAREQAREQAREQAREQAREQAREQAREoGQQkyJaM46i9EAEREAEREAEREAEREAEREAEREAEREAEREAEREAEREAEREAEREAERKIIEJMgWwYOiKYmACIiACIiACIiACIiACIiACIiACIiACIiACIiACIiACIiACIiACJQMAhJkS8Zx1F6IgAiIgAiIgAiIgAiIgAiIgAiIgAiIgAiIgAiIgAiIgAiIgAiIgAgUQQISZIvgQdGUREAEREAEREAEREAEREAEREAEREAEREAEREAEREAEREAEREAEREAESgYBCbIl4zhqL0RABERABERABERABERABERABERABERABERABERABERABERABERABIogAQmyRfCgaEoiIAIiIAIiIAIiIAIiIAIiIAIiIAIiIAIiIAIiIAIiIAIiIAIiIAIlg4AE2ZJxHLUXIiACIiACIiACIiACIiACIiACIiACIiACIiACIiACIiACIiACIiACRZCABNkieFA0JREQAREQAREQAREQAREQAREQAREQAREQAREQAREQAREQAREQAREQgZJBoGzJ2I3itxezZ88269atsxOvVauWqVevXvHbCc24UAl88803ZtmyZXYOTZo0MdWqVUt7Pr/88otZuHCh7YdzknMzl7ZgwQKzevVqU6ZMGdO6detcDq2xREAEREAEREAEREAEREAEREAEREAEREAEREAEREAEREAERCArBEr9G7Os9KxO4xJYuXKl6dKlS7B9t912M4888kiwroVoAs8884xZtGiRqVixohk0aFB0pU2otH///uaNN94wpUuXNlOmTDF169ZNe+8ReA866CDzzz//mPbt25sxY8ak3WcyHQwePNhMmjTJNhk/frxp2bJlMs1VVwREQAREQAREQAREQAREQAREQAREQAREQAREQAREQAREQASKHAGFLC6EQ/Lqq6/mGXXOnDlm1apVecq0kp/A1KlTzf3332/GjRuXf+MmVoIXK2Istv/++2dEjKWv+vXrm65du7JoZs6cafBYzaUhMju7++673aK+RUAEREAEREAEREAEREAEREAEREAEREAEREAEREAEREAERKDYEpAgWwiHLizI4o04Y8aMQpiJhiyuBO69995g6qecckqwnIkFvz9/nEz0vbE+dtppJ9OpUydbbdq0aeazzz7bWBNtFwEREAEREAEREAEREAEREAEREAEREAEREAEREAEREAEREIEiTUCCbI4Pz5o1a8ysWbPsqAcccIANv8tKWKTN8bQ0XA4IEKr6/PPPN0OGDElrtOXLl9sQxXTSrl0707Rp0432l8zYzZs3N3vuuaft88UXXzRffPHFRvvPZAUnCBNNPdeCcCb3Q32JgAiIgAiIgAiIgAiIgAiIgAiIgAiIgAiIgAiIgAiIgAiIAATKCkNuCbz++utm7dq1dlBCw/7222+GMsLP/vnnn6ZChQobnRACGUIZ3oOffvqpzfe5/fbbG3LR9urVy1SrVi1uH4hckydPNvPnz7dtV6xYYbbaaisbqrZ79+6mdevWcdsiBNKWPK6MW6NGDdOkSROzzz77BAJeuPHXX39tHn30UVu83377WQH6ueeeM++++67d31133dV6RDqvSL89dVxYXsoZE/vjjz/MiBEj7LL/56ijjjLbbrutXxQs//DDD3ny9JYqVcoMGDDAlC2bu0vgxx9/NM8//7zlduWVVwZzS3bhvvvuM3///bdt5of4LaifZMc+9dRTzdtvv23HYbyrrrqqoO4jt61bt86MHDnScM61atXKdO7c2R73xx57zCxZssReB3Xq1LE5a8lbW6ZMGdsP5yD1P/jgA8O5cs4558Q9ruGB2U/CWmOM17BhQyte8xIE523t2rXtOX7SSScF49nK+iMCIiACIiACIiACIiACIiACIiACIiACIiACIiACIiACIiACWSJQKiaW/JulvtVtBIHBgwebSZMmGQRBxEYEp+uvv97WHD16tBWRIprZIg7Vww8/bG6++WYrSkbVq1ixonn55ZfNlltumW8zQu6ll15qRbF8GzcUnHjiieaiiy7Kt/npp58211xzjRWQwxvZl379+pnzzjsvn8D53nvvmb59+9omRx55pBXHfvnll3AXZuDAgebss8+2XNzGO++809x2221udaPfDz74oNljjz0i63344YfmiCOOyLONuVWtWjVPWTZXyMfas2dPK8gidqZiCMsI4Ij3eMY++eSTCXWTytjMlXa8JIAHd82aNRMay1XCG9wJ/H369LHHBg/hKEO4dblr2c54p59+uq16wgknmIsvvjiqWb4yRPtDDz3Ulp9xxhn2Gps7d26+epwnY8eOlSibj4wKREAEREAEREAEREAEREAEREAEREAEREAEREAEREAEREAEMk0gd+6BmZ55MewPr0aXKxbPUgSuDh06BHuCCIVXXzy75ZZb8oRwJVwt/SCIIkS9+eabVqh1Hrh+P99//731nl29erUt3mabbcxee+1l8KzFS/b99983y5YtM1FiKR6Hw4YNs+1Kly5t9t13X0OuT/rEUxevRLwoEYMRVePZhAkT7KYWLVqYtm3bGrxnp06daueM+Iqn7jHHHBM0J3QuQp4z2NGGOfTu3dsVB9+1atUKlgt7ATGQY0P43Y15PbNPN9xwg2F/8dwsyB544AErxlLHhfYN18/U2PR/7rnn2vEYF8E9VVu8eLF9EYH2eDFz/vCCwcKFC823336br9suXbqYRo0aWS9wzhvE2erVq+erV1DBqFGj7Ga44j3O+TplyhTr9YvHLOcunrkyERABERABERABERABERABERABERABERABERABERABERABEcgmAQmy2aQb6huPTCd47r333nYrIVURqMjxOW3aNCtSIbCGbenSpUEo1s0228zceOONBtHKN0QvQsu60K/+NrxqnRhL6ODrrrvO0I8zxGJEt++++84V2W88MvFexKh/1113WXHLFsT+IP4de+yxNs/omDFjrAcoYWjjGV6qeNq6fURYJewuHp+Iugiwbv6I1b5gjSiHeFmpUqW087DGm18myhHGX3nlFft55plnzGWXXRYptBPSF7Eb4fD33383r732mt3/KlWqRE4Dj9Px48fbbfXq1TP7779/vnqZHJv+69ata48t4xLGOFWPYs798uXLm8svv9yeL27iMKDvcKhpzg/OC7y1YfPQQw/Zc821S/Qbz+0LLrggON/YJ0IgY3h9S5BNlKTqiYAIiIAIiIAIiIAIiIAIiIAIiIAIiIAIiIAIiIAIiIAIpEqgdKoN1S55AnjAOvOFRifOIoaS2zXKbr/9doN4heGFGhZjKUfcHTdunNl6661ZDYxcsxMnTrTrbEOc9cVYNiCC4p154YUXBu1YQIBFCMQQFvE09A2vVsIcY4iqCJDxDA9a+ndiLPXatGljunXrZpt8+eWXgQdxvD6KQznhcP+fvTOB12pa//gqzUWTUolmhGTIcEspQxkSIooMUcYQ9xq6fzPXdS8yZijUNVMyFCJK5iFKKSSUSobmaFb//Vu1dvvdZ7/nvPN7Tuf7fD7vefdee+211v7uvdd+z/6t51kSHuUBrWPSXLX6aNnZRx99ZDRnr86FBEd50+ocxxNjtZ/mXnWC/jnnnGM9hV157juTdeuaUD0y1av607H+/fvHiLEqS3P4KqS1wi+HrWvXrr5QK0FWcwcnY+I/YMCAmOutS5cuxg0YCJ6PZMolLwQgAAEIQAACEIAABCAAAQhAAAIQgAAEIAABCEAAAhBIhgCCbDK00szrBFmJbvvss49fWlCcdXn8jZsXpk+fbpdq1KgRE8Y3nC9qXfOAuqmCJZ4WFUI3WMbUqVP9VQlcn3zyif/RPKj6KPyxM4WgjWcdOnQoIAQrrxNktSwv32yYPD01V6/7KASzPG2zYRIZ5TU8btw4IxGySpUq5p133vHDOS9dutTOufvDDz+YHXfc0dx+++1m1KhRpl27dnGbs3btWt9DWiL48ccfH5k303WfcMIJ/nzE8qBWO1IxDQA4/fTTk9pVxyIPV5nCYo8cOTKp/TXQIepal3exLCpUclIVkBkCEIAABCAAAQhAAAIQgAAEIAABCEAAAhCAAAQgAAEIJECAkMUJQMpEFnmpzp071xaluVslNjk76KCDrIeqwgYr1K28+oKmOWE1z6usadOmNvRrcHtRy5ob1tluu+3mFhP6Du6rELJFmUIrxzPNVxtlzmNR2xS6ORu23XbbGYmLuTQJsRJke/XqZe6++24zYsSImOoHDhxo58wtX758THrUijyPXTjpM844o8hrIFN1K8zwmWeeaTR/sQRMeVpHzd8b1eZgmry3UxHAVdcDDzxgJGIPGzbMsnQhrYPlRy3Hm1PYzUUrz2QMAhCAAAQgAAEIQAACEIAABCAAAQhAAAIQgAAEIAABCGSbAB6y2Sa8uXwJrc7ktSePSff54osvTK1atezm7777Lia0rRJ//vlnI7FWFp5r0yYW8eenn37yczRo0MBfLmpBc85KCJNJBJOgWtQnHC45WIc8bKNMXr/ONEfs1mTyTNa8rvqETR608l4uyjZs2GA0P69MnqYSeBOxTNStenr27OnPHat2qD3JmjyBUzGJuAppLNOghFdffTXhYoqa79Z5jSdcIBkhAAEIQAACEIAABCAAAQhAAAIQgAAEIAABCEAAAhCAQAoEtrhpprAzuyROIBiKWKJSYcKS8soL0llQWPrzzz9dcsLfwfli3XywiewsL0sJsRKDmzRpYsaMGZPIbnHzxPNIDIbBTcWLMm6Fed7wwQcf2DliXRjn7bff3ixcuNC2SmGeJ02aZMNPd+7c2Vx++eWmcePGkS2WcDtnzhy7LSiORmbenJipulWcE4GHDh1q5DH91ltvGbU5GQtew8nsp7wSZCUE6/p55JFHzLHHHhszL2yy5ZEfAhCAAAQgAAEIQAACEIAABCAAAQhAAAIQgAAEIAABCOSSAB6yOaAtES44F2tRVQa9aZVXnqUKuSubN2+e/U7mT1DoS2Z/5xWruhYtWpRMlZF5nRgZ3hgsOxkP3nA5xWVdHslnn322Oeecc4zEWJ0/zV07ZMgQ20R5BL/++ut2u0JXv/nmm+aYY44xN954o1mzZk2Bw5AQKnPhgwtkCCRkum5XtMIWq36Za4/blu1v8XJhkmfOnGkmTpyY7SopHwIQgAAEIAABCEAAAhCAAAQgAAEIQAACEIAABCAAAQhkjACCbMZQxi9IHq8uPKqEus8++yzyI69JmTwnly9fHlNgo0aN7Pr3339vvvnmm5htRa0EBdnCPHOjynH7LlmyxEgMS8d03FGm43VWWEhmhXqWrV692g/h7PYr6ltt11y97qN5fON57BZVVlHbFdL3008/td7Fp512mhVfw/PXyvv4iiuusHOyqk3yQv7kk09i5hZWPR999JH56quvbJXHH3+8kZdtYZbJuoP1qF53DNOmTTMff/xxcHPWl/v06eOzkZcsBgEIQAACEIAABCAAAQhAAAIQgAAEIAABCEAAAhCAAARKCgEE2RycqWC44k6dOtkQsAoDG/60b9/etkbi3LvvvhvTsm7dutl1Cbu33367Wb9+fcx2tzJ58mQrWLp1fR9wwAGmXr16Nknhb+MJoxIop0yZEtzVHHfccf76oEGDfGHZTwwsaP7bwkIiz5o1q0DdOtYXXnjBllK2bFnTrl27QImxi06s1T7ffvtt7MYi1hQWWfPhuo8EZpWTDZOIfcMNN5iRI0eaa6+91vdujqqrWbNmZvjw4eauu+4yN910kxVxg/mcN6rY9O3bN7gpcjmTdYcrkMev2iFz3r7hPNla17nv2rWrLV4Cvq5zDAIQgAAEIAABCEAAAhCAAAQgAAEIQAACEIAABCAAAQiUBAIIslk+S/LmlJejrGrVqmafffaJW2OHDh38beGwxaeeeqpp0aKF3a75QeV5+cUXX1jxVXXMmDHDXH/99Ub5JDYGTfOyXnnllX6SvHSHDRtm5s+fbwXWX375xXpxSvB6/vnn/XxaOOqoo8yBBx5o09555x1z+umnWzFM4q0ETc1tOnr0aDvPp+b2lAdvYXbxxReb9957z0ggVfjkSy+91EjIlWleUucJHFXGLrvs4ifreMaOHWuPW0KvPlHhfv0dcrxw0kknmZYtWyZcqzi3adMmJv/06dPNhx9+aNPEZuedd47ZHm8lE3VHla36u3TpYjepXbrmcmkSpMuUKWOrdEJ1LuunLghAAAIQgAAEIAABCEAAAhCAAAQgAAEIQAACEIAABCCQCoFyqezEPokTeP/9932hUKFpNWdoPFMYXc3bKqFToqW8YF1+pd92222mf//+ZsGCBebLL7+04mu8ssLpRx99tPn888/NU089ZdatW2f+85//2E84X9S6PDcvuugiK3rKO7FXr15WGHNhmKP2iUorX7689VDt169fgc2aZ/WSSy4pkB5MkOArz8wffvjBtmXAgAHBzebxxx+33sAxiSV4JSg6RjHLx6GpHZr/Vqb2ybM3V9a8eXMjD3N5nE+YMMFeA0rDIAABCEAAAhCAAAQgAAEIQAACEIAABCAAAQhAAAIQgEBxJoCHbJbPjvNwVDUHH3xwobUphPHee+9t8yj0r0TXoO2xxx5mzJgx5uSTTzaVKlUKbrLL1atXNworW7NmzQLblKDwuY899phRWNso23///Y3mKQ2bvFZHjRplJMZp7lNZWIyV965E2yZNmoR399evvvpq07179wJheffcc08b3rdp06Z+3qgFidIjRoww11xzjfUWDjNw4XSj9g1vk6el87aMyp+NNHG89957ExLC5Xn85ptv2ma0bdvW6NynY8nUXVg9u+++u1F7ZGrfTz/9FDe7mDvGOneZMCdM6/qLmkvW1ae64tXprgX3nYl2UQYEIAABCEAAAhCAAAQgAAEIQAACEIAABCAAAQhAAAIQiEegjCdsbIy3kfTiS2DDhg025K9C9cqjdqeddjISNCtUqJBQo1esWGHDCyts8fbbb29F2h122KHIfXW5yENXYYZXrlxp56Zt2LChqVOnTuS+8qjt3bu33aaQyvKuVbhjzQGqsMWtWrUy8o7FYglcd911fvhohZeW93RxsY8//ticddZZtjmnnHKKufHGG3PaNF1Puq7kPa45kd3cwjltBJVBAAIQgAAEIAABCEAAAhCAAAQgAAEIQAACEIAABCAAgQQJIMgmCIpsqRGIEmRTK6n07PX777+bww47zArWznu4uB19jx49zLRp00zFihVtCOFciuoTJ0405513nkVy5plnmoEDBxY3PLQHAhCAAAQgAAEIQAACEIAABCAAAQhAAAIQgAAEIAABCPgE4k9o6mdhAQIQyCUBzfHrRMbWrVvnsuqE69K8wlOmTLH55emcS+vQoYO5+eab7RzLuRSCc3mM1AUBCEAAAhCAAAQgAAEIQAACEIAABCAAAQhAAAIQgMDWQwBBdus5lxzJVkKgQYMGNrRzcT6cli1bGn3yYZonVh66GAQgAAEIQAACEIAABCAAAQhAAAIQgAAEIAABCEAAAhAoCQTKloRG0kYIQAACEIAABCAAAQhAAAIQgAAEIAABCEAAAhCAAAQgAAEIQAACJZEAc8iWxLNWgtq8aNEiM27cONviAw44wDRt2rQEtZ6mQgACEIAABCAAAQhAAAIQgAAEIAABCEAAAhCAAAQgAAEIQCA9Agiy6fFjbwhAAAIQgAAEIAABCEAAAhCAAAQgAAEIQAACEIAABCAAAQhAAAJxCRCyOC4aNkAAAhCAAAQgAAEIQAACEIAABCAAAQhAAAIQgAAEIAABCEAAAhBIjwCCbHr82BsCEIAABCAAAQhAAAIQgAAEIAABCEAAAhCAAAQgAAEIQAACEIBAXAIIsnHRsAECEIAABCAAAQhAAAIQgAAEIAABCEAAAhCAAAQgAAEIQAACEIBAegQQZNPjx94QgAAEIAABCEAAAhCAAAQgAAEIQAACEIAABCAAAQhAAAIQgAAE4hJAkI2Lhg0QgAAEIAABCEAAAhCAAAQgAAEIQAACEIAABCAAAQhAAAIQgAAE0iOAIJseP/aGAAQgAAEIQAACEIAABCAAAQhAAAIQgAAEIAABCEAAAhCAAAQgEJcAgmxcNGyAAAQgAAEIQAACEIAABCAAAQhAAAIQgAAEIAABCEAAAhCAAAQgkB4BBNn0+LE3BCAAAQhAAAIQgAAEIAABCEAAAhCAAAQgAAEIQAACEIAABCAAgbgEysXdwgYIQAACEMgpgeXLlxt9wla5cmVTu3btcDLrEChAYP369Wb16tWmTJkypmrVqgW2kwABCEAAAhCAAAQgAAEIQAACEIAABCAAAQhAAAK5J4Agm3vmtsaVK1eaGTNmmOnTp5uffvrJii0NGzY07du3NzVr1sxTq6g2EwTmzZtn5s+fn1JRrVu3NpUqVUppX3Yq+QTuuOMO8/zzzxc4EF0Xzz33XIH0ohIeeughc++999psb775plEfU1qsVatW5q+//jLdunUzt912W4k97F9//dXMnj3btr9ly5Zmu+22K/RYdL6HDBli87z33numTp06heYvaRs1YOHrr7+2zW7UqJGpV69eTg9Bz+0VK1aYbbbZxrRp0yandVMZBCAAAQhAAAIQgAAEIAABCEAAAhCAAAQgUHIJIMjm+Nxt3LjRDB482DzwwANmw4YNBWovX7686d27t7nqqqsKbMt3wsKFC80jjzxim3HEEUeY/fbbL99NSrj+XLb9qaeeMsOGDUu4bcGMI0aMMBKSsNJJoGzZzEaRlyDp+hn3XdzJvvTSS+abb76xAxMGDBiQcnPlKar+VgxKsv3f//2fef/9942ujbFjxxYpyOqYnQWXXVpJ/168eLHp06ePva7btWtnHn300Zwekvr20aNH2zqfffZZs/fee+e0fiqDAAQgAAEIQAACEIAABCAAAQhAAAIQgAAESiaBzL79L5kMctbqP//80/Tv39/cf//9vkgiL5sdd9zRetuoIevWrTNTpkzJWZuSqei3334zw4cPt5+pU6cms2ve85bktucdHg3IGYEbbrjBipESJPXZeeedc1Z3calInrzqZ5544oni0qS8tUOeoBJjZZ07dy6V10MYfuPGjc3hhx9ukz/44AMbaSKcJ5vrffv29Yt3nsh+AgsQgAAEIAABCEAAAhCAAAQgAAEIQAACEIAABOIQKBcnneQsEFDYzLffftuWXL16dfOf//zHHHTQQdYTbO3ateaLL74wClmKlWwC8t465phjChyEvKLHjx9v0wcOHBjpYdyiRYsC+5EAgVQJdO/e3Q+rWr9+/VSLKZH7Pf7443bgS926dUtk+9VoF5FAy/369dNXkXbGGWeYLl262Dlkt99++yLzl8QMYiHhXiZGgwYNytlh7LrrruaQQw4xEydONBMmTDCzZs0yzZs3z1n9VAQBCEAAAhCAAAQgAAEIQAACEIAABCAAAQiUTAIIsjk6bwsWLDAvvviirU1irMLaBl/iVqhQwYqzmj/SzY+Xo6ZRTYYJSACKEoGC4kizZs3MnnvumeGaKQ4CsQQkwpY2IdYR2H///d1iifyeO3euDVGsxrdt29bsscceCR2H5ozd2uaNDR+4wrprMNPHH39s3njjDTsPey69ySUIS5BVSGgJwiV5juIwW9YhAAEIQAACEIAABCAAAQhAAAIQgAAEIACB7BBAkM0O1wKlDh061GhOQ1mPHj1ixNhgZs0TWNiL9/fee88oTKPCmWouPYVv3G233Uy3bt1Mw4YNg0X5y6+99pr59ttvTcWKFc2FF15oPXH1Mvmzzz4za9assfufeuqpkfUqvLLCKMsU9tfZO++8Y5YuXepW7XejRo2MPPLimQSG119/3bb9u+++MzVq1DAtW7Y0hx56qH25HrVfcWl7VNuylfbTTz+ZF154wRbfpk0b0759+7hVyeP2yy+/tNt79uzpi2+ah/PHH3802267rTn77LON1iVezJgxw4Y91byHug5r1qwZt2xtSOWcBQtctGiRefrpp/2kMmXKmPPPP9+UK5e9rmf16tX2WHWviOWvv/5q65P38S677GI0/3E88SZdbunu74NKcUFh0TXYI8p0j1erVi1qU4E0cZPQJe8/3auaf3annXYy++67rznxxBMj5zFNlbv6IReWVw1RfTKVd9ddd9nl4J/gdR5Mf/fdd23fEkzTsvNoDKeH19WfjRw50pbx/fffm8qVK9u+UXNlR3m8u/3T6aNcGVHfjz32mD//bTBMbjiv2Ilh2HSvnXfeefY4wtvC65988ontI+bPn2/7efUbEnX32msv2z/rvinMcv1cUlvOPfdce59rjmCxUrjvZM2xc/2SIlVoXtiPPvrI/PLLL6ZWrVpm9913N/I61vXvTP3yPvvsYyZPnmzGjBljLr30Ur/vdXnifS9ZssSG5Nb2jh07Gg3O0dzAn376qb32NIWByle/rSkNMAhAAAIQgAAEIAABCEAAAhCAAAQgAAEIQGDrIFDG8/DYuHUcSvE+igMPPNAsW7bMNlKiZJMmTZJqsF4U//vf/zbPPPNM5H56gX7rrbdasSmc4ZJLLrHhHStVqmQ9eS6//HJ/DluXV2LtPffcY18QuzR9SxzWC+9ETB5p8eZ9lHfwzTffbFauXFmgKL0MV5hftSss1BWHthdocIoJ1113nZEHtExeVQcffHBkSRKGOnToYHTO5UWtF/5RpltX80pKNJV4JHGhatWqNutZZ51lxQoJCp06dfIF3mA5EiUffvjhuNdiqucsWMdXX31lTjrppGCSmTRpUsLCYMyOCa6IXXDwQHg3MdK9orCuYUuXW7r7h9uj8ytxtHXr1ua5554Lby6wrrzaJ8oU4jWeEO3y65qSoKvQ6RJEo0z9yFtvvWWCHt/Klyr3Bx980PY9UXVFpSkU8QEHHFBg05VXXmleeeWVAunHHnusuf322wukBxMkrKn/USSDKNOgEXlBbrfddgU2p9NHFShsc4IGMqhODZhRH+wGaETlV7s0526USaSO8tZ3edW3DxgwwIwbN84lFfjWICEN5IiyfD2XXFs0AEht0/NLg1Nq167tNiX0HWSna1rnMupYNehJgy2Cpvo0wEl25plnGoWhT8Q04EDXpOyiiy6y/bYbVBPcX9f4sGHDEGWDUFiGAAQgAAEIQAACEIAABCAAAQhAAAIQgEAJJpA9N7USDCXTTZfXmhNjGzRoEFcAK6ze//73v74YK0Hp8MMPty/aJXjJm2fFihXm4osvtqKNxJsok8ByxRVXmCpVqliRTt6R8raVN5he/EuE0dx4EkidyRvNefZKJNBLa5k8p+TdGrSmTZsGV/1liQUupKNe7h922GHWa23hwoXWC08eQ/JwktCjF+JRlq+2R7Ul22nyHJYX56uvvmo9FKdOnWp5h+uVsCkxVnbUUUf5Ymwwn7yoJeZIsFeZEmh1zhUWW+KdBESd0/Llywd3swJPuucspsAcrjiPbnmM616QCClPMwkhOlbdj/JoGzx4sL0Wo5qWKjdXVrr7u3KS/dZ57tq1q7+bPOnl5Zqo3XnnnTHzlipUru5z9Qni9+GHH1qh1jEOluvSkuWu8LOnnHKKX5S89+WdqL5CXtxhq1evXjjJrsuTVZ68zuINZHDb3bfEe90H6gNlCiWuwSW6TjTnt/o9iW8SbINzurr93XcqfZTbN/z9v//9z29PUXPH6rhXrVrlFyFxeebMmf56YQsSt50Yq75BnsDy0NSgkB9++MFI0I0nzKvcfD2X3DGJzWWXXWZZiZnOUap20003+eKuPILF4eeffzbTp0+PLFIDXTRgRveXBtpInNV0BMmY+iCZ7gF5n+uZKG9ZCeXymJWX+tFHH51MkeSFAAQgAAEIQAACEIAABCAAAQhAAAIQgAAEiikBBNkcnBi91HWWytx+EgxGjBhhi9ALX3nNKIyisyFDhphBgwbZ1fvuu69Q0UBin15cO/FUL9t79+5tJOzqxbLEv6Cge+2117pq7MtqJ8hKAJRXa1EmMUNhj2USi+SRqRfPzuQhdNppp1lx8NFHH7Uhj+OFXs51210b8/Etr1IJsrJRo0ZFCrJBj62wF2qwzfLq0zl3Aro84iR8S2RSOF95FSoMrbNMnjNXZi6/JTxL9JfHZnBwgdqg0K7yZpNwp/tI+eJZstzC5aS7f7i8RNY1yEIDK5xJ8FGfkIgpxLUGT8h0r0psk+gUNA3eUGjYqFCqqXKXp3jQW1zClgRZeX3feOONweoLXZaoGxR2df8kEgBC/acTY3UfSZiTGCy74IILrFg7Z84c68k4ZcoUo3Df8SzZPiqqnD/++MOGzdU2hYGP5/Hs9hV3fZxJVE9UkJX45+zuu+8u4HksYXb06NEuS8x3Pp9LriFiowEXGlyiUMMKY5xoWG5XhvuW+KwwxOKngVPO9Fx0orVL07f6FoWSvvrqq60g/uSTT1qP12CeRJb1HJV3t+urdEwaMCJTlAIE2UQokgcCEIAABCAAAQhAAAIQgAAEIAABCEAAAsWfwKa3zsW/nSW6hZqXz1k4zKdLL+xb3jdOMDj99NNjxFjtp5fQLgSywtZKWIlneoHsxFjlkVeqBFln8+bNc4sZ+ZYAK4FBds0118SIsUqTQC3vNJmOMSgy2sTAn1y3PVB1zhcPOuggf85CzVHpzr9riIR0J6bofAZFbpfHfffq1csXY5WmsNAKr+kEgPCco5k8Z64NufyWoBb29Hb1y/PRhbtVmNCgR6XL476T5eb2c9/p7u/KydX3vffe63vDS7APi7Fqh+a7VFjyqDC4meKeq+NVPbqP3GAXRQ745z//6Yux2l6/fv0Yr/14IdmVV5aJPkqhqZcvX27LO+ecc2LaYxMz+MeF9taxy9M2bBKY9cyJsuLwXNLAADGSiVkiYb2jjkVpOlZ5QAfFWKXLC1bCfJTJG13XiEyCbGHexFH7K8SyBsi4vlh5FErdDUrK9PM4qg2kQQACEIAABCAAAQhAAAIQgAAEIAABCEAAArkhgIdsDjjLy8hZKt47QYG1W7durqiY7+OOO87Iw0mm/E6gjcnkrUR5BDZu3NjP5l7Q+wlpLsjj1plePn/yySdu1fde22GHHfw0hdKNZ7lsu+bqVdjZZExehWeccUYyu8TNqxf08ta76667rNAgz2SFE3Wm+UAVUlVWmHestgdD2GpdttNOO9nQrNOmTbOhSTelbvqbyXMm7zXNfexMxyXPx1yZQoVrXlCdS+ct6bw7FWJXDHXeoixZbuEy0t0/XF62111oVglTQU/TVOpNh3sq9aW6j64NN9hBYeAlTIZN3qe6ZhUWONgXh/NpPd0+SnOyOi9lDVY5/vjjo6rJWJrERDHQ3N4SmyW+uvujqEqCLPL5XDrhhBOsF7jC/SoSgI6hQoUKRTW/wHYNDHJzcBfYGCdBg1vk4ao5qRV6f+TIkTEDnOLs5ie3b9/ezn/rJ2xekGe0xNhMP4/D9bAOAQhAAAIQgAAEIAABCEAAAhCAAAQgAAEI5I4AgmwOWAe9yYLibKJVOy8ZhdHUvHZRJoHNWdAj16XpW2JY1PyLCq3qLDgXoUtL53v27Nn+7vIeK8qCL/mDeXPddoWzVRjMZEzez5kSZFVv9+7djbwWNZ+g5oENCrIKZSmTICAxvjALXhvBfPLCkiArry4JlppDUpapc6aydG1JMMmlSVxS+FKJMwrJXJi5+ZGj8iTLLVxGuvuHy8vmusRp12/I4zoVQStT3LN5nOGy3TErXYMHokws1G+qb3J9cVS+TPRRihDw+++/2+LVl6RyHqLaFi/tyCOPNF988YXdrDmjhw4datq0aWPDMstjVnOb6riizLHI93NJjBSGXKGGJWC+/PLLkXMPRx1DME3HmoppnuMHHnjAzrur54Y84xMVtaOex2qDm4s208/jVI6PfSAAAQhAAAIQgAAEIAABCEAAAhCAAAQgAIHMEECQzQzHQksJhkB0L9sL3SG00YlKmh8y3oteeZ860/yLUVaxYkUr4EVtc2nOi9Ctp/O9YsUK+5JaZajdQQ7xyg2K18E8uW67PJmT9eRMxfs5eIzhZXnIdezY0bz99tvm448/tp5szqPNeRorrGzw3IfLUEhqfaIs6Bmqa0aCbCbPWVSd2U6TKKgQ3DNmzPCrkmgtlk7ckied8y6W2B1lyXILl5Hu/uHysr2uea4dCxeCNZk6M8U9mTozkTfYVxZ2H2mbBFmFxdUAhqh7Kt0+SuGzNY+2TPemhL1sm+bv1r0gIVHHpvmj33jjDftR3Rq0Ie9PF+Y72J7i9Fzq2bOnnZ9c4fHFUHNiu3mAg20ubDneYKfC9tE2PSfU52iudAn8mrs4nsdwuKyinhmZfB6H62YdAhCAAAQgAAEIQAACEIAABCAAAQhAAAIQyC0BBNkc8JbAIS8jvVx1L7GTqdaFUSzMWyY4d11U2M1k6stUXrVDQqyEHoVQHjNmTKaKzno5o0aNynodiVQg7ysJshJr5D2nuQzlAebmPpXwUJjJ81F5o8QJJ8Bpf3fNlORzpuPQHJBOjG3durW54oor7NyYQS+///u//7Mex8ofz5LlFi4n3f3D5WV7PSgMObE6mTozxT2ZOjOR1/WtKivYh4bLdn2v+jMn7IfzpLs+btw4M2fOHFuMBMbgOUm37Hj763jUp0hQVLhdect+9NFH/rzf8oLVHK3quxVGN2iOnWMT3OaWg0xdH+O2ZfLbCdjy8JWHv0K8d+7cOakq0uEtfhKCxUL3wrHHHhvXszipRpEZAhCAAAQgAAEIQAAv4ScvAABAAElEQVQCEIAABCAAAQhAAAIQ2GoIlN1qjqQYH4g8p9w8qfJAmjRpUlKtdZ6l8kLTJ8qCc82l6ukTVW46aXrZ78K26rix5AlojkF37ShMsUR9F65Y6dpemEl01dyGURY8Jy50Zkk/Z/LukylUsgu/GhRjtW3u3Ln6KtSS5RYuLN39w+VJ4M2myQPUhS53oWiTqS9T3JOpMxN5Xd+qsoJ9aLhsF9lAg2uiBjeE86eyrutV5kLwplJGqvtI0NRcqPfdd595//33ze23324ab55bXNeeQoCHzbErLs8lhS12YrljGW5zttY177IGz8hmzpxpJk6cmK2qKBcCEIAABCAAAQhAAAIQgAAEIAABCEAAAhAooQQQZHN04k4++WS/Js0Hmoy5F9/ax4WqDe8fTM+WICth2VmiXnTupb5EQb2ozpel0vZ8tTVYrwRSzSUr05y2EhqcF53mZtX2ouyzzz4rkEVzp3755Zc2XaGKgyFYM3nOdM4POugg//O3v/3NepEVaFCGElwIWs0H6gTGYNEKyzp9+vRgUtzlZLmFC0p3f5Xn5vX97rvvzJo1a8JVZHTdeUB+//335ptvvkmq7Exyd/eqvCuDXtxJNSjBzMG+MtiHBndXqGIn1gb74mCedJfllfrVV1/ZYo4//nij+ajzZeoL5OH5r3/9y29C1NzeQRbx2AXTg6z9gjO4IGZuvmrNja0w77k0CdoKjy6TlywGAQhAAAIQgAAEIAABCEAAAhCAAAQgAAEIQCBIAEE2SCOLy6effrqdF1BVjB492rz22muRtclr0XlAugzt2rVzi+aJJ56wXpJ+gregMMgKdymrXr262X333e1ypv8E55ZMVNQ67rjj/GYMGjSoQNv9jd6CRCfNAZgNS6Xt2WhHKmWedNJJfvhLMZTJ67OocMWuLnm3hecilEej85wNe9lm8pytXbvWziO8dOlS+606symyaa5YmcIWO5HQcdD3gw8+6M8fG0yPWk6WW7iMdPdXec7DXF6KU6ZMCVeR0XU376WuFXlISrSPssmTJxcI75tJ7u5e1XXy7bffRjUhY2nyDN5ll11sebpmFLI3bE8++aSfFOyL/cQMLDiPTnnf9u3bNwMlJlbEggUL4mZ050EZnEgezBxkkc/nUrBNCq/sPJiHDBkS3JT1ZfHq2rWrrUdRMHSfYBCAAAQgAAEIQAACEIAABCAAAQhAAAIQgAAEHAEEWUciy98KCamQijIJHf/4xz+MxDV5EMn7Si9wH3roIXPkkUea559/PqY1RxxxhC8afPjhh+aqq64yCiuqciQgaP46CV8yeem4uf1iCsnAiuYAdF5O77zzjrnzzjuNvABnzZplP1Ev94866ihz4IEH2tq1j4RpvajWXHsSXOTtKYFaxyCvLHnnZcNSaXs22pFKmWIuz9Kg7b///r5YF0yPWpan2D//+U+j8yOvwzfffNNcc801NquE3X79+sXsVlzOWUyjElzZY489bE7Nm3vjjTeaTz/91F5nP//8s7n++uvNsGHDEizJWA+7ZLiFC06We3h/reved3bRRRfZe059gD7hQRESUnWOg59ly5a53a1AHdzmBHmX4dRTTzUtWrSwqx988IE57bTTbP+ia0YfCZZiqHzhfTPJ3QmkasiVV15pxo4da+t2/UyUp7A8n4PHpmU3CEHe/OFtTmzW9S+uzs4//3yjfkrHqzDFd911l3nqqafsZg12UT+VadN51PmUad5TeXfnyiQg9urVy85PrWeK7hsNntCAjUsvvdRvRnjQhjYUl+eS30hvQey6dOlik8TUzScdzJPNZYnpLkS6E9mzWR9lQwACEIAABCAAAQhAAAIQgAAEIAABCEAAAiWHwKb4eiWnvSW6pXrxL+8dzdOnF9/y4EnEi0cveCUMaX+JC6+88or9hGHIM1aCZzZNL+klkkjs0Avn4EtniYTylArbTTfdZNsuQUXCswQAHZMTTML5s7WeStuz1ZZky1XIayfaaF8XxjiRchS6V17XYc9r7avrpXnz5gWKKS7nrEDDiki45JJLzNtvv20FtQkTJhh9FNbZeeWKxa677moHEhRRlA15nCy3YJmpcA/ur2UJdBrQoIEb8h4P3nN77rmnGTlypL/L/PnzzeGHH+6vhxfOOOOMmKS99947Zm5QcbrttttM//79rYCpkNYSXxOxTHLXwAz1iz/88IMd6DFgwICYJjz++OPmgAMOiEm79dZbragYk7h5Zfz48UafoD366KPGeXiKcceOHa0QK2FXomzYxObqq6/OymCXYB8aHhwRbkc21jVAxnlzli9f3g70CfbNe+21l+/5Gay/OD2Xgu0Sw9dff90mia1E9VyZ+tJOnTrZ6019j555Uf1rrtpDPRCAAAQgAAEIQAACEIAABCAAAQhAAAIQgEDxIYCHbA7PhV5gX3jhhTZs6m677RY5/6e8w0455ZQCrdI8nKNGjTKtWrUqsE0v0eXNphCpUd6xbp5RF8oxXIDbrvTgcjif1hXWVB688qyqUaNGTP54+2puSrVdL8rlqSoLvvDXujzzJDg3adJEq765MvPVdr8hGVhwx6Ki4h1PvGoOPfRQn7UYOi+wePldukKyaj7DunXruiT7rXki5WktoT/K0jlnwfLCx6l7QJ9smdotsS0ogkiMVZ3NmjUzw4cPj7mHwu1z7UqVW6b2d+XoW8ejfkN9hu51Z8HrSWnhdZcv3ndUfnm6jhkzxmgAQHBeYVeGvEQVFrZmzZouyX5nirsKU7tGjBhhvbjVL4TbEXXOotJiGhhaCebXtaFQ1pdffnmBurSbvC4VttjNTxoqyuceLDOYJ8g5uKw8ihAgj3VZ27ZtjfM0tgkp/gn3rYUVo2NyYbGVT6Gx3f6VK1c2Z599tu0/wufAlVlcnkuuPfrWwCSxlImt5t6OZ8FzFlyOlz+RdCeqi2PUXLLB/i98PbjyXVvct0vnGwIQgAAEIAABCEAAAhCAAAQgAAEIQAACECi5BMp4Lw03ltzml+yWK/Sm5kicO3eukQDUsGFD+ynqqOTFpf0WLlxomjZtaoWmcuVKhrOzLjeFD9V8sStXrjT16tWzx+zmoCzq2EvrdnlIupDXPXr0MDfffHOhKM466ywbclfXlcLPyiT+KISnxDN5icYTA8IFl8RzJhH2xx9/tB8JS/Lyk8dqUZYut3T3L6p9udwuL36FsZWXn3hKuFN/U6FChbjNSJV73AJzvEHHrPtE/VO1atXsfaJ7KFt23XXX+SHqFU47HJo8lXovvvhif05xhexO5LpXnywPa4VpluivMOnqJ9wAmkTaUZyeSwoXrntRpgFOCl+eS1Noa0WD0HNZ87sH5+PNZTuoCwIQgAAEIAABCEAAAhCAAAQgAAEIQAACECg+BBBki8+5oCUQiEtA3sMKxSt77rnnTOvWrePm1YYoYbDQHdhoCaTLLd39OQ2lh4DEz8MOO8zO/x0OP50OhYMPPtgO1pGgLFGwtJoGrkybNs1UrFjRhhDOprAeZjxx4kRz3nnn2WQNpBk4cGA4C+sQgAAEIAABCEAAAhCAAAQgAAEIQAACEIBAKSNQMtwqS9lJ4XAh4AjIi1ghop0YK+GmKDHW7cs3BCBQfAkoPLAT6jJxT8tDVfPrKnKCrGXLlsX34HPQMs2DPWXKFFvT2rVrc1Djlio6dOhgoxisX7/eRr/YsoUlCEAAAhCAAAQgAAEIQAACEIAABCAAAQhAoLQSQJAtrWee4y7WBBSi+Prrrze//PKLWb16tW2rQgxrnksMAhAo+QQaNGhgevXqldaBKDyxwpDLFi1a5PcVWr/gggv0VWpNgnS+RGnNEysPXQwCEIAABCAAAQhAAAIQgAAEIAABCEAAAhCAgCOAIOtI8A2BYkRgxYoVZvbs2X6LNG/n7bffbtq2beunsQABCJRuAhqwoblfg6YQvfK8pa8IUmEZAhCAAAQgAAEIQAACEIAABCAAAQhAAAIQgEB+CTCHbH75UzsEIgksWLDAaB5CeVo1btzYhimuVKlSZN6oRO2rMqpUqWK6desWlYW0CALpckt3/4gmkQSBuAQUylxz0crKli1rGjZsaL1Ca9asGXcfNkAAAhCAAAQgAAEIQAACEIAABCAAAQhAAAIQgEDuCSDI5p45NUIAAhCAAAQgAAEIQAACEIAABCAAAQhAAAIQgAAEIAABCEAAAqWEQNlScpwcJgQgAAEIQAACEIAABCAAAQhAAAIQgAAEIAABCEAAAhCAAAQgAIGcE0CQzTlyKoQABCAAAQhAAAIQgAAEIAABCEAAAhCAAAQgAAEIQAACEIAABEoLAQTZ0nKmOU4IQAACEIAABCAAAQhAAAIQgAAEIAABCEAAAhCAAAQgAAEIQCDnBBBkc46cCiEAAQhAAAIQgAAEIAABCEAAAhCAAAQgAAEIQAACEIAABCAAgdJCAEG2tJxpjhMCEIAABCAAAQhAAAIQgAAEIAABCEAAAhCAAAQgAAEIQAACEMg5AQTZnCOnQghAAAIQgAAEIAABCEAAAhCAAAQgAAEIQAACEIAABCAAAQhAoLQQQJAtLWea44QABCAAAQhAAAIQgAAEIAABCEAAAhCAAAQgAAEIQAACEIAABHJOAEE258ipEAIQgAAEIAABCEAAAhCAAAQgAAEIQAACEIAABCAAAQhAAAIQKC0EypWWA+U4IQCBkkFg7dq1Rp9tttnGVK5cuWQ0mlZCAAIQgAAEIAABCEAAAhCAAAQgAAEIQAACEIAABCAAgTgEymz0LM42krNIYOXKlWbGjBlm+vTp5qeffjK1a9c2DRs2NO3btzc1a9bMYs0UnSsCCxcuNN9//72trnHjxmaHHXbIVdUlup5LL73UvPHGG6ZSpUpmypQpJfpY1L1+9913Zv369aZMmTJm1113NWXLFh2YYMGCBebTTz+1fcPSpUvNjjvuaBo1amT7hwoVKhTJZNWqVZad+pgqVaqYfffd17Ro0SKy7uXLl5uvv/7alqk66tWrV2T5mcygNq5YscIK8G3atMlk0ZQFAQhAAAIQgAAEIAABCEAAAhCAAAQgAAEIQAACECgWBPCQzfFpkEAzePBg88ADD5gNGzYUqL18+fKmd+/e5qqrriqwLd8JEhgfeeQR24wjjjjC7LfffvluUsL156PtEhVvvvlm28YrrrjCnHPOOQm3d2vJmAr3rWGMyF9//WXGjBljhg4dambNmuWfznfffdfUrVvXXw8vrFmzxtx9993mqaeesl7C4e0NGjQwV199tencuXN4k7/+5JNPmn//+99GbQiahFbdv82bNw8mm8WLF5s+ffrY/qhdu3bm0Ucfjdme7ZVhw4aZ0aNH22qeffZZs/fee2e7SsqHAAQgAAEIQAACEIAABCAAAQhAAAIQgAAEIAABCOSUQNGuWjltztZd2Z9//mn69+9v7r//fl+MVVhWeb/pW7Zu3bpi6xX422+/meHDh9vP1KlTS9TJKsltL1GgQ40tbdwlqD7zzDNWMNWgiqAYG0ITuXrTTTcZCZQK2SyTeLr//vtbD3qt//zzz+ayyy4zn332mVYLmMTUW265xRdjK1asaMqV2zTu5pdffjFnnHGG+eabb2L2k/f24YcfbtM++OAD67kfkyHLK3379vVrGDJkiL/MAgQgAAEIQAACEIAABCAAAQhAAAIQgAAEIAABCEBgayGw1Quyf/zxh/nqq6+MxIh822233Wbefvtt24zq1aubhx56yHz++ec2bfLkyVbo3HPPPfPdTOqHAARSJCBB8cYbbzTz58+3JSjsshNEiypSoY1feOEFm02e8vJmlZftE088YSZOnGjFVG2U56vqCNu8efPMHXfcYZM1wOOee+4xX3zxhfn444/NiSeeaNPlDRu1b79+/fzinBe8n5DlBYVxPuSQQ2wtEyZMSFrEznLzKB4CEIAABCAAAQhAAAIQgAAEIAABCEAAAhCAAAQgkDaBrV6QnT17tlHYVHmFhT3D0qaXRAGaE/LFF1+0e0iMVUjSjh072nkylah5IQ866CDz/PPPm2uuuSaJkskKAQgUFwIu3HK1atXMueeea8aPH289XBNp3/vvv+9nO+WUU8zBBx/sr0vUvfLKK/15iDU3seahDpr6F1e/PPG7dOliPe/VFoU5dl74Gvzx448/Bnc1rVq1sv2PEhVqW/Na59KcIKz251oQzuVxUhcEIAABCEAAAhCAAAQgAAEIQAACEIAABCAAAQiUTgKbYlluxccuMUKCrMx5ye622245P2LNJbl+/Xpbb48ePQrM4+gaVLZsWbPHHnu41QLf7733nlFYUYnL8nZTuFEdT7du3UzDhg0L5FfCa6+9Zr799luj8KUXXnih9ZqTx53CnirEqvY/9dRTI+tVeGWFUZYp/Kyzd955xyxdutSt2u9GjRqZ7t27x6QFV+bOnWtef/1123Z5A9aoUcO0bNnSHHroob4YFMyv5eLS9nC7crmea27u2FavXm2ee+45e71IAGzWrJmdN1jXr4RGeYHqHJ588sluF/udyWtGBcrLM9HrNdiQRYsWmaefftpPKlOmjDn//PMT9lj1d0xioX79+uaSSy6x80Bvt912SexpzJIlS/z8LVq08JfdgkRZhTD+9ddfrfAqj9hddtnFbpaQ6QZ86DjD50RzVgfnlB01apT5+9//7oq23xKQ5U2rfI899pi54YYbYrYnsqI+Tudf7dlnn33soBP1M7qOfvjhB9uXqJ86+uij7ceJxG3atLH5JRbLK/jSSy81YpmIidtwL5S6TINcdJ2OHTvWfPrpp7avUUh4lX/22Wf7orTNzB8IQAACEIAABCAAAQhAAAIQgAAEIAABCEAAAhCAQI4IbPWCrARLCUtOjHXfuRZlX331Vf+UuvChfkICC5pT8t///rednzKYfebMmebNN9+0807eeuut5ogjjghutssSJ5RH4VObNm1qLr/8cn8OW2WYPn26FUEU4lSCRtAefPDBGCHHbfvkk0+MPkHTXJfxBFmJRTfffHMBrz6JNQrJ2qdPH9uucHjX4tD24DHmejkf3HSMEjMl3n/55Zf+IWs+VHlPvvvuu2bFihV2m0SzsPiXqWtGFev8J3O9+o31FuSVPnjw4GCSOeuss4wGaWTLJFanag0aNPB31XzTURYUbYOCpfo1zS8rU99Wu3Ztf/cZM2aYxx9/3F/XwqRJk2LWtdK2bVuz++672zlkdd1dfPHFMeUU2CEiQX2tQrHL5OWr4wgLvxqModDElStX9ueuVX55yeqak6grgXXgwIFKLtI04Obhhx+2+dR/KDR8+LqVoK/BLJqf14nARRZMBghAAAIQgAAEIAABCEAAAhCAAAQgAAEIQAACEIBAhghs9YKsODnx1Ymx7tulZ4hl3GIkSixbtsxul+jSpEmTuHnjbfjvf//ri7FVq1a1QkbdunXt/LgfffSRFcgkoMgTrXXr1pHFSCy54oorTJUqVUynTp1MzZo1rbetvB/lKav5JzWXozzsnPXs2dP37JVI99Zbb9lNe+21l/Vudfn0LbE3yiSuSCSRyQP4sMMOM5o3UkKKBD6JTPLIk2As78Ioy1fbo9qSq7R8cdPxXXTRRb6oJeFPXsw6d5oDORhaN4pFJq4ZlZvKOY9qT0lJa9++vQ1drsEXzz77rBFH3avONADi66+/tqsa/LDtttu6Teb333/3lyWqOpO363XXXWcHVcgbXQM4lKZ7Ocokil522WW2P/jf//5nxfCofImkqV8ZPXq0zaprSPe8PGd1DEFve1eW+iR5AEv4V+h2ibMK756MOQFeIZj33Xdf28dI1Ncxy2NW/Y28czEIQAACEIAABCAAAQhAAAIQgAAEIAABCEAAAhCAQC4JlApBVkCd+OrEWPft0rMJ3XmuqY46deokXZXEixEjRtj9JFDIyysougwZMsQMGjTIbr/vvvsKnYNRIWYltDjxVKJX7969rbArIWTq1Kkxgu61117rt1eedk6QPeqoo6xXq78xzoKEH4UwlUlAkiebhBJnEv5OO+00O2flo48+aj1s44VeznXbXRvz8Z1PbgpbO2XKFHvYEtF0vdWqVcuuK+TvGWecYSS2xbN0r5lgucme8+C+JW1ZoXUlnsrTXXO4tmvXzgrhOgfyKNU5kaApJkHGOs6gwBoMlay5qr/66ivrFXrLLbfYkM0Sb4MCbpBT586dzc4772zrlyisMMapehTLC1dzY6utusedyQNWZQc9fLVNA0H69u1r57tdtWqVefLJJ+3AALdfot/yttd8u25giY5JIZBl8vxFkE2UJPkgAAEIQAACEIAABCAAAQhAAAIQgAAEIAABCEAgUwTKZqqgklCOxNeg2CdRVnOxZts016az7bff3i0m/C1vMXmwyk4//fQYMVZpEk2c1628F3/88UclR5oEDyfGKoO8UiXIOtO8lJk0CbB//PGHLfKaa66JEWOVKIFaYWRlOsaXXnrJLkf9yXXbo9qQq7R8cpMQ5kzhZp0YqzSFwpWInisrTedcTE866SQ7z7L6KYmSCnWuwRaaW1VirEKSjxw50p871p0HN0+21p0gq/7t7rvvtlkkomtuaudxqrL1CZvC+Z5zzjk2efny5dbjPpwnmfX+/fvHiLHaV2GF1edEzZXdtWtXX6jVdagBI8mYrs8BAwb4Yqz27dKli9/vZ7p/S6Zt5IUABCAAAQhAAAIQgAAEIAABCEAAAhCAAAQgAIHSS6DUeMi6U6yQmPL4ckKsRAsJBErPli1dutQvOhVvs6DA2q1bN7+s4MJxxx3niy/K7wTaYB4tK1xw2DTPrrOoUKJuWyrf8rh1JrEkOO+sBCbZDjvs4LL4IVn9hMBCLtv+zDPPmMWLFwdqL3pRHsASvjJh+eTmvF8V0vrggw8ucDiHH364H1q3wMYMJ6RzzuXpqXmXncljUvOWFmebM2eO9eaMJxyOHz/eiqrypJX3qTM36EHrGmQhc3M2S9x1HqLB49c8wMF1u5P354QTTjDytJfIK296DQIJ1uXyFfWt+0H7JmPqi+XhKi9hhTKX+BwcMFJUWQr7XLFixQLZGjVqZMQ00/1bgYpIgAAEIAABCEAAAhCAAAQgAAEIQAACEIAABCAAAQhEECh1gqwY1KtXz0iIdUKp+47gk5EkzfXqLJW6nDijOTwV1jTKdtppJz856JHrJ3oLEqR07GFzHnVKj/KaC+dPZn327Nl+dnk7FmVB8TmYN9dtV5hehY1NxuT9nClBNl/cJJK7ENua71jXXNgkzulYXb7w9kytp3vOdV1LXCwpJrHw5JNPtvNNO09VtV8eygonLm/Xzz77zIqUGizwwAMP+IemMMbOJM4qtLjm+5XddNNNvkir+aydOW9Zt+6+dX7PPPNMc+edd1oB8+WXXzY9evRwmxP+btasWaTgW1QBqkvHpr5S92GvXr1syOWi9tP2qP5N6e5YM92/qWwMAhCAAAQgAAEIQAACEIAABCAAAQhAAAIQgAAEIFAUgVIpyMo7NiiMBsMYFwUsle0StpzFm7vRbY/6/vXXX22yPBYl1ESZvE+dSWyOMnmOyQOtMHNeq4XlSXSbPPAcZ7U7yCFeGUHxOpgn122XJ3OU92CwTeHlVLyfw2VoPZ/cFKbWhccOhioOtzNTxxouN7ie63MerDsfywpTvWzZMlv1hRdeGBMaer/99rPi5PHHH2/FWXnKfv7550bpsuD9rwEZL7zwgk1X/rZt29pl/XHly3s1ypPUZezZs6ed71niruZ2PvHEEyPFeZc/6jve4JGovME03XfyitXc0zoWhW2OFxkguJ+Wi7ouM9m/hetmHQIQgAAEIAABCEAAAhCAAAQgAAEIQAACEIAABCAQj0Dh6ly8vUpwusTYoGCpeWXjeVVl6jDr169vvVMlBjhxNZmyq1atarMX5t0VnGuxSpUqyRSftbxqh4TYv/76y4ZQHjNmTNbqynTBo0aNynSRCZeXT24StNw5kzAcz5xoG2876ckTCIbzjgr1q8EU8hZVKGKZ8jtBNjg3tZuHWYL61Vdf7Tdkw4YNRoK7LCjg+hkCCxJsVdfQoUONvLXlcdu5c+dAjqIXixJHCytBgqyEYPV5jzzyiDn22GNj5oUtbF+2QQACEIAABCAAAQhAAAIQgAAEIAABCEAAAhCAAASKG4GC8UiLWwsz1J7169ebSZMm5VyMVfPliebmSV20aJFtRzKH5TxLV65cafSJsuDciKl6pkWVm06ahD0XSlnHjSVGIJ/cVLe7VuMNHtDAAs0vimWWgAtNLg/RYBjxYC2uL1BaMDR5nTp1gtns8j//+U8TDGU8Y8YMs27dOrstKn+4AIUtdnPHSpjNpandLkzyzJkzzcSJE3NZPXVBAAIQgAAEIAABCEAAAhCAAAQgAAEIQAACEIAABDJKoFQIshJjp0yZYhR+01kuPGNdXfrW3JDOXDhRt17Ud1CECXrRBfcLpmdLkA2GOA3ORRlsR3i5cePGNmnJkiVGwkq+LJW256utqjef3JyIvmDBAvP1118XwKCBDYme/3xy1/V20EEH+Z+//e1vGZ8juQCcNBIUklwmr1DnyRouLiiSu/zKI4F111139bO3b9/edO3a1V/XwgcffOCva3tRJq9bNwfvtGnTzMcff1zULhnd3qdPHz/EurxkMQhAAAIQgAAEIAABCEAAAhCAAAQgAAEIQAACEIBASSWw1QuyxUGM1cWhEKQKAyobPXq0ee211+xy+I88SV988cWY5Hbt2vnrTzzxhAnPgyiRZty4cTZP9erVze677+7nz+SCQi87mz59ulss9Pu4447ztw8aNKhA2/2N3sJ3330XI5oHt6W7nErb060znf3zyc2JcGr/gw8+aBTq1pmWFUo2Ucsn97Vr19o5jDWPsT4aFKDw2cXVdtllF79pzzzzjL/sFsR+xIgRbjVGgFVi9+7d/W3h+Y8l8D7//PN2u7ygNbdsInbOOef4c8cOGTIkkV0ylkfXjhOVNQhg8uTJGSubgiAAAQhAAAIQgAAEIAABCEAAAhCAAAQgAAEIQAACuSSw1c8hO2vWrBiRL9eese5kSoxVCND777/fSCT+xz/+YTSfrcTWJk2amJ9++smGMpbY1bx5c98zTfsfccQRRmKNPP4+/PBDc9VVV5lLLrnEzn07depUuy7xSSavMjfnrE3I4B/NbSrvW4VKfeedd8ydd95pOnToYJynnuoNCnCq+qijjjLPPvusne9S+0iY/vvf/250HhQOVWFadQzPPfecPX59t27dOoOt3lRUKm3PZCMS8S5s2bKladu2ra02n9w0X+e9995rfv75Z/Pmm2+a/v37mxNPPNG2S/OT6jwmavnmnmg7M5nv7bfftvezK9OFIta6hFYXjrhs2bJGc6VKIJUdc8wxfmhe9RMaeHHSSSfZ++vHH380GtDgBkLonnPXit3Z+6Pzdscdd9iwxDpvWu7Zs6fRII+7777bD3Es79i6deu63Qr93nnnnU2XLl3M66+/bvsehT3O1oCPqIb07dvXvPzyy5aFwiY/8MADUdlIgwAEIAABCEAAAhCAAAQgAAEIQAACEIAABCAAAQgUawJbvSAbpJ8vMda14aKLLrLeZvfdd5/1OpTHWSJeZ2XKlDGaD1L7K1TsK6+8Yj+uXPctoUSCZzbt0ksvNVdeeaUvkATnltx///2NPHjDdtNNN9m2SxyXp1uvXr2Mjins6RveL9PrqbQ9U2147733jD6FmcS3oMiWL24SCCX+XXDBBdardPz48UYfZxowoDzffvutSyr0O5/cC21YljY+/fTTMeGBg9XI4zhop5xyii/IduvWzYrd8p7XXK8SUfUJ3yta/9e//mVq164dLMrUqlXL5h8wYIDdX2F+w6F+de5uueWWmP2KWunXr58VZJVP9/tdd91V1C4Z2672durUyV5/EyZMMOpDlIZBAAIQgAAEIAABCEAAAhCAAAQgAAEIQAACEIAABEoSga0+ZLFe3uvTpk0b61Gaz5MjIeXCCy+0YWAlDjvPuGCb5AkrkSZsmgtz1KhRplWrVuFNpnz58ua0006znqhR3rGuHnnkRZnbrm3B5ai8Eo0U+lShRGvUqBGTP96+jRo1sm2XsCOPSVlYjG3RooUVbeUtHDRXZr7aHmxLssvx2hyvnHD+fHLbe++9rdeyvLOd8CevSp33hx9+2D/vLgx3vGNSerLXTKbOeZin7j99sm2u/UXVE9We22+/3dx4440+c5URvFc06EFhiw899NDI4g877DAzePBg4+YBdpnKlStnxf7HH3/caG7YZEwDPdxAAXneyps/nom5Y5woh3hluXT1GzJxCAvMSnf1aTlene5acN/Ki0EAAhCAAAQgAAEIQAACEIAABCAAAQhAAAIQgAAEckWgjPeSe2OuKqOeWAJr1qyxXoZz5861AkzDhg2NPkWZ5oOUd+LChQtN06ZNTbNmzYwEl5JgutwWLFhg54tduXKlFcl1zHXq1CkJzc9bG/PNTZ7ZQbFfobYVCtcJgHkDs5VWrLluFTJa4qfmv1WocIUPlhdsoqb+YcqUKUbzSmsgR6VKlRLdtUA+hdw+66yzbLoGjEg0zqUptLO869XPab7scGj0XLaFuiAAAQhAAAIQgAAEIAABCEAAAhCAAAQgAAEIQAACyRJAkE2WGPkhUMoJaB7R7t27Wwqas1hzGmNbP4EePXqYadOmmYoVK9oQws5zOhdHPnHiRHPeeefZqjQX98CBA3NRLXVAAAIQgAAEIAABCEAAAhCAAAQgAAEIQAACEIAABDJCoGS4VWbkUCkEAhBIlMDYsWPN/PnzzfHHHx8TPldesW4OUoV/PeGEExItknwlnIDmNJbHrWzt2rU5PZoOHTqYm2++2axfvz7mesxpI6gMAhCAAAQgAAEIQAACEIAABCAAAQhAAAIQgAAEIJAiATxkUwTHbhDYmgncf//9Rh/NydmyZUsbLlehsqdOnWr0LZPHpEQyDAIQgAAEIAABCEAAAhCAAAQgAAEIQAACEIAABCAAAQhAID4BPGTjs2ELBEotgfLly9tj11ymX331lf04GBJpFT72ggsucEl8QwACEIAABCAAAQhAAAIQgAAEIAABCEAAAhCAAAQgAAEIxCGAh2wcMCRDoLQTmDt3rvn888/NggULzOLFi02NGjVMs2bNzJ577mkaNmxY2vFw/BCAAAQgAAEIQAACEIAABCAAAQhAAAIQgAAEIAABCEAgIQIIsglhIhMEIAABCEAAAhCAAAQgAAEIQAACEIAABCAAAQhAAAIQgAAEIACB5AmUTX4X9oAABCAAAQhAAAIQgAAEIAABCEAAAhCAAAQgAAEIQAACEIAABCAAgUQIIMgmQok8EIAABCAAAQhAAAIQgAAEIAABCEAAAhCAAAQgAAEIQAACEIAABFIggCCbAjR2gQAEIAABCEAAAhCAAAQgAAEIQAACEIAABCAAAQhAAAIQgAAEIJAIAQTZRCiRBwIQgAAEIAABCEAAAhCAAAQgAAEIQAACEIAABCAAAQhAAAIQgEAKBBBkU4DGLhCAAAQgAAEIQAACEIAABCAAAQhAAAIQgAAEIAABCEAAAhCAAAQSIYAgmwgl8kAAAhCAAAQgAAEIQAACEIAABCAAAQhAAAIQgAAEIAABCEAAAhBIgQCCbArQ2AUCEIAABCAAAQhAAAIQgAAEIAABCEAAAhCAAAQgAAEIQAACEIBAIgQQZBOhRB4IQAACEIAABCAAAQhAAAIQgAAEIAABCEAAAhCAAAQgAAEIQAACKRBAkE0BGrtAAAIQgAAEIAABCEAAAhCAAAQgAAEIQAACEIAABCAAAQhAAAIQSIRAuUQykSc9AjNmzDArVqww22yzjWnTpk16hSW5dz7rTrKpZIcABCAAAQhAAAIQgAAEIAABCEAAAhCAAAQgAAEIQAACEIDAVkcAQTYHp3TYsGFm9OjRtqZnn33W7L333jmodVMV+aw7ZwdJRRCAAAQgAAEIQAACEIAABCAAAQhAAAIQgAAEIAABCEAAAhAopgQIWZyDE9O3b1+/liFDhvjLuVjIZ925OD7qgAAEIAABCEAAAhCAAAQgAAEIQAACEIAABCAAAQhAAAIQgEBxJoAgm4Ozs+uuu5pDDjnE1jRhwgQza9asHNS6qYp81p2zg6QiCEAAAhCAAAQgAAEIQAACEIAABCAAAQhAAAIQgAAEIAABCBRTAgiyOTox/fr1szVt3LjRPPLIIzmqdVM1+aw7pwdKZRCAAAQgAAEIQAACEIAABCAAAQhAAAIQgAAEIAABCEAAAhAoZgTKeALhxmLWpq22Ob169TKTJ0825cqVM+PGjTP169dP6ljXr19v7r//fqNTts8++5iOHTuazz77zDz33HPmhx9+MOvWrTMNGzY0Rx99tP1ss802fvmp1r1kyRIzfPhwW47qa9asmRk7dqz59NNPzTfffGN23HFH06ZNG3P22WebYH1+xSxAAAIQgAAEIAABCEAAAhCAAAQgAAEIQAACEIAABCAAAQhAoBQT2OYGz0rx8ef00GvVqmVeffVVs2HDBltv+/btk6p/5cqV5txzzzWff/65qVq1qtH6+eefb2bOnGl+//13s3jxYjN79mwr9u6+++6madOmfvmp1j1v3jzz97//3dZZr149M3jwYPPss8/aOlXfnDlzzEcffWQmTZpkunXrZsqWxenah84CBCAAAQhAAAIQgAAEIAABCEAAAhCAAAQgAAEIQAACEIBAqSeAepbDS6BTp06mefPmtsbnn3/eLFu2LOXav//+e3Pttdfa/eVpK+9VzVNbt27dyDIzUbfE2C+//NK0atXKnHnmmeaYY47xvWLlMfvGG29E1k0iBCAAAQhAAAIQgAAEIAABCEAAAhCAAAQgAAEIQAACEIAABEorAQTZHJ75MmXKmL59+9oaV61aZZ588smUa5dHqkIYS5SdMGGCeeihh8zDDz9sxo8fb6655poC4ZAzVXefPn2MxOSBAweaO++80wwaNMg/hhdffNFfZgECEIAABCAAAQhAAAIQgAAEIAABCEAAAhCAAAQgAAEIQAACEDAGQTbHV0HXrl19sVSC7OrVq1NuQf/+/c1pp50Ws7/mp+3du7fZY489YtK1km7dtWvXNgMGDDASd5116dLFzlurdYU3xiAAAQhAAAIQgAAEIAABCEAAAhCAAAQgAAEIQAACEIAABCAAgS0EEGS3sMjJkgRTeZnKlixZYkaOHJlSvdtuu605/fTTk9o33bo1523FihUL1NmoUSOb9ttvvxXYRgIEIAABCEAAAhCAAAQgAAEIQAACEIAABCAAAQhAAAIQgAAESjMBBNk8nP0ePXqYGjVq2JqHDRtm/vrrr6Rb0axZM1O5cuWk90un7nr16kXWV716dZuuMMwYBCAAAQhAAAIQgAAEIAABCEAAAhCAAAQgAAEIQAACEIAABCCwhQCC7BYWOVuSkKqwwrL58+ebV199Nem6d9xxx6T30Q7p1F2tWrVC69y4cWOh29kIAQhAAAIQgAAEIAABCEAAAhCAAAQgAAEIQAACEIAABCAAgdJGAEE2T2dcgqzzcH3kkUdMsmJmUeJoYYeVbt2Flc02CEAAAhCAAAQgAAEIQAACEIAABCAAAQhAAAIQgAAEIAABCEBgCwEE2S0scrqkkMUKHyybOXOmmThxYs7qz2fdOTtIKoIABCAAAQhAAAIQgAAEIAABCEAAAhCAAAQgAAEIQAACEIBAMSCAIJvHk9CnTx9Trlw52wJ5yebS8ll3Lo+TuiAAAQhAAAIQgAAEIAABCEAAAhCAAAQgAAEIQAACEIAABCCQTwIIsnmkX79+fdO1a1fbgkmTJpnJkyfnrDX5rDtnB0lFEIAABCAAAQhAAAIQgAAEIAABCEAAAhCAAAQgAAEIQAACEMgzAQTZPJ+Avn37mjJlythWDB06NKetyWfdOT1QKoMABCAAAQhAAAIQgAAEIAABCEAAAhCAAAQgAAEIQAACEIBAngggyOYJvKu2efPmplOnTnZ1woQJZtasWW5T1r/zWXfWD44KIAABCEAAAhCAAAQgAAEIQAACEIAABCAAAQhAAAIQgAAEIFAMCCDIFoOT0K9fP9uKjRs3msLmki1btqzvTbvNNttkpOVF1e28d1VZvDrVLpn7tiv8gQAEIAABCEAAAhCAAAQgAAEIQAACEIAABCAAAQhAAAIQgAAETBlPBNwIh/wT6N27t9E8suXKlTPjxo0zmuM1V5bPunN1jNQDAQhAAAIQgAAEIAABCEAAAhCAAAQgAAEIQAACEIAABCAAgXwQwEM2H9Qj6nSequvXrzfDhw+PyJG9pHzWnb2jomQIQAACEIAABCAAAQhAAAIQgAAEIAABCEAAAhCAAAQgAAEI5J8AHrL5Pwe2BXJUHjlypJEgW7t2bdO5c+ectSyfdefsIKkIAhCAAAQgAAEIQAACEIAABCAAAQhAAAIQgAAEIAABCEAAAnkggCCbB+hUCQEIQAACEIAABCAAAQhAAAIQgAAEIAABCEAAAhCAAAQgAAEIlA4ChCwuHeeZo4QABCAAAQhAAAIQgAAEIAABCEAAAhCAAAQgAAEIQAACEIAABPJAAEE2D9CpEgIQgAAEIAABCEAAAhCAAAQgAAEIQAACEIAABCAAAQhAAAIQKB0EEGRLx3nmKCEAAQhAAAIQgAAEIAABCEAAAhCAAAQgAAEIQAACEIAABCAAgTwQQJDNA3SqhAAEIAABCEAAAhCAAAQgAAEIQAACEIAABCAAAQhAAAIQgAAESgcBBNnScZ45SghAAAIQgAAEIAABCEAAAhCAAAQgAAEIQAACEIAABCAAAQhAIA8EEGTzAJ0qIQABCEAAAhCAAAQgAAEIQAACEIAABCAAAQhAAAIQgAAEIACB0kEAQbZ0nGeOEgIQgAAEIAABCEAAAhCAAAQgAAEIQAACEIAABCAAAQhAAAIQyAMBBNk8QKdKCEAAAhCAAAQgAAEIQAACEIAABCAAAQhAAAIQgAAEIAABCECgdBBAkC0d55mjhAAEIAABCEAAAhCAAAQgAAEIQAACEIAABCAAAQhAAAIQgAAE8kAAQTYP0KkSAhCAAAQgAAEIQAACEIAABCAAAQhAAAIQgAAEIAABCEAAAhAoHQTKlY7DLJ5H+dKXf5i/NsS2beda5cz+jSrFJrIGAQhAAAIQgAAEIAABCEAAAhCAAAQgAAEIJExg7pL15tPZqwvk79CisqlTbZsC6SRAAAIQgAAEIACBbBIos9GzbFZA2fEJlLnguwIbT9i7mhl1Xv0C6flMWLJyg1m68q8CTahSoazZYbuif8Cmu3+BikmAAAQyTmD56k2jQ6pUKGPKlS2T8fIpsPgRSKdv1i+HFWvSu2Z+XLguEsqONcqZCuW4BiPhpJmYzjlPs2p2L6YEVq3baNb9tdH2++r/txZbs36j0Wcb75CqViQg0NZyXovzceSrf83E8zhdrjzP0yXI/kECW+tzKXiMLOeWwCMfLDP9nvytQKWvXtTAHL1n1QLpJEAAAhCAAAQgAIFsEsBDNpt0Eyy7RuWypkXdCjb3rjuUj9xrxoK15tcVBUXRqMy1qpQ1rRtWjNqUUtpVLy40Q99fVmDfg5pUMh9duVOB9HBCuvuHy2MdAvEITJm3xuiFmKxD88pmm4h3sD8vW2++/XWTENSyXgVTb/OggkV//mWmzl9boOgK3piDxrXLmwbVy5kyRbyrnvX7OqMRuInY/o0qmmrF5CXxdK9/2fOmObbZ/+2+vbniiJqJHAJ5EiTw/qxVZp13Waqv32en5Prm+UvXm5m/bbpe9/b69Zpe/54pS6dvnjx3jdnv3z/Zptxzch1zSacaSTVL92HTa2dH7jP24h1Nl92rRG4jMT0C6ZzzeDVXvHiWWe8JeqcfuJ0ZfuYO8bIVu/R/vb7YXDd6kW3XrJsamybbR//+KnYNz3CDjrxvvnn3u1WmkRehZfa/mmS49PwV13vYL2bkF38Yicx/3tM8fw2hZlOc7rV0nsdFncps9K9F1ant6T6PE6mjsDw8zwujw7ZUCKT7XMrmfa7j0W/z97zf9rMXrTfzvP/76m67jfcup7xp26yyfZamcsxun2y33dVT2r7rbbclCt1vK9abOYsT+3+9tHHieCEAAQhAAAIQyA0BBNnccC60lmP3qmoeP6teoXkGvrTQvDL1z0LzuI3tvH8G3v9HQ7ea9neUqJVMoenun0xd5C1eBH5Z/pf575uLbaO6e97fB3siaTbt/Kd/M5/8uCkc0YL/NPXF1mCdz3/+h7lsxO826b5T6pj+HTcJSeO/XWVOHrogmDVmWS91j92rmrn52Nr2n+6YjZtXbn9ziRkSMXghKu8HV+xk2jYtHuHJg3ESgstR7S4qLd1z/r+Pl5svPWFdHvi3dKtdVHXFfvvH3vXY/s55tp2nH7htkX19+IDOeeJX88aMlUZOy9/e2Dijgmw6fXMwtEYq10zZokY3hEEU0/V0rtd075VUkKRzzuPVJ+9KXQPrNwSvini500/PFDdNGeGa7B1CqTV3/25tCPzj2toOrAReqcXlXkv3eVwU+mz0r0XVqe3BS9xd94nsl6k8PM+NydRzKVPnpKSX467j4LWd6DFl8z5/Z+YqO8Bk/Lcr/d8PwXaV90Iy9O9Y3Vx/TG1T3RuEmaxls+3BtqR7vabz2zfYjlwud21V1egje3bSCtPr0V9yWT11QQACEIAABCAAgRgCCLIxOFiJIvBgr7pGH2ctrptt5AmYqKW7f6L1kK/4EVjgecHd9fZS27CGXhjSbAuy2SSwcu1G85z3D9wLnsfNKxfWN0ftQXijKN7pnvNRkz2+3uCTbSttHYLsf95YYjFJf7yyc60oZHHT5PEtMVZ24j7VTPM6mfXgy2ffLM/0jQ+28I/9qU9XGHm0lTRL53pN915JhVU+z3kq7Y3aJx/cotpBGgQgULIIpPM8TuRIt4b+NZHjDOfheW4Mz6XwVZG/9Wze5y9O+cO89c2m3+XuCCW8/uFN4aGBJxqgpv97p/+81ijaS7JjD7PZdtdefad7vabz2zfYDpYhAAEIQAACEIBAaSWAIFsCz7y8aVvWi/9ivnrloud1LYGHTZMhkDMCZ/1tO3N1l01hexf9ucFMm7/G/MfzftUcWfICO+t/v5qp1zQqMIfytUfXMv0O3s5v53WjF5vXp2/ybB/cs645oPGWcLV7NNiy7O/AwlZF4Otf1pqXp/5hj+kYb36iPRtsCk2f6EG6FzPKf1WX5MTcROsgHwTSJfDOZQ2NPEwbVC9Zvz36tN3OtG+xKWrDzjX5OZzudcD+EIhHoDjca+k+j+MdG+kQgEDxIZCr+/zIParYCEv77VzJRmNa681X/vgny82AEQvNn544++bXK8197yxNajqPXLW9+JwtWgIBCEAAAhCAAARKLwHeQJXAc7/XjhUyOkdsCURAkyGQVQLbV9vG7LrDFvFMoYV7ttnWtLp5jp0j9jdvPufR0/4wfdtVj2lHQ++lvj7ONKeQs93rVzBtGhWPEMWuTXxnl8B/PRHfhV1zAn+iNf7gif8jvlhhsx++WxWz384I+ImyI19uCXTYLGrmttb0a9vJ66v1wSAAgewSKA73WjrP4+zSoXQIQCBTBLJ9nx/jhbzVAJO9G8b+Jq9Qroz9n3CNJ8z2f3bTtDivffVnUoJsttueKcaUAwEIQAACEIAABCCQPgHeRKXPsNiXoLAyX3mhcyqWL2Ou6rzJ6y/Y6CUrN5j7JmwKK3vYbpWN5qDdmkzhg258dbEVRv7mCWuaP+Td71aZh99bZr75da3RqNYm25c3p+y3rTmlTTVTTpM1BkyCyvOfrzAfeXNBam7L3z0xbs8dK5p9d6pozu9Q3WznhVYtzOYsXm/nKtHcphLyJO4d7XnLHdC4kh09q/KVFnypvejPv8zgd5bZYrvsXsUc2KSgkPfSl3+YqfPWGs1Z9X9HRXvPpdv2Cd5cOY97c3rOXrTO/LzsL1PdO9b6nheU2t7Nm/u4lcchbDeMWeSFbNqU+rMXstjZmGl/GnmbBq153fKmj+eNWhJMIanOa1/dXPPKItvcafPXZq3Zv3pz7z7w7qZ7UpXoitQ51txEubClqzaYEd41r7mSFDa3ce3y9vr8++E1Ctwfak8651z3ogvLq7LUV8lWrt1g/u/lTaxtwuY/Ogc719ry6Jq3ZL158N1N98oJe1e1c88+/dkKM9Erd/W6jdYrWd6puueKMs0ppBHqzg72+sIjWlZxq0l9q10KwytTqO5k+9U7xi2x4c+0/1WbvbW1HGUf/rDajPTE24+8b823pbq6eywa1SpvntzcBt2vGhSQLfvW60std++aWeF5B+zvDT5Q33WCN3d0cbSZXnvVJ30ye7XRuVLf1Lh2Oc+LuaI3cKKifR5EhZpL93pN514pLhzl9f+l9+wJmwaLJXKfqX8Z7HmOfDZntZmzaL1Z6z2jd/AGr+g5rFDwum4UsjxomeC2YrVX78RNfUWwbC1feEjhz3KFq5/q9fmVvN9RioTwwferzGtfrdzcz2ywg+QuPKRGoQMnVnn9kX53aN8ZC9ba+1F9TN9223kDfP70nrPrTa2qZc25B8cO9Am3NZV19YUPeXVrfjpFfNitXgXTweuXzvHqTtRS+T2QaNlF5ctE3amcM7VLv8ce/WDT3OY6b1UrlvXOdwWjc9dr/20jm56p51K6v+E0sOf5z/+wz/HpP68xtatuY/b2frvqeXDorqk92yIPOJSYzr3miho7faXnZbapr/n9j7/MLt7vxdaeCNL7gG1tX+HyJfKd7PM4n8/UVK63MINUnsfqn972QrGK+/cL15r5S//yfnMas4f3u0G/9fUsz/S0CeF2p7pemp/n6f6P65h/701FNNJ7X6B+YrrXzyn8blPvmXxws0qeAFnd1Kyy5Zms/lB9yz5eX/LLcv2P+4fRv87Ht65qLj+8phntTTvy6IfLjMrUb8HbTtjeBAeoujoz8VxyZek7kftc7zs0f2rlCmXMNXH+d1ZZ3/22zgz/aLkWTWfvN8khmweedS7if4KTvXcJTpCdPHeN3T+RP4m0XeWkc5+m8zsq3d++jkG612sqvx9d3XxDAAIQgAAEIACB4kRgy1vt4tQq2pJRAnpJ/oL3T1blOILsr94/U9d7Itomq520cJDRxmahMP3z8q/XF9uSJeZonpdej8bOVSgRSP9AVq1Y3/uHcouAoDlWzvTC047zQg8FTf+s6gXtkPeXmef71jf7xvFe00ud4x/82ehlkjO9FLzjrSXmxq61zXWjN3H/xxE1YwTZBZ746c6JXgBHCbL6B1htkGgQJcim03b9I37yIwuMxPwo0xyfavtfD2yZA9Llu8Vjrf3Dpheq+gRN/+CWFEFW7d7RmwfX2bylW8Rml5ap77lL1pmbvEEEQdNLjlwIsn96QuhR9823L+5d/XoJrZHeYz0h5q1LG9pBAG6bvtM55+/OWmVuHRt7rCpT11BUugTSoCD7ozdYwOVb6N1n8irVIBNnkzzR5wFPhNGLl5uOrV3ofE5PfrLCvOodp7PLDquRsiA76O0ldi4plRU1EMbVEfUtQX7Y5hdB8oyVh2w8e+SDZeaCp3+3obRdHg3+uN8TvC732n/b5jlsd/DmbM2WIDvNe4F382uLrXDh2vDFT2us+HTpoTXMnSfWKXDNuHz5+B7q9dvnPvVbgar1EtsNDtC18ESfejEvIbVDutdrOvdKgQbnKeFpT+R3Qn+wCad5QklRgqwGeRz/0M9mmSfKBm3GAmOfD499uHzTs/GY2EFGmeCmAVEDX1oYrNZfPmnfaoUOrhrhzR3ufkdJzOzpPR+96PW+fe5d7/qtNfLc+kYDQMKmurt5vwV0bzpTvzrSK1cCt3hILFXflmlBVi+fj/Pq/tQbfOBMdev5roFdhKuCrAAAQABJREFU+o1UmKXze6CwchPZlqm6df6SPWdqn37Dab+53qCNoOl3nJ4rGsQz/MyC/UQmnkvp/IZTWyUmXPzc7/Y3b7DtGqx0rydK/N37TXHrcbWz8rsinXtNHmaXjfjdH2jl2q6BBLoH7/R+Pz92+g6muzeveqKWzPM4n8/UVK+3IIdUn8fNr53tDbyMvc5Vrp7lxqywz3hxV19ZnKy0P8/T+R9X51GDPvR78Wrv2bhybeyzQIOQNWeqBqL+cEsTG5pX++j3qfrAsL3n/Z6f5F0veq5JeJPp/2t9Pr16p5js6T6XYgrbvJLIfa5n9f+8gcayo70BYPH+f9f/9xoYKQsOmLYJhfwRT2fVvME7iVoibVdZ6dyn6fyOSve3r+OQzvWa6u9HVzffEIAABCAAAQhAoDgR2KIuFKdW0ZZCCeifHM1jGc/CHp7x8pXGdL2EdF5rCqG2lzfqWySneKNYwy8iNMJ//9vmeqPEN72gaFanvH3RKo9YvTQZ/603itwb/Xv4PfPMzBsbG4W5DZpGux529zzrpad0jRI+yPOEneWNun1jxiZBM5g/k8vptv2e8Ut8MbaOd1zyApGXpEbuf+N5EEqci/cS94IONfx/xCUs6YWvTF61Gk0dNL3YLkmmEdPOxGNrNCcE63pt542M/9UTEuQhrhfj+mdYnpineOGbg5bOOVc9GijhTIKo7h2Ntu8X4SlWWIhRvUCRHeR5lHfcpbItZ5T3MkkvmfQion71ctYTztWVre/F3n0y9P1NL3w0b2yUQFNY3fd4L8vlOSArbO5YzVHV78ktwqK8/+VBpBfXGjThxNjC6srENnlLyHSPH7prZetNrxfnmkfrnvFLrffjwCNjBbZM1JtqGfLIlGmAg1607bpDedPQG2yx0POSfcm7XuT5oetQ/fcX/9w5ppp0r9d07pWYhuRxRR7fwZ8gEiITMQktPYYu8MVYDTTo5F0vOg+an1svc/XidkPwjebmgjPBTVEOTg14NMr7X78JkjE993oP+8XoReuxnpehnvtvzlhpPet1z145aqF9yRv2rpYI7cRYia7d9qpm+7iXveejGwSQTDuSyau6nRir3zHHev2EzsVLX/5p+/Siykrn90BRZRe1PRN1p3rO9Jsw+BtOUw5oENly77fhK97c4Pp9o36216MLzNiLd4x7KKk8l9L9DXfX296AnJGbwmZazzXPu7GV9yzS81xiiQYvSWzQQE0NVMq0pXOvXeHdQy7qhTzl5XXXwHt2S+iRB6cGL5w4ZIH56Mqd7LO+qLYn8zzO5zM1U9dbqs9j91xUpIIDvWe5vGHLeX3zV96AK4lyuibVf790fgNznHdOiou5dvM8N/Z5luj/uO78SYhVqFxnei7rfzU9w/Q8fsu759SHKppUlLXwPNdbev/LqS+UPeP9HlDkppP3q+Y901cbDSxRNIxZ3v/LQQ/rdJ9L4bYkep9r4JgTZJ/xBtRECbL6CaLBNjINZixsUGS4HR/+sEWo1v9QiViibVdZ7npP5T5N53dUur99ozgk804mnd+PUXWTBgEIQAACEIAABPJNAEE232cghfolEsazKl4Inj/vaR5vc6lP1wvfit48L/edUsf071jD5yGR+yEv7OlONbeIbPK6c2Ls6Qduax4+bQf78srtpJdZenEkbzyFVn34tLpuk/2+yxMinKhygRfaeHDPur53nryLzhj+iz+/ZMyOGVhJt+3yJnH2fL/6Vtxy6/qWMOv+6Q+ma1lsnSlckxNkT/H+OZeXZ0k1vUwYPHFLGOEjCvFaLKnH6Nqt83RH9+3967W79zJXL+Jkw72R5WFBNp1zrvCk+jiTJ5cEWYWFfOjU2HvK5SnsWyE4h3r3qhNE+nreQEd6Hr+6F+WZLvFXL4uyaQqLKk982ZWda/ltSaROvex/cPN1phddJxbiBXSL55XqTP1P0LNOHg/yjsqVqY+Up5iL+C7One+db0XZu72+cMBhNWP6z1y1K6oeDaa43vPAVBsl0gfttuNrm2Mf+NmKZOq/NPAmGNoz3es1nXsl2M58LoubPs70UjNCQ3Wb/e8J366yQpASJGyNu7SgiKUoCt574AKWCW4ST586u55ftgafuEgUfmICCwr7On7Ajjbsr7LrZXWHO+cZeePrBaPEz2BUC11DCicu0yCwt7x9NdBJpugWHQfNiwmVbjdk6I8ELCcEy9v+rQENTQ1PmJb988j1puNd8+zAssKqS+f3QGHlJrItU3Une87UNg1ocb/h9FwZ4j1XXP+msNUSazVIS4K6zq+mxIhnyT6X0vkNJ+9UhaaUSRh99aIGMZFvrvParutVv2lu937HKkqJXu5n0lK91yRKyuNRVsu7z8ZdsmOMYKJz4rzcdYyFCeHueJJ5HufzmZrJ6y2V57F+50loVdh49/vJMZRX9aFeX6GBOPJQLk6CLM9zd5aMHdSU6P+42ktRQTR4Q6a+4omz6tmBRjZh8x9N43H+07954nwwddOyBihPu7aR/b+6z+O/+iF+B51Ux86dqlDSu94wx2Z+3/v/2wmymXguhVuT6H2u33P1PJFVHrqKMvVfL5xy+Hp/3/P+1f8hMk1nlMz/DHdv5ql9i4oYojyyRNuuvOncp+n8jkr3t6/aHrZk3smk8/sxXC/rEIAABCAAAQhAoDgQyPJr6eJwiKWrDUGvldJ15IkfrV7EB8VY7amR1Rd32jL/mzwf3D+pGvk7tHesGKt9BnjhQDVqXyaRyoVn0rpe4g15b9NLJf3Deqf3z2nwHz7NgXVYlubvSrftar8TouUF1N7zhgqbXm5e4vHaWk0v1iW+6qMXowpb3ermOb5nV0/PQ/TIPbaIiFsTB40G/1e32NC+ClHnXtj+uLBgSLvicvzy9lF43OC9JuFHczrJ5IUXDEmcjXbLG1fhIGXyhOu1f3Lh/TTHpOZIkimUuRMAbELgj0LJ6WWGTJ6pQTFWaerjcuWBXsEb5HJXjzoxbdW82OrnZBIINCdxcTF5LN/ghYwPi7Fqn54FwRDwioaAZYZAMApFvBeVnTzPdnm3F2e7snPNmHtL/U7/jlsEaoWrDdp9Ezb9FlDabSfU9sVYrWtePf0myZbdv3kuepV/6/Hb+2Ks1ht6UUIkLBZl+fw9kKm6kz1nEtmdMKjfQXeH+jdFatC0E85cn+/Wg9/JPpfS/Q2n3ywa2CO775S6MWKs0tTvXeYNkJHpt+rjXnj24mL63exE8Iu9eyrsvXa1N5/6rjtsiqwiIVyCUmGWzPM4n8/UTF5vqT6PNahL/XLw95Njq99RHXfZ9Jv3/9k7DzApiq0NH9ISlpxZwpJBlCCC10AwoYAKoiImRBQxK+JvFhVMmJArCkbEgFlETHBFMWBCokoSJEvOOfPXV7vVW9Pbk2d2Zna/8zy7011dXVX9dvd0T399zkHe9WT6rcnrudlLWZ+h/MY1ayD1jPntCk95RH1wG34Dfz+wlvN7117eQkVkgQAMa6WmjSFKDaxR1TSddx3T8AI1FovrkmkLn+Gc5xBX8RsOhlD0XqGX4eVrDB61oRpehMTLCzD8RjT9BFo/nLGjnVQ9T/0xCPV4zS/3j/44sJwESIAESIAESKDgEfB1DSl425+SW4y8hnUqer/NnqYeJtP8E8AbwKEIiXNUyE+Ex4E1VF5q9kP5I5YrEIQQeIAilBPyypofpMs3H3A85M5Tb53jgZzbLlU/8hAKKtYW7dgxHhxf+KEKLz88aASzcN4QjvU25XV7CM2LP7dBgH9YiZVXnVTWvSim8w3VQ4zXr6jmtIkHZOlpefP+zFnN0p0HKM4A1EQjFb4Ogqb9o9hengzTeJiIc9xt8M5+MztnFN727+bx0Anr3K4EUDs/WnPlzRauvaZyuiIcJAw5+sIJIY/vHPMiCB6a9znB/3GG7TDm74ERtnuwKxexWSeWn3hzHi9puA0PoyAwwxas8xWp3HVDnYcHIkJuhmvdlOeP+X6218XDSIg++L7DQ3HYBiUgG9tk5f82ZfyMjICd+xkhA+Fpn6leWkg16+7x/dFYfWcbW+3KL27OVXgN4vvVbbhHwENtc8/hXh7N/IJswQp9e4VdvFB54CPsuXko79VXIu8HYtV3uPtshbqHM8IgQuZ65QJEDlNEckBo9kDCYLjXpWjv4Ux4auxLCP7wOjdm7l9rqhDtxmatTJ6XThZa14ne//G+/sH7EzktYahvBFqzPfZnONdjc55i/by+psbyeIvF9RjiGa6JeJkq66oo6l4miyx+7yB8sde9ls0+lOmCfD1HWG77XiMUXmB+62n+X4YN9Teu6Qv5VGG4f7OjXpjlwT7LqReOjSG8uDFzbOC3C7479x44JNuyXxJBnVhcl0xf+AznPEd9nN+I3AJ7b/pOQRoGY0gJZe4xEaUGv/NDMTwnuP3jrBz1FUoVllfVi9yhWLhjt9vMq/PU7jOW0+Ecr/nl/jGW/NgWCZAACZAACZBAahPI+UWe2ttRoEaPh/TIE0gLn0CzGmn6AVqwNRFmydhnKi8O/oLZQiWQmAf+KzbneBHW9xMKzoRuCtZuuMujHTv666k8Is1bw8hDNnTSZp1r8UT11jN+uCKXjNdb9OGONZnrwzMRD6Is/V0/gIrXfrNZIKTklSqMYCLMX47WCtmCGx4+J6v5O9eMdy/GjQef/gzeeSI5D2b81fNXjgc5COcHwwOufifneM35W8cuh2iMfFswPHQzngd2HTO9bFPw75i8ynMcLXezTaF8IoxwJGFm4fltvp/RD8K4Pq6+1/DdHsjbRz1HpMWIALxm4JWJUIB4EN9g0FJpXbuEtFfeV8dnFpdOR5XSYUpj1F1cmsF1D9vgNjyANbZLeckbw/UDL2jBID57ebzjPEcIxeXWfYNZP9rP5dneuniY6dU3BEWcGyY8o1d/ibwfiEXf4e4zMLC/X5F318uw35B7GmLsMpdXtF0/3O/HaO/h/rZETYTrD2a2CBqsbryXG444Vv1dv+z9Yep7jSvc67G9z/3tM39j8uo/nDK7b3v77DbidbyZPvACJlK3QKgynulmmfsz0Asc7rqB5gvy9XyYuldE2PBwDNeJQIJsqL9x0SeEdXP+IJpKoPtNf2MsqdIkGUPKJGOlrBdIS2S/kLxzX851MRbXJdNXuOc51kM+8MbK0x7ftR/O3CH/vaiK89LxNwv2yIbsF/HsnPOmP6/PBXjRU6W6AFO8vPymCv1sv/TitQ7KIhl7Is5Tf+OPtjyc4zU/3D9Gy4vrkwAJkAAJkAAJ5C8CuZ8q5a/t49aQgA+BUB+m/GP9SEauN/vNX58GrZkSxXIeyOLNcmMmX5uZN5/wXIiHRTt2jAnhTneohzN4YIAcuXhLHm8Mm7eGIXCN7l0t6UJLxspBHKFin1I5VCHUQLgZN3unFtrgQYH8krPvq+OE8I3HPkxkmwixHchyHqkEqpWYZf7OKdt7M5DwEO2o8aa9EVUQAt1+QBWsbRxryOcHw1vjyDsdyGxPZZOP0l0/2L5014903l//dnmwB7yh9o2HhhCRwjXzUBDrIf91b1cObwhqOE4g3hxU7xzAGxyGB2a02BCAp8yE6zPk/5QXCfKqHlKcf1fh4fEHgzd5XxV9AA9HvaJKxGYU0bVSQh1/CGsdyOyXeLbsPuR4WlYJcM0vWxL3Azn3DYHaD3UZrt3G69v2ZHKvj+/NQN+LibwfiEXf4e4z8LF5VCvr/6cS2C1cJ/o+CaEnvb7zw70uRXMPt02Fu9+UHRoUwkCmn2g69jFgUm/YZYmaXpXtXQ6Pbn9RWWye9n5yjznc63Eir6n2dkR7vNnXXZuJXe6+HkPk6ahyWc/M9pjEeviegwBorp3IuQnPWBiukbGwgnw9x+/KcO9lsq4T/smH+hsXLeBeFddgmO19mFUS2n87AkwR640f402NVkydw9n3UrG6LpkRhnuem/Uua1tGv9yH37e4H8ELYTDfcMXBX4zF7/0zn/vX+d596dJqck7z3JEwTL/2Z7hjT9R5ao85ltPhHK/54f4xluzYFgmQAAmQAAmQQOoT8P+UIfW3jVsQIgEVsbHAWKgChQm3BDAjL6nqE8Y0FFjmAQbq+nueH214wkN+Go527BgzHoTd36Wi3KyEWYRTmvrPXvlGhVc2eckgVpylPC/+GpSpcgR5e4+gnby2otaDchOazz0G+2F5sDfC8XzhRJULE3940DpEhX8FgzvGbZSP+tdwN835BBPAA3Evs8+1cB+AebXnVYbj6gnlcQlDH3ZOSa/67rJxs3bKovVZIuB17ctJsO+qipZHnh0Kzm53r3pbPy/MH/c9B3Ke2trfS9GMCSGl7bDS4baFB8r9x67Tnu/4nnuse2XlyVzWxzMTD9jq3Ls03KZZPwQCx9YuLt8MqKnzH7+vXmCY+s8eQe5GGMRv5O2E95Udsj2EZpO2Sln1cgWOMzz4hljmz/Za54q/OuGWly5eSHvF4lYh0H2ev/PX9JfI+4FE9W2/hLd7v//9ZpZBdLDv+ww7fPrj6++6ZH9Xhnv/ma72OcaCc6mp8gD764FMeyhJP10m+2Ubf8zcPL1CSaNOJNfjRF5T8+J4C3Q9fvJ/WxwxFp5oT6oXEts1KOkTCefqt9bJ6J+3x/QYKsjX85n31okpSzQW7L7R7tD+ntke4NpkrxOL6VhdlzCWSM5zsw1IG2SirUCEhSCLMPWfqBdwYYgEFez3LTxpIcaal7Af7V5Jrlb3k6FYJGNP1HkayvZEUiec4xXtF7T7x0iYch0SIAESIAESIIHUIUBBNnX2VcQjNSIVQi/iB4A71KwJkRluB/sDPeELobFo1w+hi4ir2Dmp1u0I32vFzou3brv3+njb3J/Zbxf747Rmm/f60Y7dHhN+sA9UeTAHnpH1UBE/VId8uVmHeUJophdVfshnLqhsr5LQaduryuR/cw/IfvBd0gqr5a7nnr+3c0V545ft+q3yj5V4hjxtoeYWcrfF+fgQWOvnXLPPwToe4UZjMZov/tolf63OCnUOgc/2yg2l/SfUA1EYXhIYcHqFoKvYb5a7vV3Myu5clqY82Ke/7xx/6/n7jrS/4/zlPfdqE98t8bKv5u52BJJBXSvJnWfmZr0k2zs2XmOIRbvIU/yOeohoG8LwnaReHonEwt3nkfRhr9Nehb7HHwz51xEq8/nvsnK6Ib/s8J5VYpKj0O4zEdMQxxDWFt5I/s5T3JfZ54q/cYa7z7M83IrqvN/rAtxvrM0Ok+6vX1Mezf1AuGM3fZrPaPo2bYTzad/D+bvXQntmWW0/IaFRJ9zrUjT3cDje6qsQywjFuc7KhY1xRGK4rtkeu/ANv75jOcfrLZI2A62TWamoIBIJPMHw5yW42r9Z6qr6XhbJ9TiR19RYHm+RXI9N9BtEivjq5priFdkn0usir+deR2jiy+Bpjv28VYmxSwOEXI/1SGN5XYrkPDfbg/Qz/1EvHyAKEn7bvnhpVflq7i7nxWN/eaTN+njB6iwlxiJcMQyRlfA7MVSLZOzxPE9DHXcy1Cso94/JwJpjIAESIAESIAESiB8B9d4+Lb8TqJSetZvxxvzG7FBm9jYjl1s4ZsLuQXzwJ3oFai/a9QO1HatlyC1jbMrCPWYy5E9bfPhF/djzsp+VZ5A/q6TCtRmzHz6ZMuxLO8+YKcdntGO327Kn4SGKH6ivXV7VKfY3BlPB9hgx3rVmWTw+7ZBseMjgZXZ55ey8qF713GUQyh48p5JTbN6sdgpiOPHnv/uk8v8tcf6q3LFEkjl3q73p0e5zsz48j0w4Nbv9QNPfL/I+p35cnHMO2uemu63er691mIP/Q59vclfxO28EVTxsGhiCoGo3BO/z6dlhW5EjHGECg5md4+7TOVlv9LvX+VI9TA/HIv1u/sEfd6s8mBBu+sZ4TQjbcMYeat1VW3JytrVReUu9bPL83V7FnmXRHK9mXTQc7vcjHo7f+sEGn7+PVC60cM1wj/R6Hm5/XvWPVrndR/SqIqc1yQoZCIEyUG69aLh59R/vMnOuIrf87GxvYLvPHxfvcUKB2uXu6Uj2uQlFuXjDfic/td3uH+paY18T7WWBpsO9H4hk7P76D7dvf+0EKs+slBP5Y8rf3t8HyB1rwtzagpq73XCvS9HewzXOjloCERz3EtHYC99t8/mOuUV95wTyXo2mL6xrh1j2d+895e+c67y9n+y+I7kem/MU7eT1NdXejmiPt0iuxyZUdIMqaZ5iLMLMzrDCGdusvabNdQXLeD33IpQcZY2qZv3WxUsQJlJFXowsVtelSM5ze/sQthiGayBe1jPhihGZoVebrGV2fTON78BzVPoa5ECGXdOunE5zY5aH8hnJ2GN5nkZ7H2XWj+S3Wih8Qq0T7v1jqO2yHgmQAAmQAAmQAAnEmwAF2XgTToL2ayrvDGOT5vk+WILg8cL328zikD7NQwu89exPbAzUULTrB2o7Vsta1SouzWtmPaxH/lC8QevPkKPN/CgzdeAR07R61g9dPGzFgzvbEKpujPK29GcQCtOUAAj7WokDeEBt27u/7xSESvKyaMeONk34Ja/2a1s5ycwPMq96KKtteSPOzP7h6q9uLMqPzsgRWJAn0m0IVzrhjxyRqpkSAsKxy5UgbbZpovrxDi/ZeBiOD+SBM394sBqlQ3o8hunZpuGDhZHscyOY4rsp3AdEeLnE/fAbLy+M/jnrO045Dzl5orwGj4eOhjk+QxXJflIvV0xV5znsEvWAxzxs8urDq2zopCzvWIzvDg+PTa91TlbhBBuoN/xhn/+5ywk3aOriO+s7SxA15YE+I/1uRqhlfE/Zhv33qgp3DkNUhq7HBM6pZfpGffc+RFmsrEa5nOvhhDk53wWmfQgs/52S5alpygJ9RnO8RnuuBBpXqMsM90iv56H2g3o4p0xOU6/17PMm0LUlGbh5jd9fWZ8Tc0IYPqIiTKivJMcwbXJHO4UxnDC57LLOx9z3HBDcglms7geC9eO1PFF9V1PeY+YeEHk18R3vthFTctiZ/IPuOpgP97oU7T1c7//kHG/3jN+U6/7RHiNexAj1OmevF69pm+MI5THvvveFlznC+8Mqqvvk1ioEutsivR4n8poay+MtkuuxuS7OXLHXJ3+yYfvIV5tDemnE1DfXFczzem6oJN/n5f/JEh1xnt2pUrEgXYCX/bxkb0xfxIjFdSnS89zePoiuEF9hSJeAe2nY6erlMH8vRuJe6fyXVvvc88O7NhyLdOyxPE+jvY+K5t43HFambqzuH017/CQBEiABEiABEiCBRBOgIJvoPZAH/eMhg7G71A+uycobC2934s35zioPaDAvR7Ou+ezRqrSZlPNGrZa7P9moH8aj3VDeoI52fafzOE7gBxo8dmD4oXra8FXyzOQtOuwg5iHc/KJ+oN7+8UapefcSuWf8Rp/RQIAwoTBRv+vzqx3PGDxQOu/F1botn5WsGaxvQk/i4coN763X3i34QfLaT9vlunfWWbV9J6MdO1o7eshyOfmplYLQkcgXi4fG6Bvhknq+vMbpsHOzwCILws2ZMHD4oYtjBW/vI0QlHlIGetjqdBLGBHL3IOQaDPvrtg83aNEUzBGK6oz/5oSX6qlyUdoCQCjdwPsRYamMDVY5ZW2DpyMerps/W1CEQGzK8RkohKTdZqpNR7vPj8nIEcl7j1krH6pjDi884HjBXzCv/AteWiMQyyFq49jt+fJaJ5TwBceWDpoTKhLeRlC1z/tQ28F3Jr47YRgfwqiFYjjP78oWbyG24DvqOSUk4hgcqV6yQY5nfPeEY9F8N1/0yhpBCDbsn2Uq/N0lr61xrgfnNk+XYC8/4AFui+yXYPAd0e7pVfLe9B2aDfjgOzcWhhxUxt5V7YMVwsXimojviOOHrgzrwXM0x2u054rZjmg+w93n8CTB97b9Z44zvPBil2PafsCLkO8Zdy0ReNn9ql4YgBCEawsEL3yXvqmuNzA8KGyW/UKT17ZFwg1jdI9t8+6cl5pWubYJL8HEyhBZwnhQItx9D3X9/1S9DIC/C9X11DwEjlV/djs3dCzvhH2Fx/8L32/VuWzxQheiPLysHkIHs1jdDwTrx2t5ovrGd/kDXXPCT56rvKGwn/BCAaKW3PdpFkuMGcLgzaeU9xq+UxbOdSnae7iLjistpzbOuu/Hd3LHYasEggqibOAFJdxT4n6kwzOrpPnDy/V11RloDCaiOdfOV78vjBCOl3yuUPcAuI7jewQiBsZscu8OPL282LlXzdAjvR4n8poa6+Mt3OuxEbbxfYzfG98pL2TcVyDU+nXvrJdh6n46HOP1PP6/d8LZH/7q3qDCj5t7mP+p8629Or9wnuF+CN91uDZj/7d7eqXE8poYi+tSpOe5zQJhm81LIPiuNC+MBQpXfNtHG8R+uR388HvT/n1nT3v9Zol07LE8TyO5j7LZmeMGZZH8VrPbCmU6VvePofTFOiRAAiRAAiRAAiSQFwRyXEXyojf2kRACHRuVlNZ1iusfVvD+6aREKdvwY8Tt3WQvd09DNMDDHoQNwwNVhN0xoXeQw+73u2u7V/GZj3Z9n8biOANug1WI2iFfbtI/Tv9Pia/4C9XgTYk3biHcIlzfsY+uEOQ4NT/48CAJD7D9GcKe4qEIDPn18Gessgpp3KRa0VyeuWZ5tGNHO3iAhz8YvHXxQMw8eEcZ8qdeqrYxmD3crZIgFCzWtY8VrIdxfjewVrAmQl6OkMVDe1SWa8eu1+sM/3ar4M9tyEc3/KIswd29LNh8v5PLycPKywkPJxASFuHY2qrjHvbBjJ1+H3Abb0HTPl6UqBZCaFpTP5U+o9nneBCChxXIywQBFg8WbZtyWy05Jfths12OaRyneHGgy/O+33FYBtZDzs0JOY2yWBg8jPAgB4a3/hE+Kxx7YlKOqH/XWTkCQCht9D2prHp4tle/OIF8Vghhaxu8dU0INrvc33Sk380IIQqh7pwXVudqGg+8Hu0ePM80vIOfVvmoEQYOHgh4KIg/Y5/fmCFnB/GyNXUDfSJyAcLL4bsZ3783qofPN72/XlT3juciRErkFAvFojle0X4050oo4wtWJ9x9jmPMCKfuthF9YMIfS32KJ91SU85U9xjGcJyMUC8O4A+GUPBGYME8hIlhF1bJlesey2wLlxteEqg/aJndhM/0qc+u8pk/UeXi/fmOwPcyPisEmEFez3evriHd1AtsuG5kccr6zsBqeFkBdRA+ONaGF5SeUNdEHOMQW256b4P+M/3gO/OQWgDxJZDF6n4gUB/+liWqb5wb+E6HEIsXQiDKug377Rn1veUlDJq6kVyXor2He+myavrFP1xDEaUFL9jh3LLv4cz4Yv0ZzbmGMQ7vWVmNfY3+fn5bCcf4cxterLnl1NwieLTX40ReU2N1vEVyPca90YQ/durfOp+p73H84diGgA/D9wiEcn/hkN37R63K67n12xh8Yv17x808knns4zF9qmuPT4TUR2QVvAwXb4v2uhTteW5v32XHl9UvcZoy/E63X1Qz5ebTzqmNMrycE8gQsaB6sZw0JNGMPdbnabj3UfZ2Rnvva7cV6nSs7h9D7Y/1SIAESIAESIAESCCeBOghG0+6MWy7CH7dZps9bcqCfY6/LsMRjUzddOW9eF2Hco4nKMrxhngohoesg5T3QEsV2hcPm4zl1fqmv1A+gQ4PeWChji+rtvKQOLuifiiLhz+mDbMMn3jDFJ6WA07L8Zo0y+FN+e2AWnJpdo4alBsxtonKUfs/xTCQndsiXe8btGMb1v3ypgw5KtuDqIjXwNQK0Yz9ShVi0Q45BoHEPMjDcQMv0Yk319QCsz02r2kI07/dVVtzqKQ8Sex9EMmx7NWHXdZfiS1g688jD/tj7gOZkmGFLsX61ikmLuR284KHXfaDwKeVt6sxe9tMmb/PQH24uWAX+x4F/lqNrNxn2/18B5jx+jve7J6j2ed4QDRNHS/PKcEcb2CDt22BGA+7sLL0Vccu2rANL4pMu6uOE0bcXmZPu9su7Ofcstd58n+bnXPDeKzaywNNw1MJHnOwM5qWkuPUizPhWNbDtGpaEMA2Yh7fx/Cuf+HiqnKJlQOrnHoBJBQL9bvdZvX4eZXlRuWJZ18L0Be+N3+9s7bjgRGsf7wcBBGs89G5w8WFctwFa98sH96zitx+RgXnOMF3G547l1WMblKebmP6VHO+7+3tNOvbn9Ecr2gn0nPF/R2BtkI5XlHPbaHuc6xnvgfcbfibt+u3VS/x4Di3wxHbYixebPnqpppyobqmBrNwuXnxCtSHu745Dtzlpg273NQ1y/AJgRfnAh70mhdxcA3C9egL9bJB0eznteVK5jy4tdfHtN2HWRbKPocX1IfX1HCiR5h14dn5fr/q0r5hljelV/uoG4v7Aa+2Qxl7NH2b/eDVN7bLLjd1UW4MX/8Trs8QfL+5r0Oog2gG399eS/Mx63h9RnpdiuYerpHKIzvz3jo6igLuU2HmHs6MEddX9IF7Sn/m5hLKvYjN1V+7drm7PnJJz7inTq7fLFgH1xhca35R55KXCB7N9RjtJ/KaGs3xZu+nSK7HOF4mqXt6+4UyiLEYE35rTL61ln4JE4xgdn9ZJbn/83oe/987oI7bXewnWCj7Jatmzn/cd/41KFPw2wlipNtwnbhD/eaz8wKbfswn1rGv9fZ3u6njPs+juS5Fe57b23hey3Sf73f89vb6bjHruLfDlPv7NNtvlkcz9lifp+HeR5ltwGek976RHq+xvH+0t4PTJEACJEACJEACJJAoAoWOKEtU5wW930LXL3IQmIc9eFj3dt/qTnksJ/DAedH6/SpU8X7JUDlO22YWF7fYF8v+8ltbCPc2T3nt4e3Y8uqhae2KRfUDOXj4BDN47eHNY4QJhGckHuQhjG6te5bqVSFwPnW+txcZ3ghF6Ft41uChrltIDNY3lkc6doR4hLfDmm2H1IMw0eGHMXbzgC+UvhNVB99sqxRj5O8FOwjMePAI71ha/iEA7x+EMYSNvKSqXK9eMsHxjvzWCBUGkccIILHeaoTza6i87vDgsp0SNX5UD+fDsf7KkxuemrDJt9aU05VYFY1B3MK3kRFGRymv+hvezfIWn3VfHUFuwngawtz9unSP4n9EP7yNF/dYbQO+l+cqD2eEID1Gef/gwbNLy49VV2zHIoDzcoH6Xl6tvp9xfcM1rW4l/IUWrttqKmUn4Z1tP/StducSWb/jkHRXD4fxAl08DNdEcMc9YNPqxaS5yrluHuSH0l8i7wcS2TfYmPtneDfhxQ28jAjvf38W6+tSpPdwGB/2+wp1Lzd39T7Zqb6ba6mQ4PXU+WbyEfrbhmQox/fDH+r+F2HlccziO9rf75Zor8de25uoa2q4x5vX2CO5HsNTHvfM+CuVVlhfx00aEK8+kqmM1/Po9waOO0R0gmc9IifgdxOiioTyOzfS3sO9LsXjPI907OGuF6uxp/J5Gi4zd/1o7h/f+m2Hk/IJ3+0mMgheiusagwg87rFyngRIgARIgARIgAQCEVASCy0ZCOCHM8x8xmNMeNAMQSrQ2/Dx6De/tAnPUIg7JjxtONsFz9BIb/bLKwERoa6isUjHjlx++EtFw4PmVB5/KjJPljHjeIcnXrwNedVMSL9wvWMhAprQr/BujVaMxba6H5pNmpcTFtX2eI8XF7xYBO+mVDF8L3eI8rs1VbY1mcYJD1m8HBDvFwSSaZvdY7HFWOTIhhgLa1DFv7eiu41w5423m4muEe76ibyeJrJvcIrF/XM016VI7+Ewdux35DA2eYxRliqG+99Qv6OjuR7745Goa2osjrdIrsfw5kN0GX8RZvxxSoZyXs+j3ws47vDSLf7yysK9LsXjPM+rbY3V2FP5PI2WdTT3j/sOHo7rc7Zot43rkwAJkAAJkAAJFCwCqam05JN99PfguvoNVHtzypfy/8a9XY/TJEACJEACiSWAB8XwHkB6qHDzm+5X+suzKnQu7IR6WTmII9maa95eL73alNZCKB6mGUPePeSqhCGsOry6aCRAAokh8OHMnTraxBUqn5ztOQ4h9ub3s3I/4/y98oTgedkTswXslQSSm0A012N7y3hNtWlwmgSSi0CszvNEbFUqjz0RvGLdZ6/jykg7FaXMbQUpOot72zlPAiRAAiRAAiSQOAIMWRxn9nZY4jh3xeZJgARIgARIgARIgARIgARIgARIgARIgARIgATCJHBkVKMw12B1EiABEiABEiABEgiPAAXZ8HixNgnEjECoOWRj1iEbIoF8SMArV18+3Ey/m1T85sWyX+VC8rIWKi/q61dUk9Z14ps71qtvlpEACeQQeGziZrnv0005BdZUUeUae0/nCnJ/l4pO/mdrMSdTkEBBvy6l4C5zhsxrqoOCEyRAAiRAAiRAAiRAAiRAAiRAAnEgQEE2DlDZJAmEQmDPgSPy/HdbdVWELG3fMHcYnVDaYR0SKMgEEPJz3KydGsEpjbNCCBckHvge+WXJHpmzar/KQ3lQ9ilxtqHKQ3mUygN3cv0SFHgK0sHAbU1qAks2HpCpi/fIii0HZYP63kLOQ5ynbdQLE/Uq513OvqSGlE8GV9CvS6m8G3lNTeW9x7GTAAmQAAmQAAmQAAmQAAmQQPIToCCb/PuIIyQBEiABEiABEiABEiABEiABEiABEiABEiABEiABEiABEiABEiABEkhRAoVTdNwcNgmQAAmQAAmQAAmQAAmQAAmQAAmQAAmQAAmQAAmQAAmQAAmQAAmQAAkkPQEKskm/izhAEiABEiABEiABEiABEiABEiABEiABEiABEiABEiABEiABEiABEiCBVCVAQTZV9xzHTQIkQAIkQAIkQAIkQAIkQAIkQAIkQAIkQAIkQAIkQAIkQAIkQAIkkPQEKMgm/S7iAEmABEiABEiABEiABEiABEiABEiABEiABEiABEiABEiABEiABEiABFKVAAXZVN1zHDcJkAAJkAAJkAAJkAAJkAAJkAAJkAAJkAAJkAAJkAAJkAAJkAAJkEDSE6Agm/S7iAMkARIgARIgARIgARIgARIgARIgARIgARIgARIgARIgARIgARIgARJIVQIUZFN1z3HcJEACJEACJEACJEACJEACJEACJEACJEACJEACJEACJEACJEACJEACSU+gaNKPMB8PcPLkyXL48GGfLaxRo4Y0b97cp4wzJEACBYfA1KlTZffu3T4bXKFCBWnbtq1PGWdIgARIgARIgARIgARIgARIgARIgARIgARIgARIgARIgARSg0ChI8pSY6j5b5RNmzbNtVGdOnWSESNG5CpnAQmQQMEg0LFjR1m3bp3PxuIljQ8//NCnjDMkQAIkQAIkQAIkQAIkQAIkQAIkQAIkQAIkQAIkQAIkQAKpQYAeskmwn8qWLSuZmZl6JPXq1cs1ojlz5sjevXulaNGictxxx+VajoLt27fL/Pnz9bKMjAypXbu2rFq1Sv7991/P+sEKW7RoIX/++adEotdXqlRJGjZsqLs4cOCAzJw507O78uXLS926daV48eKey1lIArEgsGnTJkfgrFy5slStWjWqZmfMmCEHDx6UMmXKSLNmzQK2hfNn0aJFun6hQoWkSZMmUrhw4EjxaNOMEec0+qKRAAmQAAmQAAmQAAmQAAmQAAmQAAmQAAmQAAmQAAmQAAmkLgEKskmw70499VR54okn/I7khhtuEIhKEC4hznrZtGnT5KabbtKLrrjiCrn33ntl7Nix8vrrr3tVD1r25ptvCtqJxODh99JLL+lVIQj36dPHbzMQpyDKXnvttdKtWzeBaEXLPwQ2btwor776qt4geH/7e6EgHlu8YsUK3fcnn3wieDEAdtFFF8mQIUMi7g7n32WXXabX7969u9/z9tChQ/L555/LK6+8IosXL3b6++GHHxyx1Sl0TYwaNcop6dKliyxdutSZ5wQJkAAJkAAJkAAJkAAJkAAJkAAJkAAJkAAJkAAJkAAJkEDqEaAgm3r7LF+NGDl0lyxZInfddZdMmjRJRo4cma+2r6BvzPr162XMmDEaQ7Vq1fJEkF24cKG8/PLLMnHiRIEwGkuDwArDiwP9+vXL1fS+fftk3LhxWgiO1Ds9V6MsIAESIAESIAESIAESIAESIAESIAESIAESIAESIAESIAESSGkCFGRTevcFHnzfvn3l7LPPzlUJoue3336ry++55x5PkQwhhyEsQTC1DR6P1113nS5CnaFDh9qL9XS5cuVylaHg2GOPlccee0wv279/v8CDEd6LZiz4fO+99+Tiiy/2XJ+FJBCMAI7X8847zyfUNkKCI6R3tPbPP//IN998o5uBF3ijRo1yNQkh+IUXXnDKS5QooUMOM+ywg4QTJEACJEACJEACJEACJEACJEACJEACJEACJEACJEACJFDgCFCQzce7HHkoTS5KezORR9NYgwYN5JhjjjGzPp9e+TE3bNjg1ElPT/e7rlPJmihdurTYOXKRTxNhbCHSIkQy7N1336UgazHjZPgETN7j1q1b65cHSpUqJZdffnn4DbnWQOhl03b//v1dS7NmzXIc65deeqlceeWVcvvtt8svv/ziWZ+FJEACJEACJEACJEACJEACJEACJEACJEACJEACJEACJEAC+Z8ABdn8v4+Tfgtvvvlmeeutt7TYhXyZCDNbpEiRmI0b3onPP/+8bh9euqeccor8/vvv8v777+twycgvWqtWLenatav+c/cNke2rr76S2bNny4IFC2Tz5s3SuHFjgWANb16Ib4Fs9erV8sUXX8gff/yhcwFjDPCwbNGihbPdKGvbtq3TzNatW3UOYBS0a9dOWrZs6SwzE5MnTxaE58V4jdeyWWY+ox37b7/9JuPHjxeE30X44TJlykiVKlX02E877TTNwfRlPsHa5GzFOsa+++47wXbZlpmZKeeff75dFNU0QgmffvrpOm/x8ccfr9uaMWNGVG1i5bVr18pnn32m20EeXIi9XlajRg255ZZbtAAMz1waCZAACZAACZAACZAACZAACZAACZAACZAACZAACZAACZAACVCQ5TGQcAIQ+SpUqKCFToQyXrdunWRkZMRsXHv37pUXX3xRt9erVy/ZtWuX9lq0O1i0aJFMmTJFSpYsKWeccYazCB7ByG/7888/O2WYWLx4sXz55ZfywQcfyPDhw7U461Mhe2bWrFly44036m0zy2fOnCmjR48WCNHPPfecLr7qqqt8BFn0O2LECL2sePHinoIs+scfREgvQTaasUMUHzBggHz99ddm2D6fCC+Nsc+bN8+nHDOjRo3yzN0KcRd/tkGEjrUga4cMtvuKZhp5cE3Y4WuuucZvUz179vS7jAtIgARIgARIgARIgARIgARIgARIgARIgARIgARIgARIgAQKJgEKsgVzvyfVVkMwtT0ng3mcRjN45AE1no7wZkTYZHiRzp8/X3uA2m1DuL3wwgu1QIzyOnXqaM9WjA9C66+//qrz4CIs7aRJk7SobK8Pr0os27dvny5u3ry5FlaRO3fq1KmOGGuvE6vpaMeOENJGjK1YsaLORVyzZk29n5YsWSI//PCDYL95GbyGjXi5adMmgScvDB7BRx11lM8q9evX95lPxplt27Zp4R1jQ95YeDfTSIAESIAESIAESIAESIAESIAESIAESIAESIAESIAESIAESCBUAhRkQyWVBPUg7LkFLTMsk7vSzKfS5+uvvy6HDx/WQ4ZAF89Qr9OnT5e0tDQZNGiQXHbZZQ4mCIjvvfeeQKQ19tJLLzlibPfu3WXw4MFSokQJs1h7uT755JOyfft2efbZZ2XIkCHOMky88cYbjhh7ySWXyAMPPKC9WbFswoQJ2vM2Xvst2rFPnDgRw9QGD2AT/teUQUA3wrYpM59gawwetEaQ7dKli/Tt29csSpnPsWPHyu7du/V4+/Xr5+zDlNkADpQESIAESIAESIAESIAESIAESIAESIAESIAESIAESIAESCChBAontHd2HjYBCHhef2E3lIAVEAYXuUXxBw9OiHUPP/ywzu9qhtOpUyczGbfPm266yUeMRUdFixbVeT+PPvpo3S88OxGmFtagQQM9TluMRXmfPn2katWqmJRPPvnE8QrFPMRz5KiFwaMWYY8RWthYt27d5MQTTzSzMf2MduwYjMn9WqpUKUHOVLeVL19eevfu7S7Od/PwAkZ+YxjE+nPOOSffbSM3iARIgARIgARIgARIgARIgARIgARIgARIgARIgARIgARIIL4E6CEbX74xbR2C3sCBAz3bXLhwoXz++eeey5KlEHlYEbbXnzVr1kwglsbTkK82FCFxwYIFgny2MIQqRohiY7ZXK8LwwgMUIjPy0BoP5tWrVztelchJ6xZz0RbEPXduWtNHNJ/Rjh19Q3xcs2aN3gYIkmBWpEiRaIaVkut+9NFHsmXLFj125PktiAxScsdx0CRAAiRAAiRAAiRAAiRAAiRAAiRAAiRAAiRAAiRAAiSQRAQoyCbRzgg2FITaveaaazyrQRRMdkHWc+CqECLp1VdfrT1OixUr5q9aTMrh7VqyZMmgbS1btsypM2XKFMFfMFu6dKkjyELMNFarVi0z6fMJoTceFu3YMabOnTvLzJkz9fCGDh0qr7zyirRp00ZatWqlPWYhrNsev/HYjkS3CY/u0aNH62HAI7hnz56JHhL7JwESIAESIAESIAESIAESIAESIAESIAESIAESIAESIAESSEECFGRTcKel6pAhhkJ4hUHMq1KlikCszMjI0Hld82K7atasGVI3K1ascOpVrFhR0tPTnXl/E8WLF3cW2YKsv5y4lSpVcurHciLasWMsyK+LsNLI74scuQiDPGnSJP2H5dhvjz32WK7csliWX+yLL74QeDrDLr/8ck8v5/yyrdwOEiABEiABEiABEiABEiABEiABEiABEiABEiABEiABEiCB+BGgIBs/tmzZRQDC6/nnn+8qzdtZ5HMNxeC1a+zBBx+Us846y8yG9GmLs4cPH/Zcx4RE9lwYQiE8OL0s2rGjTYTmvf7667UQibC98Jb95ZdfZOfOnbrLVatWaXEdXtmZmZlew0jpMoSlhlcwDB7VEGRpJEACJEACJEACJEACJEACJEACJEACJEACJEACJEACJEACJBAJgcKRrMR1SCC/E6hXr56ziRs3bnSmQ52A+GwM3qVeFqhdO1cp8tN62YYNG7yKJdqx241C3O3bt6+MGDFCpk6dKk899ZTUrVtXV8G43nvvPbt6vpn+/vvvdU5gbBBCFSNkMY0ESIAESIAESIAESIAESIAESIAESIAESIAESIAESIAESIAEIiFAQTYSalwn3xMwoiM29Lfffgt7e2vUqOGsM3v2bGfanpg1a5Y96zNtC4Bewiu8Y+1csfbK0Y7dbsueLlGihJx77rny6KOPOsXImxvIbE9hhEBOFTPesUWLFtWCdKqMm+MkARIgARIgARIgARIgARIgARIgARIgARIgARIgARIgARJIPgIUZJNvn3BESUCgadOm0rhxYz2Sr7/+WubMmeN3VHv37pV58+b5LK9evbrUr19fl02fPl3cwiXCFY8bN85nHXumQoUKUqxYMV30008/CULo2oZQwZs3b7aLnOlox46G7By4TsPZE7bYbAuu7nqYt+vOnTvXq0rSlSE884wZM/S4zjnnHJ9tSLrBckAkQAIkQAIkQAIkQAIkQAIkQAIkQAIkQAIkQAIkQAIkQAJJT4A5ZJN+F3GAiSCAkMGDBg2S3r17azG0T58+cuutt+pcshAZd+zYIUuWLJFJkybJxx9/LC1atJBXX33VGWqhQoWkX79+cu+99+r1+/fvL88995wcddRRsm7dOrn//vtl9erVTn33BNY/9thjZdq0abJ8+XIZPHiw3HjjjVqknTx5sjzyyCPuVZz5aMeOhiBEQpDu1auXtGnTRhCCefv27dpb2N7O9u3bO/16TZQqVUpq1qwp//77r3z33XfyzDPPSIcOHQSCMyw9PT3mgidCRE+YMMEZzooVK5zp+fPny+uvv+7Mt2rVSnN2CtTEyy+/rGfNPrSXhTL9zTffiN0n8u0ae/fdd6Vs2bJ6tnDhwjo3rR2e2tTjJwmQAAmQAAmQAAmQAAmQAAmQAAmQAAmQAAmQAAmQAAmQQP4hQEE2/+xLbkmMCbRt21ZuvvlmGTlypMAL9oknntB/oXbTrVs3+eCDDwQhi1euXCk9evQQhP1FWzCIkYHC+CJ3KwRZGHK12vlaIWjCA9ftmasrq3/Rjh3tIKSyCasMb92DBw/6eOpChIZwG8wgZN955516XYQCNuGAsR7G+dZbbwVrIqzlYI195WV//vmn4M/Y1Vdf7SPILlq0SJA/FnbKKadIw4YNTdWQP9955x2BV7OXjRo1yqcYgjcFWR8knCEBEiABEiABEiABEiABEiABEiABEiABEiABEiABEiCBfEeAIYtTYJfCkw5mPr2GbIs69nSwuoHa9FrXrh+sH6wfbn2vPqMtwxjg7QgLZcx2f/BKhVdjs2bNnDbs5fAA7dy5s8CD1m3IP/rGG2/4iJZGjK1Xr56MHj3avYrP/Kmnnqq9dNGObVgXXpwmJLLN2K4XzdghHteuXdtp7sCBA44YW7JkSbnqqqu0RzAE5mBmhGmIt8iNa+8DezpYO6Eu98fDa313//D+NeGhr7nmGq9Vgpa52/S3Ao5Jc1z6q8NyEiABEiABEiABEiABEiABEiABEiABEiABEiABEiABEiCB1CdQSIkPvskpU3+bUmYLkOvTmBG2OnXqJE899ZQp5mcSEdizZ48sXrxYh6NF2FmELq5Tp46kpaUFHeXWrVt1HtotW7ZI69at9XoIXdyxY0e9LgROeJF6GUIFL1y4ULAuQuxWrVrVq1rAskjHjlyyCDe8YcMGHS4Z4YczMzMFQnR+M4SQxvl36NAhOe6442Ts2LEJ2cQuXbo4OXyNgN+8eXP58MMPEzIedkoCJEACJEACJEACJEACJEACJEACJEACJEACJEACJEACJBAdAV/Xu+ja4tpREDDCi/mMoimuGicC8AyFMIa/cA2eoUZ8DXddiL8I7RuNRTp2iM74KwiG3LIQY2GResfGgtPu3budsNaxaI9tkAAJkAAJkAAJkAAJkAAJkAAJkAAJkAAJkAAJkAAJkAAJJJYABdkE8p80aZIjAJlhQHyjkQAJ5D0BiN4IA40Q0ZGK57EYNTxz9+/f79MUBHUaCZAACZAACZAACZAACZAACZAACZAACZAACZAACZAACZBAahKgIJvA/YbQrzQSIIHkIHDmmWcmxUBq1aqVFOPgIEiABEiABEiABEiABEiABEiABEiABEiABEiABEiABEiABGJDoHBsmmErJEACJEACJEACJEACJEACJEACJEACJEACJEACJEACJEACJEACJEACJEACbgL0kHUT4TwJ5BGBcuXKyR133KF7a9myZR71ym5IgARIgARIgARIgARIgARIgARIgARIgARIgARIgARIgARIgATykkChI8ryskP2RQIkQAIkQAIkQAIkQAIkQAIkQAIkQAIkQAIkQAIkQAIkQAIkQAIkQAIFhQBDFheUPc3tJAESIAESIAESIAESIAESIAESIAESIAESIAESIAESIAESIAESIAESyHMCFGTzHDk7JAESIAESIAESIAESIAESIAESIAESIAESIAESIAESIAESIAESIAESKCgEKMgWlD3N7SQBEiABEiABEiABEiABEiABEiABEiABEiABEiABEiABEiABEiABEshzAhRk8xw5OyQBEiABEiABEiABEiABEiABEiABEiABEiABEiABEiABEiABEiABEigoBCjIFpQ9ze0kARIgARIgARIgARIgARIgARIgARIgARIgARIgARIgARIgARIgARLIcwIUZPMcOTskARIgARIgARIgARIgARIgARIgARIgARIgARIgARIgARIgARIgARIoKAFmMjAAAEAASURBVAQoyBaUPc3tJAESIAESIAESIAESIAESIAESIAESIAESIAESIAESIAESIAESIAESyHMCRfO8R3boEBg/Z6ccOuzM6ok6FYtK28wSvoWcIwESIIF8TmDlloMybdneXFvZoVFJqVK6SK5yFpAACZAACZAACZAACZAACZAACZAACZAACZAACZAACZBAqhAodERZqgw2v42z0PWLcm1Sj1alZdy1NXKVs4AESCCLwJ4DR+TAoayvreJFCwn+aKlP4NWftsk1b6/PtSFf3JghXY9Jz1XOAhIgARIgARIgARIgARIgARIgARIgARIgARIgARIgARJIFQL0kE2CPVW+ZGFpVDVNj6RJtWK5RjRjxT7ZvtflSqtqVU4vLA2qpEmpNApSuaCxIBeBR7/aLA98tkmXLx5SV+pVzn2s5VopSQoWrN0vd36yUX5bulfW7zjkjOqy48vI232rO/OcSA4CO/cdlpnqe2v68r2yZONBqVKmiDSsUkw6H11KKqV7e7tWL5sTHWD9joOyfPPB5NgYjoIESIAESIAESIAESIAESIAESIAESIAESIAESIAESIAEoiRAQTZKgLFY/dwW6fLmlf5FpSvGrJV5a/Z7dlVIabENlLB255kVpO9JZaVoYYqznqBYqMNjH872h892ME0JKv9uPShthq6UXUrkcxv9+91EEj8/YspWue2jDbnCsWNkRVTW8un31JFWtYrnGug5zdMFf7D3pu+QS15bm6sOC0iABEiABEiABEiABEiABEiABEiABEiABEiABEiABEggFQlQkE3FvWaNGYLU4g0HpP/Y9fL2tB3y7YBaWvSwqnCSBFKawJP/2+KIsQjpfUnbMsqjPMu7t7Ifb8uU3uAUHfxBpfbf/P4GefGHbT5bgAgA8PDHywDIme0lrPuswBkSIAESIAESIAESIAESIAESIAESIAESIAESIAESIAESyGcEKMim2A6dobzL0osXUjk0RYX0PCDjZu2UMb9s12LHD4v2yJAvN8ngcyql2FZxuHlBAB7U7RuV1F3VqZA6p/4f/+7TY4b39xt9qkmZEsrNkpZ0BMaqF0KMGIu8vsN7VhF4/9csX1T2Hzwiv6vwxaOUWFu+lHfI4qTbIA6IBEiABEiABEiABEiABEiABEiABEiABEiABEiABEiABGJEIHVUmRhtcKo3gxyz6cWzBKljMtLk7GPS5ZiM4jJQhQiFvfbTdgqyqb6T4zT+2kqExV+q2YrsXKKtahenGJvEO++ZyVv16EoUKySTbq4pHbLFfxSmKYH25AYl9V8SbwKHRgIkQAIkQAIkQAIkQAIkQAIkQAIkQAIkQAIkQAIkQAJxIZB66kxcMKR2o7ecWl7u/XSj7D1wRJBvc8vuw1KhVG4vQoQ3/mDGDvll6V6Zs2qfbNhxSI6pWVxaK6Hrug7lpGwQz8Mpf++RN3/dLss2HZDV2w5JOVW/RrkicnzdEtJNecI1V225bdWWg9orDuU9WqVLqbTC8s7vO+R75c2L8R5ft7gWlbsqYTmQbdp1SIvNGDfy6UKUblkrTdopkQchbL1s485D8uw3WSLR2So3ZbMaafKh2v7v1HbMVu3UrVRMi0a3n1E+YO7drXsOywvfbdUefss3HZT9KgFrtTJFpJ7K3dvl6HQ5q1mpgEJhtNy9ti2Ush0qTOwL3/uGjzXr3dDR//6OFTfTV7if76v8oX/8m5MzeZ06TmGr1bF936ebfJprXae4XHBsaZ8yzBxQ+2jwF5sF7E+sX0LnJoUH+Us/bpMF6/Zrj03sv17HlZFebUr77P+/1fLP/9wlvy3bKzh+N+06rI6VovrFhzaZxfU6yN3sNrwMsWTjATlWnU9rtx9UeVB3ClI6n9cyXQaeUUE++2OXvPbzNvlHhRhvm1lChvaoLFXVceRlaOeDGTv1cTp39T6ppEIzQ5DGeXZak1Jeq/iUIQfr/LU5DHGedDoq+Ho+jYQx8/X83fJntifzxW3K+IixYTTDqiRAAiRAAiRAAiRAAiRAAiRAAiRAAiRAAiRAAiRAAiSQLwlQkM0Hu7WI0l4hEC7P9iRcteWAEmR9xdE12w5KnzfWCYQT2+YqcRMC2MtTt8kH/WoIBC63Ie/jRa+u0eGR3cswP0EJTQ98tkkOjWyUa/FSJd4+NnGzLofQ9+HMHVowNhWnqzCmI5VoeH+XijLk3EriJXT9vGSvXKz6X6nEMdt++mePXhfi05g+1XOJ0Gu3H3L6Lqp0r9uVF/GvSow2BmH3y792ycS5u2Tyrd65dyHenvfiatmmRFnb5q0RgUA9+ucsj+QHzq5oL3amo+HuNBLhxHolZN4zfqPn2he2Lu1XgI8FN89OQyz8cOZO+ViF4nbbanUMm2PJLLtUifFeguweJfY/+lXWcXdt+3Kyc99hueS1tWY1/fnX6v1aJE0vXkOJplmi7ivqPEA+ZrctVCLtpHlZ587bv+2Qt/rmPt5eV6HDcUy67cfFe2T6in3ykdouCMUw9I2/aXfXdlfXIciRixVjtg0vMTw3ZavcrsTdx7pXkmJFPFTh7BUwxi/UsW3sttPLx1WQnZjNBv1B7KeRAAmQAAmQAAmQAAmQAAmQAAmQAAmQAAmQAAmQAAmQAAnkEKAgm8MiZad274dnbJYXITYCnp+2wVOy7dCV2nsW5Q2qFNNeqfCIhdj57cLd2mvvjP+ukr8H15XKpX299v777RZHjK2ilsEjFX3Aa3WB8sKDqAkBLJhB9IWdUK+EnNK4pPY+HDd7p2D8jyjxrEa5ornEHIhwpw9fpb1psW4b5VnYUYVC3a62acIfO2WdEl0hCF/y2hqZqMKk+rMhylsSBs/EkxuUEHhdwlsYYjNE14+UUNxLefbZtk/lvez5yhpHjD2jaSk5tUlJLYQtVR6MENogqh2GG6aHRcvdo8mwisqVLCwQLI3BKxgidDgWCbdw2veq2/noUj7HILyycXzBm7RHK19vWHi/BjNsM/KbwhCyuYXy5MYem71yn/L09hX54f0Mg9iJkLsIEV5L5UDdqLxkx6tjFZ6rEDpxTM68t46u6/WvUdViclT1NH1sYvm7yiscL05cdFxpddzsFQj1yKm6WHnLNlTnozF4dJvw49q7Vm1vcxWaHMcrBF281PD011ukpAoLjBcYksXwEgisVFohfY59s2C3FrAhIsNbH2HVz1Fe6jjvaSRAAiRAAiRAAiRAAiRAAiRAAiRAAiRAAiRAAiRAAiRQ0AhQkE3xPQ4t8G7lBXnwcJaQ9B8ldpZxhR6GVyFCGcN6/6eMvHRZNS3omE2HwHPHuI3acxUhYV+6rKpZpD/hsWjsg2tq5BJVIMwawcvU8/d59cll5RXVv/GE7acEm84j/tWC69OTtwi8GSFcGRs6aYsjxmLdl9W6EKpgg7pW1MLYovUHtPjzixKXAwl0CBv79PmVnb7PV2IXBFfYGCX6uQXZKQv3aAEMyyECf31rbsEXXrL+/BSj5Y5+ozEI62Ovqu40AXH1wc99Q/46CwNMhMstQFMhLep3cjnpd3JO1a+UBzPyyDapliYvXup7bObU8j8F4by4ymE6olcVuemU8k5FeKu++MM2JdLmCKJ40eBB5e2M4xAvCNg29LxKcu7I1fpYm6XEXLzI4BU+GC86/DkoU/fZ98112uMV7Qy7sIogvDhCIjd5aLlueqoamxFk4dH8UPb+gZj+xY0ZPjlXH1DHe4dnVmkR9yl1zvY9sawOm22PMVHTCO0MAzMc9+7Q0vAuHvbNFrmxY3l55oLKOqdsosbKfkmABEiABEiABEiABEiABEiABEiABEiABEiABEiABEggrwlY0lded83+IiHwosqB+cL3W3Xo0juViHrsYytkhApjCkNe1f/2rOLTLDxITR5VeOy9crmvGIvKA1Q404xs8QnCpAmrahoyYm5p1X77hrk93JDfEkJTMINX3zMXVHEEUdSH0HmRyuMJg9epHWYVXpEIIQtD38PVthkxFmXwdhx8To6XIMK5+rNqZYvIo918QyIjbC/yiMKWbvT1lESZ7T3pL8ftqcrjz8vrLxbcMYZEWyTcEj1mr/4hstpiLOrAC/ZmddweZ4XpPlvlMn5IHVNuMdbUv0+F1jYG73Iva1GruBZjsayVmjYGz3BYo6ppUkKdC7DN6mUGYxAy4fkNG9Grqo8YizKM6bbTK2BSv6TwpgpLnCy2KvuFD+THvX9CluiP3MoQYM9VeW9x3uLlkedVLuZh2Xmdk2XsHAcJkAAJkAAJkAAJkAAJkAAJkAAJkAAJkAAJkAAJkAAJxJuArwtYvHtj+1ET+L+PvXOCIgfmoyqvZLMaaT59zPl3nyD0LqyhCqNqi0hHrFC7x9ctIePn7JT9qi7yytpCUp2KxXT+VuS0hOgJ8dX2YvXpMMAMRE14/rmtlwrjirC0sPkqBHI3JeDAVmw+4HjHntcyXYuyeoH17/xjS2shepcaG/J8+rOzmqU7Iphdp5EKFwsh2BZfzfI6FXNOjzeyPWgzrTJTz+szFty92s3rski45fUYg/WHYy6UFwbc7eDFBLyMgNzFJiT3BuXFamyTCh/sZeUsD3XbW90c+/AOxwsGew8ckm3ZAizambYsR+BFeGZ4Xxsz52pNFT7Z2KyVOfVNmfm8vVMFwQsHxpqrMM3xtM0qpLNt8KTvafX/P5W7uuvz/+oQ4Y8r4bmf8nZ3h0a31+c0CZAACZAACZAACZAACZAACZAACZAACZAACZAACZAACeQnAjlP9/PTVuXjbYGYA9+67AjFekshjkI8RG5YtyE8qrHPVK5V/AWzhUoUtQVZCCs//ZMlDiG/5dBJm3V+zROVx1875TGLvKwmBHGgtutne6O66xgvVZRDhDW2bFOO16rXtqEeQtEixyfE2GWbctY1bZhPeNN6WQXl3QuDoOs2eDTWUushHCvykDYYtFRa1y4h7ZVX7/GZxaXTUaWkYvb67nVjwd3dZiLmI+GWiHEG6hMvKcB7PFT7beleeVwd4zhX7PPMvb7SUz2tpMqjagw5VY2VSssZg/GQ3bkv62UJ1Pl7Xc7xizDewWyhVd9dF57bIrm92d31YjVfMb2w4IUNGL4vbDEWZWeqc6Vn6zLy3vQd2gsYuWUvUC9T0EiABEiABEiABEiABEiABEiABEiABEiABEiABEiABEigIBDwVqkKwpan6DbueLaBFpeQb3Kiyq35zOSt8ofygoXnKqSd5y7yDVmMEKLGqqicorbHnil3f5YoliMcYRlCve5QYsswleN1y+7Dgr4/Unll8QeDoDq6dzXP0L26QvY/eP15GUIeGzO5KDFvT1cr6/9QRbsL14ke2+79R8QWwUy7yOsZyHJksZxa8GKccH2GwCsZ+UIPKb3p9+V79R9qFVVxWPueVFb+q5gjHLNtseBut5eo6Ui4JWqs/vpFXthQDbmQe49Zq8PrmnUqlCosOEbx0sFBdQzAoxpm8jabeuYTx4WxItZ0UesQNHUOZyu+2/YcFuRihuEFi0zllR7MTJjxYPXyYnm1MkV1nl/0ZUKQu/vtcnQpLcii3D4/3PU4TwIkQAIkQAIkQAIkQAIkQAIkQAIkQAIkQAIkQAIkQAL5jYB/lSu/bWk+2x6IkFecUFbOVKF4Wz26XJCz9AWVnxGhQFtY4UlNmFRs/shLqvqEMQ0VCQSi+1XuzJuVMPvaT9tk6j975ZsFu518lxCozlIefX8NylT5Mf0LSRBLvcyEVMYy25PRFo9378/twWraMssgchnPQ7Ms2s9jaxeXbwbUlB8X75H3p+9U275H5qzap5uFIIcctwht+/oV1Xy6igV3nwY5EzGBYKKyaXiHCh/cf+w6LcbimH+se2V9Ptle0AhfXOfepWaVmH2mFy+kBX4cU02rpclfD2TGrO28aMh+2cIO9W33nWGFWw7kzW6vw2kSIAESIAESIAESIAESIAESIAESIAESIAESIAESIAESyA8ELJ+t/LA5BW8bqpctIg+dXUlvOJzt7v5kkw+EJkrcMbZuR04IYFMWzidExoFnVJBx19aQNU/Ul7f7VpfG2e0j9+yLP24L2Nza7d79r7PK61ihhe18rWu2+YkPq3o0y2qrsM2WQ2LAsYS7sL0Kzfz8xVVk9n11tFgGr2FjyC8LD0fbYsndbpfT8SPw1dzdYl4aGNS1ktx5ZoVcIamXZHvHxnoUeJmgfnbI8XVWntpY9xOv9mxB1g7DbPe3ywrPHKpIbq/PaRIgARIgARIgARIgARIgARIgARIgARIgARIgARIgARJIVQIUZFN1z1nj7teurJM/9isVxhg5MI0ZwRTzUxZm5YE1y6L5RFjgy44vI69dXtVpxs6b6hRaE8gb6WU/Ls4Zbx0rVGumFWp2yt+7vVbVuWNXb8sSem0B17NyjAqPVjlJR/SqIqc1KaVbPKKE8MVWaGgUxot7jDaBzXgQWLUlJ7x3G5Uj2Msmz/c+Dr3qhlvWONu7fOPOQ/KnCkMejfV+fa1U/r8lzt9Dn/u+qBFN217rdtQ5a7OW/JHtQe6u9/f6nHzWDQN40rvX4zwJkAAJkAAJkAAJkAAJkAAJkAAJkAAJkAAJkAAJkAAJpDoBCrKpvgfV+OFdd0enCs6WDP5iszPdqlZxaZ4dwnjc7J0+Yq1TKXtiz4EjMmtlbiEIYVr9WW1LQA0WLnjemv3iFmURonX0z1metfBu7XRUlsiJ/qqpsMxm7DNX7JOfVLhgt42YkuOVa6/rrhfJPHJ6gok/s0Ozurc9Ftz99cvy+BCoUS4ngvuEObtydQLh/78qV3O8rPd/yjpN3zN+k08eW2dB9sRfq/c7IcPdyzCPXM84fs3fdhWOOZ524bGlBTmXYcO/3SrwmLcN+Zdfsjzoj8nwFrztdThNAiRAAiRAAiRAAiRAAiRAAiRAAiRAAiRAAiRAAiRAAvmFAAXZfLInrzyxrCB8MQxestOWZXmdIhcmvDlh8OQ8bfgqeWbyFlm++aCeh3Dzy5K9cvvHG6Xm3UvknvEbdV3739FDlsvJT60UhOZFvliERobQ89HMndLz5TVO1c4qn20wu+ClNTJRhYZF3li01fPltQJxCXaBEnXsHLSFlED7QNeKTpPnjlwtn/+5S4uka5Q4dt+nm+SF77MEMuT5RI7bWNobv2yXjLuWyC0fbJBfldcxRC1sO8RhiN5vKh6w2irMcrPqOaGhURYL7mgnUsO+hpBu/23enRP2eZVrGbwyC7ohX7Cxd6fvkJHfb5O1KjczwhjjnDp+6EpBntl42UXHlZZTsz1Nv/hrl3Qctkp+Vufmrn2HBS8uLFp/QMZO2yEdnlklzR9eLnjBIVkMuZ8xfhjyw542/F+daxn5leev3S9nv/Cv/JPtRQ7P8hPqlUiWoXMcJEACJEACJEACJEACJEACJEACJEACJEACJEACJEACJBB3AjkuYXHvih3Ek0DxooXkttMryF2fZAmqEAy/uDFDd9mxUUkZfE4lGfLlJi0u/Z8SX/EXjkEYwh8sTfUFoQWin7Hj65aQS1UI40CG9SDkdnn+31zVqikxeci5Wblw7YUQac9pnq6FWIjHEGXdBg/hZy6oLGVKxP79gq0qN+wI5RWJPxg4Q0w2BtF42IVVBJ9uiwV3d5uhzkMUqz9omd/qpz67ymfZifVLyM931PYpK2gzTZWofk27cvLK1G1aeL3xvfVy0/vrBbsWQjysR6vS8onyNI+XvXRZNTnvxdVabP1x8R79IgSOLftci1ff0bY7tEdl/XIFXgaBN3urR1fkahK5Y4f3rJyrnAUkQAIkQAIkQAIkQAIkQAIkQAIkQAIkQAIkQAIkQAIkkJ8JxF7Bys+0ErRtRRDLVxmEmcLZ015Dub5DOSlfMmuXfqk87OCZZuyBsytqwQ1egF7iIcKN9mxdWgaclhP62KwL79v6lYuZWR2O1AhE8Iz7PxUueeLNNaVksaxxOhVdE8MurCx9VVsQUG1rk1lCpt1VRyCIuQ1jnXB9hjx+XmVB3lq3NaxSTL6/vZZgjG6zu4HHqpcVyW6yiAeUtkpkPqNpKbHDEdtibFs17q9uqikXKm7+LBru/toMpdwcM6HURR27frTcQu0z1HpmbP72oVc72AazS8NZb3jPKnL7GRWcYxTHOcRYCIk3KQ/sMX2q+W3X9GM+MS5zfGG6sBkQyrOPR7NtWA6Dh/jMe+vIXWdWcEIAm3Mtq4bIMRlpguOqSbXc54upY9o383bfpizWn1VKF5FvB9TUnrJe5yrOpT8HZTphyGPdP9sjARIgARIgARIgARIgARIgARIgARIgARIgARIgARIggWQlUOiIsmQdXH4fV6HrFzmbaAQMeOC93be6Ux6PCYRAnafEWoQQLV+yiNSuWFQgbML7M5Ah/C08L9dsO6S8ZEXqViqm1zO5I73WhZcfQqzCRl5SVSAao/9fVAjgvSo/K0RNeMeGYhDGFq3fr73wIJC1VPlxq6o8s/E2jHPBuv2yeutBgcdshso1WrcS/nJE6lDGECn3UNpmndgSgCf3XBVKG6Gxj1E5mI9SLwvYQnVse/NuDd/MK9Q5N3f1Ptm574jUUqGx66njzs51671m4kuRM3bumn0yX4VVrlm+qBytcsZWKOXnrYjs4b712w657p11eg4vPqANGDz9ux4TPBx6Vm3+JwESIAESIAESIAESIAESIAESIAESIAESIAESIAESIIHkI8CQxUmyT5CnEmY+4zkseLVCCMVfOIZcqfiL1tA/vOXCNQhi8AoM5BkYbpuh1IeHbCsl/uIvGouUezR9ct3ICFRSOYk7qFDfiTQ41GaqlyXwl2oGD90WSsjGX6i27+DhPPn+C3U8rEcCJEACJEACJEACJEACJEACJEACJEACJEACJEACJEACsSKQek/6Y7XlSdDO34PrKi8wXwfl8qXi7/GZBJvOIZAACZCAD4Fex5WRdg1yi+DheqL7NMoZEiABEiABEiABEiABEiABEiABEiABEiABEiABEiABEkgCAgxZHOedYIcljnNXbJ4ESIAECgSBI6MaFYjt5EaSAAmQAAmQAAmQAAmQAAmQAAmQAAmQAAmQAAmQAAnkDwIUZPPHfkzarfDKIZu0g+XASIAESIAESIAESIAESIAESIAESIAESIAESIAESIAESIAESIAESCDGBCjIxhgom/MlsH7HIRk3a6cuPKVxSWlaPc23AudIgARIgARIgARIgARIgARIgARIgARIgARIgARIgARIgARIgARIIB8ToCCbj3cuN40ESIAESIAESIAESIAESIAESIAESIAESIAESIAESIAESIAESIAESCCxBAontnv2TgIkQAIkQAIkQAIkQAIkQAIkQAIkQAIkQAIkQAIkQAIkQAIkQAIkQAL5lwAF2fy7b7llJEACJEACJEACJEACJEACJEACJEACJEACJEACJEACJEACJEACJEACCSZAQTbBO4DdkwAJkAAJkAAJkAAJkAAJkAAJkAAJkAAJkAAJkAAJkAAJkAAJkAAJ5F8CFGTz777llpEACZAACZAACZAACZAACZAACZAACZAACZAACZAACZAACZAACZAACSSYAAXZBO8Adk8CJEACJEACJEACJEACJEACJEACJEACJEACJEACJEACJEACJEACJJB/CVCQzb/7lltGAiRAAiRAAiRAAiRAAiRAAiRAAiRAAiRAAiRAAiRAAiRAAiRAAiSQYAIUZBO8A9g9CZAACZAACZAACZAACZAACZAACZAACZAACZAACZAACZAACZAACZBA/iVAQTb/7ltuGQmQAAmQAAmQAAmQAAmQAAmQAAmQAAmQAAmQAAmQAAmQAAmQAAmQQIIJFE1w/+w+jwisWrXKs6dq1apJsWLFPJexkAQKGoF9+/bJgQMHpEiRIlKyZMmCtvncXhIgARIgARIgARIgARIgARIgARIgARIgARIgARIgARIggTgQKHREWRzaZZMuAnv37pU5c+a4Sv3PHn300VK6dGn/FdSS5s2by6FDh6Rbt24ydOhQv3XXr18vHTp08Fz+6quvSrt27TyXJbpw48aN8s8//zjDKFSokFSvXl1q1qypBTNnASfiTmDTpk2ybt063U/lypWlatWqIfW5Zs0amTZtmqxYsUK2bt2q911mZqa0b99e0tLSgraxZ88emT17tsybN09KlSolrVu3lkaNGknhwvFx7r/++utlypQpUrZsWT3uoANkBRIgARIgARIgARIgARIgARIgARIgARIgARIgARIgARIgARIIQoAeskEAxWrxkiVLpE+fPiE3N3r0aDnppJMC1j948KBAT4coG8jiJV4F6jMWy77++msZPHhwrqbg0QtRr0WLFjJw4ECBQBhvGz9+vCxYsEBKlCghAwYMiHd3SdM+hFSI9p988on2HMXALrroIhkyZEjAMcLTdPjw4TJ27FjZv39/rroZGRly9913y5lnnplrmSl4++235fHHH891fEOUx5gaNmxoqsbsM1neT8HLCNhGWKdOneS4446L2TayIRIgARIgARIgARIgARIgARIgARIgARIgARIgARIgARIggbwlEB83s7zdBvYWhAAES4iJ5u+pp54KskZyL0ZI2cWLF8u4cePk7LPPlk8//TTuA/7f//4nY8aMkbfeeivufSVDBwsXLpTbb79dunTpIh988IEjxoY6Ngi2r7/+uiPGQjxt27atVKpUSTexevVque222+T333/3bPK1116TRx55xBFjixcvLkWLZr0/snbtWrniiiv08ey5cj4ohFc7jjf8/fHHH/lgi7gJJEACJEACJEACJEACJEACJEACJEACJEACJEACJEACJFBwCdBDNgH7vk2bNto7MFDXDRo0CLRYL3vzzTfl8OHDIYePDdpgEleAd/H5558vK1eulOXLl8ukSZO0ULVt2za566679Mi7d++exFuQOkPDMXXeeedp72szaoTw3b59u5kN+Llo0SL5+OOPdR14M48aNcoJiw2v7ieffFJw7MKzGx7Qn3/+uU97yHf89NNP6zLkch02bJicccYZgvDF8JhF25s3b9brvvvuuz7rcoYESIAESIAESIAESIAESIAESIAESIAESIAESIAESIAESIAEko0ABdkE7JHy5cvLMcccE3XP8DgsKAYv3yZNmug/bPOVV14p8KKEWAcbMWKE9pY1XpS6kP8iJmBC9yJn63XXXafzt15++eUhtTd16lSnXq9evRwxFoXYP3feeacW1JGTFjmCd+/erds3KyE8sun/pptukrPOOksvQk5lhDlG+GiIubNmzZKlS5dKvXr1zKr8JAESIAESIAESIAESIAESIAESIAESIAESIAESIAESIAESIIGkI0BBNul2if8B/fDDD55hWiFUduzY0f+KMVoC79SvvvpKjwFekBCWjzrqKDnttNPkhBNOiFEvoTUDz8n+/fvLd999JzNnzhR4VX744YdyySWX+DSwd+9e+fXXX+XHH38U5EOFCAhRsFGjRtK4cWOdn7NOnTo+62AGoXRtYRHbC0N7zz77rJ62/1188cVSo0YNu0hPL1u2TKZMmaK9eRFqd+vWrVKzZk3dP0T5rl27SqFChXKtZxds2rRJ3nnnHacI9SGSxkt8Rvunn366znl8/PHH635nzJjh9B9sYsuWLU4VcHYbxo0QxtgXEF6x77AvYJiHIAvDOJCv1raRI0c6YYxRjrDVCK0cD8NYEA4bx89ff/0ltWrV0nmLe/bsKVWqVMnVJUI7//vvv3rcN9xwg6SlpeWqgwJ4+r744ot6Wd26daVHjx56+vnnn3dCQyNksTEc4zhubEMOZXiMexnGjfN09uzZ+lyFNzH4NmvWTHCcQtgOZL/99psWvbEtGEeZMmX09iJnM851s68CtcFlJEACJEACJEACJEACJEACJEACJEACJEACJEACJEACJEACOQQoyOawSPophHadMGFCrnGee+65cRdkIZI9/PDD2pvRHgCES+RV7du3rwwcODBuIqHdpz0Nr00IsjDkeXULsmeeeaYWlex1MD1v3jxdBIHvsccec7wwTb3p06fLSy+9ZGadT3hmepWffPLJuQRZCHQPPPCAs66ZgFenEXs/++wzHcIXIYH92Zo1a+SFF17wWQwP4WDCms8KYcxACHX3F8bqkpGR4VTftWuXM21P2KKtLWRDtEZ+WVjTpk2dnLOYxz5DqGPbsJ/iYRA1H3roIXn//fed5pG3GOIo9isEVYzPNuxX5M2FYVnnzp3txc40wm2bYwjCrTGEdsbx5TYIpPizDd7xXoLshg0bdAjvn3/+2a6ucy5/+eWXeuzDhw/X4qxPBTWDvgcMGCBff/21e5Ge//bbb+W5555zzh3PSiwkARIgARIgARIgARIgARIgARIgARIgARIgARIgARIgARLIRYCCbC4k8S9Ajk4v4cX0XLhwYU+vyeOOO07njDX13Lk3TXmsP8eMGSNDhw7VzWJs8J6EV+7GjRt16FmIa6NHj5YSJUrILbfcEuvuA7b3n//8x1kOjz63HThwQBfBu7Fly5YCb1h418LjdfLkyQLB8NZbb9UCJLbLWPPmzQXhdo19//33ArEQ2w8PSbdVr17dXeR4O8IjFAIaQuuiHnihb3gcQ+CDuApPz/xi7du3196h+/fvl/fee097ZZYqVcrZPIiL8+fP1/PgAg9MYxAUjcGj0xjOF4jb+IRX9t9//62n4T0cD9uxY4cWY9PT07UXNTxiIXLOnTtXHwfIaQzPZ3u7cFwYQRb7058ga3sAX3DBBc7w4b2KHLswbBeOERg8U7HNttWvX9+e1dM4li+88ELteYwCHOvwnIdwj/DO8PSFlziON4jCFSpU8GkDYrcRYytWrKhDgMObG965S5YsEXjow0OcRgIkQAIkQAIkQAIkQAIkQAIkQAIkQAIkQAIkQAIkQAIkEB4BCrLh8YpJbXiaHX300X7buuOOO+Tqq6/OtRwCoS0SfvHFF06uzVyVY1QAYQihVGEQzuDZh7yixm688Ua57LLLtNCDnK7w2oP4mVcGUQkCK4Q6eJLCsxEensY6deqkBeQOHTr4lGM5vHshrEEgh5BmC7Lt2rXzyX0KT0YIsiVLlpTBgweb5gN+QsxCDlTsM3eIW4TZRdhheMrC8xNiWV6HfQ44+CgWYrshnsLzGAIgvIcR6hYiPkRMhNLFfkLI60GDBvn0ZAusttfw2LFjddhg7OtHHnlEs4N4awu4Pg3FYAbHO44Lk+8Z3qPYbxMnTpRt27ZpwRae4cYgkuKlCYR3/umnn7RndtWqVc1i/Qnv32nTpunpE088UYevNhVsFjgmjCDbpUsX7YFu6vn7xLmJMNCw7t276+MUL0kYw0sTTz75pGzfvl2H3R4yZIhZpD+xXcbgRWvCVZsyCLPw6KaRAAmQAAmQAAmQAAmQAAmQAAmQAAmQAAmQAAmQAAmQAAmER6BweNVZOy8IQCBMFoPIs3PnTj2c+++/30eMRSGERnjcwfbt26dzT+qZPPoHj1UIezB4w7oFOohO8BK0RVozNHhnGtFpzpw5Pt7Hpk40n6eccooWZN1iLNqE1ywEWWPwYMxPBk9N5DGFOI+cqXh5YNiwYdpTE2IshPKPPvooVz5SeF0bM4IshHAIhLArrrhCv8xQrlw5PY+28RcPwzYYMRbtQwy+5557tJc05iESu814T+MFgfHjx7sX6zJsP8z2js1VMcwCCNnwZIc1aNBAhxe3xViU4+UDIxDDS9d442IZzOSthdcvhGW34Tzr3bu3u5jzJEACJEACJEACJEACJEACJEACJEACJEACJEACJEACJEACQQjQQzYIoHgsbtiwoWfYW9MXhMJksT/++MMZSqVKlXxyWRphqVq1ak4dE4rWKciDCYRkNZ6V8Fw0opO7ayyDF+3mzZsdz2KIbDCIuQj5aofPda8fzTzEL3gvon8I1zCMwxi8D/0ZQs8+/vjjzmKIy/DUTWZbvny5DgW9atUqz2HCSxyiKjxp09LSnDpG/EeBERRN7mKIuwgvDbO3H+GF7XldIQb/kJvZbTjWIVbCuxohshGW2R4/whQ/+uijgjFB9Ozfv79PE0akxbZDlI6VLViwQI8F7eF4sQV+c55iGcIfw/MWxzvCdtuhkJHLF8fn7t27dV5oiK/m/MC6NBIgARIgARIgARIgARIgARIgARIgARIgARIgARIgARIggcgIUJCNjFtUa9WtW1d7q0XVSB6tvGzZMqenfv36OdP+JpYuXepvUdzKbTHT7Y0KcQl5TN944w0nnKu/gbg9Bv3VC6ccnrcvv/yyDtUbyPM5UN/wFO3Ro0c43Sa0LjwtL7roIh3WF4Iewm9j/MhLunjxYu3tCkETHrIQpUeOHOmM13g7owDiLMTDb775Ri+Ht7MRaSGeGzPesmY+Vp/+Qm+jHOOH0AnvXQigxjA+CLnvvPOO4FyAMHrsscfqxQhljBDOsG7duvkIubowin/2eYqw0PgLZhifLchCTJ45c6ZeDTmjX3nlFWnTpo20atVKi9DIq+zlaR6sHy4nARIgARIgARIgARIgARIgARIgARIgARIgARIgARIggYJOgIJsQT8CAmw/vPyM2AlhLSMjI0DtrEX+vFODrhhhBXj6wfMVhlCrtqAHMfbyyy/XOVpN8wgVDNHWeDUiRK4R9xBmNpaGfJt33nmn442LtiGuYowQttCf8SANJMjGckx50RbCXJt9gty7yDNsDN6lyMt63nnnaXEWnrIQKk2IXHhhG4MH6scff6xnUf+kk04yi5z24dFcvHhxpzxWEzhOTMhkd5u2FzW8nm1BFnUR6hiCLGzcuHGOIGu8Y1GOOrE0I/SiTQjf6enpQZt3c0MuaJwL2D/IMwuv80mTJuk/NAYhGnmBTZjvoB2wAgmQAAmQAAmQAAmQAAmQAAmQAAmQAAmQAAmQAAmQAAmQgCZAQZYHgl8CEDghxEI4rFevnnz++ed+6yZqgZ1z1C0Yv/rqq44Y27JlS7njjju08Gd7+d13332O6BfLbYCwNWjQIC3GguFtt92mw1Tb3pwID3vqqafGstukaOu3335zxuGVcxRi5yWXXKLznKIi6htBtnLlys66RsCEwHj33Xc75fA0hmAIswVcp0IMJiCQQ+wvVqxYrtZs4R7hst3WrFkzned27ty58uWXXwqOMRhy6sKQl7ZJkyZ6Olb/bJH4wQcflLPOOivspnGcXn/99folBngvw1v2l19+cXJI4+UBeDvjeyAzMzPs9rkCCZAACZAACZAACZAACZAACZAACZAACZAACZAACZAACRRUAoUL6oZzu7MIQHTyZxBoateurRebHK3+6iaqfOLEiU7XZqymAN59MHg6mvCrthiLZStXrsRHzO2HH36QvXv36nYhciHcsy3GYoHxjo155wlu0GwX8rr68zK1xXN4whpzh5xG+b333uvj+Txv3jwtlmKZV32Ux8L8HfOBXgIw/SJkMwzCPI5DhF42+XF79uxpqsXsEy9MGLPHZ8rC+YS427dvXxkxYoRMnTpVnnrqKUGYdRi+LxACnEYCJEACJEACJEACJEACJEACJEACJEACJEACJEACJEACJBA6AQqyobPKNzXhcWjszz//NJOen0aI2bJli/z999+edRJVCE/Jt99+2+keXpe2Ib8nDCFlvYRBeFnCizEUM+FdIbLaHpL+1jV9Yzk8Ir3s559/9irOVQbuJ5xwgvN34oknyp49e3LVS5aCChUq6KFgjMaT1T02hPo1ZupjHgKr7T3avn17Oeecc0xV/fnTTz8581geL0OeWLdh38+ePVsXQ3B2i+ym/tlnny1YDkPYYvzBkGMWy4KZOd5Qz4TUDrSOOU9Rx/ZQDrROKMtMTtxHH33UqZ6IPNFO55wgARIgARIgARIgARIgARIgARIgARIgARIgARIgARIggRQkQEE2BXdatEO2PUm9RCe7/e7duzuzw4YN88mH6izInli0aJHjBeheFut5hPu95pprxHhXIuRthw4dfLox3pPwqLQFUlNp1KhRIYldqF+jRg29GgS5hQsXmib8ftq5dJEn1W3r16+XN998013sOb9//36dyxf5fPEHcTwUUdizsTwobNy4sdPLu+++60ybCQjpH374oZn1EWBReP755zvLjKhpCiDwfvDBB3oWHtzILRsvgycoxmrblClTxIjJgcJNI5Rxly5d9KoQSI343rlzZ/EKc2z3gWlzvGE6lJcGmjZtKob7119/LXPmzMGqnoaXCnBOuA3nlD+zx2OLxf7qs5wESIAESIAESIAESIAESIAESIAESIAESIAESIAESIAESCCHQJGHlOXMcipeBDZs2CDvv/++br5+/frStWvXsLqCELV582YteCL0Kf7GjBmj26hVq5a0bt3aZxmErMKFvfV2hCRFCFWEZF29erUWi+AJh1CnCOELrz8jujRq1Egg2kL4XLZsmfa+Q3jU8uXL6/ZR/8cff9T5QJ955hk5/fTTpXr16mFtm7/Kf/31l3z//fd6McaH7f/ss8/krbfeEvT1zz//6GUY65NPPukjYmHBrFmzBCLxkSNHZPny5QKRFGODOPv000/7eNei/lVXXSXIm+tl2H9gBpsxY4bAyxhC6bZt2/S40tPTBblRjWF67NixehbcwByiFvYJxDmEMYawagxetP4EPoi3RoQ09fv37y9paWlmNuafODZwvMIbFH84BrA/YNgGeG2aZSizBTvwhigIAyvUhwcn9tOSJUt0bt1p06bp5fCOveuuu3y4w6MZYjXEUOxjCIgog2cmvq6MmNixY0fp1auXbidW/5AfFfsLBoFyxYoV2sMZrHEsYqwmzPcTTzwRMGQyjpGPP/5Yt2X+IZ9szZo1zazfT+Su/eSTT2THjh362N23b5/OZwuvY5wHmLfzxoJxw4YN9TpoFNsB3tWqVdMCMNqZP3++vPHGG3LnnXfq/dCtWzef/k855RT57rvv9HEM0Rh/OL6x3Y899pjgOIQhnDHy5NJIgARIgARIgARIgARIgARIgARIgARIgARIgARIgARIgARCI1BIiSdHQqvKWtEQgIhkPP/OOOMMef7558Nq7u6775bx48eHvM5rr70mJ598st/6EAWvvfZaR1yyK7744osCccYYxMwbb7xRFi9ebIoEuVi9Dh2IeC1btnTqRTMB78rBgwcHbAKesQinCsHPbRg3PHxNLlcsh1el8S5FGGOExzVewsiXWblyZXczeh7rnHvuuVrI8qoAAfH444/3WfTAAw/4CKlghj/jddmpUydHuISw6G9bIYReeOGFPm1Pnz49JE9Ln5XCmIHYevHFF4e0xtVXXy133HGHT92BAwfKl19+6VPmPmYw/8ILL8hpp53mUw8z33zzjQwYMMDz+MRyiI94IcHf/kKdSOy6667ToiTWhaAK8dPLEB77wQcf9FrkU4Zwy+a8wYsTEKqx3aHYhAkTtHjqVbdt27b6xQT3MvAcOXKkc4y7l5v5du3ayauvvmpm9SfOJTs8MkThgwcP+pznLVq00GI5XpCgkQAJkAAJkAAJkAAJkAAJkAAJkAAJkAAJkAAJkAAJkAAJhEbA24UytHVZKwwCEAKNwZstXAt3nWD1TzrpJEFIVuTgdIta9lgxzszMTJ0DEyGCjQepW4yFJy1EW3jPxsrc44CQBU9MjP2yyy4TeCgih2xdDzHWjBvCNMQ7YxBW0U6DBg20oNe8eXOzSHtyOjOuCYwFYXbvv/9+wba6BSkv3vfee6/2JjTbAWYQY+F5iPE//vjjjjhn6ri61bPutjH+UEU9r/ZCKXP3GWgdr7E/9dRTWmCuVKmSs6p9zEBQBE8vMRYrwNMa4qIdXhvl8DzG/ocA7j5usTxaM9sCD/DRo0dLRkaGT5PY7xCbQxFjseKZZ57prN+jR4+w9hs8WOEZDVEX4zFjQ4P2tNOBmsA5iBcZ4MHqdYzg/EXY5D59+tir6WmMz+YNT2Czz+BxDw9yiLjuYz9XQywgARIgARIgARIgARIgARIgARIgARIgARIgARIgARIgARLwIUAPWR8cnAlGAAINQrkiFPDu3bt1CGB4/pl8rcHWT8RyiLAId4s/CEvw8oN3bF4Z8r6CF8IeI88nQlaHI3jm1Tjj0Q/YIyw2Qv+CA8L1IvwwvE9DNYTShscuQmlDQM9rQRBjRx5XjBse1XZo6mDb0Lt3b+2Bjf0Nr187tHOwdaNdjvDG8M7F+HG8o29sQ7BQ1zi/EaIcxyu8ZLHP8FKGeRkj2nFxfRIgARIgARIgARIgARIgARIgARIgARIgARIgARIgARIoaAQoyBa0Pc7tJQESyBMCdphyeKK/8soredIvOyEBEiABEiABEiABEiABEiABEiABEiABEiABEiABEiABEkguAuHHzk2u8XM0JEACJJB0BCDGDho0yBkXQlTTSIAESIAESIAESIAESIAESIAESIAESIAESIAESIAESIAECiaBogVzs7nVJEACJBB7Ajf/f3tnAW9Hcf3xCQQJUoKkUCzB3SF4IWiwQoHiWqxAgOAUd/fiwSWQQJDiRYMEKVCcEooGKQ6FQoFA/vnOn7PM27f33bs7e+W99zufz31rI2e/Oytvzpwze+zhXnzxRR/W20rv37+/W2mllWxTSxEQAREQAREQAREQAREQAREQAREQAREQAREQAREQAREQgW5GQB6y3eyC63RFQATqR2DMmDFtjLFLLbWUu+CCC1yPHj3qV6lKFgEREAEREAEREAEREAEREAEREAEREAEREAEREAEREAERaGkCmkO2pS+PlBMBEehMBO655x736aefusknn9wtuuiibpZZZulM6ktXERABERABERABERABERABERABERABERABERABERABERCBOhCQQbYOUFWkCIiACIiACIiACIiACIiACIiACIiACIiACIiACIiACIiACIiACIiACEBAIYvVDkRABERABERABERABERABERABERABERABERABERABERABERABERABESgTgRkkK0TWBUrAiIgAiIgAiIgAiIgAiIgAiIgAiIgAiIgAiIgAiIgAiIgAiIgAiIgAjLIqg2IgAiIgAiIgAiIgAiIgAiIgAiIgAiIgAiIgAiIgAiIgAiIgAiIgAiIQJ0I9KxTudHFfvrpp9FlqAAREAEREAEREAEREAEREAEREAEREAEREAEREAEREAEREAEREAEREAERaCYBecg2k77qFgEREAEREAEREAEREAEREAEREAEREAEREAEREAEREAEREAEREAER6NIEZJDt0pdXJycCIiACIiACIiACIiACIiACIiACIiACIiACIiACIiACIiACIiACItBMAjLINpO+6hYBERABERABERABERABERABERABERABERABERABERABERABERABEejSBGSQ7dKXVycnAiIgAiIgAiIgAiIgAiIgAiIgAiIgAiIgAiIgAiIgAiIgAiIgAiLQTAI9m1m56hYBEchPYNy4ce6bb77xGSeddFI34YQT5i8klWPs2LHuu+++cz169HCTTTZZ6qg2RUAERCAfgffffz8zQ58+fdxEE02UeUw7RSAkoPdSSEPrIiACIiACIiACIiACIiACIiACIiACIiACnZ1AlzPIfvrpp+6tt96qeF3mmWceN8UUU1Q83pkPfP755+65555z77zzjvvwww/dVFNN5X7961+7+eabz3HenUEuv/xyd9FFF3lVb7jhBjfjjDN2BrUL64gR9NVXX3Uvvviiv2ZcpwUWWMDNOuus3jiaVfDo0aPdtttu6w/ts88+bpNNNslKlmsfzK+88kqf5/bbb3fTTjttrvxdOTHPE64TgvF7zjnnrHi6r7/+usOIMMEEE7i55pqrYrrufqC73efd7Xp/8sknbsMNN8w87TPPPNMts8wymcc62tmd28yKK67ofvzxRzdw4EB3+OGHd4SppY/xfcLzkW+wWr5J9F5q6csp5URABERABERABERABERABERABERABERABHIS6HIG2QcffNCdcsopFTGcccYZbtlll614vDMe+OGHH9ywYcPcpZdemnhOps9juummcxjvVllllfShltqm0/mnn37yOtmy3gpixL/66qt9NSuvvLJbZJFF6l2lLx8jLNfkP//5T7v6Fl98cXfqqadmeqviIWsSrtu+2GU9yozVKSv/HXfc4V577TU3ySSTuD/96U9ZSUrZt9tuu7nPPvssKWvIkCFuoYUWSrbDla233jppvyNHjvS6hcfLWG9We0X3supuxn1eBnuVURsBPO3Lls7WZsq6V+CIEZPnMgw6q/C+22WXXbz6a621ljviiCNynUpneS/lOiklFgEREAEREAEREAEREAEREAEREAEREAER6FYEupxBtltdvZ9PFsPdLbfckpx6r169vGfsxx9/nBho8Vh64403Wt4gm5xEA1dgc+211/oaCafZCIPsk08+6Q444AD3v//9z9eL5yUezWb4e+aZZxyGwLPOOsvvbyCOTlPVAw884B5++GFvtK6nQTYNBE+90047Lb27YdvNaK92cs2s23TQsvUJ4GH/+OOPJ4refffduQ1wSeZOuqJ7pe2Fu+qqq/wOjPUMXJGIgAiIgAiIgAiIgAiIgAiIgAiIgAiIgAiIQHcjEG2Q/frrr32IYDwwZ5hhhqbzW3311d3888/fRo8rrrjC4TnbFeWRRx5JjLFTTz2122+//bzR1TyUPvroI3fnnXe66667rlOc/rrrrusWXXRRr+v000/fKXQuoiRGdDPG/v73v3e77767D+NIuOl9993XjRkzxv3zn/90w4cPdzvttFORKnLl2XTTTd2AAQN8mORpppkmV97ulvjRRx/1nrkKSVz8yneX+7w4IeVME+jObea8887znvd8Z3VGIez7Qw895FVfbrnl3Oyzz17Taei9VBMmJRIBERABERABERABERABERABERABERABEegkBKINsnS04QnC74svvnDzzjtvU0/9V7/6leMXSmftxAzPodJ6aGg+6qijXP/+/dskZQ5Z5hvdbLPN/PVpc7AFNzDCdmVDLMiff/55P88v64S+xYiOhyzC3LF4X26++eY+POVtt93mdthhBz8nqU9Qpz94tGne2NrhMt/uMcccU3sGpWxDoDvc521OWBvRBLpzm1lsscWi+TWzALxjLeSwzX9eiz56L9VCSWlEQAREQAREQAREQAREQAREQAREQAREQAQ6C4Fog+wUU0zhjbGc8L///W9/3s02yhaB/91337mnnnrKPfbYY+69995zeJb27NnTe3LMMcccjrlFZ5555nZFX3/99f78J510Urf99tu3O2478HjEuIYss8wyLuxgLVo3ZTEvGzLxxBO7pZZayq9n/WGezWqGTjpM77vvPvfyyy/78MYffPCBN9JhJBw4cGDiuZoun/ntLr74Yt/huvDCC7vll1/e/eMf/3A33XSTe/vttx1z3M4444wO7+XVVlstMT5SzjfffONuuOGGdJF+e6ONNnKTTz555jF2Moco5dMGt9xyS7/NNXz11Vf9tcLY+bvf/c717t27XRnoi14IgwlM8H788ssvbdMvZ5llFod3Vlly6623JkWtueaabXhwAN54eb/wwgvuww8/9O0ybWhPChi/AoO//e1vjjDH8CTv0ksv7dtsmC5cJ5wo1ygteFZvt912jvZcTbhPaC/M4/r666/70Mpzzz23W3HFFd2SSy5ZLbtvL3naG/qGYVAJwY1w/5x//vnt6ttwww2rtvl2mars4NmG5zJ677zzzo62kVc4hyeeeMJz+/zzz/31xtuWe4z7JEvKaK94X+NRz/1Nu2Lu4t/85jf+GTfffPP5e9M860Mdyqg75j43Xbgv//rXv3puDASijcINj3qeLVnCICELR77CCiu4fv36+WvHvUK75fx5Fm+xxRbt7sN0effcc4+jXhNCm3d0X1q6mGXMuyHm+chk2BtGAABAAElEQVT7b8SIEV513n2wJuww9+D333/vnzE85/F2rJeU0WbQ7d1333WEN+d5wY+5yWeaaSbHu2q99dZzU045ZbtTaOa9gjJ8h9A+0zLnnHPWxLzZ90qoN22JtoNwz8C9kpTxXnr66af9twDfL7zb+T7AsLvAAgv4dxPfc5WklbhV0lH7RUAEREAEREAEREAEREAEREAEREAEREAEOi+BHuONcONi1cdAYcZYyiJ0caxR9tNPP41VK8lPeFgz+p1xxhlu2WWXTY7ZCga30DBn+2052WSTuUMPPbTdHKxHH3207/wjHaGR55lnHsvSZvmXv/zFXXPNNX7fmWee6Y2ylqBo3eQnpB8GOQSvPQxiRYRO6+OOOy7TSGfl4bW511572Way/O9//+tWXXVVv0343cUXX9wddthhyfFw5aSTTnIrrbRSsot6N95442Q7XOGaZRnBLc2gQYO8sZJQzRhbQkOnpSE/Hqd9+/a1XX6JMeHHH39ss6/SBgabLINfpfTV9mP8MWPisGHD2ulGfoxg/BDmR8VIasL9ZtsYnEeOHNnOiExa2saee+6ZaWhiblozVFm5tmTgQDWv8ttvv91xX3377beWLVli1OMcd911Vz+oITkQrBRpb5dddpm78MILg1I6XiXMJ20xVtZee+1kbt8TTjjB/fnPf/ZFwv7ggw9uUzwGKgw+CNeFgRAmGLK492+88Ubb1WaJ4YBnDAawtMS215tvvtmdeOKJ6WLbbFPHkUce2c5AFVs3lcTc5+RncAJsMCRnCYMADj/88Ha6c5/RFhE8zTGE2yCWsBzaCc9o81QPj9k6ocQZsGFS6Xlox8tYxrwbYp6Pzz77rH/ucA4bbLCBN2J/9dVX7U6JQUgMTMgy5IeJwzlk0++/MF24Httm+LThHXLOOef4QRth2bbO/cn9GEYHaPa9gm7ch3fddZepmSwZwEMkjI6kFe6VUL/wXcO7mOdJJQnTptNUey/xPj/kkEM6nJ5iggkmcKNGjUoX7bdbjVumktopAiIgAiIgAiIgAiIgAiIgAiIgAiIgAiLQqQlEe8hy9mZ8NaOsLW1/ZyCElyeCh9qCCy7oPWjonKdDH8MK3joYX04++WT329/+NjklvNrwRELwUswyyNIxjHcVwvycaU/WonVTHoZGM8gSFhBDKN6yeQTjNwY+5gNG+vTp43XEiwgvEwuxm9Uhn67nzTffTDqS8cjFo4fzHz16dKbBGyPUGmuskRSDVxBl5BG8DDHGUhbGLAy0GF6ok059DBN0uk800URJsRiOzSD72Wef+WvMQbxo0kbttDE3KaTgCvoidA7jDZslePKZdDQ4AY9BBL2XWGIJz/j+++/389Ni7MXQsM0221hRyRJPJZvDlp1cY7xcaxEMuXScI5wD9wPXGY7UjVcigw8wdmCsSUvR9oYXJ9fNBOMY3lfosP7669vuZEm47rIFHfA+pn0xN/OOO+7oaq0Hg58ZYxngwcAE7rVXXnnF/f3vf/f330EHHeQN8TyDQoltr/aMweufAQa0O+5PrhXPN7yd4cm9wsCSUGLrpqyY+5yBMuiFtyjCNeAceCYzLyXt7uGHH/bPPox9leSSSy7xh/Agx0uPfHg68xzAYxYvSjz4W0nsuuV9L4XnUOT5GObHQInQJjFcc8/BiuvBIAkGbxDNoGyJaTPowoAM3okmeDPzbMd4zLOOe45zMMaWzrabda+gB89nG9jBNt8WtUir3St44Vv7Yd7Yah7VMe8l3ncPPvigx8Q3AF7zeMDj9co3EoZYe4akWbYat7R+2hYBERABERABERABERABERABERABERABEegaBEoxyILCjK9mjLWl7W91XBjyMCzhPZv29iFM4+677+47SIcOHdrGIIsRDKMXRqZ7773XGw7S+Z977jnfiQ2DdMhe9hWtm7x0OmKUQDD6ouuAAQP8eRCyNysco08c/Dn33HMTYyy64IlGZ7gJBovrrrvOn6Ptq7TEswqDMPOihp6vdHITwjgdNplwwngZm2A0GTJkiG3WvOQ8OQ8zpu6yyy7ekxFDzccff+yNxISnNEE/E0IcY5RC8PQ1jzo7XuYSlhjBEMIxp9uK1RXyNwOuHUsv11prLW+MwjCJYEDbY489vMGV64anbOipSRquMz8TjBe1GGQxYpnnLjqefvrpbUJQ4oUIewzhGGXx8EuH4S3a3gj1zc9k//339/cV4VQPPPBA2133JYMXMMgS8ppz3HvvvavWSYe/Gc+Z4xrjbDh4A+92rgEC37RhMba9YpjAeEzbCL0BqW+33Xbz9yvhQrkXCPsdhpyOrZs6Yu5zDMRmSMErGaO1tXU8NDHWEhIe/fF+TRuzqd+Ee5t7w+477gHzcsbru9UMsuhX5L1k52vLvM9Hy2dLuOMZbtwYADF48GB/XbgH8KLtyLvYysmzjGkzGOAsAgDPKTxOiaIQCuGnidiQ1rvZ9wo6cp/yM+HdXkswk1a7V/BQtigKW2+9ddJ+7LzSS9o7P5Na30ukZzCQCdE+0tERMMxa6GRLZ8tW42Z6aSkCIiACIiACIiACIiACIiACIiACIiACItC1CExQ5ulgfA1DzGKUJbxqZxA6+fHesA7nUGe8saxz76WXXmrjuUJnrs1fSDhNPA3TEnq3EHIwLUXrphzqxkvXBMMP89rus88+3vMU4wOdkOYNaulsiTcqnn4Ink4YR0NjIPs5R+ZoJfxtLYLhJzTGkgdvoz/84Q+J4b6WcvKkYb5QM8ZafRgM7HpayOo8ZdYjLcZY61jvaH7c8Bp05CGL1y/naQYqdMYQj5EWMS9Av1HCHzquCVGNEMI1PR8gxj5CuSIY0cx73O8Y/6ce7c3KbtSS5wGMEby/zMDeUf2kM6PiJpts0sYYSz68mM0TG8Oieb13VGaeY4QJ5b5MG2Mpg3sTI7MJoTtbRWBmhuxevXp543fY1hngEXphDx8+vKLqRCcg/Lc9E0i4yiqrJAMG3n///Yp5m3Ug5t0Q6hzzfGQwB8/+kBv3gIWph1ulMLChDo1cZ1CPebrSPtLGWHQhCgGh6NPh2XWv/H8kj9h7hXvX7kfu0zASRj3aAgOvEJ4TeNqmZaqppnI8e9PS3Z8xaR7aFgEREAEREAEREAEREAEREAEREAEREAERqB+B0jxkTUVCl2JMMkMsRlk6/NnfWYQwexhX8Uw045l50eAVR6jM0GCGkRVPRARPlrAzEEMo4R2RWWaZxYeW9RsV/uStm2KOHO/9QzhGdCBMrwm6E5aRHwahY489tp1BBo84O0cMaXnDHVtdtoRLVqenHa/XMsvQTchlwpu+/PLLDm+oVhALC40ueHZWktD4QZurJITPpaM5LRjq8UhGyjx3WJoQFvLpp5+2zaQdEYbXJGyP7Cu7vVk9jV5iwMQgTWc+9x3Gi47knXfeSQ6HAyiSneNXMKJfcMEFfhfpzUAbpiljHUMVxgueceiPhEZlPMlaRXh/mI6EeMbYkhb2cy8RgrsjQzbe1VnPN57LGBXNoJMu37bxrsWAazLHHHPYakOWRd4NpljM85GBSuH7zsrEm9gGXPCMYR7fVhH7/uDZiPduUdG90pZcrfcKuRhIYc8VBnTZN1TbEsvbwujLMw2PXAzBfIfUUmcrPWPKo6GSREAEREAEREAEREAEREAEREAEREAEREAEWpFA6QZZTnKGGWZwdHJZZ5wtWxGA6UQnHvM7Ylyp1jFvnjeWF6MfczJiRCFsHiFMrSMQY6iFnM3qFKeMmLpNh7XXXtvxwwMRIxmhi/G0M29Gto866ih39tlnWxa/DA1Fc801V5tjRTZmm222Dg2NRcqsJQ/G1ywhXC5GRIw6XAeMiM2U0Hhq1yZLn7CNMd9oJenovC0PndRlSdhe8MytJmF60obbZbS3avXX6zhedOjPnMcjRoxwhOPsyOPZvC/x7iQkapaE15K5m8sWwvkSGvmRRx5p4+Wfridse+ljjd4OOYTRF0I9MLJijMEYa5zD47Zeaa5fQkgj4ZzKlidcEp6+0VLGuwGdw7YVnkMtz8eO8lpZvO9bRRjAYu2GQQ1ZRvhquupeyZ5/u9Z7hYFohLJGeOdlzfFd7RrkPY7HtkUoYY5z5g9edNFFfQhzBskxd3Q40MnKt7bCdrOfMaaTliIgAiIgAiIgAiIgAiIgAiIgAiIgAiIgAl2TQF0MsninhEbYSp1crYKUTm883PDeM8Grl/Ce1plL2Fg8Y5Gs8L8YWwmTSIhYDKJ4rCLVwhWXUbev6Oc/GET5ETKYjmk8YzHCsv7kk096Qy3hJk2Y69MEQ3qsVDI2xZbbUX5CaqbnSLX0oWfXRx991BIGWYz1tKHQW9b0tWV4rCMjcqVj4f5qAwyszmpLdDLvSc6hlvaSDgdadnurpnM9j2+77bZ+vuWvvvrKG2UJO1xJaHsI82LaYI102vCaWfp0mqLbhC3Hk9684SmHeUUxlmCkoD2aMTPr+Va03th8IQdCDlcS2GGQ5Vow+CLredCRwZxyQzaV6mnk/rLeDbHPx7Bdhudvxjn2hdcpTNOMdYzD1oZreUalddS98v/zm6e5hNvV7hUihZiRnqkKsu7HsLwy1vnm4Rtt6NCh/jnAtxgD5GxuWQYfHHroocn0E1Zn2Ha72zPGGGgpAiIgAiIgAiIgAiIgAiIgAiIgAiIgAiLQGAKlG2QxxlpHHKfAvLJFOkXLPP2ffvqpw+LwpDBj7IILLugGDRrkww6H3hTHHXecu/XWWyuWYwZZEmCExSD7/fffu5EjR/o8eGcQ7i8tZdSdLtO2mV+UzlC8Y61TkvMMDbKhwbIjj00rs9qymtGjWv4ix/Ho4xqHc0taOdYxz3ZWuFNL16glbQoDB3P9YnBBvywDHYYlk6x5P+0YZWRJ6O0XXuOstLXug58Zk/EIv/baa2vNmqQLdSmjvSUFN2FlwIAB/p4eM2aM96zfdNNNK2phXs6VrhcZLTQv62W2VYwUxx9/vDc4cv0YfILHWmhQw4u6EV5snFseMW7kCdt0ugw7xvnx3OsKUta7Ifb5aGzTTMNQ6mW213Q9ebfDd1DeZ4zulby026fHWIsnPkIocb5BGiHc+9tvv72vj3DJeMsSocTaAANO9tprL2+wDb/FuvMzphHXRXWIgAiIgAiIgAiIgAiIgAiIgAiIgAiIgAj8QmCCX1bj1uj0feqpp1rOGMtZMfeeSWiEsH1mrMRj7IwzzvBh7kJjLOnee+89S565xAsYYy6CEZbO6lGjRiWdgZXCFZdRd6ZCwc5w3kPzgrPDGNZM0sdsf6svMWqGHtmhvnjJmBDWtBUkNLC+8sormSrZHIgc7Mhrx8Jhpwupx3nT4W3hSyvVm9Yjvd0V2pudEzwIVYzAu6MBG+Y5jkG2klE29GS29FZXzJLnkBl7MVigc/o52Kr3fjiYh0EMlcSOcY9nDcyolK+V95f1boh9PhIdIkvCZ0x4nbLShvvqHRKb5yXvciRvu9a9El6pYuswfOONN3xmBnmEYfqLlZgvF4N+mO/5xBNP9HMcM1WDvXf4LrO51a3UsO3ac8SOhUs71pWeMeH5aV0EREAEREAEREAEREAEREAEREAEREAERKD+BEoxyNLB+uyzz7YJwdpIz9hqHrDWkQbOLKOchazDqGoduSF6vBVDA1l4LFw3oyvpH3vsMUfYPgTDzWqrrRYmTdbLqjspMGOF8MsmFoLZtq2jkm3T1451piVewGmhXb700kt+N16plcImhvstLHW6rDK3LZw1ZeLBkyVPPPFEsnuZZZZJ1tMrWedNGu5Hk7DD2fYVXZpnEQbw119/PXcxZbY3u24YG0NP6NxKRWRYa621nM1NevXVV1ecmzW8BoQ0z5Jnnnkm2d2RQdbOm8S1tFd7xpCe+a6zhHDmtUjeumsps6M0IYdK3AhVbM/4kHNH5RY5RshnnvH2u/jii4sUU3Meu26x7yUqzHpO1Pp8zMpLmeEzJuu9ShoTQnWbMKd3vcWeU2+99Zaf57nW+ow56XWv1EqtbTrzjuW7A8NoM4XnFffrIYcckqjB8yKUVnrGhHppXQREQAREQAREQAREQAREQAREQAREQAREoOsRiDbINtsYyyXZZ599fBi6LKMM3j0vvPCCv3J0EGZ5G9o8l4TzDTtk7XJfdtllNRk+Vl111ST87C233OIeeeQRX8SSSy7p56O18sJlbN2EtaQurkOWwGTYsGHJoYUXXjhZZ2XxxRdPDEoPPvhgZsc96Qhb+eKLL7LakoLXS3peuwceeCDxnO3IqBkaE2oxvMcCWHfddZMi8KoMPbg5gDH/zTff9GkY2DDnnHMm6dMrhMtNG9O45rQJBE/v5ZZbLp2t8DYGSJPzzjuvHXM7xhIvKQsXafvLbG923Tjff/3rX1ZFQ5eEx91yyy19nWGo9rQSoRF++PDh7bjhHcv9h+C9Os888/j1rD923hyrpb326dMnKebhhx9O1m0FY2b4jLD9Wcu8dWeVkWcfz+s55pjDZ+H5TBjStFx//fXJrqWXXjpZL3uFgTbMoWy/dNsuu77Yd0OoT8zzkWdR2ijLPWce4Xgkh+07rNfWzbOe7XRZlqbM5cCBA31xvBPOOeeciu9Hvg3Me5wMulfirgL353PPPecLWWONNTIHwMXVUDk3YdcrSfjcCgeVkL6VnjGV9Nd+ERABERABERABERABERABERABERABERCBrkEg2iCLIeTrr79OaDTSM9YqxUvs7LPPdjvttJO78cYbvVck4RTp+N1vv/0S7zm8VLPCWaIzgqftySef7PBUo8MZA8tJJ53kjb1WV0dLOvasY/rRRx9NOnrNczYrb2zdr732mjvhhBPcxhtv7DDOYpzDuINhmdCBu+22W9IBTuhAjMOhMMfbnnvumexifejQoe6DDz7wRiPKuffee93mm2/ubr755iRdGSt0ltOJGv5C4yR1h8cqhSVGF8JlH3vssT49HewYY5n3F8Eouc022/j1rD/Mf2heMlw3DI20HQwR/Drq6M0qr9q+vn37uoUWWsgnI6QmbRSP2Hfffdfddttt7tBDD02KWG+99ZL1Sit4/6A3cxZz3Q4//PDEULfCCiu42WabrVLW3Pu5h5ZYYgmfjzp33XVXP+ABgz33DAbiu+++289TineUGZatojLbmxnqKBvvxfvuu8/PBW3XDR6NkA022MCFHoBZda688sqJYZF7lDCaXHsGUmDEYF5X0xdu4byG6fLytte55547KYL5rUeMGOEYqMJ9gvGfMMa1eNpSSN66yRNzn3Pv7rDDDhTjZd999/VtHd05h/PPP9/dcMMN/hiG7EbNV/mzOnVdxL4bQuVino+Uc9BBB7nHH3/ct1Ha7cEHH5yEpbW5lMP60uszzjhjMrCEZ+vOO+/sIzJwL/AL58wmb0ybIf9GG23kZp99dlb9s5X7i/uMdsMP4z7vdvQI3yvNvlfQFxbhe491eCDcp+ljNhirFe6VK664wuuJLhbO3e9owB++UfgGvOOOO/yzle85Bk8Q+pv2apIenNUK3Ew3LUVABERABERABERABERABERABERABERABLo2gZ5lnl4zjLGh/oRCrBQOEe/YP/7xj2HyZJ1OPOZ9paMWr1Z+hBnGwIQQxhgvxVo8ezC+YuQwwRsDY0wlKatujMfnnntupWr8+RxzzDGZhh6MbISfxLDBHGsYt/nVWzAebrjhhhWrwZgcCkbMIUOGhLuSda7R7bff7n/Jzp9XNtlkk6pGyV122cUb9ej4JuSihV2kiMUWW8wbftLlxmxjQMT4zdzEGAr22muvdsXhSYuxryOhfdGBj6EqLQwQwGBatmCcOeCAA7yxlXZDG6ZT24wG1eorq71xr3Gd3hoflhQjbBiWEh0wrOORW2/hGmy22WbuggsuqFgVfPbee2/PDaPKXXfd5X/pDHjG0l6rSZ72ygAA2hEDKqj7lFNOcaeeeqq/ZhbunWeUeeiWWTdlxd7nGPyWX355b4it1NZ5XnMPdWTIrnZerXa8rHcD5xXzfMQLHMPW4MGD2yHiGYNRs5owEIrnHc8p3jE88/iZnHbaaf4a23Zsm6E9MDDlwAMP9AZMojvUomez7xXOn3nsMSpmCR7uaS/3s846y5lneDPvFSIiMAgM4X4tcyBQFousfXg8W0QU2i3G6vC9tMACC/gQxum8zeSW1kXbIiACIiACIiACIiACIiACIiACIiACIiACXZfABLGnhqGSH56X9Zy/ryM96bjGyJMORWd5FlxwQXf55Ze7cP5KO8aS+eYwQIYdiBhjMaL069fPhzycf/75kyxZXrZ2cKWVVmqjx4orrtihkSC27k033dQbNS28pekRLjG2ML+lee+Gx2wdL00YVGKEUXLttde25G2W8IAV0hGbNpnGb9BpnkcqlY1R4Mwzz3RpBrQHjAAYwqoJIS4vueQSR5hFPIlD3cL1auXUepwQnhdddJG/b+g4DoX6t912W29gzKo75LD77rt77+h0GRj2mOPSvMTC8rPWw07rrOPhPtosnlB4HeMxiaTzUy+ejRg4siSmvVl5sLn00ku9kYf60vd/yMnyFFmG5YTrYVl45E0++eTJLu4HuydsJ89IuIXPEjvG9cPLnQEHtRgV87ZX7gE8b609cb0wxqIz9R522GGJvpXO0XTNW7fVafmrLdP1wxEDMgM00teYsphjFWP4Ouus067o8BpU0sPSpOtNF5Y+bvnS6crajn03mB6xz0cM3QwOSfNjjlXC+Ve6x61+W/L+oX0vu+yy7UL4p8tOb1sZlZbpa0M6Bohde+21fjBCVrvBo3qrrbZq593ezHsFvbPOhf2VJEzfzHuFCB32HugoIkWl88jab+VlHUvv4/4PQ2Nj+Lf8RGYgtDzfCVltoZnc0uehbREQAREQAREQAREQAREQAREQAREQAREQga5LoMf4Dqv/j4XXYudIOMq8gocrHod4izK/HwZiOujokK5FMMK+88477u2333Z04OFNgWdRIyS2bi4jXkWEK+Y38cQT+zC8hIoMDUW1nAshqPE6pDzYYaQN59arpYxGpBk0aJAPVYyO5lFEyFzCUWLMYKBA3o79RuidroNQtaNHj/aeXITMRPe8QtvHM4jQwRj8am3zVg9er+Yhec8999Tc7ml3hNDEOwrvS+bqo81NO+20VnTVZWdpb1VPJEcCPD0J985zrt/4QR/88OKvt+DpyLWiXkI+Y0wLDTr1rj+2fIzI3OOcA8817vG8bT1Wh0bnL/puiHk+4vlOmF8Eb3giGfBswasVQxfG2M7EnXZDqGU86eHJdwFtn/dkJdG9UolM+/18czEoBbaLLLKIu/DCC9snKrCnyHuJ9xHfLsyNzUAXpiPgnWqDh6qp0R2fMdWY6LgIiIAIiIAIiIAIiIAIiIAIiIAIiIAIiEA5BLqUQbYcJCqlsxDIMjh0Ft1bTU+8izDSYeRiLlaJCIhA5yYQ83zMMsh2bhrSvp4ETj/9dDd8+HBfRTr8dEy9ei/F0FNeERABERABERABERABERABERABERABERCBViNQf5esVjtj6SMCIpAQwFNz2LBh3hjLTjx0JSIgAiIgAiJQKwGmNMDLn4gUyy23XK3ZKqbTe6kiGh0QAREQAREQAREQAREQAREQAREQAREQARHoxARkkO3EF0+qi0ARAoSBJKwz8tlnnznCHZtsv/32tqqlCIiACIiACFQlMGDAgKppqiXQe6kaIR0XAREQAREQAREQAREQAREQAREQAREQARHo7ARkkO3sV1D6i0BOAh999JGfYy/MNskkk7jBgwe7/v37h7u1LgIiIAIiIAJ1J6D3Ut0RqwIREAEREAEREAEREAEREAEREAEREAEREIEmE9Acsk2+AKq+OIFRo0a5Dz/80PXq1csNHDiweEHdLOdDDz2UhCju0aOHm3HGGX2o4t69e3czEjpdEei6BGKej3jOjxw50sNZfPHFXd++fbsuKJ1ZSxDQe6klLoOUEAEREAEREAEREAEREAEREAEREAEREAERqCMBGWTrCFdFi4AIiIAIiIAIiIAIiIAIiIAIiIAIiIAIiIAIiIAIiIAIiIAIiIAIdG8CE3Tv09fZi4AIiIAIiIAIiIAIiIAIiIAIiIAIiIAIiIAIiIAIiIAIiIAIiIAIiED9CMggWz+2KlkEREAEREAEREAEREAEREAEREAEREAEREAEREAEREAEREAEREAERKCbE5BBtps3AJ2+CIiACIiACIiACIiACIiACIiACIiACIiACIiACIiACIiACIiACIhA/Qj0vPPOO+tXukoWAREQAREQAREQAREQAREQAREQAREQAREQAREQAREQAREQAREQAREQgW5MoMcnn3wyrhufv05dBERABERABERABERABERABERABERABERABERABERABERABERABERABOpGQCGL64ZWBYuACIiACIiACIiACIiACIiACIiACIiACIiACIiACIiACIiACIiACHR3Aj27OwCdvwiIgAiIgAiIgAiIgAiIgAiIgAiIgAiIQH0JjBs3zn377bf+N3bsWF9Zz549Xa9evfyvR48e9VVApYuACIiACIiACIiACIhAEwnIINtE+KpaBERABERABERABERABERABERABERABLo6gR9//NF98cUX7ocffmhzqmzzw1Dbu3dvN+GEE7Y5rg0REAEREAEREAEREAER6CoEFLK4q1xJnYcIiIAIiIAIiIAIiIAIiIAIiIAIiIAItBgBPGOzjLGhmhhlSUNaiQiIgAiIgAiIgAiIgAh0RQIyyHbFq6pzEgEREAEREAEREAEREAEREAEREAEREIEWIID3a9ozNkst85TNOqZ9IiACIiACIiACIiACItDZCcgg29mvoPQXAREQAREQAREQAREQAREQAREQAREQgRYlgEG2VsmTttYylU4EREAEREAEREAEREAEWoGADLKtcBWkgwiIgAiIgAiIgAiIgAiIgAiIgAiIgAh0QQJjx46t+azypK25UCUUAREQAREQAREQAREQgRYgIINsC1wEqSACIiACIiACIiACIiACIiACIiACIiACIiACIiACIiACIiACIiACItA1Ccgg2zWvq85KBERABERABERABERABERABERABERABJpOoGfPnjXrkCdtzYUqoQiIgAiIgAiIgAiIgAi0AAEZZFvgIkgFERABERABERABERABERABERABERABEeiKBHr16lXzaeVJW3OhSigCIiACIiACIiACIiACLUBABtkWuAhSQQREQAREQAREQAREQAREQAREQAREQAS6IgGMrBNNNFHVUyONDLJVMSmBCIiACIiACIiACIhAJyUgg2wnvXBSWwREQAREQAREQAREQAREQAREQAREQARanUCPHj1c7969OzTKYowlDWklIiACIiACIiACIiACItAVCdQ+kUdXPHudkwiIgAiIgAiIgAiIgAiIgAiIgAiIgAiIQF0JTDjhhG6aaaZx3377rf+NHTvW18ecsXjF8pMxtq6XQIWLgAiIgAiIgAiIgAg0mUCPTz75ZFyTdVD1IiACIiACIiACIiACIiACIiACIiACIiACIiACIiACIiACIiACIiACItAlCfS88soru+SJ6aREQAREQAREQAREQAREQAREQAREQAREQAREQAREQAREQAREQAREQAREoNkE5CHb7Cug+kVABERABERABERABERABERABERABERABERABERABERABERABERABLosAc0h2+BLO+200za4RlUnAiIgAiIgAiIgAiIgAiIgAiIgAiIgAiIgAiIgAiIgAiIgAiIgAiLQLAITNKti1SsCIiACIiACIiACIiACIiACIiACIiACIiACIiACIiACIiACIiACIiACXZ2ADLJd/Qrr/ERABERABERABERABERABERABERABERABERABERABERABERABERABJpGQCGLm4ZeFYuACIiACIhA5yHwv//9z40dO9b17NnTTTrppJ1H8SZrKm5NvgCqXgREQAS6GAF7r3BaE088sf91sVNsyul8/fXXvt5evXq5CSecsCk6qFIREAEREAEREAEREAEREIGuTaBUgyz/xHzyySfuu+++c1NNNZWbZpppav4H8ccff3Sffvqp++KLL3xnL3Ot/upXv3I9evSo6QrE1E0FsflrUrIOib799lv37LPPupdfftlNNtlkbvHFF3dzzTWXm2CC2pyfY/PHnFKZdb/wwgvum2++8erMPPPMbqaZZopRrWreWN3ffvtt9/TTT/v7Ze655/bXjfbeCInVHR25Vz/88EOv7nTTTed+/etfN0J1F8stNn/MScbUPW7cODdmzBhHO3/ppZcc29NPP71bbLHF3MILL1zzc7Ko/txb1Pviiy+6d99910099dSub9++bsUVV3S9e/fusNhm6U77fOqpp9x7773n2yrvo379+nlmM844Y4c68z7i/nzjjTf8+f7www9u1llndbPNNptbeumlO00nHexfe+01b0TlXTrPPPPU/G7IArTTTju5v//97w5+999/f1aS0vc1+tle+gmML7AZ3IqcR9H7/KeffnKPPfaYe/311/1zio5sng+LLLKIm3POOYuokjtPzPO1jHdiboV/zhBbd2z+onqTL6buDz74wD355JPunXfe8d/9fLPZOwXjUr0lRnd0i2lv9T43ld91CfBNcsopp7jnn3/ef4fbma633np+v23z/fKnP/3Jb/K+vuWWW+yQu+SSS9wFF1zgt9daay139NFHJ8eaufKf//zHf2+ZDjPMMIPvR7DtcPnZZ5+5f//7334X38L0GZQh//rXv9y6667ri9p///3dDjvsUEaxKkMEREAEREAEREAEREAEREAE2hAoxSDLKN1HHnnEffnll20KZwPjIAaDjoR/gOh0pVMvFDr1VlhhBW+YDfeH67F1x+YPdWn0+tVXX+1OOOEEh/EgFP6Jvfjii6t2hMbmD+vMu15m3f/4xz/cFlts4Y1U6EHn97777ptXpZrTx+jOgAX+wX/11Vfb1IexZNttt3UHHXRQm/1lb8Toji50ntK2brrpJoeRCtlkk03q3qETyy02vz/Rgn9i66bTabfddvODLrJUWH311d1f/vKXrEOl7KvUZigc74EbbrjBzTfffJl1NUN3OvnpbHz88cfbvVNQEu/Orbbayu2+++5uyimnbKM3bfr00093t912m/v444/bHLMN3ml//vOf3XLLLWe7Wm7JO4FzGDJkiOP9avLQQw9FDZ7AwIvY0sqt17LRz/Z6nYfxsmW96okpt+h9Tsf/Mccc4/75z3+2q5732u9+9zv/XmMQRz0k9vla6bxr/Y6KOafYumPzN0N3BmyeeeaZ7pprrnHff/99OxUwHvEdtMYaa7Q7VtaOGG6x7a2sc1A53Y8Ag8w22mgjPxAiffbpdwv31ldffeWTYegMhcEIdswGsobHm7V+xx13uCOPPDKpnm+sSy+9NNkOV6677jp39tln+138T4XxtAwJOYbrZZStMkRABERABERABERABERABETACNTmRmmpM5b8Yzdy5Mg2xlg6vE3wznnmmWdss91y9OjR7rnnnks6zvHsNO9OKxuv2Syx46EhOE/dsfmzdGrUPkY4H3vssYkxdpJJJvGGBurHCLLNNttkdpCafrH5rZwiyzLrxoBy2GGHNcxAEKM7nSkYgswYS2c1Xs0I//hffvnl7ogjjqjbucTojs4YuRlNP3z48MQYW+T6580Tyy02f159w/SxdTNQ5Q9/+EMbY+xEE03kJp988qSa//73v8l6mSsY9egcC58zlI8ntz2jScNzNEuapfs999zjRo0albxT0A3Dq4WeI+Qu99rgwYPb3Wucy2WXXdbGGEu+KaaYIjlF3mnm8ZjsbJEVjB3XXnutN2YceOCBbYyxLaJizWo0+tles2JdLGHMfY6xn3vBjLE8G5ZYYgk3//zz+/uN9xqeWfvtt1+7e60MjLHP15h3Yqz+sXXH5o/RP6ZuvPF4xpoxFg/qpZZaKvFwe//9993ee+/tPfFjdKyUN0b32PZWSSftF4FaCDAY0r63GIjHwAYGR/LjGdvVhO84orJIREAEREAEREAEREAEREAERKCrEYg2yBLG0uZbIWzpOuus49Zff3230korOQwHyJtvvpmENw0BYkig0x7BOEUoyA022MCHC+o3PrQkQqcNIXmzJKZuyovNn6VTI/YRMvTUU0/1VWEsOOuss7zRG48wRk8jhHM66qij/Hr6T2z+dHl5tsuumw6K0AMsjy5508bqfsYZZ7i33nrLV8vIb7zVGKyAp4iFKx42bJgP/ZhXt2rpY3THc5378vbbb08GAJi+1eot43gst9j8MecQUzfc99lnn8Q4yPOR9kGbwSvt0UcfdQcffLCbd955Y1SsmPfWW291eCEghJDEOMvgGzxQGUQzdOhQR5i8rLbQbN3RmXDKeMoSvYEwu7xH8OQj8gICPzylsoTwxhhsMSaRj9DHf/vb39zyyy/vk2PEYoACERZaSS666CL/3CdMM8I8r+EgpVbStZoujXy2V9OlKx+Puc/xUDIPq1VWWcWHseZ9duONN/of4ewR7jXun7Il5vka806MPY/YumPzx+gfUzeDWUaMGOGr5/8D7nE8+a+66ir/bmEgIcLztdL3q09Q8E+M7lQZ094KqqxsIpAQsMGc/N934oknuoEDB/roJEQowaO/K8qFF17YFU9L5yQCIiACIiACIiACIiACItDNCUQZZPE0ooMDoeO3f//+fsk2HXFmVGXbDFGsmzAHkwn/UDL3J4ZZOmoIc2xeWMxXaeGVLH1s3bH5TY9mLBkNbaGUBg0a5NZcc03vjYIXF6HezBOMcI8Yw9MSmz9dXp7tMuvm3M4//3xfPYMA6i0xutNpfffdd3sVuTdOO+0016dPH7+NR9HGG2+cqG8dlsmOElZidKd6a2/MUYzR57zzzitBq+pFxHKLzV9dw8opYuu+7777/HyM1LDaaqv5zmvmZLSBLsyZRQf2AQccUFmJiCMWKg7ve7yKNttsMz9vLUWiA22Bucyy5ohspu4rr7yy9xghXC/rZhRCZ7yNQ08SDMyh8B7Dg4v5UZl/jTlXjTdzyJ5zzjl+/lTyfPTRR4m3e1hGM9ftPuVdsPPOO/vzwPuss0mjn+2djU+Z+ha9z2lrzBuL8M2BJ33oSc69Q1hwE+Y8LFNin6+x78SYc4mtOzZ/s3RncIzJpptu6qcksW0GjvAuYz5IhPmIucZlSgy32PZW5nmorO5JgHmXEf5fDqOkdGUa9957r38WdOVz1LmJgAiIgAiIgAiIgAiIgAh0PwJRBlmMsYxkR5j3iY57E8IqhcZAwpDZnJOWJjTIzj777LbbLwmBF84pG6YlQWzdsfnbKNvADTpB6VRCMF4zf2coGMrsmrAfT5VQYvOHZeVdL7Nuyjr88MO9BzWecBis6imxut91111JqDHmRgvn0yMMHp6PJnRApOd8smNFlrG6085WXXVVd+WVV3qvyN/+9re+7RXRJW+eWG6x+fPqG6aPrdsMJQxMYaCFGQbDOuq1Tqg4wskja6+9tg8pmaeuZuqOF2ulOW05B8Jum7zyyiu26pd4AvNMxTCbJXjXEv3B5OWXX7bVllj+5je/cXvuuac3xOJdjadvXiHs8RVXXOG9s9ddd123xx57+Hu/bONIJb1in+1jxozxg0Y4fzy4t956a3f88cf7OYUr1VnG/jK4ce7Mo3fSSSe5HXfc0bdVBl3wrsNLu2yJuc/5nrOBcrzPstpaeB8y/3iZEvN8jX0nxpxHbN2x+Zup++eff55Uz1zcacEoawN8OE8b8JlOV2Q7lltMeyuir/KIAO8CvLLtx/zFCIPBbJ8t6xGBoJlXgLD3CPctg0CbJfwvxjQtDOTje2iXXXZxDPYL/89ulm6qVwREQAREQAREQAREQAREoPMS6BmjOp6rJjaq3bYJ84gXqgnGVcLoWjo6d62Dd6qppmpjzGXOWEKbhWL/iNq+mLopIza/6dHoJfPDYtxGCFWKl5wJxgGMZqGkO3Fj84dl510vs268SAlDipHq0EMPTYxHeXWqNX2s7uF1sLCnVjeeReE8oHTsM28SYY3LkFjdMciee+65ZaiSu4xYbrH5cyscZIipm/aAhzvCgAOiBzRSHn744aS6LbbYIlmvZaXZulfTkQ4+E5vD2bZrWcbmr6WOomnwAI4R3rO77babC70ZCQnPvLwMFGlEiOaYZzuDlQhLbd8WxoJ3BWFRt99+e29oLjuMcxncMFgecsgh7ebOZGAbYcLpFN5uu+384Aw7r9hlzH3O4AW+P/iWgjf3Be+KUEIDHIP2ypSY52vsOzHmPGLrjs3fTN3DNhB+84Q6hW2GASZlSSy3mPZW1jmonO5FgEEAWYZWDLLpUL4YCxns2VWECAtMg/Tggw/6sOYMNJtpppkaenoMLGeOdKboMOF7iMgqvDuZC9siUtlxLUVABERABERABERABERABESgFgJRBtmwc7Z3795JfRgMzWiI54R1sGBoMgnzht6CdOoxRyJLDLWMTmU9TE8Z4XbeusvIb+fR6OXHH3+cVGkjiNnBaF28aFjilYJ3G+uh4Zl0sfkpo6iUVTfndPLJJ3s16GDv27dv3Q2ysbqHAwrC60ZoV4wdyIILLugNsayH6dmOkVjdY+qOzRtyKMItNn+M/jF103lsQshZyqKtEPKRsHVzzDGHH5CBN2c9QtdZ/XiKLrTQQj40qc3FypyxeDcNGDDAh6k3PW1pedluhu6mR6WlGbo5TtjlvBLOaV4kf976GpmeELNmjCVEM9eYedwxxmIUrLfEPNsvv/xyP68eOuJVjlc/nbrcO4SL5zsEz23aNJ27ZUosN3Rk/nfzOGXg2rLLLutmmWUWx3zAfBMx7UOZkRM4f7tXi9zn5IcxhmIMsiwJQ2vC9wdGcBPSlikxz9dmvhNj647NH3MNYutmcBGGfJ4pzE9OGPxwUMwTTzzhLGoB744pp5wyRt02eWN1j2lvbRTRhgjUSID7Jfz/mDnt+d+XgTDpqECLLbZYjaV2nmRMG4FBlncJ800fccQRDVXeBqLyDcy3Hs8AjOTow/cQ3xVEkJGIgAiIgAiIgAiIgAiIgAiIQF4CpRlk6WRB8Iq10aSMhp9hhhkyDbKhcTYMxcm8UXSc4mmx5JJLukcffdT/AxoaYKkn3M5bdxn5KaMZEhpYMYyYXHPNNd6YZ3O58Y8sHVBhJxRpY/NbfUWWZdV93HHH+Y5pvCfw5mqExOoeduYx0AChExvvWITOakKh4hmLhOn9jog/sbpHVB2dNeRQhFts/pgTiKmbMNYmPAvxfLT5w9hPO6FzjvueeVzL7owzQw0eCnhiEBYvFIyzGMDwnk2HU2627qGeWeuE4zUh/HYewWBAOH1kttlm8wazPPlbOS3zgdq7e4EFFvDeH/aOIUwfoXPLDjub5lH02c4zjvl9EYw4tNnQWI7BdMstt/T6Mx/yhhtuWJrXeRncTj311MQYu/rqq/sQy6Exig5g2m36fZ7ml3c75j6nrr322ssbiumcprOc5xFeWnhw4dlFtBOEgSP9+/f362X9iXm+NvOdGFt3bP4Y/rF14+HGwEFCiPMsIVrIKqus4gdOPPDAA47BLgzAZJDlYYcdFqNqu7yxuse0t3bKdPIdfIvwTEJ4R9h7opbTwjPaBunybcP/iWnP+o7Kic3fTN3z1s13Xxj14qGHHvLfgXx7HHXUUR1h8oPhGEiF2P/IloGBrBtssIHfDN8zdrzsZdFrtuiii/r3Bu8Xpt/hPT7ddNPlVi8v97ACWDG3tbVR3m+89xAiclQzyMbUTR0x+Ytyp14kpu7/L0F/RUAEREAEREAEREAEREAEKhGIMsiaURVvFAsBSNhcDE0YWflnKuwEIfyPSWhQNYMsx1966SWfhHmk6JThH0nS8s8/PwsPFFM3FcTmt/No9DLsFLJOEDpVzzzzTK8KneZ0pmO8ovMWpvyY+xCJze8LKfinjLoZLc28SgiGoEpzPRZUsWK2WN3tPqD9mkfIWWed5f/hnWKKKXwnZei5F9ZXUakaD4RlFWkzNVZTl2Sx3GLzx5xUTN1mKKF+DK4Ig1vwmqMNYRhkrkzm2KOTCuMH7agssfrpNLdnyworrOC90Yl+QMg2wtBjgMGbb+edd06qtrzsaIbuiSIZK+hL+FoE75N11lknI1X2LrwXzUjAOw/jYVcS2Jgw/6o9K9hH22PwC8/ceknMsx0D7Ndff+1VI4R9aIxlZ58+fXy436OPPtq/+2+++WY3aNCgUk4llhshEBlcgTAAAuPsJJNM0kY37vk//vGPbfaVsWH3apH7nPrx1GKaBBgQKprIHDb3NMfRm/tk/fXXZ7NUiXm+NvOdGFt3bP6Yi1BG3RtvvLF/9jJAgvfX7bff7n+mFwMSDjzwwNIGTFi5sbrHtDfToass8QzEyxnBe5DvklrljTfe8BE3LP1248Owpw2GdixrGZu/mbrH1J3FoqN9/E9eaaoLoqrUI7JKJX1irhmDizHI8j87IYL333//StVU3F+UO++3wYMHJ8ZYKlhzzTU9V55dtcxxXbRuO5mY/DHcqT+mbtNfSxEQAREQAREQAREQAREQgWwCE2Tvrm3vDz/84BPSOY3gDUHnIkL4VYyAZqhln6VnPZxflk47xOad5R9FjIqIHWM9zG/rReoOyyqanzKaIdbpTN1mjLQ58/jn20bumgGWdBYGkfXY/JRRVGLrxtBvo8KZX5V/jBslsbrbNbBrxsCDq6++2qu/7777eqNWeM3C+mLPMSzL6s/TZmLrj8kfyy02f7N0//LLL9tUTbSAv/71r+6EE07wXtWsY1BEmJv7oosuapM+diNdP0ZZQsZhkDz//PPdkCFDkmczdZvHC/Wm8zZa90rnzoCHE0880R/G2Gje6ZXSh/sxPmMkMA9RjGNpo1+YvjOu03mHECIxq4Od5234Pi/zHGOf7RZmGZ3oRGXAgv0ef/xxx8/mryeNhUVlPVZiuTGIDa9ABONE2hgbq19H+dP3ap773Mo977zzkikEbJ8tGUR39tlnu3D+TTsWu4x5tjfznRhbd2z+GO5l1P322287PO4rGTPuv/9+d8EFFyQGvxh9w7yxuse0t1APrYuACNROgP/16E9ACHNedtj+jjThGzvrfcw0OQiRICQiIAIiIAIiIAIiIAIiIAIiUIRAlEHWRjVjXKXD+umnn/Ydi4QUmn322b0+ZjhlI/zHxvKyn/zhvLOE3zRDbGi4DfPYepG6qTM2P2U0Q8L5culgIiQVc0sieP+YwY1QRSYW6pXt2PxWZpFlbN3mUYpRAC+oRkqs7pYfwwP3BIYtOquXWGIJP48a5xJeM0tfxjmGZRVpM2XoULQM070ot9j8RfUmX0zd4T1LqLQjjzyyjccixnu8FS2MGuEey5Sw/oEDBzp+oRBq0vbRpszrlDRh3mboHupp6xjNdt11V3/v8W5hDurQQGfpKi0x3mIoQJjbsOw5SCvV28j9Nu87oeBtoFJYP22uSLjAsIxK67HPduZXNdlxxx3dtttum/wwcvLDk9zkzTfftNXoZSy3UPd55503Wp88BYT3at77nHpOO+00b3DFe4l5pRm0MWrUKP9dwgAG2gx8GMBg4bDz6NdR2pjnq+Wl/Ea/E2Prjs3fEdNqx2LrxoBB+GrCvvMcJrLCnXfe6QdP4GXNs5XvohtuuMF7plXTJ8/xWN0tf9FvkTy6Kq0IiMAvBBjAgfA/Ujgv+S8p6rNGZJAssfdmGPUrK532iYAIiIAIiIAIiIAIiIAIiEAlAlEhizH+0TmB4HGChywduaHnUCWDbGicpQzrlGTkadhRbmGxCGscdhLH1I2+sfkpoxmC94/Je++950aMGOE3mQ+IkcQm5vnC/EAh69j8Vn6RZUzdtC/zKKVz3Qz+RfQokidGd+rDkEHHNJ5QzHWIVxRtGk9VM6qFI7/D+oroG+YJyyrSZsKyGr0eyy02f8z5xtQdXjPCt/NLyxxzzOGYkw9PI8IXlynozvxRyFprrZVZNN4DhJtEzHOU9Wbrjg6hcB477LBDMp8lXvYrr7xymKTDde7XoUOH+jRzzz23O/fcc5MBPR1m7EQHefbYNAIdzSk3zTTTOAtzW9bpxT7b8VyzuUox8jAnYTUhNHAZUga38N6pRfcy9LYyYu5z5oq2+ZgxVvF+to5q2glz71E+ISb5DsT7lpCTZUlZz9dGvxPD52ORumPzx/CPrZvQ4vZtSgj0cJAEg9NoH3zLEmmHATAM8mR/GRKre0x7K0P/ViqDaTcsWkL4/0UtOvLda9N2kD78v64R+Zupe0zdtbBp1TSx13y11Vbz38A8FzDI5g3fX5R7tWlALLJFR9yL1m1lxuSP5R5Tt+mvpQiIgAiIgAiIgAiIgAiIQDaBKINs+I84I94RPDzCDl0zqHLMvDfT64QwQ/BaZT4iE/7ZMYNuWBfHw+28dZeR33Rs9JJOIRPmwUPo/Azn9sNb2Yx7YScUaWPzU0ZRiambf8TxnEAwjti5my7hSGXmtLvpppu8oZM5cPinMlZidKfu8DrQKYkwN1JoWDajAsfC+tiOkbAs45anzcTUHZs3llts/hj9Y+oO83ZkpMGwhEEWYxpz3IX5ytIdj8ksCY1aGBZMQh2aobvpwZJwzhhjzbi89957O+YwrFUwMmGQRTB+4wEYzq1aazmtno5nJB3jvDv4VRIz2lY6XmR/7LMd3THE8n6YbbbZ3G233VZEjUJ5yuAWfi/hrdlICe/VvPc5IcDt+2699dZLjLGh/uw//vjjfUhzvOi5RlyrMiTUPe87tZnvxNi6Y/PHsI+tmzDiJltvvbWtJkuMfJtvvrkfqMZO0pdlkI3VPaa9JSfYRVbwci4q/I8YEwkgNn8zdY+puyjvVsgXe80YtLrTTjv5aSP4P4nQxXmkmdxj647JH8s9pu4810dpRUAEREAEREAEREAERKA7EogKWRwaWIFHR/U888zThiNGApMwfbhuxxdddNE2hlb+8bLO4XT69HaeuqkvNr/p3Ohlnz592lV58MEHJ+FROYj3pRmy0+nT26TPk5/0RaWsuvGo/uSTT9r8wnC/hE/k+Mcff5wYcYvqbPlidU/nx+ORcH2hMIeySTq97S+yzCqrUde8iL5hnrTuebnF5g91ybseU3fY+WtRCLLqt4EIdFgx93ZZgsHepFL9VjfpQk+CZutueuM5Sfham+MTrwoLfWdpOloyeOG4447zSejMx3srNEJ3lLezHcMQYgYLnp2VpKNjlfLk2V/k2Y6Bb5ZZZvHVhN8beeotmrYMbv369UuqrzSvZpKg5JWY+zwchFHJmIu6dozpJcqccy/m+ZrOi56NeifG1h2bn3MtKrF1W/smlHWlgS3hIJ6wjRXV2fLF6p7On/dbxPTQUgREID+Bdddd1w+KIyffYjYYKH9JyiECIiACIiACIiACIiACIiACzScQZZBNz69CqOIw/BTGVOvAJXRO2FGPQdTC24GBsqxT1bAQEs8kXVd6O0/dlBmb3/Rq9JJOodDoTdhQ/lEN5dFHH002OR5KbP6wrLzrMXUvsMACDu+2Sr+11147UYe2QLp99tnHz2GXHIhYidGdasPrgPGMOSm5J0wwoD/55JN+k47KRRZZxA5FL2N1j1YgooBYbrH5I1SPuubh8/D111/382yndcHAYR3cGArTg0zS6fNs9+/fP0n+6quvJuvhioWZZ9+ss86aHGq27iiCJyce6AxOQRjpf8ABB/j1Wv7cc8897pBDDvEhxnlPXXrppW3OsZYyOlsaM5wRQpfBLGmhHVjkhfSxmO0ynu1m1Pz888/d6NGjY9TJnTeWm+lOxRYCPLcSBTPE3Oc2pyZVdxTGOvyOIwpKWRLzbG/mOzG27tj8Mfxj65566ql9ZW7joAAADItJREFU9QzmqfQsCduLpY/R2fLG6h7T3kwHLUVABIoRYOAVA+wQBvYQBUkiAiIgAiIgAiIgAiIgAiIgAp2VQLRB1kIHY2RKh6ILDQkYW0NjLcCYL9YknZfRr9bhT9lhWvLQ6R9Td2x+07sZyw033DCpFk+DUOjkGj58uN8FU+bjSkts/nR5ebaL1k1oX7zbKv3CeS4JcUc6PFBtnqs8OlZKW1R3yhswYICzzkXug7Tx7JprrknmY15nnXWStl1Jl7z7Y3TPW1eZ6WO5xeaPOZeYunnm2b1L2N0bb7yxnSqEZsULFJlrrrnaHY/Zseaaayahvpkn0jzurUxCjw4bNsw2HXOrmjRbd3QdNGiQn38QnbifjjzySFOv6nLUqFF+MAfniNfxkCFD2pxf1QI6aQLaK8J5X3/99e3OgmdUPaSMZ/v666+fqHb66ad7Q3qyI7Xy2muvuTJDA8dywyjK9wjCQABC+2YJRqwwikJWmrz7Yu7z8J7HkJxlYLvvvvt8KHX04hswHJSXV9d0+pjnK2U1850YW3ds/jTLPNsxdYdt5tprr21XLYM4w2dPOPiwXeICO2J0j21vBdRVFhEQgYAA969F8ggHbgRJtCoCIiACIiACIiACIiACIiACnYLAhOO9ho4sqikd73giYTBA8KohdCVGsDFjxrjnn38+6RhdbLHF2nkrMnca88cxVyyGBTqCyU9nKfOT2ZyadFaGc21SV2zdsfnRoYiUMZ8p3mjMk0rnFUZvrgH73nzzTW94MK+wlVZayW266abt1IzN367AHDvqVTdhSe+8806vCQbZ5ZZbLodWtSWN0R0jLPfHc88959v7448/7q8Z7QHD2gknnJDcK0cccYSbfvrpa1OqxlQxulMFoUAxwGEQ4IfR4MUXX/S1c26EjLZj7DSvMZ8g4k8st9j8Ear7ASgx13zmmWf29zk64PWO5zTXkcEqtPWjjjoq8ZwltC5znJYleG/jKfnKK6/4ZzNz+eHJiFccz5kDDzzQvfDCC766ZZZZxnujhnU3U3dYhJ6GRBDgXcQ7JevHednADUJkbrXVVo6w58jyyy/vl1n52Ee6dGQHn6GJfzCCjRw5MrkfaTtmLGMgCNeUexUmzNnOPYJgLMHoikGb+5trzZys3NvMnXv55Zf7dPzh3b3ddtsl2/VcqeXZzoAEdOb6MZCL9orunAPnx/fIww8/7OemPO2009yqq66aGEFjdY/lxr2GhzvznSO8DxhoxT440/GM7gwy+PLLL73usTpb/pj7nHDHGJD5/sNYzEAGWGB0pc1wDx599NHJvbTZZpu5ZZdd1qqOXsY+22PfiTEnEFt3bP5m6c63Pm0Gefrpp/292W98yG4GV3KfH3bYYUmkEAaw8Z4p45vZzjeGW2x7Mx20FIGiBBgcx//HhPUOBxcULa/V8vE/xYMPPujVmm+++dxqq63WRkW+03iG8K4JhahI9q0W7i+yzvvMBovwfyRlp4V3NQO76EfgvSwRAREQAREQAREQAREQAREQgbwEeowPKTwub6YwPUZUOnyzQhxaOsKvMt9Slrz//vu+89Tmik2nwQhBqLC0RyHpYuuOzZ/WtZbtsjxE6HQfPHhwO8810wHedKDbaGLbb8vY/FZOkWU96qaTb4899vDq7LTTTm7fffctolrVPDG602m96667OoyxlYR57LbZZptKh6P2x+iOAYcO9Vpkhx12cPvvv38tSWtKE8stNn9NSlZIFFv3iBEj3OGHH97hXMi///3vvUG/ggqFd9MxRdhfDHeVhAE0Q4cOzfQgbZbuhLV75JFHKqncbj9p7TnJgImsQSztMv28g7QYxltJuP/CsPUd6cZ9Hb5buZbHHHNMMjgkzIvxjvc0700GXDzwwAPh4bqt1/psf/vtt93uu+/uB3mZMnSY0oGbFgaXlBkWvgxucK/mhUwn/PHHH58+najtmPsc4z73QDifXxZzDP8wog2VKbHP15h3Yux5xNYdmz9G/5i6mUrijjvuaFN9us2wfe6557pVVlmlTboyNmJ0j21vZeivMrovAby0P/jgA7fkkku6q6++usuBuO666/ygYk6s0nctg33gYIPMSFvm/xwYWtdbbz2Kdfvtt18SJtnv+PmPPcN4TvEOlIiACIiACIiACIiACIiACIhAXgJRIYupjLC4K6ywgsMjKh12mI5evBUrGWPJz0hfvCYIDRkKo9HxEMHLM+wwDtPE1h2bP9Sl0et4+NBhlfbOYgQxo3rxoDUjQ5Zusfmzyqx1Xz3qpr2YhOu2r6xljO54PV144YU+hGq6TdPW8SaqlzGW84/RPQ/T9HMgln0st9j8MfrH1r3RRhv5+5zna1p4ZmIMxLu6HoIHHB4ZhANPt1fq4zlz6623ZhpjOd4s3fO2v7Bth+ucQzXJW1e18so4XqtOdCbyC2WLLbZwZ511lvfGDvczj+4ZZ5zh3+fsr7WOsIyi6+E1CdfT5TGtAaG9GZBjXnVpYyyetBht8Z4tU8rghncgcxX3G+8xmCVLLbVUEsY863jRfTH3OV5MPANWX331pPqQOc8o5nO/6qqrSjfGUmHs8zXmnZiccMGV2Lpj8xdU22eLqfuUU07x761wcGLYZmjnhC2uhzEW5WN0j21vMcyVVwTsvdvRe7AzUwrPy841fT68U7beeus2uyulbZOoxo3wm6hSuaanLWssWslEQAREQAREQAREQAREQAREICEQ7SGblDR+Be8Zwgx/8803fr7MtJE1TJu1buGPJ554Yp+/0j9DWXlj647Nn6VT1r6wEyrreJF9472cfQhKOs3xRMkynnRUbmz+jsqudqyZdVfTrdrxGN3Hjh3rCC2Nh/iCCy7oBzRUq6/M4zG6l6lH3rJiucXmz6tvmD62bp6thAkmTC6DXBiMkecZGeqSdx2vSMLLEyKdcNoYtoheUKs0U/dadVS6XwhgICGE6OjRo/10AYSiDTsqf0nZmmvojycR3i58jzDtAYMa+vTpU1eFy+LGFA7ca4RgZmAVRtqyw9hngYi5z/FYIsw54aExXGEgh3nZXrFZerMv9vnazHdibN2x+SsxrWV/0bppa3z/0GZ4PxByn5DCDBBolBTVHf1i21ujzlH1iIAIiIAIiIAIiIAIiIAIiIAIiIAItBaBUg2yrXVqralNPQyyrXmm0koEREAEREAEREAEREAEREAEREAEREAEREAEREAEREAEREAEREAEROCXOK9iIQIiIAIiIAIiIAIiIAIiIAIiIAIiIAIiIAIiIAIiIAIiIAIiIAIiIAIiUCoBGWRLxanCREAEREAEREAEREAEREAEREAEREAEREAEREAEREAEREAEREAEREAEROAXAj2ffPLJX7a0JgIiIAIiIAIiIAIiIAIiIAIiIAIiIAIiIAIiIAIiIAIiIAIiIAIiIAIiUBoBzSFbGkoVJAIiIAIiIAIiIAIiIAIiIAIiIAIiIAIiIAIiIAIiIAIiIAIiIAIiIAJtCfTYa6+9xrXdpS0REAEREAEREAEREAEREAEREAEREAEREAEREAEREAEREAEREAEREAEREIEyCPT46KOPZJAtg6TKEAEREAEREAEREAEREAEREAEREAEREAEREAEREAEREAEREAEREAEREIEUgZ7jxskem2KiTREQAREQAREQAREQAREQAREQAREQAREQAREQAREQAREQAREQAREQAREohYAMsqVgVCEiIAIiIAIiIAIiIAIiIAIiIAIiIAIiIAIiIAIiIAIiIAIiIAIiIAIi0J6ADLLtmWiPCIiACIiACIiACIiACIiACIiACIiACIiACIiACIiACIiACIiACIiACJRCQAbZUjCqEBEQAREQAREQAREQAREQAREQAREQAREQAREQAREQAREQAREQAREQARFoT0AG2fZMtEcEREAEREAEREAEREAEREAEREAEREAEREAEREAEREAEREAEREAEREAESiEgg2wpGFWICIiACIiACIiACIiACIiACIiACIiACIiACIiACIiACIiACIiACIiACLQnIINseybaIwIiIAIiIAIiIAIiIAIiIAIiIAIiIAIiIAIiIAIiIAIiIAIiIAIiIAKlEJBBthSMKkQEREAEREAEREAEREAEREAEREAEREAEREAEREAEREAEREAEREAEREAE2hOQQbY9E+0RAREQAREQAREQAREQAREQAREQAREQAREQAREQAREQAREQAREQAREQgVIIyCBbCkYVIgIiIAIiIAIiIAIiIAIiIAIiIAIiIAIiIAIiIAIiIAIiIAIiIAIiIALtCfwfcLlb8h65huQAAAAASUVORK5CYII=;" vertex="1" parent="1">
          <mxGeometry x="782" y="2581.996666666667" width="1892" height="578" as="geometry" />
        </mxCell>
        <mxCell id="-HrjzHPNAKrxcW8g52i8-14" value="" style="rounded=0;whiteSpace=wrap;html=1;strokeColor=none;fillColor=#ffffff;" parent="1" vertex="1">
          <mxGeometry x="962" y="2703" width="513" height="36" as="geometry" />
        </mxCell>
        <mxCell id="-HrjzHPNAKrxcW8g52i8-18" value="&lt;font style=&quot;font-size: 30px;&quot;&gt;bbb.com&lt;/font&gt;" style="text;html=1;strokeColor=none;fillColor=none;align=center;verticalAlign=middle;whiteSpace=wrap;rounded=0;" parent="1" vertex="1">
          <mxGeometry x="986" y="2707" width="60" height="30" as="geometry" />
        </mxCell>
        <mxCell id="QCnVO7f_2V84c9tmiGE7-8" value="&lt;font color=&quot;#ea6b66&quot;&gt;&lt;span style=&quot;font-size: 37px;&quot;&gt;&lt;b&gt;正常请求时的HTTP header&lt;br&gt;&lt;/b&gt;&lt;/span&gt;&lt;/font&gt;" style="text;html=1;strokeColor=none;fillColor=none;align=center;verticalAlign=middle;whiteSpace=wrap;rounded=0;labelBackgroundColor=default;" parent="1" vertex="1">
          <mxGeometry x="1490" y="2797" width="308" height="63" as="geometry" />
        </mxCell>
        <mxCell id="HFhVBa8pgToSCw-MW2Z3-3" value="" style="rounded=0;whiteSpace=wrap;html=1;strokeColor=none;fillColor=#71b7fd;" vertex="1" parent="1">
          <mxGeometry x="947" y="2667" width="388" height="36" as="geometry" />
        </mxCell>
        <mxCell id="HFhVBa8pgToSCw-MW2Z3-4" value="&lt;font style=&quot;font-size: 30px;&quot;&gt;bbb.com&lt;/font&gt;" style="text;html=1;strokeColor=none;fillColor=none;align=center;verticalAlign=middle;whiteSpace=wrap;rounded=0;" vertex="1" parent="1">
          <mxGeometry x="981" y="2667" width="60" height="30" as="geometry" />
        </mxCell>
        <mxCell id="HFhVBa8pgToSCw-MW2Z3-5" value="" style="rounded=0;whiteSpace=wrap;html=1;strokeColor=none;fillColor=#ffffff;" vertex="1" parent="1">
          <mxGeometry x="1274" y="2918" width="878" height="36" as="geometry" />
        </mxCell>
        <mxCell id="HFhVBa8pgToSCw-MW2Z3-6" value="&lt;font color=&quot;#0d8cea&quot; style=&quot;font-size: 30px;&quot;&gt;bbb.com&lt;/font&gt;" style="text;html=1;strokeColor=none;fillColor=none;align=center;verticalAlign=middle;whiteSpace=wrap;rounded=0;" vertex="1" parent="1">
          <mxGeometry x="1309" y="2921" width="60" height="30" as="geometry" />
        </mxCell>
      </root>
    </mxGraphModel>
  </diagram>
</mxfile>
